  0
SECTION
  2
HEADER
  9
$ACADVER
  1
AC1014
  9
$HANDSEED
  5
FFFF
  9
$MEASUREMENT
 70
     1
  0
ENDSEC
  0
SECTION
  2
TABLES
  0
TABLE
  2
VPORT
  5
8
330
0
100
AcDbSymbolTable
 70
     4
  0
VPORT
  5
2E
330
8
100
AcDbSymbolTableRecord
100
AcDbViewportTableRecord
  2
*ACTIVE
 70
     0
 10
0.0
 20
0.0
 11
1.0
 21
1.0
 12
210.0
 22
148.5
 13
0.0
 23
0.0
 14
10.0
 24
10.0
 15
10.0
 25
10.0
 16
0.0
 26
0.0
 36
1.0
 17
0.0
 27
0.0
 37
0.0
 40
341.0
 41
1.24
 42
50.0
 43
0.0
 44
0.0
 50
0.0
 51
0.0
 71
     0
 72
   100
 73
     1
 74
     3
 75
     0
 76
     0
 77
     0
 78
     0
  0
ENDTAB
  0
TABLE
  2
LTYPE
  5
5
330
0
100
AcDbSymbolTable
 70
     1
  0
LTYPE
  5
14
330
5
100
AcDbSymbolTableRecord
100
AcDbLinetypeTableRecord
  2
BYBLOCK
 70
     0
  3

 72
    65
 73
     0
 40
0.0
  0
LTYPE
  5
15
330
5
100
AcDbSymbolTableRecord
100
AcDbLinetypeTableRecord
  2
BYLAYER
 70
     0
  3

 72
    65
 73
     0
 40
0.0
  0
LTYPE
  5
16
330
5
100
AcDbSymbolTableRecord
100
AcDbLinetypeTableRecord
  2
CONTINUOUS
 70
     0
  3
Solid line
 72
    65
 73
     0
 40
0.0
  0
ENDTAB
  0
TABLE
  2
LAYER
  5
2
100
AcDbSymbolTable
 70
1
  0
LAYER
  5
50
100
AcDbSymbolTableRecord
100
AcDbLayerTableRecord
  2
0
 70
0
  6
CONTINUOUS
  0
ENDTAB
  0
TABLE
  2
STYLE
  5
3
330
0
100
AcDbSymbolTable
 70
     1
  0
STYLE
  5
11
330
3
100
AcDbSymbolTableRecord
100
AcDbTextStyleTableRecord
  2
STANDARD
 70
     0
 40
0.0
 41
1.0
 50
0.0
 71
     0
 42
2.5
  3
txt
  4

  0
ENDTAB
  0
TABLE
  2
VIEW
  5
6
330
0
100
AcDbSymbolTable
 70
     0
  0
ENDTAB
  0
TABLE
  2
UCS
  5
7
330
0
100
AcDbSymbolTable
 70
     0
  0
ENDTAB
  0
TABLE
  2
APPID
  5
9
330
0
100
AcDbSymbolTable
 70
     2
  0
APPID
  5
12
330
9
100
AcDbSymbolTableRecord
100
AcDbRegAppTableRecord
  2
ACAD
 70
     0
  0
ENDTAB
  0
TABLE
  2
DIMSTYLE
  5
A
330
0
100
AcDbSymbolTable
 70
     1
  0
DIMSTYLE
105
27
330
A
100
AcDbSymbolTableRecord
100
AcDbDimStyleTableRecord
  2
ISO-25
 70
     0
  3

  4

  5

  6

  7

 40
1.0
 41
2.5
 42
0.625
 43
3.75
 44
1.25
 45
0.0
 46
0.0
 47
0.0
 48
0.0
140
2.5
141
2.5
142
0.0
143
0.03937007874016
144
1.0
145
0.0
146
1.0
147
0.625
 71
     0
 72
     0
 73
     0
 74
     0
 75
     0
 76
     0
 77
     1
 78
     8
170
     0
171
     3
172
     1
173
     0
174
     0
175
     0
176
     0
177
     0
178
     0
270
     2
271
     2
272
     2
273
     2
274
     3
340
11
275
     0
280
     0
281
     0
282
     0
283
     0
284
     8
285
     0
286
     0
287
     3
288
     0
  0
ENDTAB
  0
TABLE
  2
BLOCK_RECORD
  5
1
330
0
100
AcDbSymbolTable
 70
     1
  0
BLOCK_RECORD
  5
1F
330
1
100
AcDbSymbolTableRecord
100
AcDbBlockTableRecord
  2
*MODEL_SPACE
  0
BLOCK_RECORD
  5
1B
330
1
100
AcDbSymbolTableRecord
100
AcDbBlockTableRecord
  2
*PAPER_SPACE
  0
ENDTAB
  0
ENDSEC
  0
SECTION
  2
BLOCKS
  0
BLOCK
  5
20
330
1F
100
AcDbEntity
  8
0
100
AcDbBlockBegin
  2
*MODEL_SPACE
 70
     0
 10
0.0
 20
0.0
 30
0.0
  3
*MODEL_SPACE
  1

  0
ENDBLK
  5
21
330
1F
100
AcDbEntity
  8
0
100
AcDbBlockEnd
  0
BLOCK
  5
1C
330
1B
100
AcDbEntity
 67
     1
  8
0
100
AcDbBlockBegin
  2
*PAPER_SPACE
  1

  0
ENDBLK
  5
1D
330
1B
100
AcDbEntity
 67
     1
  8
0
100
AcDbBlockEnd
  0
ENDSEC
  0
SECTION
  2
ENTITIES
  0
SPLINE
  5
100
100
AcDbEntity
  8
0
 62
1
100
AcDbSpline
 70
8
 71
3
 72
8
 73
4
 74
0
 40
0
 40
0
 40
0
 40
0
 40
1
 40
1
 40
1
 40
1
 10
71.213923
 20
515.315115
 30
0.0
 10
96.534413
 20
515.311431
 30
0.0
 10
119.933086
 20
528.817636
 30
0.0
 10
132.594395
 20
550.745210
 30
0.0
  0
SPLINE
  5
101
100
AcDbEntity
  8
0
 62
1
100
AcDbSpline
 70
8
 71
3
 72
8
 73
4
 74
0
 40
0
 40
0
 40
0
 40
0
 40
1
 40
1
 40
1
 40
1
 10
132.594395
 20
550.745210
 30
0.0
 10
145.255703
 20
572.672783
 30
0.0
 10
145.255703
 20
599.689732
 30
0.0
 10
132.594395
 20
621.617305
 30
0.0
  0
SPLINE
  5
102
100
AcDbEntity
  8
0
 62
1
100
AcDbSpline
 70
8
 71
3
 72
8
 73
4
 74
0
 40
0
 40
0
 40
0
 40
0
 40
1
 40
1
 40
1
 40
1
 10
132.594395
 20
621.617305
 30
0.0
 10
119.933086
 20
643.544879
 30
0.0
 10
96.534413
 20
657.051084
 30
0.0
 10
71.213923
 20
657.047400
 30
0.0
  0
SPLINE
  5
103
100
AcDbEntity
  8
0
 62
1
100
AcDbSpline
 70
8
 71
3
 72
8
 73
4
 74
0
 40
0
 40
0
 40
0
 40
0
 40
1
 40
1
 40
1
 40
1
 10
71.213923
 20
657.047400
 30
0.0
 10
45.893433
 20
657.051084
 30
0.0
 10
22.494759
 20
643.544879
 30
0.0
 10
9.833451
 20
621.617305
 30
0.0
  0
SPLINE
  5
104
100
AcDbEntity
  8
0
 62
1
100
AcDbSpline
 70
8
 71
3
 72
8
 73
4
 74
0
 40
0
 40
0
 40
0
 40
0
 40
1
 40
1
 40
1
 40
1
 10
9.833451
 20
621.617305
 30
0.0
 10
-2.827858
 20
599.689732
 30
0.0
 10
-2.827858
 20
572.672783
 30
0.0
 10
9.833451
 20
550.745210
 30
0.0
  0
SPLINE
  5
105
100
AcDbEntity
  8
0
 62
1
100
AcDbSpline
 70
8
 71
3
 72
8
 73
4
 74
0
 40
0
 40
0
 40
0
 40
0
 40
1
 40
1
 40
1
 40
1
 10
9.833451
 20
550.745210
 30
0.0
 10
22.494759
 20
528.817636
 30
0.0
 10
45.893433
 20
515.311431
 30
0.0
 10
71.213923
 20
515.315115
 30
0.0
  0
SPLINE
  5
106
100
AcDbEntity
  8
0
 62
1
100
AcDbSpline
 70
8
 71
3
 72
8
 73
4
 74
0
 40
0
 40
0
 40
0
 40
0
 40
1
 40
1
 40
1
 40
1
 10
419.271890
 20
5.376863
 30
0.0
 10
444.589924
 20
5.376863
 30
0.0
 10
467.984753
 20
18.883873
 30
0.0
 10
480.643770
 20
40.809934
 30
0.0
  0
SPLINE
  5
107
100
AcDbEntity
  8
0
 62
1
100
AcDbSpline
 70
8
 71
3
 72
8
 73
4
 74
0
 40
0
 40
0
 40
0
 40
0
 40
1
 40
1
 40
1
 40
1
 10
480.643770
 20
40.809934
 30
0.0
 10
493.302787
 20
62.735995
 30
0.0
 10
493.302787
 20
89.750015
 30
0.0
 10
480.643770
 20
111.676076
 30
0.0
  0
SPLINE
  5
108
100
AcDbEntity
  8
0
 62
1
100
AcDbSpline
 70
8
 71
3
 72
8
 73
4
 74
0
 40
0
 40
0
 40
0
 40
0
 40
1
 40
1
 40
1
 40
1
 10
480.643770
 20
111.676076
 30
0.0
 10
467.984753
 20
133.602137
 30
0.0
 10
444.589924
 20
147.109148
 30
0.0
 10
419.271890
 20
147.109148
 30
0.0
  0
SPLINE
  5
109
100
AcDbEntity
  8
0
 62
1
100
AcDbSpline
 70
8
 71
3
 72
8
 73
4
 74
0
 40
0
 40
0
 40
0
 40
0
 40
1
 40
1
 40
1
 40
1
 10
419.271890
 20
147.109148
 30
0.0
 10
393.953856
 20
147.109148
 30
0.0
 10
370.559027
 20
133.602138
 30
0.0
 10
357.900009
 20
111.676077
 30
0.0
  0
SPLINE
  5
10a
100
AcDbEntity
  8
0
 62
1
100
AcDbSpline
 70
8
 71
3
 72
8
 73
4
 74
0
 40
0
 40
0
 40
0
 40
0
 40
1
 40
1
 40
1
 40
1
 10
357.900009
 20
111.676077
 30
0.0
 10
345.240992
 20
89.750016
 30
0.0
 10
345.240992
 20
62.735994
 30
0.0
 10
357.900009
 20
40.809933
 30
0.0
  0
SPLINE
  5
10b
100
AcDbEntity
  8
0
 62
1
100
AcDbSpline
 70
8
 71
3
 72
8
 73
4
 74
0
 40
0
 40
0
 40
0
 40
0
 40
1
 40
1
 40
1
 40
1
 10
357.900009
 20
40.809933
 30
0.0
 10
370.559027
 20
18.883872
 30
0.0
 10
393.953856
 20
5.376862
 30
0.0
 10
419.271890
 20
5.376863
 30
0.0
  0
LWPOLYLINE
  5
10c
100
AcDbEntity
  8
0
 62
1
100
AcDbPolyline
 90
1
 70
1
 10
71.213923
 20
515.315115
 30
0.0
  0
SPLINE
  5
10d
100
AcDbEntity
  8
0
 62
1
100
AcDbSpline
 70
8
 71
3
 72
8
 73
4
 74
0
 40
0
 40
0
 40
0
 40
0
 40
1
 40
1
 40
1
 40
1
 10
417.135020
 20
167.778833
 30
0.0
 10
442.453054
 20
167.778833
 30
0.0
 10
465.847883
 20
181.285843
 30
0.0
 10
478.506900
 20
203.211904
 30
0.0
  0
SPLINE
  5
10e
100
AcDbEntity
  8
0
 62
1
100
AcDbSpline
 70
8
 71
3
 72
8
 73
4
 74
0
 40
0
 40
0
 40
0
 40
0
 40
1
 40
1
 40
1
 40
1
 10
478.506900
 20
203.211904
 30
0.0
 10
491.165917
 20
225.137965
 30
0.0
 10
491.165917
 20
252.151985
 30
0.0
 10
478.506900
 20
274.078046
 30
0.0
  0
SPLINE
  5
10f
100
AcDbEntity
  8
0
 62
1
100
AcDbSpline
 70
8
 71
3
 72
8
 73
4
 74
0
 40
0
 40
0
 40
0
 40
0
 40
1
 40
1
 40
1
 40
1
 10
478.506900
 20
274.078046
 30
0.0
 10
465.847883
 20
296.004107
 30
0.0
 10
442.453054
 20
309.511118
 30
0.0
 10
417.135020
 20
309.511118
 30
0.0
  0
SPLINE
  5
110
100
AcDbEntity
  8
0
 62
1
100
AcDbSpline
 70
8
 71
3
 72
8
 73
4
 74
0
 40
0
 40
0
 40
0
 40
0
 40
1
 40
1
 40
1
 40
1
 10
417.135020
 20
309.511118
 30
0.0
 10
391.816986
 20
309.511118
 30
0.0
 10
368.422158
 20
296.004107
 30
0.0
 10
355.763141
 20
274.078046
 30
0.0
  0
SPLINE
  5
111
100
AcDbEntity
  8
0
 62
1
100
AcDbSpline
 70
8
 71
3
 72
8
 73
4
 74
0
 40
0
 40
0
 40
0
 40
0
 40
1
 40
1
 40
1
 40
1
 10
355.763141
 20
274.078046
 30
0.0
 10
343.104123
 20
252.151985
 30
0.0
 10
343.104123
 20
225.137965
 30
0.0
 10
355.763141
 20
203.211904
 30
0.0
  0
SPLINE
  5
112
100
AcDbEntity
  8
0
 62
1
100
AcDbSpline
 70
8
 71
3
 72
8
 73
4
 74
0
 40
0
 40
0
 40
0
 40
0
 40
1
 40
1
 40
1
 40
1
 10
355.763141
 20
203.211904
 30
0.0
 10
368.422158
 20
181.285843
 30
0.0
 10
391.816986
 20
167.778833
 30
0.0
 10
417.135020
 20
167.778833
 30
0.0
  0
LWPOLYLINE
  5
113
100
AcDbEntity
  8
0
 62
1
100
AcDbPolyline
 90
1
 70
1
 10
419.271890
 20
5.376863
 30
0.0
  0
SPLINE
  5
114
100
AcDbEntity
  8
0
 62
1
100
AcDbSpline
 70
8
 71
3
 72
8
 73
4
 74
0
 40
0
 40
0
 40
0
 40
0
 40
1
 40
1
 40
1
 40
1
 10
73.099265
 20
349.412618
 30
0.0
 10
98.419036
 20
349.410013
 30
0.0
 10
121.816583
 20
362.916454
 30
0.0
 10
134.477220
 20
384.843585
 30
0.0
  0
SPLINE
  5
115
100
AcDbEntity
  8
0
 62
1
100
AcDbSpline
 70
8
 71
3
 72
8
 73
4
 74
0
 40
0
 40
0
 40
0
 40
0
 40
1
 40
1
 40
1
 40
1
 10
134.477220
 20
384.843585
 30
0.0
 10
147.137857
 20
406.770715
 30
0.0
 10
147.137857
 20
433.786806
 30
0.0
 10
134.477220
 20
455.713936
 30
0.0
  0
SPLINE
  5
116
100
AcDbEntity
  8
0
 62
1
100
AcDbSpline
 70
8
 71
3
 72
8
 73
4
 74
0
 40
0
 40
0
 40
0
 40
0
 40
1
 40
1
 40
1
 40
1
 10
134.477220
 20
455.713936
 30
0.0
 10
121.816583
 20
477.641067
 30
0.0
 10
98.419036
 20
491.147507
 30
0.0
 10
73.099265
 20
491.144903
 30
0.0
  0
SPLINE
  5
117
100
AcDbEntity
  8
0
 62
1
100
AcDbSpline
 70
8
 71
3
 72
8
 73
4
 74
0
 40
0
 40
0
 40
0
 40
0
 40
1
 40
1
 40
1
 40
1
 10
73.099265
 20
491.144903
 30
0.0
 10
47.779495
 20
491.147507
 30
0.0
 10
24.381948
 20
477.641067
 30
0.0
 10
11.721310
 20
455.713936
 30
0.0
  0
SPLINE
  5
118
100
AcDbEntity
  8
0
 62
1
100
AcDbSpline
 70
8
 71
3
 72
8
 73
4
 74
0
 40
0
 40
0
 40
0
 40
0
 40
1
 40
1
 40
1
 40
1
 10
11.721310
 20
455.713936
 30
0.0
 10
-0.939327
 20
433.786806
 30
0.0
 10
-0.939327
 20
406.770715
 30
0.0
 10
11.721310
 20
384.843585
 30
0.0
  0
SPLINE
  5
119
100
AcDbEntity
  8
0
 62
1
100
AcDbSpline
 70
8
 71
3
 72
8
 73
4
 74
0
 40
0
 40
0
 40
0
 40
0
 40
1
 40
1
 40
1
 40
1
 10
11.721310
 20
384.843585
 30
0.0
 10
24.381948
 20
362.916454
 30
0.0
 10
47.779495
 20
349.410013
 30
0.0
 10
73.099265
 20
349.412618
 30
0.0
  0
LWPOLYLINE
  5
11a
100
AcDbEntity
  8
0
 62
1
100
AcDbPolyline
 90
1
 70
1
 10
417.135020
 20
167.778833
 30
0.0
  0
SPLINE
  5
11b
100
AcDbEntity
  8
0
 62
1
100
AcDbSpline
 70
8
 71
3
 72
8
 73
4
 74
0
 40
0
 40
0
 40
0
 40
0
 40
1
 40
1
 40
1
 40
1
 10
233.364365
 20
9.650595
 30
0.0
 10
258.682399
 20
9.650595
 30
0.0
 10
282.077228
 20
23.157605
 30
0.0
 10
294.736245
 20
45.083666
 30
0.0
  0
SPLINE
  5
11c
100
AcDbEntity
  8
0
 62
1
100
AcDbSpline
 70
8
 71
3
 72
8
 73
4
 74
0
 40
0
 40
0
 40
0
 40
0
 40
1
 40
1
 40
1
 40
1
 10
294.736245
 20
45.083666
 30
0.0
 10
307.395262
 20
67.009727
 30
0.0
 10
307.395262
 20
94.023748
 30
0.0
 10
294.736245
 20
115.949809
 30
0.0
  0
SPLINE
  5
11d
100
AcDbEntity
  8
0
 62
1
100
AcDbSpline
 70
8
 71
3
 72
8
 73
4
 74
0
 40
0
 40
0
 40
0
 40
0
 40
1
 40
1
 40
1
 40
1
 10
294.736245
 20
115.949809
 30
0.0
 10
282.077228
 20
137.875870
 30
0.0
 10
258.682399
 20
151.382880
 30
0.0
 10
233.364365
 20
151.382880
 30
0.0
  0
SPLINE
  5
11e
100
AcDbEntity
  8
0
 62
1
100
AcDbSpline
 70
8
 71
3
 72
8
 73
4
 74
0
 40
0
 40
0
 40
0
 40
0
 40
1
 40
1
 40
1
 40
1
 10
233.364365
 20
151.382880
 30
0.0
 10
208.046331
 20
151.382880
 30
0.0
 10
184.651503
 20
137.875870
 30
0.0
 10
171.992486
 20
115.949809
 30
0.0
  0
SPLINE
  5
11f
100
AcDbEntity
  8
0
 62
1
100
AcDbSpline
 70
8
 71
3
 72
8
 73
4
 74
0
 40
0
 40
0
 40
0
 40
0
 40
1
 40
1
 40
1
 40
1
 10
171.992486
 20
115.949809
 30
0.0
 10
159.333468
 20
94.023748
 30
0.0
 10
159.333468
 20
67.009727
 30
0.0
 10
171.992486
 20
45.083666
 30
0.0
  0
SPLINE
  5
120
100
AcDbEntity
  8
0
 62
1
100
AcDbSpline
 70
8
 71
3
 72
8
 73
4
 74
0
 40
0
 40
0
 40
0
 40
0
 40
1
 40
1
 40
1
 40
1
 10
171.992486
 20
45.083666
 30
0.0
 10
184.651503
 20
23.157605
 30
0.0
 10
208.046331
 20
9.650595
 30
0.0
 10
233.364365
 20
9.650595
 30
0.0
  0
LWPOLYLINE
  5
121
100
AcDbEntity
  8
0
 62
1
100
AcDbPolyline
 90
1
 70
1
 10
73.099265
 20
349.412618
 30
0.0
  0
SPLINE
  5
122
100
AcDbEntity
  8
0
 62
1
100
AcDbSpline
 70
8
 71
3
 72
8
 73
4
 74
0
 40
0
 40
0
 40
0
 40
0
 40
1
 40
1
 40
1
 40
1
 10
235.501235
 20
347.275748
 30
0.0
 10
260.821006
 20
347.273143
 30
0.0
 10
284.218553
 20
360.779584
 30
0.0
 10
296.879190
 20
382.706715
 30
0.0
  0
SPLINE
  5
123
100
AcDbEntity
  8
0
 62
1
100
AcDbSpline
 70
8
 71
3
 72
8
 73
4
 74
0
 40
0
 40
0
 40
0
 40
0
 40
1
 40
1
 40
1
 40
1
 10
296.879190
 20
382.706715
 30
0.0
 10
309.539827
 20
404.633845
 30
0.0
 10
309.539827
 20
431.649936
 30
0.0
 10
296.879190
 20
453.577066
 30
0.0
  0
SPLINE
  5
124
100
AcDbEntity
  8
0
 62
1
100
AcDbSpline
 70
8
 71
3
 72
8
 73
4
 74
0
 40
0
 40
0
 40
0
 40
0
 40
1
 40
1
 40
1
 40
1
 10
296.879190
 20
453.577066
 30
0.0
 10
284.218553
 20
475.504197
 30
0.0
 10
260.821006
 20
489.010637
 30
0.0
 10
235.501235
 20
489.008033
 30
0.0
  0
SPLINE
  5
125
100
AcDbEntity
  8
0
 62
1
100
AcDbSpline
 70
8
 71
3
 72
8
 73
4
 74
0
 40
0
 40
0
 40
0
 40
0
 40
1
 40
1
 40
1
 40
1
 10
235.501235
 20
489.008033
 30
0.0
 10
210.181465
 20
489.010637
 30
0.0
 10
186.783918
 20
475.504197
 30
0.0
 10
174.123280
 20
453.577066
 30
0.0
  0
SPLINE
  5
126
100
AcDbEntity
  8
0
 62
1
100
AcDbSpline
 70
8
 71
3
 72
8
 73
4
 74
0
 40
0
 40
0
 40
0
 40
0
 40
1
 40
1
 40
1
 40
1
 10
174.123280
 20
453.577066
 30
0.0
 10
161.462643
 20
431.649936
 30
0.0
 10
161.462643
 20
404.633845
 30
0.0
 10
174.123280
 20
382.706715
 30
0.0
  0
SPLINE
  5
127
100
AcDbEntity
  8
0
 62
1
100
AcDbSpline
 70
8
 71
3
 72
8
 73
4
 74
0
 40
0
 40
0
 40
0
 40
0
 40
1
 40
1
 40
1
 40
1
 10
174.123280
 20
382.706715
 30
0.0
 10
186.783918
 20
360.779584
 30
0.0
 10
210.181465
 20
347.273143
 30
0.0
 10
235.501235
 20
347.275748
 30
0.0
  0
LWPOLYLINE
  5
128
100
AcDbEntity
  8
0
 62
1
100
AcDbPolyline
 90
1
 70
1
 10
233.364365
 20
9.650595
 30
0.0
  0
SPLINE
  5
129
100
AcDbEntity
  8
0
 62
1
100
AcDbSpline
 70
8
 71
3
 72
8
 73
4
 74
0
 40
0
 40
0
 40
0
 40
0
 40
1
 40
1
 40
1
 40
1
 10
234.558568
 20
178.758398
 30
0.0
 10
259.876602
 20
178.758398
 30
0.0
 10
283.271430
 20
192.265408
 30
0.0
 10
295.930447
 20
214.191469
 30
0.0
  0
SPLINE
  5
12a
100
AcDbEntity
  8
0
 62
1
100
AcDbSpline
 70
8
 71
3
 72
8
 73
4
 74
0
 40
0
 40
0
 40
0
 40
0
 40
1
 40
1
 40
1
 40
1
 10
295.930447
 20
214.191469
 30
0.0
 10
308.589465
 20
236.117530
 30
0.0
 10
308.589465
 20
263.131550
 30
0.0
 10
295.930447
 20
285.057611
 30
0.0
  0
SPLINE
  5
12b
100
AcDbEntity
  8
0
 62
1
100
AcDbSpline
 70
8
 71
3
 72
8
 73
4
 74
0
 40
0
 40
0
 40
0
 40
0
 40
1
 40
1
 40
1
 40
1
 10
295.930447
 20
285.057611
 30
0.0
 10
283.271430
 20
306.983672
 30
0.0
 10
259.876602
 20
320.490683
 30
0.0
 10
234.558568
 20
320.490683
 30
0.0
  0
SPLINE
  5
12c
100
AcDbEntity
  8
0
 62
1
100
AcDbSpline
 70
8
 71
3
 72
8
 73
4
 74
0
 40
0
 40
0
 40
0
 40
0
 40
1
 40
1
 40
1
 40
1
 10
234.558568
 20
320.490683
 30
0.0
 10
209.240534
 20
320.490683
 30
0.0
 10
185.845705
 20
306.983672
 30
0.0
 10
173.186688
 20
285.057611
 30
0.0
  0
SPLINE
  5
12d
100
AcDbEntity
  8
0
 62
1
100
AcDbSpline
 70
8
 71
3
 72
8
 73
4
 74
0
 40
0
 40
0
 40
0
 40
0
 40
1
 40
1
 40
1
 40
1
 10
173.186688
 20
285.057611
 30
0.0
 10
160.527671
 20
263.131550
 30
0.0
 10
160.527671
 20
236.117530
 30
0.0
 10
173.186688
 20
214.191469
 30
0.0
  0
SPLINE
  5
12e
100
AcDbEntity
  8
0
 62
1
100
AcDbSpline
 70
8
 71
3
 72
8
 73
4
 74
0
 40
0
 40
0
 40
0
 40
0
 40
1
 40
1
 40
1
 40
1
 10
173.186688
 20
214.191469
 30
0.0
 10
185.845705
 20
192.265408
 30
0.0
 10
209.240534
 20
178.758398
 30
0.0
 10
234.558568
 20
178.758398
 30
0.0
  0
LWPOLYLINE
  5
12f
100
AcDbEntity
  8
0
 62
1
100
AcDbPolyline
 90
1
 70
1
 10
235.501235
 20
347.275748
 30
0.0
  0
SPLINE
  5
130
100
AcDbEntity
  8
0
 62
1
100
AcDbSpline
 70
8
 71
3
 72
8
 73
4
 74
0
 40
0
 40
0
 40
0
 40
0
 40
1
 40
1
 40
1
 40
1
 10
409.530215
 20
525.704235
 30
0.0
 10
434.848250
 20
525.704235
 30
0.0
 10
458.243078
 20
539.211245
 30
0.0
 10
470.902096
 20
561.137306
 30
0.0
  0
SPLINE
  5
131
100
AcDbEntity
  8
0
 62
1
100
AcDbSpline
 70
8
 71
3
 72
8
 73
4
 74
0
 40
0
 40
0
 40
0
 40
0
 40
1
 40
1
 40
1
 40
1
 10
470.902096
 20
561.137306
 30
0.0
 10
483.561113
 20
583.063367
 30
0.0
 10
483.561113
 20
610.077388
 30
0.0
 10
470.902096
 20
632.003449
 30
0.0
  0
SPLINE
  5
132
100
AcDbEntity
  8
0
 62
1
100
AcDbSpline
 70
8
 71
3
 72
8
 73
4
 74
0
 40
0
 40
0
 40
0
 40
0
 40
1
 40
1
 40
1
 40
1
 10
470.902096
 20
632.003449
 30
0.0
 10
458.243078
 20
653.929510
 30
0.0
 10
434.848250
 20
667.436520
 30
0.0
 10
409.530215
 20
667.436520
 30
0.0
  0
SPLINE
  5
133
100
AcDbEntity
  8
0
 62
1
100
AcDbSpline
 70
8
 71
3
 72
8
 73
4
 74
0
 40
0
 40
0
 40
0
 40
0
 40
1
 40
1
 40
1
 40
1
 10
409.530215
 20
667.436520
 30
0.0
 10
384.212181
 20
667.436520
 30
0.0
 10
360.817352
 20
653.929510
 30
0.0
 10
348.158335
 20
632.003449
 30
0.0
  0
SPLINE
  5
134
100
AcDbEntity
  8
0
 62
1
100
AcDbSpline
 70
8
 71
3
 72
8
 73
4
 74
0
 40
0
 40
0
 40
0
 40
0
 40
1
 40
1
 40
1
 40
1
 10
348.158335
 20
632.003449
 30
0.0
 10
335.499317
 20
610.077388
 30
0.0
 10
335.499317
 20
583.063367
 30
0.0
 10
348.158335
 20
561.137306
 30
0.0
  0
SPLINE
  5
135
100
AcDbEntity
  8
0
 62
1
100
AcDbSpline
 70
8
 71
3
 72
8
 73
4
 74
0
 40
0
 40
0
 40
0
 40
0
 40
1
 40
1
 40
1
 40
1
 10
348.158335
 20
561.137306
 30
0.0
 10
360.817352
 20
539.211245
 30
0.0
 10
384.212181
 20
525.704235
 30
0.0
 10
409.530215
 20
525.704235
 30
0.0
  0
LWPOLYLINE
  5
136
100
AcDbEntity
  8
0
 62
1
100
AcDbPolyline
 90
1
 70
1
 10
234.558568
 20
178.758398
 30
0.0
  0
SPLINE
  5
137
100
AcDbEntity
  8
0
 62
1
100
AcDbSpline
 70
8
 71
3
 72
8
 73
4
 74
0
 40
0
 40
0
 40
0
 40
0
 40
1
 40
1
 40
1
 40
1
 10
74.041933
 20
14.992770
 30
0.0
 10
99.362423
 20
14.989086
 30
0.0
 10
122.761096
 20
28.495291
 30
0.0
 10
135.422405
 20
50.422865
 30
0.0
  0
SPLINE
  5
138
100
AcDbEntity
  8
0
 62
1
100
AcDbSpline
 70
8
 71
3
 72
8
 73
4
 74
0
 40
0
 40
0
 40
0
 40
0
 40
1
 40
1
 40
1
 40
1
 10
135.422405
 20
50.422865
 30
0.0
 10
148.083713
 20
72.350438
 30
0.0
 10
148.083713
 20
99.367387
 30
0.0
 10
135.422405
 20
121.294960
 30
0.0
  0
SPLINE
  5
139
100
AcDbEntity
  8
0
 62
1
100
AcDbSpline
 70
8
 71
3
 72
8
 73
4
 74
0
 40
0
 40
0
 40
0
 40
0
 40
1
 40
1
 40
1
 40
1
 10
135.422405
 20
121.294960
 30
0.0
 10
122.761096
 20
143.222534
 30
0.0
 10
99.362423
 20
156.728739
 30
0.0
 10
74.041933
 20
156.725055
 30
0.0
  0
SPLINE
  5
13a
100
AcDbEntity
  8
0
 62
1
100
AcDbSpline
 70
8
 71
3
 72
8
 73
4
 74
0
 40
0
 40
0
 40
0
 40
0
 40
1
 40
1
 40
1
 40
1
 10
74.041933
 20
156.725055
 30
0.0
 10
48.721443
 20
156.728739
 30
0.0
 10
25.322769
 20
143.222534
 30
0.0
 10
12.661461
 20
121.294960
 30
0.0
  0
SPLINE
  5
13b
100
AcDbEntity
  8
0
 62
1
100
AcDbSpline
 70
8
 71
3
 72
8
 73
4
 74
0
 40
0
 40
0
 40
0
 40
0
 40
1
 40
1
 40
1
 40
1
 10
12.661461
 20
121.294960
 30
0.0
 10
0.000152
 20
99.367387
 30
0.0
 10
0.000152
 20
72.350438
 30
0.0
 10
12.661461
 20
50.422865
 30
0.0
  0
SPLINE
  5
13c
100
AcDbEntity
  8
0
 62
1
100
AcDbSpline
 70
8
 71
3
 72
8
 73
4
 74
0
 40
0
 40
0
 40
0
 40
0
 40
1
 40
1
 40
1
 40
1
 10
12.661461
 20
50.422865
 30
0.0
 10
25.322769
 20
28.495291
 30
0.0
 10
48.721443
 20
14.989086
 30
0.0
 10
74.041933
 20
14.992770
 30
0.0
  0
LWPOLYLINE
  5
13d
100
AcDbEntity
  8
0
 62
1
100
AcDbPolyline
 90
1
 70
1
 10
409.530215
 20
525.704235
 30
0.0
  0
SPLINE
  5
13e
100
AcDbEntity
  8
0
 62
1
100
AcDbSpline
 70
8
 71
3
 72
8
 73
4
 74
0
 40
0
 40
0
 40
0
 40
0
 40
1
 40
1
 40
1
 40
1
 10
234.307040
 20
525.704235
 30
0.0
 10
259.629984
 20
525.696867
 30
0.0
 10
283.032503
 20
539.202265
 30
0.0
 10
295.696103
 20
561.131350
 30
0.0
  0
SPLINE
  5
13f
100
AcDbEntity
  8
0
 62
1
100
AcDbSpline
 70
8
 71
3
 72
8
 73
4
 74
0
 40
0
 40
0
 40
0
 40
0
 40
1
 40
1
 40
1
 40
1
 10
295.696103
 20
561.131350
 30
0.0
 10
308.359702
 20
583.060436
 30
0.0
 10
308.359702
 20
610.080311
 30
0.0
 10
295.696103
 20
632.009397
 30
0.0
  0
SPLINE
  5
140
100
AcDbEntity
  8
0
 62
1
100
AcDbSpline
 70
8
 71
3
 72
8
 73
4
 74
0
 40
0
 40
0
 40
0
 40
0
 40
1
 40
1
 40
1
 40
1
 10
295.696103
 20
632.009397
 30
0.0
 10
283.032503
 20
653.938483
 30
0.0
 10
259.629984
 20
667.443881
 30
0.0
 10
234.307040
 20
667.436512
 30
0.0
  0
SPLINE
  5
141
100
AcDbEntity
  8
0
 62
1
100
AcDbSpline
 70
8
 71
3
 72
8
 73
4
 74
0
 40
0
 40
0
 40
0
 40
0
 40
1
 40
1
 40
1
 40
1
 10
234.307040
 20
667.436512
 30
0.0
 10
208.984096
 20
667.443881
 30
0.0
 10
185.581578
 20
653.938483
 30
0.0
 10
172.917978
 20
632.009397
 30
0.0
  0
SPLINE
  5
142
100
AcDbEntity
  8
0
 62
1
100
AcDbSpline
 70
8
 71
3
 72
8
 73
4
 74
0
 40
0
 40
0
 40
0
 40
0
 40
1
 40
1
 40
1
 40
1
 10
172.917978
 20
632.009397
 30
0.0
 10
160.254378
 20
610.080311
 30
0.0
 10
160.254378
 20
583.060436
 30
0.0
 10
172.917978
 20
561.131350
 30
0.0
  0
SPLINE
  5
143
100
AcDbEntity
  8
0
 62
1
100
AcDbSpline
 70
8
 71
3
 72
8
 73
4
 74
0
 40
0
 40
0
 40
0
 40
0
 40
1
 40
1
 40
1
 40
1
 10
172.917978
 20
561.131350
 30
0.0
 10
185.581578
 20
539.202265
 30
0.0
 10
208.984096
 20
525.696867
 30
0.0
 10
234.307040
 20
525.704235
 30
0.0
  0
LWPOLYLINE
  5
144
100
AcDbEntity
  8
0
 62
1
100
AcDbPolyline
 90
1
 70
1
 10
74.041933
 20
14.992770
 30
0.0
  0
SPLINE
  5
145
100
AcDbEntity
  8
0
 62
1
100
AcDbSpline
 70
8
 71
3
 72
8
 73
4
 74
0
 40
0
 40
0
 40
0
 40
0
 40
1
 40
1
 40
1
 40
1
 10
418.077688
 20
335.522977
 30
0.0
 10
443.395722
 20
335.522977
 30
0.0
 10
466.790550
 20
349.029987
 30
0.0
 10
479.449567
 20
370.956048
 30
0.0
  0
SPLINE
  5
146
100
AcDbEntity
  8
0
 62
1
100
AcDbSpline
 70
8
 71
3
 72
8
 73
4
 74
0
 40
0
 40
0
 40
0
 40
0
 40
1
 40
1
 40
1
 40
1
 10
479.449567
 20
370.956048
 30
0.0
 10
492.108585
 20
392.882109
 30
0.0
 10
492.108585
 20
419.896130
 30
0.0
 10
479.449567
 20
441.822191
 30
0.0
  0
SPLINE
  5
147
100
AcDbEntity
  8
0
 62
1
100
AcDbSpline
 70
8
 71
3
 72
8
 73
4
 74
0
 40
0
 40
0
 40
0
 40
0
 40
1
 40
1
 40
1
 40
1
 10
479.449567
 20
441.822191
 30
0.0
 10
466.790550
 20
463.748251
 30
0.0
 10
443.395722
 20
477.255262
 30
0.0
 10
418.077688
 20
477.255262
 30
0.0
  0
SPLINE
  5
148
100
AcDbEntity
  8
0
 62
1
100
AcDbSpline
 70
8
 71
3
 72
8
 73
4
 74
0
 40
0
 40
0
 40
0
 40
0
 40
1
 40
1
 40
1
 40
1
 10
418.077688
 20
477.255262
 30
0.0
 10
392.759654
 20
477.255262
 30
0.0
 10
369.364825
 20
463.748251
 30
0.0
 10
356.705808
 20
441.822191
 30
0.0
  0
SPLINE
  5
149
100
AcDbEntity
  8
0
 62
1
100
AcDbSpline
 70
8
 71
3
 72
8
 73
4
 74
0
 40
0
 40
0
 40
0
 40
0
 40
1
 40
1
 40
1
 40
1
 10
356.705808
 20
441.822191
 30
0.0
 10
344.046791
 20
419.896130
 30
0.0
 10
344.046791
 20
392.882109
 30
0.0
 10
356.705808
 20
370.956048
 30
0.0
  0
SPLINE
  5
14a
100
AcDbEntity
  8
0
 62
1
100
AcDbSpline
 70
8
 71
3
 72
8
 73
4
 74
0
 40
0
 40
0
 40
0
 40
0
 40
1
 40
1
 40
1
 40
1
 10
356.705808
 20
370.956048
 30
0.0
 10
369.364825
 20
349.029987
 30
0.0
 10
392.759654
 20
335.522977
 30
0.0
 10
418.077688
 20
335.522977
 30
0.0
  0
LWPOLYLINE
  5
14b
100
AcDbEntity
  8
0
 62
1
100
AcDbPolyline
 90
1
 70
1
 10
234.307040
 20
525.704235
 30
0.0
  0
SPLINE
  5
14c
100
AcDbEntity
  8
0
 62
1
100
AcDbSpline
 70
8
 71
3
 72
8
 73
4
 74
0
 40
0
 40
0
 40
0
 40
0
 40
1
 40
1
 40
1
 40
1
 10
71.905063
 20
175.257870
 30
0.0
 10
97.223097
 20
175.257870
 30
0.0
 10
120.617925
 20
188.764880
 30
0.0
 10
133.276942
 20
210.690941
 30
0.0
  0
SPLINE
  5
14d
100
AcDbEntity
  8
0
 62
1
100
AcDbSpline
 70
8
 71
3
 72
8
 73
4
 74
0
 40
0
 40
0
 40
0
 40
0
 40
1
 40
1
 40
1
 40
1
 10
133.276942
 20
210.690941
 30
0.0
 10
145.935960
 20
232.617002
 30
0.0
 10
145.935960
 20
259.631023
 30
0.0
 10
133.276942
 20
281.557084
 30
0.0
  0
SPLINE
  5
14e
100
AcDbEntity
  8
0
 62
1
100
AcDbSpline
 70
8
 71
3
 72
8
 73
4
 74
0
 40
0
 40
0
 40
0
 40
0
 40
1
 40
1
 40
1
 40
1
 10
133.276942
 20
281.557084
 30
0.0
 10
120.617925
 20
303.483145
 30
0.0
 10
97.223097
 20
316.990155
 30
0.0
 10
71.905063
 20
316.990155
 30
0.0
  0
SPLINE
  5
14f
100
AcDbEntity
  8
0
 62
1
100
AcDbSpline
 70
8
 71
3
 72
8
 73
4
 74
0
 40
0
 40
0
 40
0
 40
0
 40
1
 40
1
 40
1
 40
1
 10
71.905063
 20
316.990155
 30
0.0
 10
46.587029
 20
316.990155
 30
0.0
 10
23.192200
 20
303.483145
 30
0.0
 10
10.533183
 20
281.557084
 30
0.0
  0
SPLINE
  5
150
100
AcDbEntity
  8
0
 62
1
100
AcDbSpline
 70
8
 71
3
 72
8
 73
4
 74
0
 40
0
 40
0
 40
0
 40
0
 40
1
 40
1
 40
1
 40
1
 10
10.533183
 20
281.557084
 30
0.0
 10
-2.125834
 20
259.631023
 30
0.0
 10
-2.125834
 20
232.617002
 30
0.0
 10
10.533183
 20
210.690941
 30
0.0
  0
SPLINE
  5
151
100
AcDbEntity
  8
0
 62
1
100
AcDbSpline
 70
8
 71
3
 72
8
 73
4
 74
0
 40
0
 40
0
 40
0
 40
0
 40
1
 40
1
 40
1
 40
1
 10
10.533183
 20
210.690941
 30
0.0
 10
23.192200
 20
188.764880
 30
0.0
 10
46.587029
 20
175.257870
 30
0.0
 10
71.905063
 20
175.257870
 30
0.0
  0
LWPOLYLINE
  5
152
100
AcDbEntity
  8
0
 62
1
100
AcDbPolyline
 90
1
 70
1
 10
418.077688
 20
335.522977
 30
0.0
  0
SPLINE
  5
153
100
AcDbEntity
  8
0
 62
1
100
AcDbSpline
 70
8
 71
3
 72
8
 73
4
 74
0
 40
0
 40
0
 40
0
 40
0
 40
1
 40
1
 40
1
 40
1
 10
763.551605
 20
0.337500
 30
0.0
 10
788.869642
 20
0.337499
 30
0.0
 10
812.264474
 20
13.844511
 30
0.0
 10
824.923493
 20
35.770575
 30
0.0
  0
SPLINE
  5
154
100
AcDbEntity
  8
0
 62
1
100
AcDbSpline
 70
8
 71
3
 72
8
 73
4
 74
0
 40
0
 40
0
 40
0
 40
0
 40
1
 40
1
 40
1
 40
1
 10
824.923493
 20
35.770575
 30
0.0
 10
837.582511
 20
57.696638
 30
0.0
 10
837.582511
 20
84.710662
 30
0.0
 10
824.923493
 20
106.636725
 30
0.0
  0
SPLINE
  5
155
100
AcDbEntity
  8
0
 62
1
100
AcDbSpline
 70
8
 71
3
 72
8
 73
4
 74
0
 40
0
 40
0
 40
0
 40
0
 40
1
 40
1
 40
1
 40
1
 10
824.923493
 20
106.636725
 30
0.0
 10
812.264474
 20
128.562789
 30
0.0
 10
788.869642
 20
142.069801
 30
0.0
 10
763.551605
 20
142.069800
 30
0.0
  0
SPLINE
  5
156
100
AcDbEntity
  8
0
 62
1
100
AcDbSpline
 70
8
 71
3
 72
8
 73
4
 74
0
 40
0
 40
0
 40
0
 40
0
 40
1
 40
1
 40
1
 40
1
 10
763.551605
 20
142.069800
 30
0.0
 10
738.233568
 20
142.069800
 30
0.0
 10
714.838738
 20
128.562788
 30
0.0
 10
702.179719
 20
106.636725
 30
0.0
  0
SPLINE
  5
157
100
AcDbEntity
  8
0
 62
1
100
AcDbSpline
 70
8
 71
3
 72
8
 73
4
 74
0
 40
0
 40
0
 40
0
 40
0
 40
1
 40
1
 40
1
 40
1
 10
702.179719
 20
106.636725
 30
0.0
 10
689.520701
 20
84.710662
 30
0.0
 10
689.520701
 20
57.696638
 30
0.0
 10
702.179719
 20
35.770575
 30
0.0
  0
SPLINE
  5
158
100
AcDbEntity
  8
0
 62
1
100
AcDbSpline
 70
8
 71
3
 72
8
 73
4
 74
0
 40
0
 40
0
 40
0
 40
0
 40
1
 40
1
 40
1
 40
1
 10
702.179719
 20
35.770575
 30
0.0
 10
714.838738
 20
13.844512
 30
0.0
 10
738.233568
 20
0.337500
 30
0.0
 10
763.551605
 20
0.337500
 30
0.0
  0
LWPOLYLINE
  5
159
100
AcDbEntity
  8
0
 62
1
100
AcDbPolyline
 90
1
 70
1
 10
71.905063
 20
175.257870
 30
0.0
  0
SPLINE
  5
15a
100
AcDbEntity
  8
0
 62
1
100
AcDbSpline
 70
8
 71
3
 72
8
 73
4
 74
0
 40
0
 40
0
 40
0
 40
0
 40
1
 40
1
 40
1
 40
1
 10
761.414705
 20
162.739470
 30
0.0
 10
786.732742
 20
162.739470
 30
0.0
 10
810.127573
 20
176.246482
 30
0.0
 10
822.786591
 20
198.172545
 30
0.0
  0
SPLINE
  5
15b
100
AcDbEntity
  8
0
 62
1
100
AcDbSpline
 70
8
 71
3
 72
8
 73
4
 74
0
 40
0
 40
0
 40
0
 40
0
 40
1
 40
1
 40
1
 40
1
 10
822.786591
 20
198.172545
 30
0.0
 10
835.445610
 20
220.098608
 30
0.0
 10
835.445610
 20
247.112632
 30
0.0
 10
822.786591
 20
269.038695
 30
0.0
  0
SPLINE
  5
15c
100
AcDbEntity
  8
0
 62
1
100
AcDbSpline
 70
8
 71
3
 72
8
 73
4
 74
0
 40
0
 40
0
 40
0
 40
0
 40
1
 40
1
 40
1
 40
1
 10
822.786591
 20
269.038695
 30
0.0
 10
810.127573
 20
290.964758
 30
0.0
 10
786.732742
 20
304.471770
 30
0.0
 10
761.414705
 20
304.471770
 30
0.0
  0
SPLINE
  5
15d
100
AcDbEntity
  8
0
 62
1
100
AcDbSpline
 70
8
 71
3
 72
8
 73
4
 74
0
 40
0
 40
0
 40
0
 40
0
 40
1
 40
1
 40
1
 40
1
 10
761.414705
 20
304.471770
 30
0.0
 10
736.096668
 20
304.471770
 30
0.0
 10
712.701838
 20
290.964758
 30
0.0
 10
700.042819
 20
269.038695
 30
0.0
  0
SPLINE
  5
15e
100
AcDbEntity
  8
0
 62
1
100
AcDbSpline
 70
8
 71
3
 72
8
 73
4
 74
0
 40
0
 40
0
 40
0
 40
0
 40
1
 40
1
 40
1
 40
1
 10
700.042819
 20
269.038695
 30
0.0
 10
687.383801
 20
247.112632
 30
0.0
 10
687.383801
 20
220.098608
 30
0.0
 10
700.042819
 20
198.172545
 30
0.0
  0
SPLINE
  5
15f
100
AcDbEntity
  8
0
 62
1
100
AcDbSpline
 70
8
 71
3
 72
8
 73
4
 74
0
 40
0
 40
0
 40
0
 40
0
 40
1
 40
1
 40
1
 40
1
 10
700.042819
 20
198.172545
 30
0.0
 10
712.701838
 20
176.246482
 30
0.0
 10
736.096668
 20
162.739470
 30
0.0
 10
761.414705
 20
162.739470
 30
0.0
  0
LWPOLYLINE
  5
160
100
AcDbEntity
  8
0
 62
1
100
AcDbPolyline
 90
1
 70
1
 10
763.551605
 20
0.337500
 30
0.0
  0
SPLINE
  5
161
100
AcDbEntity
  8
0
 62
1
100
AcDbSpline
 70
8
 71
3
 72
8
 73
4
 74
0
 40
0
 40
0
 40
0
 40
0
 40
1
 40
1
 40
1
 40
1
 10
577.644065
 20
4.611240
 30
0.0
 10
602.962099
 20
4.611240
 30
0.0
 10
626.356928
 20
18.118250
 30
0.0
 10
639.015945
 20
40.044311
 30
0.0
  0
SPLINE
  5
162
100
AcDbEntity
  8
0
 62
1
100
AcDbSpline
 70
8
 71
3
 72
8
 73
4
 74
0
 40
0
 40
0
 40
0
 40
0
 40
1
 40
1
 40
1
 40
1
 10
639.015945
 20
40.044311
 30
0.0
 10
651.674962
 20
61.970372
 30
0.0
 10
651.674962
 20
88.984393
 30
0.0
 10
639.015945
 20
110.910454
 30
0.0
  0
SPLINE
  5
163
100
AcDbEntity
  8
0
 62
1
100
AcDbSpline
 70
8
 71
3
 72
8
 73
4
 74
0
 40
0
 40
0
 40
0
 40
0
 40
1
 40
1
 40
1
 40
1
 10
639.015945
 20
110.910454
 30
0.0
 10
626.356928
 20
132.836515
 30
0.0
 10
602.962099
 20
146.343525
 30
0.0
 10
577.644065
 20
146.343525
 30
0.0
  0
SPLINE
  5
164
100
AcDbEntity
  8
0
 62
1
100
AcDbSpline
 70
8
 71
3
 72
8
 73
4
 74
0
 40
0
 40
0
 40
0
 40
0
 40
1
 40
1
 40
1
 40
1
 10
577.644065
 20
146.343525
 30
0.0
 10
552.326031
 20
146.343525
 30
0.0
 10
528.931203
 20
132.836515
 30
0.0
 10
516.272186
 20
110.910454
 30
0.0
  0
SPLINE
  5
165
100
AcDbEntity
  8
0
 62
1
100
AcDbSpline
 70
8
 71
3
 72
8
 73
4
 74
0
 40
0
 40
0
 40
0
 40
0
 40
1
 40
1
 40
1
 40
1
 10
516.272186
 20
110.910454
 30
0.0
 10
503.613168
 20
88.984393
 30
0.0
 10
503.613168
 20
61.970372
 30
0.0
 10
516.272186
 20
40.044311
 30
0.0
  0
SPLINE
  5
166
100
AcDbEntity
  8
0
 62
1
100
AcDbSpline
 70
8
 71
3
 72
8
 73
4
 74
0
 40
0
 40
0
 40
0
 40
0
 40
1
 40
1
 40
1
 40
1
 10
516.272186
 20
40.044311
 30
0.0
 10
528.931203
 20
18.118250
 30
0.0
 10
552.326031
 20
4.611240
 30
0.0
 10
577.644065
 20
4.611240
 30
0.0
  0
LWPOLYLINE
  5
167
100
AcDbEntity
  8
0
 62
1
100
AcDbPolyline
 90
1
 70
1
 10
761.414705
 20
162.739470
 30
0.0
  0
SPLINE
  5
168
100
AcDbEntity
  8
0
 62
1
100
AcDbSpline
 70
8
 71
3
 72
8
 73
4
 74
0
 40
0
 40
0
 40
0
 40
0
 40
1
 40
1
 40
1
 40
1
 10
579.780935
 20
342.236394
 30
0.0
 10
605.101425
 20
342.232710
 30
0.0
 10
628.500098
 20
355.738915
 30
0.0
 10
641.161407
 20
377.666488
 30
0.0
  0
SPLINE
  5
169
100
AcDbEntity
  8
0
 62
1
100
AcDbSpline
 70
8
 71
3
 72
8
 73
4
 74
0
 40
0
 40
0
 40
0
 40
0
 40
1
 40
1
 40
1
 40
1
 10
641.161407
 20
377.666488
 30
0.0
 10
653.822715
 20
399.594062
 30
0.0
 10
653.822715
 20
426.611010
 30
0.0
 10
641.161407
 20
448.538583
 30
0.0
  0
SPLINE
  5
16a
100
AcDbEntity
  8
0
 62
1
100
AcDbSpline
 70
8
 71
3
 72
8
 73
4
 74
0
 40
0
 40
0
 40
0
 40
0
 40
1
 40
1
 40
1
 40
1
 10
641.161407
 20
448.538583
 30
0.0
 10
628.500098
 20
470.466157
 30
0.0
 10
605.101425
 20
483.972361
 30
0.0
 10
579.780935
 20
483.968678
 30
0.0
  0
SPLINE
  5
16b
100
AcDbEntity
  8
0
 62
1
100
AcDbSpline
 70
8
 71
3
 72
8
 73
4
 74
0
 40
0
 40
0
 40
0
 40
0
 40
1
 40
1
 40
1
 40
1
 10
579.780935
 20
483.968678
 30
0.0
 10
554.460446
 20
483.972361
 30
0.0
 10
531.061772
 20
470.466157
 30
0.0
 10
518.400464
 20
448.538583
 30
0.0
  0
SPLINE
  5
16c
100
AcDbEntity
  8
0
 62
1
100
AcDbSpline
 70
8
 71
3
 72
8
 73
4
 74
0
 40
0
 40
0
 40
0
 40
0
 40
1
 40
1
 40
1
 40
1
 10
518.400464
 20
448.538583
 30
0.0
 10
505.739156
 20
426.611010
 30
0.0
 10
505.739156
 20
399.594062
 30
0.0
 10
518.400464
 20
377.666488
 30
0.0
  0
SPLINE
  5
16d
100
AcDbEntity
  8
0
 62
1
100
AcDbSpline
 70
8
 71
3
 72
8
 73
4
 74
0
 40
0
 40
0
 40
0
 40
0
 40
1
 40
1
 40
1
 40
1
 10
518.400464
 20
377.666488
 30
0.0
 10
531.061772
 20
355.738915
 30
0.0
 10
554.460446
 20
342.232710
 30
0.0
 10
579.780935
 20
342.236394
 30
0.0
  0
LWPOLYLINE
  5
16e
100
AcDbEntity
  8
0
 62
1
100
AcDbPolyline
 90
1
 70
1
 10
577.644065
 20
4.611240
 30
0.0
  0
SPLINE
  5
16f
100
AcDbEntity
  8
0
 62
1
100
AcDbSpline
 70
8
 71
3
 72
8
 73
4
 74
0
 40
0
 40
0
 40
0
 40
0
 40
1
 40
1
 40
1
 40
1
 10
578.838268
 20
173.719043
 30
0.0
 10
604.161212
 20
173.711674
 30
0.0
 10
627.563730
 20
187.217072
 30
0.0
 10
640.227330
 20
209.146158
 30
0.0
  0
SPLINE
  5
170
100
AcDbEntity
  8
0
 62
1
100
AcDbSpline
 70
8
 71
3
 72
8
 73
4
 74
0
 40
0
 40
0
 40
0
 40
0
 40
1
 40
1
 40
1
 40
1
 10
640.227330
 20
209.146158
 30
0.0
 10
652.890930
 20
231.075244
 30
0.0
 10
652.890930
 20
258.095119
 30
0.0
 10
640.227330
 20
280.024205
 30
0.0
  0
SPLINE
  5
171
100
AcDbEntity
  8
0
 62
1
100
AcDbSpline
 70
8
 71
3
 72
8
 73
4
 74
0
 40
0
 40
0
 40
0
 40
0
 40
1
 40
1
 40
1
 40
1
 10
640.227330
 20
280.024205
 30
0.0
 10
627.563730
 20
301.953290
 30
0.0
 10
604.161212
 20
315.458688
 30
0.0
 10
578.838268
 20
315.451320
 30
0.0
  0
SPLINE
  5
172
100
AcDbEntity
  8
0
 62
1
100
AcDbSpline
 70
8
 71
3
 72
8
 73
4
 74
0
 40
0
 40
0
 40
0
 40
0
 40
1
 40
1
 40
1
 40
1
 10
578.838268
 20
315.451320
 30
0.0
 10
553.515324
 20
315.458688
 30
0.0
 10
530.112805
 20
301.953290
 30
0.0
 10
517.449205
 20
280.024205
 30
0.0
  0
SPLINE
  5
173
100
AcDbEntity
  8
0
 62
1
100
AcDbSpline
 70
8
 71
3
 72
8
 73
4
 74
0
 40
0
 40
0
 40
0
 40
0
 40
1
 40
1
 40
1
 40
1
 10
517.449205
 20
280.024205
 30
0.0
 10
504.785606
 20
258.095119
 30
0.0
 10
504.785606
 20
231.075244
 30
0.0
 10
517.449205
 20
209.146158
 30
0.0
  0
SPLINE
  5
174
100
AcDbEntity
  8
0
 62
1
100
AcDbSpline
 70
8
 71
3
 72
8
 73
4
 74
0
 40
0
 40
0
 40
0
 40
0
 40
1
 40
1
 40
1
 40
1
 10
517.449205
 20
209.146158
 30
0.0
 10
530.112805
 20
187.217072
 30
0.0
 10
553.515324
 20
173.711674
 30
0.0
 10
578.838268
 20
173.719043
 30
0.0
  0
LWPOLYLINE
  5
175
100
AcDbEntity
  8
0
 62
1
100
AcDbPolyline
 90
1
 70
1
 10
579.780935
 20
342.236394
 30
0.0
  0
SPLINE
  5
176
100
AcDbEntity
  8
0
 62
1
100
AcDbSpline
 70
8
 71
3
 72
8
 73
4
 74
0
 40
0
 40
0
 40
0
 40
0
 40
1
 40
1
 40
1
 40
1
 10
753.809930
 20
520.664873
 30
0.0
 10
779.127967
 20
520.664872
 30
0.0
 10
802.522799
 20
534.171884
 30
0.0
 10
815.181817
 20
556.097947
 30
0.0
  0
SPLINE
  5
177
100
AcDbEntity
  8
0
 62
1
100
AcDbSpline
 70
8
 71
3
 72
8
 73
4
 74
0
 40
0
 40
0
 40
0
 40
0
 40
1
 40
1
 40
1
 40
1
 10
815.181817
 20
556.097947
 30
0.0
 10
827.840836
 20
578.024010
 30
0.0
 10
827.840836
 20
605.038035
 30
0.0
 10
815.181817
 20
626.964098
 30
0.0
  0
SPLINE
  5
178
100
AcDbEntity
  8
0
 62
1
100
AcDbSpline
 70
8
 71
3
 72
8
 73
4
 74
0
 40
0
 40
0
 40
0
 40
0
 40
1
 40
1
 40
1
 40
1
 10
815.181817
 20
626.964098
 30
0.0
 10
802.522799
 20
648.890161
 30
0.0
 10
779.127967
 20
662.397173
 30
0.0
 10
753.809930
 20
662.397173
 30
0.0
  0
SPLINE
  5
179
100
AcDbEntity
  8
0
 62
1
100
AcDbSpline
 70
8
 71
3
 72
8
 73
4
 74
0
 40
0
 40
0
 40
0
 40
0
 40
1
 40
1
 40
1
 40
1
 10
753.809930
 20
662.397173
 30
0.0
 10
728.491893
 20
662.397173
 30
0.0
 10
705.097062
 20
648.890161
 30
0.0
 10
692.438043
 20
626.964098
 30
0.0
  0
SPLINE
  5
17a
100
AcDbEntity
  8
0
 62
1
100
AcDbSpline
 70
8
 71
3
 72
8
 73
4
 74
0
 40
0
 40
0
 40
0
 40
0
 40
1
 40
1
 40
1
 40
1
 10
692.438043
 20
626.964098
 30
0.0
 10
679.779025
 20
605.038035
 30
0.0
 10
679.779025
 20
578.024010
 30
0.0
 10
692.438043
 20
556.097947
 30
0.0
  0
SPLINE
  5
17b
100
AcDbEntity
  8
0
 62
1
100
AcDbSpline
 70
8
 71
3
 72
8
 73
4
 74
0
 40
0
 40
0
 40
0
 40
0
 40
1
 40
1
 40
1
 40
1
 10
692.438043
 20
556.097947
 30
0.0
 10
705.097062
 20
534.171884
 30
0.0
 10
728.491893
 20
520.664872
 30
0.0
 10
753.809930
 20
520.664873
 30
0.0
  0
LWPOLYLINE
  5
17c
100
AcDbEntity
  8
0
 62
1
100
AcDbPolyline
 90
1
 70
1
 10
578.838268
 20
173.719043
 30
0.0
  0
SPLINE
  5
17d
100
AcDbEntity
  8
0
 62
1
100
AcDbSpline
 70
8
 71
3
 72
8
 73
4
 74
0
 40
0
 40
0
 40
0
 40
0
 40
1
 40
1
 40
1
 40
1
 10
578.586725
 20
520.664888
 30
0.0
 10
603.909669
 20
520.657519
 30
0.0
 10
627.312188
 20
534.162917
 30
0.0
 10
639.975788
 20
556.092003
 30
0.0
  0
SPLINE
  5
17e
100
AcDbEntity
  8
0
 62
1
100
AcDbSpline
 70
8
 71
3
 72
8
 73
4
 74
0
 40
0
 40
0
 40
0
 40
0
 40
1
 40
1
 40
1
 40
1
 10
639.975788
 20
556.092003
 30
0.0
 10
652.639387
 20
578.021089
 30
0.0
 10
652.639387
 20
605.040964
 30
0.0
 10
639.975788
 20
626.970050
 30
0.0
  0
SPLINE
  5
17f
100
AcDbEntity
  8
0
 62
1
100
AcDbSpline
 70
8
 71
3
 72
8
 73
4
 74
0
 40
0
 40
0
 40
0
 40
0
 40
1
 40
1
 40
1
 40
1
 10
639.975788
 20
626.970050
 30
0.0
 10
627.312188
 20
648.899135
 30
0.0
 10
603.909669
 20
662.404533
 30
0.0
 10
578.586725
 20
662.397165
 30
0.0
  0
SPLINE
  5
180
100
AcDbEntity
  8
0
 62
1
100
AcDbSpline
 70
8
 71
3
 72
8
 73
4
 74
0
 40
0
 40
0
 40
0
 40
0
 40
1
 40
1
 40
1
 40
1
 10
578.586725
 20
662.397165
 30
0.0
 10
553.263781
 20
662.404533
 30
0.0
 10
529.861263
 20
648.899135
 30
0.0
 10
517.197663
 20
626.970050
 30
0.0
  0
SPLINE
  5
181
100
AcDbEntity
  8
0
 62
1
100
AcDbSpline
 70
8
 71
3
 72
8
 73
4
 74
0
 40
0
 40
0
 40
0
 40
0
 40
1
 40
1
 40
1
 40
1
 10
517.197663
 20
626.970050
 30
0.0
 10
504.534063
 20
605.040964
 30
0.0
 10
504.534063
 20
578.021089
 30
0.0
 10
517.197663
 20
556.092003
 30
0.0
  0
SPLINE
  5
182
100
AcDbEntity
  8
0
 62
1
100
AcDbSpline
 70
8
 71
3
 72
8
 73
4
 74
0
 40
0
 40
0
 40
0
 40
0
 40
1
 40
1
 40
1
 40
1
 10
517.197663
 20
556.092003
 30
0.0
 10
529.861263
 20
534.162917
 30
0.0
 10
553.263781
 20
520.657519
 30
0.0
 10
578.586725
 20
520.664888
 30
0.0
  0
LWPOLYLINE
  5
183
100
AcDbEntity
  8
0
 62
1
100
AcDbPolyline
 90
1
 70
1
 10
753.809930
 20
520.664873
 30
0.0
  0
SPLINE
  5
184
100
AcDbEntity
  8
0
 62
1
100
AcDbSpline
 70
8
 71
3
 72
8
 73
4
 74
0
 40
0
 40
0
 40
0
 40
0
 40
1
 40
1
 40
1
 40
1
 10
762.357380
 20
330.483615
 30
0.0
 10
787.677873
 20
330.479931
 30
0.0
 10
811.076548
 20
343.986137
 30
0.0
 10
823.737858
 20
365.913713
 30
0.0
  0
SPLINE
  5
185
100
AcDbEntity
  8
0
 62
1
100
AcDbSpline
 70
8
 71
3
 72
8
 73
4
 74
0
 40
0
 40
0
 40
0
 40
0
 40
1
 40
1
 40
1
 40
1
 10
823.737858
 20
365.913713
 30
0.0
 10
836.399168
 20
387.841289
 30
0.0
 10
836.399168
 20
414.858240
 30
0.0
 10
823.737858
 20
436.785815
 30
0.0
  0
SPLINE
  5
186
100
AcDbEntity
  8
0
 62
1
100
AcDbSpline
 70
8
 71
3
 72
8
 73
4
 74
0
 40
0
 40
0
 40
0
 40
0
 40
1
 40
1
 40
1
 40
1
 10
823.737858
 20
436.785815
 30
0.0
 10
811.076548
 20
458.713391
 30
0.0
 10
787.677873
 20
472.219597
 30
0.0
 10
762.357380
 20
472.215914
 30
0.0
  0
SPLINE
  5
187
100
AcDbEntity
  8
0
 62
1
100
AcDbSpline
 70
8
 71
3
 72
8
 73
4
 74
0
 40
0
 40
0
 40
0
 40
0
 40
1
 40
1
 40
1
 40
1
 10
762.357380
 20
472.215914
 30
0.0
 10
737.036888
 20
472.219597
 30
0.0
 10
713.638212
 20
458.713391
 30
0.0
 10
700.976902
 20
436.785815
 30
0.0
  0
SPLINE
  5
188
100
AcDbEntity
  8
0
 62
1
100
AcDbSpline
 70
8
 71
3
 72
8
 73
4
 74
0
 40
0
 40
0
 40
0
 40
0
 40
1
 40
1
 40
1
 40
1
 10
700.976902
 20
436.785815
 30
0.0
 10
688.315593
 20
414.858240
 30
0.0
 10
688.315593
 20
387.841289
 30
0.0
 10
700.976902
 20
365.913713
 30
0.0
  0
SPLINE
  5
189
100
AcDbEntity
  8
0
 62
1
100
AcDbSpline
 70
8
 71
3
 72
8
 73
4
 74
0
 40
0
 40
0
 40
0
 40
0
 40
1
 40
1
 40
1
 40
1
 10
700.976902
 20
365.913713
 30
0.0
 10
713.638212
 20
343.986137
 30
0.0
 10
737.036888
 20
330.479931
 30
0.0
 10
762.357380
 20
330.483615
 30
0.0
  0
LWPOLYLINE
  5
18a
100
AcDbEntity
  8
0
 62
1
100
AcDbPolyline
 90
1
 70
1
 10
578.586725
 20
520.664888
 30
0.0
  0
LWPOLYLINE
  5
18b
100
AcDbEntity
  8
0
 62
1
100
AcDbPolyline
 90
1
 70
1
 10
762.357380
 20
330.483615
 30
0.0
  0
ENDSEC
  0
SECTION
  2
OBJECTS
  0
DICTIONARY
  5
C
330
0
100
AcDbDictionary
  3
ACAD_GROUP
350
D
  3
ACAD_MLINESTYLE
350
17
  0
DICTIONARY
  5
D
330
C
100
AcDbDictionary
  0
DICTIONARY
  5
1A
330
C
100
AcDbDictionary
  0
DICTIONARY
  5
17
330
C
100
AcDbDictionary
  3
STANDARD
350
18
  0
DICTIONARY
  5
19
330
C
100
AcDbDictionary
  0
ENDSEC
  0
EOF
