  0
SECTION
  2
HEADER
  9
$ACADVER
  1
AC1015
  9
$ACADMAINTVER
 70
     6
  9
$DWGCODEPAGE
  3
ANSI_1252
  9
$INSBASE
 10
0.0
 20
0.0
 30
0.0
  9
$EXTMIN
 10
0.0
 20
0.0
 30
0.0
  9
$EXTMAX
 10
24.0
 20
16.0
 30
0.0
  9
$LIMMIN
 10
0.0
 20
0.0
  9
$LIMMAX
 10
24.0
 20
16.0
  9
$ORTHOMODE
 70
     0
  9
$REGENMODE
 70
     1
  9
$FILLMODE
 70
     1
  9
$QTEXTMODE
 70
     0
  9
$MIRRTEXT
 70
     1
  9
$LTSCALE
 40
1.0
  9
$ATTMODE
 70
     1
  9
$TEXTSIZE
 40
0.1377952756
  9
$TRACEWID
 40
0.05
  9
$TEXTSTYLE
  7
Standard
  9
$CLAYER
  8
0
  9
$CELTYPE
  6
ByLayer
  9
$CECOLOR
 62
   256
  9
$CELTSCALE
 40
1.0
  9
$DISPSILH
 70
     0
  9
$DIMSCALE
 40
1.0
  9
$DIMASZ
 40
0.13
  9
$DIMEXO
 40
0.05
  9
$DIMDLI
 40
0.38
  9
$DIMRND
 40
0.0
  9
$DIMDLE
 40
0.0
  9
$DIMEXE
 40
0.125
  9
$DIMTP
 40
0.0
  9
$DIMTM
 40
0.0
  9
$DIMTXT
 40
0.1377952756
  9
$DIMCEN
 40
0.09
  9
$DIMTSZ
 40
0.0
  9
$DIMTOL
 70
     0
  9
$DIMLIM
 70
     0
  9
$DIMTIH
 70
     1
  9
$DIMTOH
 70
     1
  9
$DIMSE1
 70
     0
  9
$DIMSE2
 70
     0
  9
$DIMTAD
 70
     1
  9
$DIMZIN
 70
     1
  9
$DIMBLK
  1

  9
$DIMASO
 70
     1
  9
$DIMSHO
 70
     1
  9
$DIMPOST
  1

  9
$DIMAPOST
  1

  9
$DIMALT
 70
     0
  9
$DIMALTD
 70
     2
  9
$DIMALTF
 40
25.4
  9
$DIMLFAC
 40
1.0
  9
$DIMTOFL
 70
     0
  9
$DIMTVP
 40
0.0
  9
$DIMTIX
 70
     0
  9
$DIMSOXD
 70
     0
  9
$DIMSAH
 70
     0
  9
$DIMBLK1
  1

  9
$DIMBLK2
  1

  9
$DIMSTYLE
  2
Standard
  9
$DIMCLRD
 70
     0
  9
$DIMCLRE
 70
     0
  9
$DIMCLRT
 70
     0
  9
$DIMTFAC
 40
1.0
  9
$DIMGAP
 40
0.06
  9
$DIMJUST
 70
     0
  9
$DIMSD1
 70
     0
  9
$DIMSD2
 70
     0
  9
$DIMTOLJ
 70
     1
  9
$DIMTZIN
 70
     1
  9
$DIMALTZ
 70
     0
  9
$DIMALTTZ
 70
     0
  9
$DIMUPT
 70
     0
  9
$DIMDEC
 70
     2
  9
$DIMTDEC
 70
     2
  9
$DIMALTU
 70
     2
  9
$DIMALTTD
 70
     2
  9
$DIMTXSTY
  7
Standard
  9
$DIMAUNIT
 70
     0
  9
$DIMADEC
 70
     2
  9
$DIMALTRND
 40
0.0
  9
$DIMAZIN
 70
     0
  9
$DIMDSEP
 70
    46
  9
$DIMATFIT
 70
     3
  9
$DIMFRAC
 70
     0
  9
$DIMLDRBLK
  1

  9
$DIMLUNIT
 70
     2
  9
$DIMLWD
 70
    -2
  9
$DIMLWE
 70
    -2
  9
$DIMTMOVE
 70
     0
  9
$LUNITS
 70
     2
  9
$LUPREC
 70
     0
  9
$SKETCHINC
 40
0.1
  9
$FILLETRAD
 40
0.5
  9
$AUNITS
 70
     0
  9
$AUPREC
 70
     0
  9
$MENU
  1
.
  9
$ELEVATION
 40
0.0
  9
$PELEVATION
 40
0.0
  9
$THICKNESS
 40
0.0
  9
$LIMCHECK
 70
     0
  9
$CHAMFERA
 40
0.0
  9
$CHAMFERB
 40
0.0
  9
$CHAMFERC
 40
0.0
  9
$CHAMFERD
 40
0.0
  9
$SKPOLY
 70
     0
  9
$TDCREATE
 40
2458562.545300903
  9
$TDUCREATE
 40
2458562.711967569
  9
$TDUPDATE
 40
2458562.545301609
  9
$TDUUPDATE
 40
2458562.711968275
  9
$TDINDWG
 40
0.0000000116
  9
$TDUSRTIMER
 40
0.0000000116
  9
$USRTIMER
 70
     1
  9
$ANGBASE
 50
0.0
  9
$ANGDIR
 70
     0
  9
$PDMODE
 70
     0
  9
$PDSIZE
 40
-1.0
  9
$PLINEWID
 40
0.0
  9
$SPLFRAME
 70
     0
  9
$SPLINETYPE
 70
     6
  9
$SPLINESEGS
 70
     8
  9
$HANDSEED
  5
2C0
  9
$SURFTAB1
 70
     6
  9
$SURFTAB2
 70
     6
  9
$SURFTYPE
 70
     6
  9
$SURFU
 70
     6
  9
$SURFV
 70
     6
  9
$UCSBASE
  2

  9
$UCSNAME
  2

  9
$UCSORG
 10
0.0
 20
0.0
 30
0.0
  9
$UCSXDIR
 10
1.0
 20
0.0
 30
0.0
  9
$UCSYDIR
 10
0.0
 20
1.0
 30
0.0
  9
$UCSORTHOREF
  2

  9
$UCSORTHOVIEW
 70
     0
  9
$UCSORGTOP
 10
0.0
 20
0.0
 30
0.0
  9
$UCSORGBOTTOM
 10
0.0
 20
0.0
 30
0.0
  9
$UCSORGLEFT
 10
0.0
 20
0.0
 30
0.0
  9
$UCSORGRIGHT
 10
0.0
 20
0.0
 30
0.0
  9
$UCSORGFRONT
 10
0.0
 20
0.0
 30
0.0
  9
$UCSORGBACK
 10
0.0
 20
0.0
 30
0.0
  9
$PUCSBASE
  2

  9
$PUCSNAME
  2

  9
$PUCSORG
 10
0.0
 20
0.0
 30
0.0
  9
$PUCSXDIR
 10
1.0
 20
0.0
 30
0.0
  9
$PUCSYDIR
 10
0.0
 20
1.0
 30
0.0
  9
$PUCSORTHOREF
  2

  9
$PUCSORTHOVIEW
 70
     0
  9
$PUCSORGTOP
 10
0.0
 20
0.0
 30
0.0
  9
$PUCSORGBOTTOM
 10
0.0
 20
0.0
 30
0.0
  9
$PUCSORGLEFT
 10
0.0
 20
0.0
 30
0.0
  9
$PUCSORGRIGHT
 10
0.0
 20
0.0
 30
0.0
  9
$PUCSORGFRONT
 10
0.0
 20
0.0
 30
0.0
  9
$PUCSORGBACK
 10
0.0
 20
0.0
 30
0.0
  9
$USERI1
 70
     0
  9
$USERI2
 70
     0
  9
$USERI3
 70
     0
  9
$USERI4
 70
     0
  9
$USERI5
 70
     0
  9
$USERR1
 40
0.0
  9
$USERR2
 40
0.0
  9
$USERR3
 40
0.0
  9
$USERR4
 40
0.0
  9
$USERR5
 40
0.0
  9
$WORLDVIEW
 70
     1
  9
$SHADEDGE
 70
     3
  9
$SHADEDIF
 70
    70
  9
$TILEMODE
 70
     1
  9
$MAXACTVP
 70
    64
  9
$PINSBASE
 10
0.0
 20
0.0
 30
0.0
  9
$PLIMCHECK
 70
     0
  9
$PEXTMIN
 10
1.0000000000E+20
 20
1.0000000000E+20
 30
1.0000000000E+20
  9
$PEXTMAX
 10
-1.0000000000E+20
 20
-1.0000000000E+20
 30
-1.0000000000E+20
  9
$PLIMMIN
 10
0.0
 20
0.0
  9
$PLIMMAX
 10
12.0
 20
9.0
  9
$UNITMODE
 70
     0
  9
$VISRETAIN
 70
     1
  9
$PLINEGEN
 70
     0
  9
$PSLTSCALE
 70
     1
  9
$TREEDEPTH
 70
  3020
  9
$CMLSTYLE
  2
Standard
  9
$CMLJUST
 70
     0
  9
$CMLSCALE
 40
1.0
  9
$PROXYGRAPHICS
 70
     1
  9
$MEASUREMENT
 70
     0
  9
$CELWEIGHT
370
    -1
  9
$ENDCAPS
280
     0
  9
$JOINSTYLE
280
     0
  9
$LWDISPLAY
290
     1
  9
$INSUNITS
 70
     1
  9
$HYPERLINKBASE
  1

  9
$STYLESHEET
  1

  9
$XEDIT
290
     1
  9
$CEPSNTYPE
380
     0
  9
$PSTYLEMODE
290
     1
  9
$FINGERPRINTGUID
  2
{F9C788EE-D4B6-4E8B-BE2E-B0BC5E079F9F}
  9
$VERSIONGUID
  2
{FAEB1C32-E019-11D5-929B-00C0DF256EC4}
  9
$EXTNAMES
290
     1
  9
$PSVPSCALE
 40
0.0
  9
$OLESTARTUP
290
     0
  0
ENDSEC
  0
SECTION
  2
CLASSES
  0
CLASS
  1
ACDBDICTIONARYWDFLT
  2
AcDbDictionaryWithDefault
  3
ObjectDBX Classes
 90
        0
280
     0
281
     0
  0
CLASS
  1
VISUALSTYLE
  2
AcDbVisualStyle
  3
ObjectDBX Classes
 90
     4095
280
     0
281
     0
  0
CLASS
  1
MATERIAL
  2
AcDbMaterial
  3
ObjectDBX Classes
 90
     1153
280
     0
281
     0
  0
CLASS
  1
SCALE
  2
AcDbScale
  3
ObjectDBX Classes
 90
     1153
280
     0
281
     0
  0
CLASS
  1
TABLESTYLE
  2
AcDbTableStyle
  3
ObjectDBX Classes
 90
     4095
280
     0
281
     0
  0
CLASS
  1
MLEADERSTYLE
  2
AcDbMLeaderStyle
  3
ACDB_MLEADERSTYLE_CLASS
 90
     4095
280
     0
281
     0
  0
CLASS
  1
SUN
  2
AcDbSun
  3
SCENEOE
 90
     1153
280
     0
281
     0
  0
CLASS
  1
ACDBPLACEHOLDER
  2
AcDbPlaceHolder
  3
ObjectDBX Classes
 90
        0
280
     0
281
     0
  0
CLASS
  1
LAYOUT
  2
AcDbLayout
  3
ObjectDBX Classes
 90
        0
280
     0
281
     0
  0
ENDSEC
  0
SECTION
  2
TABLES
  0
TABLE
  2
VPORT
  5
8
330
0
100
AcDbSymbolTable
 70
     1
  0
VPORT
  5
29
330
8
100
AcDbSymbolTableRecord
100
AcDbViewportTableRecord
  2
*Active
 70
     0
 10
0.0
 20
0.0
 11
1.0
 21
1.0
 12
12.0
 22
8.0
 13
0.0
 23
0.0
 14
0.5
 24
0.5
 15
0.5
 25
0.5
 16
0.0
 26
0.0
 36
1.0
 17
0.0
 27
0.0
 37
0.0
 40
16.0
 41
1.5
 42
50.0
 43
0.0
 44
0.0
 50
0.0
 51
0.0
 71
     0
 72
  2000
 73
     1
 74
     3
 75
     0
 76
     0
 77
     0
 78
     0
281
     0
 65
     1
110
0.0
120
0.0
130
0.0
111
1.0
121
0.0
131
0.0
112
0.0
122
1.0
132
0.0
 79
     0
146
0.0
  0
ENDTAB
  0
TABLE
  2
LTYPE
  5
5
330
0
100
AcDbSymbolTable
 70
     6
  0
LTYPE
  5
14
330
5
100
AcDbSymbolTableRecord
100
AcDbLinetypeTableRecord
  2
ByBlock
 70
     0
  3

 72
    65
 73
     0
 40
0.0
  0
LTYPE
  5
15
330
5
100
AcDbSymbolTableRecord
100
AcDbLinetypeTableRecord
  2
ByLayer
 70
     0
  3

 72
    65
 73
     0
 40
0.0
  0
LTYPE
  5
16
330
5
100
AcDbSymbolTableRecord
100
AcDbLinetypeTableRecord
  2
Continuous
 70
     0
  3
Solid line
 72
    65
 73
     0
 40
0.0
  0
LTYPE
  5
6E
330
5
100
AcDbSymbolTableRecord
100
AcDbLinetypeTableRecord
  2
HIDDEN
 70
     0
  3
Hidden __ __ __ __ __ __ __ __ __ __ __ __ __ __
 72
    65
 73
     2
 40
0.075
 49
0.05
 74
     0
 49
-0.025
 74
     0
  0
LTYPE
  5
6F
330
5
100
AcDbSymbolTableRecord
100
AcDbLinetypeTableRecord
  2
PHANTOM
 70
     0
  3
Phantom ______  __  __  ______  __  __  ______
 72
    65
 73
     6
 40
0.5
 49
0.25
 74
     0
 49
-0.05
 74
     0
 49
0.05
 74
     0
 49
-0.05
 74
     0
 49
0.05
 74
     0
 49
-0.05
 74
     0
  0
LTYPE
  5
70
330
5
100
AcDbSymbolTableRecord
100
AcDbLinetypeTableRecord
  2
CENTER
 70
     0
  3
Center ____ _ ____ _ ____ _ ____ _ ____ _ ____
 72
    65
 73
     4
 40
0.4
 49
0.25
 74
     0
 49
-0.05
 74
     0
 49
0.05
 74
     0
 49
-0.05
 74
     0
  0
LTYPE
  5
71
330
5
100
AcDbSymbolTableRecord
100
AcDbLinetypeTableRecord
  2
CENTERX2
 70
     0
  3
Center (2x) ________  __  ________  __  _____
 72
    65
 73
     4
 40
0.8
 49
0.5
 74
     0
 49
-0.1
 74
     0
 49
0.1
 74
     0
 49
-0.1
 74
     0
  0
LTYPE
  5
72
330
5
100
AcDbSymbolTableRecord
100
AcDbLinetypeTableRecord
  2
DOT2
 70
     0
  3
Dot (.5x) ........................................
 72
    65
 73
     2
 40
0.025
 49
0.0
 74
     0
 49
-0.025
 74
     0
  0
ENDTAB
  0
TABLE
  2
LAYER
  5
2
330
0
100
AcDbSymbolTable
 70
     1
  0
LAYER
  5
10
330
2
100
AcDbSymbolTableRecord
100
AcDbLayerTableRecord
  2
0
 70
     0
 62
     7
  6
Continuous
370
    -3
390
F
  0
ENDTAB
  0
TABLE
  2
STYLE
  5
3
330
0
100
AcDbSymbolTable
 70
     2
  0
STYLE
  5
11
330
3
100
AcDbSymbolTableRecord
100
AcDbTextStyleTableRecord
  2
Standard
 70
     0
 40
0.0
 41
1.0
 50
0.0
 71
     0
 42
0.1377952756
  3
txt
  4

  0
STYLE
  5
2BD
330
3
100
AcDbSymbolTableRecord
100
AcDbTextStyleTableRecord
  2
SLDTEXTSTYLE0
 70
     0
 40
0.0
 41
0.7
 50
0.0
 71
     0
 42
0.1377952756
  3
TXT
  4

  0
ENDTAB
  0
TABLE
  2
VIEW
  5
6
330
0
100
AcDbSymbolTable
 70
     0
  0
ENDTAB
  0
TABLE
  2
UCS
  5
7
330
0
100
AcDbSymbolTable
 70
     0
  0
ENDTAB
  0
TABLE
  2
APPID
  5
9
330
0
100
AcDbSymbolTable
 70
     1
  0
APPID
  5
12
330
9
100
AcDbSymbolTableRecord
100
AcDbRegAppTableRecord
  2
ACAD
 70
     0
  0
ENDTAB
  0
TABLE
  2
DIMSTYLE
  5
A
330
0
100
AcDbSymbolTable
 70
     1
100
AcDbDimStyleTable
  0
DIMSTYLE
105
27
330
A
100
AcDbSymbolTableRecord
100
AcDbDimStyleTableRecord
  2
Standard
 70
     0
178
     0
340
11
  0
ENDTAB
  0
TABLE
  2
BLOCK_RECORD
  5
1
330
0
100
AcDbSymbolTable
 70
     1
  0
BLOCK_RECORD
  5
1F
330
1
100
AcDbSymbolTableRecord
100
AcDbBlockTableRecord
  2
*Model_Space
340
22
  0
BLOCK_RECORD
  5
1B
330
1
100
AcDbSymbolTableRecord
100
AcDbBlockTableRecord
  2
*Paper_Space
340
1E
  0
BLOCK_RECORD
  5
23
330
1
100
AcDbSymbolTableRecord
100
AcDbBlockTableRecord
  2
*Paper_Space0
340
26
  0
ENDTAB
  0
ENDSEC
  0
SECTION
  2
BLOCKS
  0
BLOCK
  5
20
330
1F
100
AcDbEntity
  8
0
100
AcDbBlockBegin
  2
*Model_Space
 70
     0
 10
0.0
 20
0.0
 30
0.0
  3
*Model_Space
  1

  0
ENDBLK
  5
21
330
1F
100
AcDbEntity
  8
0
100
AcDbBlockEnd
  0
BLOCK
  5
1C
330
1B
100
AcDbEntity
 67
     1
  8
0
100
AcDbBlockBegin
  2
*Paper_Space
 70
     0
 10
0.0
 20
0.0
 30
0.0
  3
*Paper_Space
  1

  0
ENDBLK
  5
1D
330
1B
100
AcDbEntity
 67
     1
  8
0
100
AcDbBlockEnd
  0
BLOCK
  5
24
330
23
100
AcDbEntity
  8
0
100
AcDbBlockBegin
  2
*Paper_Space0
 70
     0
 10
0.0
 20
0.0
 30
0.0
  3
*Paper_Space0
  1

  0
ENDBLK
  5
25
330
23
100
AcDbEntity
  8
0
100
AcDbBlockEnd
  0
ENDSEC
  0
SECTION
  2
ENTITIES
  0
CIRCLE
  5
73
330
1F
100
AcDbEntity
  8
0
  6
Continuous
 62
     7
370
    25
100
AcDbCircle
 10
2.9816011177
 20
6.3941242131
 30
0.0
 40
0.1249999999999964
  0
CIRCLE
  5
74
330
1F
100
AcDbEntity
  8
0
  6
Continuous
 62
     7
370
    25
100
AcDbCircle
 10
3.2538372285
 20
6.6663603238
 30
0.0
 40
0.0720472440944886
  0
CIRCLE
  5
75
330
1F
100
AcDbEntity
  8
0
  6
Continuous
 62
     7
370
    25
100
AcDbCircle
 10
3.2538372285
 20
6.1218881023
 30
0.0
 40
0.0720472440944868
  0
CIRCLE
  5
76
330
1F
100
AcDbEntity
  8
0
  6
Continuous
 62
     7
370
    25
100
AcDbCircle
 10
2.709365007
 20
6.1218881023
 30
0.0
 40
0.0720472440944739
  0
CIRCLE
  5
77
330
1F
100
AcDbEntity
  8
0
  6
Continuous
 62
     7
370
    25
100
AcDbCircle
 10
2.709365007
 20
6.6663603238
 30
0.0
 40
0.0720472440944748
  0
ARC
  5
78
330
1F
100
AcDbEntity
  8
0
  6
Continuous
 62
     7
370
    25
100
AcDbCircle
 10
5.1108770444
 20
5.2966313529
 30
0.0
 40
1.01968503937008
100
AcDbArc
 50
61.835546953
 51
71.1058488313
  0
ARC
  5
79
330
1F
100
AcDbEntity
  8
0
  6
Continuous
 62
     7
370
    25
100
AcDbCircle
 10
2.9816011177
 20
6.3941242131
 30
0.0
 40
2.618110236220476
100
AcDbArc
 50
354.6194218348
 51
355.6508484355
  0
ARC
  5
7A
330
1F
100
AcDbEntity
  8
0
  6
Continuous
 62
     7
370
    25
100
AcDbCircle
 10
5.2657265423
 20
7.1159812592
 30
0.0
 40
1.01968503937008
100
AcDbArc
 50
279.164421439
 51
288.4347233173
  0
ARC
  5
7B
330
1F
100
AcDbEntity
  8
0
  6
Continuous
 62
     7
370
    25
100
AcDbCircle
 10
2.9816011177
 20
6.3941242131
 30
0.0
 40
2.463051181102366
100
AcDbArc
 50
352.0455909382
 51
353.3598144672
  0
ARC
  5
7C
330
1F
100
AcDbEntity
  8
0
  6
Continuous
 62
     7
370
    25
100
AcDbCircle
 10
5.0101324069
 20
5.1200098701
 30
0.0
 40
1.019685039370079
100
AcDbArc
 50
56.9706820881
 51
66.2409839664
  0
ARC
  5
7D
330
1F
100
AcDbEntity
  8
0
  6
Continuous
 62
     7
370
    25
100
AcDbCircle
 10
2.9816011177
 20
6.3941242131
 30
0.0
 40
2.618110236220476
100
AcDbArc
 50
349.7545569699
 51
350.7859835706
  0
ARC
  5
7E
330
1F
100
AcDbEntity
  8
0
  6
Continuous
 62
     7
370
    25
100
AcDbCircle
 10
5.3187157084
 20
6.9196733927
 30
0.0
 40
1.01968503937008
100
AcDbArc
 50
274.2995565742
 51
283.5698584524
  0
ARC
  5
7F
330
1F
100
AcDbEntity
  8
0
  6
Continuous
 62
     7
370
    25
100
AcDbCircle
 10
2.9816011177
 20
6.3941242131
 30
0.0
 40
2.463051181102366
100
AcDbArc
 50
347.1807260734
 51
348.4949496023
  0
ARC
  5
80
330
1F
100
AcDbEntity
  8
0
  6
Continuous
 62
     7
370
    25
100
AcDbCircle
 10
4.8947721549
 20
4.9525684103
 30
0.0
 40
1.019685039370081
100
AcDbArc
 50
52.1058172232
 51
61.3761191015
  0
ARC
  5
81
330
1F
100
AcDbEntity
  8
0
  6
Continuous
 62
     7
370
    25
100
AcDbCircle
 10
2.9816011177
 20
6.3941242131
 30
0.0
 40
2.618110236220475
100
AcDbArc
 50
344.8896921051
 51
345.9211187058
  0
ARC
  5
82
330
1F
100
AcDbEntity
  8
0
  6
Continuous
 62
     7
370
    25
100
AcDbCircle
 10
5.3548659103
 20
6.7195789323
 30
0.0
 40
1.019685039370082
100
AcDbArc
 50
269.4346917093
 51
278.7049935876
  0
ARC
  5
83
330
1F
100
AcDbEntity
  8
0
  6
Continuous
 62
     7
370
    25
100
AcDbCircle
 10
2.9816011177
 20
6.3941242131
 30
0.0
 40
2.463051181102366
100
AcDbArc
 50
342.3158612085
 51
343.6300847375
  0
ARC
  5
84
330
1F
100
AcDbEntity
  8
0
  6
Continuous
 62
     7
370
    25
100
AcDbCircle
 10
4.7656274618
 20
4.7955133931
 30
0.0
 40
1.019685039370079
100
AcDbArc
 50
47.2409523584
 51
56.5112542367
  0
ARC
  5
85
330
1F
100
AcDbEntity
  8
0
  6
Continuous
 62
     7
370
    25
100
AcDbCircle
 10
2.9816011177
 20
6.3941242131
 30
0.0
 40
2.618110236220474
100
AcDbArc
 50
340.0248272402
 51
341.0562538409
  0
ARC
  5
86
330
1F
100
AcDbEntity
  8
0
  6
Continuous
 62
     7
370
    25
100
AcDbCircle
 10
5.3739166851
 20
6.5171395631
 30
0.0
 40
1.01968503937008
100
AcDbArc
 50
264.5698268444
 51
273.8401287227
  0
ARC
  5
87
330
1F
100
AcDbEntity
  8
0
  6
Continuous
 62
     7
370
    25
100
AcDbCircle
 10
2.9816011177
 20
6.3941242131
 30
0.0
 40
2.463051181102365
100
AcDbArc
 50
337.4509963436
 51
338.7652198726
  0
ARC
  5
88
330
1F
100
AcDbEntity
  8
0
  6
Continuous
 62
     7
370
    25
100
AcDbCircle
 10
4.623628818
 20
4.6499764035
 30
0.0
 40
1.01968503937008
100
AcDbArc
 50
42.3760874935
 51
51.6463893718
  0
ARC
  5
89
330
1F
100
AcDbEntity
  8
0
  6
Continuous
 62
     7
370
    25
100
AcDbCircle
 10
2.9816011177
 20
6.3941242131
 30
0.0
 40
2.618110236220475
100
AcDbArc
 50
335.1599623753
 51
336.191388976
  0
ARC
  5
8A
330
1F
100
AcDbEntity
  8
0
  6
Continuous
 62
     7
370
    25
100
AcDbCircle
 10
5.3757307713
 20
6.3138138656
 30
0.0
 40
1.019685039370079
100
AcDbArc
 50
259.7049619796
 51
268.9752638578
  0
ARC
  5
8B
330
1F
100
AcDbEntity
  8
0
  6
Continuous
 62
     7
370
    25
100
AcDbCircle
 10
2.9816011177
 20
6.3941242131
 30
0.0
 40
2.463051181102365
100
AcDbArc
 50
332.5861314788
 51
333.9003550077
  0
ARC
  5
8C
330
1F
100
AcDbEntity
  8
0
  6
Continuous
 62
     7
370
    25
100
AcDbCircle
 10
4.469799327
 20
4.5170060388
 30
0.0
 40
1.019685039370081
100
AcDbArc
 50
37.5112226286
 51
46.7815245069
  0
ARC
  5
8D
330
1F
100
AcDbEntity
  8
0
  6
Continuous
 62
     7
370
    25
100
AcDbCircle
 10
2.9816011177
 20
6.3941242131
 30
0.0
 40
2.618110236220475
100
AcDbArc
 50
330.2950975105
 51
331.3265241112
  0
ARC
  5
8E
330
1F
100
AcDbEntity
  8
0
  6
Continuous
 62
     7
370
    25
100
AcDbCircle
 10
5.3602950985
 20
6.111066806
 30
0.0
 40
1.019685039370078
100
AcDbArc
 50
254.8400971147
 51
264.110398993
  0
ARC
  5
8F
330
1F
100
AcDbEntity
  8
0
  6
Continuous
 62
     7
370
    25
100
AcDbCircle
 10
2.9816011177
 20
6.3941242131
 30
0.0
 40
2.463051181102365
100
AcDbArc
 50
327.7212666139
 51
329.0354901429
  0
ARC
  5
90
330
1F
100
AcDbEntity
  8
0
  6
Continuous
 62
     7
370
    25
100
AcDbCircle
 10
4.3052473338
 20
4.3975603536
 30
0.0
 40
1.01968503937008
100
AcDbArc
 50
32.6463577638
 51
41.9166596421
  0
ARC
  5
91
330
1F
100
AcDbEntity
  8
0
  6
Continuous
 62
     7
370
    25
100
AcDbCircle
 10
2.9816011177
 20
6.3941242131
 30
0.0
 40
2.618110236220475
100
AcDbArc
 50
325.4302326456
 51
326.4616592463
  0
ARC
  5
92
330
1F
100
AcDbEntity
  8
0
  6
Continuous
 62
     7
370
    25
100
AcDbCircle
 10
5.3277208811
 20
5.9103591814
 30
0.0
 40
1.01968503937008
100
AcDbArc
 50
249.9752322498
 51
259.2455341281
  0
ARC
  5
93
330
1F
100
AcDbEntity
  8
0
  6
Continuous
 62
     7
370
    25
100
AcDbCircle
 10
2.9816011177
 20
6.3941242131
 30
0.0
 40
2.463051181102366
100
AcDbArc
 50
322.856401749
 51
324.170625278
  0
ARC
  5
94
330
1F
100
AcDbEntity
  8
0
  6
Continuous
 62
     7
370
    25
100
AcDbCircle
 10
4.1311584392
 20
4.2924999568
 30
0.0
 40
1.019685039370079
100
AcDbArc
 50
27.7814928989
 51
37.0517947772
  0
ARC
  5
95
330
1F
100
AcDbEntity
  8
0
  6
Continuous
 62
     7
370
    25
100
AcDbCircle
 10
2.9816011177
 20
6.3941242131
 30
0.0
 40
2.618110236220475
100
AcDbArc
 50
320.5653677807
 51
321.5967943814
  0
ARC
  5
96
330
1F
100
AcDbEntity
  8
0
  6
Continuous
 62
     7
370
    25
100
AcDbCircle
 10
5.2782428171
 20
5.713137095
 30
0.0
 40
1.019685039370079
100
AcDbArc
 50
245.110367385
 51
254.3806692633
  0
ARC
  5
97
330
1F
100
AcDbEntity
  8
0
  6
Continuous
 62
     7
370
    25
100
AcDbCircle
 10
2.9816011177
 20
6.3941242131
 30
0.0
 40
2.463051181102364
100
AcDbArc
 50
317.9915368842
 51
319.3057604131
  0
ARC
  5
98
330
1F
100
AcDbEntity
  8
0
  6
Continuous
 62
     7
370
    25
100
AcDbCircle
 10
3.9487869579
 20
4.2025818108
 30
0.0
 40
1.01968503937008
100
AcDbArc
 50
22.916628034
 51
32.1869299123
  0
ARC
  5
99
330
1F
100
AcDbEntity
  8
0
  6
Continuous
 62
     7
370
    25
100
AcDbCircle
 10
2.9816011177
 20
6.3941242131
 30
0.0
 40
2.618110236220475
100
AcDbArc
 50
315.7005029159
 51
316.7319295166
  0
ARC
  5
9A
330
1F
100
AcDbEntity
  8
0
  6
Continuous
 62
     7
370
    25
100
AcDbCircle
 10
5.2122173969
 20
5.5208215364
 30
0.0
 40
1.019685039370079
100
AcDbArc
 50
240.2455025201
 51
249.5158043984
  0
ARC
  5
9B
330
1F
100
AcDbEntity
  8
0
  6
Continuous
 62
     7
370
    25
100
AcDbCircle
 10
2.9816011177
 20
6.3941242131
 30
0.0
 40
2.463051181102365
100
AcDbArc
 50
313.1266720193
 51
314.4408955483
  0
ARC
  5
9C
330
1F
100
AcDbEntity
  8
0
  6
Continuous
 62
     7
370
    25
100
AcDbCircle
 10
3.7594468804
 20
4.1284537781
 30
0.0
 40
1.019685039370079
100
AcDbArc
 50
18.0517631692
 51
27.3220650475
  0
ARC
  5
9D
330
1F
100
AcDbEntity
  8
0
  6
Continuous
 62
     7
370
    25
100
AcDbCircle
 10
2.9816011177
 20
6.3941242131
 30
0.0
 40
2.618110236220475
100
AcDbArc
 50
310.835638051
 51
311.8670646517
  0
ARC
  5
9E
330
1F
100
AcDbEntity
  8
0
  6
Continuous
 62
     7
370
    25
100
AcDbCircle
 10
5.1301203354
 20
5.3347981436
 30
0.0
 40
1.019685039370079
100
AcDbArc
 50
235.3806376552
 51
244.6509395335
  0
ARC
  5
9F
330
1F
100
AcDbEntity
  8
0
  6
Continuous
 62
     7
370
    25
100
AcDbCircle
 10
2.9816011177
 20
6.3941242131
 30
0.0
 40
2.463051181102366
100
AcDbArc
 50
308.2618071544
 51
309.5760306834
  0
ARC
  5
A0
330
1F
100
AcDbEntity
  8
0
  6
Continuous
 62
     7
370
    25
100
AcDbCircle
 10
3.5645024063
 20
4.0706499528
 30
0.0
 40
1.01968503937008
100
AcDbArc
 50
13.1868983043
 51
22.4572001826
  0
ARC
  5
A1
330
1F
100
AcDbEntity
  8
0
  6
Continuous
 62
     7
370
    25
100
AcDbCircle
 10
2.9816011177
 20
6.3941242131
 30
0.0
 40
2.618110236220475
100
AcDbArc
 50
305.9707731861
 51
307.0021997868
  0
ARC
  5
A2
330
1F
100
AcDbEntity
  8
0
  6
Continuous
 62
     7
370
    25
100
AcDbCircle
 10
5.0325431436
 20
5.1564072194
 30
0.0
 40
1.019685039370081
100
AcDbArc
 50
230.5157727904
 51
239.7860746687
  0
ARC
  5
A3
330
1F
100
AcDbEntity
  8
0
  6
Continuous
 62
     7
370
    25
100
AcDbCircle
 10
2.9816011177
 20
6.3941242131
 30
0.0
 40
2.463051181102365
100
AcDbArc
 50
303.3969422896
 51
304.7111658185
  0
ARC
  5
A4
330
1F
100
AcDbEntity
  8
0
  6
Continuous
 62
     7
370
    25
100
AcDbCircle
 10
3.3653581151
 20
4.0295868128
 30
0.0
 40
1.019685039370079
100
AcDbArc
 50
8.3220334395
 51
17.5923353177
  0
ARC
  5
A5
330
1F
100
AcDbEntity
  8
0
  6
Continuous
 62
     7
370
    25
100
AcDbCircle
 10
2.9816011177
 20
6.3941242131
 30
0.0
 40
2.618110236220474
100
AcDbArc
 50
301.1059083213
 51
302.137334922
  0
ARC
  5
A6
330
1F
100
AcDbEntity
  8
0
  6
Continuous
 62
     7
370
    25
100
AcDbCircle
 10
4.9201888676
 20
4.9869340745
 30
0.0
 40
1.01968503937008
100
AcDbArc
 50
225.6509079255
 51
234.9212098038
  0
ARC
  5
A7
330
1F
100
AcDbEntity
  8
0
  6
Continuous
 62
     7
370
    25
100
AcDbCircle
 10
2.9816011177
 20
6.3941242131
 30
0.0
 40
2.463051181102364
100
AcDbArc
 50
298.5320774247
 51
299.8463009537
  0
ARC
  5
A8
330
1F
100
AcDbEntity
  8
0
  6
Continuous
 62
     7
370
    25
100
AcDbCircle
 10
3.1634488459
 20
4.005560219
 30
0.0
 40
1.01968503937008
100
AcDbArc
 50
3.4571685746
 51
12.7274704529
  0
ARC
  5
A9
330
1F
100
AcDbEntity
  8
0
  6
Continuous
 62
     7
370
    25
100
AcDbCircle
 10
2.9816011177
 20
6.3941242131
 30
0.0
 40
2.618110236220475
100
AcDbArc
 50
296.2410434564
 51
297.2724700571
  0
ARC
  5
AA
330
1F
100
AcDbEntity
  8
0
  6
Continuous
 62
     7
370
    25
100
AcDbCircle
 10
4.7938670224
 20
4.8275997668
 30
0.0
 40
1.019685039370081
100
AcDbArc
 50
220.7860430606
 51
230.0563449389
  0
ARC
  5
AB
330
1F
100
AcDbEntity
  8
0
  6
Continuous
 62
     7
370
    25
100
AcDbCircle
 10
2.9816011177
 20
6.3941242131
 30
0.0
 40
2.463051181102366
100
AcDbArc
 50
293.6672125598
 51
294.9814360888
  0
ARC
  5
AC
330
1F
100
AcDbEntity
  8
0
  6
Continuous
 62
     7
370
    25
100
AcDbCircle
 10
2.9602293597
 20
3.9987432834
 30
0.0
 40
1.01968503937008
100
AcDbArc
 50
358.5923037097
 51
7.862605588
  0
ARC
  5
AD
330
1F
100
AcDbEntity
  8
0
  6
Continuous
 62
     7
370
    25
100
AcDbCircle
 10
2.9816011177
 20
6.3941242131
 30
0.0
 40
2.618110236220475
100
AcDbArc
 50
291.3761785915
 51
292.4076051922
  0
ARC
  5
AE
330
1F
100
AcDbEntity
  8
0
  6
Continuous
 62
     7
370
    25
100
AcDbCircle
 10
4.6544877599
 20
4.6795523036
 30
0.0
 40
1.01968503937008
100
AcDbArc
 50
215.9211781958
 51
225.1914800741
  0
ARC
  5
AF
330
1F
100
AcDbEntity
  8
0
  6
Continuous
 62
     7
370
    25
100
AcDbCircle
 10
2.9816011177
 20
6.3941242131
 30
0.0
 40
2.463051181102364
100
AcDbArc
 50
288.802347695
 51
290.1165712239
  0
ARC
  5
B0
330
1F
100
AcDbEntity
  8
0
  6
Continuous
 62
     7
370
    25
100
AcDbCircle
 10
2.7571638575
 20
4.0091851224
 30
0.0
 40
1.01968503937008
100
AcDbArc
 50
353.7274388449
 51
2.9977407231
  0
ARC
  5
B1
330
1F
100
AcDbEntity
  8
0
  6
Continuous
 62
     7
370
    25
100
AcDbCircle
 10
2.9816011177
 20
6.3941242131
 30
0.0
 40
2.618110236220475
100
AcDbArc
 50
286.5113137267
 51
287.5427403274
  0
ARC
  5
B2
330
1F
100
AcDbEntity
  8
0
  6
Continuous
 62
     7
370
    25
100
AcDbCircle
 10
4.5030553107
 20
4.5438583703
 30
0.0
 40
1.01968503937008
100
AcDbArc
 50
211.0563133309
 51
220.3266152092
  0
ARC
  5
B3
330
1F
100
AcDbEntity
  8
0
  6
Continuous
 62
     7
370
    25
100
AcDbCircle
 10
2.9816011177
 20
6.3941242131
 30
0.0
 40
2.463051181102365
100
AcDbArc
 50
283.9374828301
 51
285.2517063591
  0
ARC
  5
B4
330
1F
100
AcDbEntity
  8
0
  6
Continuous
 62
     7
370
    25
100
AcDbCircle
 10
2.5557154309
 20
4.0368105021
 30
0.0
 40
1.019685039370079
100
AcDbArc
 50
348.86257398
 51
358.1328758583
  0
ARC
  5
B5
330
1F
100
AcDbEntity
  8
0
  6
Continuous
 62
     7
370
    25
100
AcDbCircle
 10
2.9816011177
 20
6.3941242131
 30
0.0
 40
2.618110236220474
100
AcDbArc
 50
281.6464488618
 51
282.6778754625
  0
ARC
  5
B6
330
1F
100
AcDbEntity
  8
0
  6
Continuous
 62
     7
370
    25
100
AcDbCircle
 10
4.3406607492
 20
4.4214956449
 30
0.0
 40
1.01968503937008
100
AcDbArc
 50
206.191448466
 51
215.4617503443
  0
ARC
  5
B7
330
1F
100
AcDbEntity
  8
0
  6
Continuous
 62
     7
370
    25
100
AcDbCircle
 10
2.9816011177
 20
6.3941242131
 30
0.0
 40
2.463051181102365
100
AcDbArc
 50
279.0726179652
 51
280.3868414942
  0
ARC
  5
B8
330
1F
100
AcDbEntity
  8
0
  6
Continuous
 62
     7
370
    25
100
AcDbCircle
 10
2.3573355204
 20
4.0814203811
 30
0.0
 40
1.019685039370079
100
AcDbArc
 50
343.9977091151
 51
353.2680109934
  0
ARC
  5
B9
330
1F
100
AcDbEntity
  8
0
  6
Continuous
 62
     7
370
    25
100
AcDbCircle
 10
2.9816011177
 20
6.3941242131
 30
0.0
 40
2.618110236220474
100
AcDbArc
 50
276.781583997
 51
277.8130105976
  0
ARC
  5
BA
330
1F
100
AcDbEntity
  8
0
  6
Continuous
 62
     7
370
    25
100
AcDbCircle
 10
4.168474132
 20
4.3133457534
 30
0.0
 40
1.01968503937008
100
AcDbArc
 50
201.3265836012
 51
210.5968854795
  0
ARC
  5
BB
330
1F
100
AcDbEntity
  8
0
  6
Continuous
 62
     7
370
    25
100
AcDbCircle
 10
2.9816011177
 20
6.3941242131
 30
0.0
 40
2.463051181102364
100
AcDbArc
 50
274.2077531004
 51
275.5219766294
  0
ARC
  5
BC
330
1F
100
AcDbEntity
  8
0
  6
Continuous
 62
     7
370
    25
100
AcDbCircle
 10
2.1634534579
 20
4.1426933443
 30
0.0
 40
1.01968503937008
100
AcDbArc
 50
339.1328442503
 51
348.4031461286
  0
ARC
  5
BD
330
1F
100
AcDbEntity
  8
0
  6
Continuous
 62
     7
370
    25
100
AcDbCircle
 10
2.9816011177
 20
6.3941242131
 30
0.0
 40
2.618110236220474
100
AcDbArc
 50
271.9167191321
 51
272.9481457328
  0
ARC
  5
BE
330
1F
100
AcDbEntity
  8
0
  6
Continuous
 62
     7
370
    25
100
AcDbCircle
 10
3.9877360674
 20
4.2201879184
 30
0.0
 40
1.01968503937008
100
AcDbArc
 50
196.4617187363
 51
205.7320206146
  0
ARC
  5
BF
330
1F
100
AcDbEntity
  8
0
  6
Continuous
 62
     7
370
    25
100
AcDbCircle
 10
2.9816011177
 20
6.3941242131
 30
0.0
 40
2.463051181102365
100
AcDbArc
 50
269.3428882355
 51
270.6571117645
  0
ARC
  5
C0
330
1F
100
AcDbEntity
  8
0
  6
Continuous
 62
     7
370
    25
100
AcDbCircle
 10
1.975466168
 20
4.2201879184
 30
0.0
 40
1.01968503937008
100
AcDbArc
 50
334.2679793854
 51
343.5382812637
  0
ARC
  5
C1
330
1F
100
AcDbEntity
  8
0
  6
Continuous
 62
     7
370
    25
100
AcDbCircle
 10
2.9816011177
 20
6.3941242131
 30
0.0
 40
2.618110236220475
100
AcDbArc
 50
267.0518542672
 51
268.0832808679
  0
ARC
  5
C2
330
1F
100
AcDbEntity
  8
0
  6
Continuous
 62
     7
370
    25
100
AcDbCircle
 10
3.7997487775
 20
4.1426933443
 30
0.0
 40
1.01968503937008
100
AcDbArc
 50
191.5968538714
 51
200.8671557497
  0
ARC
  5
C3
330
1F
100
AcDbEntity
  8
0
  6
Continuous
 62
     7
370
    25
100
AcDbCircle
 10
2.9816011177
 20
6.3941242131
 30
0.0
 40
2.463051181102366
100
AcDbArc
 50
264.4780233707
 51
265.7922468996
  0
ARC
  5
C4
330
1F
100
AcDbEntity
  8
0
  6
Continuous
 62
     7
370
    25
100
AcDbCircle
 10
1.7947281035
 20
4.3133457534
 30
0.0
 40
1.019685039370079
100
AcDbArc
 50
329.4031145205
 51
338.6734163988
  0
ARC
  5
C5
330
1F
100
AcDbEntity
  8
0
  6
Continuous
 62
     7
370
    25
100
AcDbCircle
 10
2.9816011177
 20
6.3941242131
 30
0.0
 40
2.618110236220475
100
AcDbArc
 50
262.1869894024
 51
263.218416003
  0
ARC
  5
C6
330
1F
100
AcDbEntity
  8
0
  6
Continuous
 62
     7
370
    25
100
AcDbCircle
 10
3.605866715
 20
4.0814203811
 30
0.0
 40
1.01968503937008
100
AcDbArc
 50
186.7319890066
 51
196.0022908849
  0
ARC
  5
C7
330
1F
100
AcDbEntity
  8
0
  6
Continuous
 62
     7
370
    25
100
AcDbCircle
 10
2.9816011177
 20
6.3941242131
 30
0.0
 40
2.463051181102364
100
AcDbArc
 50
259.6131585058
 51
260.9273820348
  0
ARC
  5
C8
330
1F
100
AcDbEntity
  8
0
  6
Continuous
 62
     7
370
    25
100
AcDbCircle
 10
1.6225414862
 20
4.4214956449
 30
0.0
 40
1.01968503937008
100
AcDbArc
 50
324.5382496557
 51
333.808551534
  0
ARC
  5
C9
330
1F
100
AcDbEntity
  8
0
  6
Continuous
 62
     7
370
    25
100
AcDbCircle
 10
2.9816011177
 20
6.3941242131
 30
0.0
 40
2.618110236220475
100
AcDbArc
 50
257.3221245375
 51
258.3535511382
  0
ARC
  5
CA
330
1F
100
AcDbEntity
  8
0
  6
Continuous
 62
     7
370
    25
100
AcDbCircle
 10
3.4074868045
 20
4.0368105021
 30
0.0
 40
1.01968503937008
100
AcDbArc
 50
181.8671241417
 51
191.13742602
  0
ARC
  5
CB
330
1F
100
AcDbEntity
  8
0
  6
Continuous
 62
     7
370
    25
100
AcDbCircle
 10
2.9816011177
 20
6.3941242131
 30
0.0
 40
2.463051181102365
100
AcDbArc
 50
254.7482936409
 51
256.0625171699
  0
ARC
  5
CC
330
1F
100
AcDbEntity
  8
0
  6
Continuous
 62
     7
370
    25
100
AcDbCircle
 10
1.4601469247
 20
4.5438583703
 30
0.0
 40
1.019685039370079
100
AcDbArc
 50
319.6733847908
 51
328.9436866691
  0
ARC
  5
CD
330
1F
100
AcDbEntity
  8
0
  6
Continuous
 62
     7
370
    25
100
AcDbCircle
 10
2.9816011177
 20
6.3941242131
 30
0.0
 40
2.618110236220474
100
AcDbArc
 50
252.4572596726
 51
253.4886862733
  0
ARC
  5
CE
330
1F
100
AcDbEntity
  8
0
  6
Continuous
 62
     7
370
    25
100
AcDbCircle
 10
3.2060383779
 20
4.0091851224
 30
0.0
 40
1.01968503937008
100
AcDbArc
 50
177.0022592769
 51
186.2725611551
  0
ARC
  5
CF
330
1F
100
AcDbEntity
  8
0
  6
Continuous
 62
     7
370
    25
100
AcDbCircle
 10
2.9816011177
 20
6.3941242131
 30
0.0
 40
2.463051181102365
100
AcDbArc
 50
249.8834287761
 51
251.197652305
  0
ARC
  5
D0
330
1F
100
AcDbEntity
  8
0
  6
Continuous
 62
     7
370
    25
100
AcDbCircle
 10
1.3087144756
 20
4.6795523036
 30
0.0
 40
1.01968503937008
100
AcDbArc
 50
314.8085199259
 51
324.0788218042
  0
ARC
  5
D1
330
1F
100
AcDbEntity
  8
0
  6
Continuous
 62
     7
370
    25
100
AcDbCircle
 10
2.9816011177
 20
6.3941242131
 30
0.0
 40
2.618110236220474
100
AcDbArc
 50
247.5923948078
 51
248.6238214085
  0
ARC
  5
D2
330
1F
100
AcDbEntity
  8
0
  6
Continuous
 62
     7
370
    25
100
AcDbCircle
 10
3.0029728757
 20
3.9987432834
 30
0.0
 40
1.019685039370079
100
AcDbArc
 50
172.137394412
 51
181.4076962903
  0
ARC
  5
D3
330
1F
100
AcDbEntity
  8
0
  6
Continuous
 62
     7
370
    25
100
AcDbCircle
 10
2.9816011177
 20
6.3941242131
 30
0.0
 40
2.463051181102364
100
AcDbArc
 50
245.0185639112
 51
246.3327874402
  0
ARC
  5
D4
330
1F
100
AcDbEntity
  8
0
  6
Continuous
 62
     7
370
    25
100
AcDbCircle
 10
1.169335213
 20
4.8275997668
 30
0.0
 40
1.01968503937008
100
AcDbArc
 50
309.9436550611
 51
319.2139569394
  0
ARC
  5
D5
330
1F
100
AcDbEntity
  8
0
  6
Continuous
 62
     7
370
    25
100
AcDbCircle
 10
2.9816011177
 20
6.3941242131
 30
0.0
 40
2.618110236220475
100
AcDbArc
 50
242.7275299429
 51
243.7589565436
  0
ARC
  5
D6
330
1F
100
AcDbEntity
  8
0
  6
Continuous
 62
     7
370
    25
100
AcDbCircle
 10
2.7997533895
 20
4.005560219
 30
0.0
 40
1.01968503937008
100
AcDbArc
 50
167.2725295471
 51
176.5428314254
  0
ARC
  5
D7
330
1F
100
AcDbEntity
  8
0
  6
Continuous
 62
     7
370
    25
100
AcDbCircle
 10
2.9816011177
 20
6.3941242131
 30
0.0
 40
2.463051181102364
100
AcDbArc
 50
240.1536990463
 51
241.4679225753
  0
ARC
  5
D8
330
1F
100
AcDbEntity
  8
0
  6
Continuous
 62
     7
370
    25
100
AcDbCircle
 10
1.0430133678
 20
4.9869340745
 30
0.0
 40
1.019685039370078
100
AcDbArc
 50
305.0787901962
 51
314.3490920745
  0
ARC
  5
D9
330
1F
100
AcDbEntity
  8
0
  6
Continuous
 62
     7
370
    25
100
AcDbCircle
 10
2.9816011177
 20
6.3941242131
 30
0.0
 40
2.618110236220475
100
AcDbArc
 50
237.862665078
 51
238.8940916787
  0
ARC
  5
DA
330
1F
100
AcDbEntity
  8
0
  6
Continuous
 62
     7
370
    25
100
AcDbCircle
 10
2.5978441203
 20
4.0295868128
 30
0.0
 40
1.01968503937008
100
AcDbArc
 50
162.4076646823
 51
171.6779665605
  0
ARC
  5
DB
330
1F
100
AcDbEntity
  8
0
  6
Continuous
 62
     7
370
    25
100
AcDbCircle
 10
2.9816011177
 20
6.3941242131
 30
0.0
 40
2.463051181102365
100
AcDbArc
 50
235.2888341815
 51
236.6030577104
  0
ARC
  5
DC
330
1F
100
AcDbEntity
  8
0
  6
Continuous
 62
     7
370
    25
100
AcDbCircle
 10
0.9306590918
 20
5.1564072194
 30
0.0
 40
1.01968503937008
100
AcDbArc
 50
300.2139253313
 51
309.4842272096
  0
ARC
  5
DD
330
1F
100
AcDbEntity
  8
0
  6
Continuous
 62
     7
370
    25
100
AcDbCircle
 10
2.9816011177
 20
6.3941242131
 30
0.0
 40
2.618110236220474
100
AcDbArc
 50
232.9978002132
 51
234.0292268139
  0
ARC
  5
DE
330
1F
100
AcDbEntity
  8
0
  6
Continuous
 62
     7
370
    25
100
AcDbCircle
 10
2.3986998291
 20
4.0706499528
 30
0.0
 40
1.019685039370079
100
AcDbArc
 50
157.5427998174
 51
166.8131016957
  0
ARC
  5
DF
330
1F
100
AcDbEntity
  8
0
  6
Continuous
 62
     7
370
    25
100
AcDbCircle
 10
2.9816011177
 20
6.3941242131
 30
0.0
 40
2.463051181102364
100
AcDbArc
 50
230.4239693166
 51
231.7381928456
  0
ARC
  5
E0
330
1F
100
AcDbEntity
  8
0
  6
Continuous
 62
     7
370
    25
100
AcDbCircle
 10
0.8330819
 20
5.3347981436
 30
0.0
 40
1.019685039370078
100
AcDbArc
 50
295.3490604665
 51
304.6193623448
  0
ARC
  5
E1
330
1F
100
AcDbEntity
  8
0
  6
Continuous
 62
     7
370
    25
100
AcDbCircle
 10
2.9816011177
 20
6.3941242131
 30
0.0
 40
2.618110236220474
100
AcDbArc
 50
228.1329353483
 51
229.164361949
  0
ARC
  5
E2
330
1F
100
AcDbEntity
  8
0
  6
Continuous
 62
     7
370
    25
100
AcDbCircle
 10
2.2037553551
 20
4.1284537781
 30
0.0
 40
1.01968503937008
100
AcDbArc
 50
152.6779349525
 51
161.9482368308
  0
ARC
  5
E3
330
1F
100
AcDbEntity
  8
0
  6
Continuous
 62
     7
370
    25
100
AcDbCircle
 10
2.9816011177
 20
6.3941242131
 30
0.0
 40
2.463051181102365
100
AcDbArc
 50
225.5591044517
 51
226.8733279807
  0
ARC
  5
E4
330
1F
100
AcDbEntity
  8
0
  6
Continuous
 62
     7
370
    25
100
AcDbCircle
 10
0.7509848385
 20
5.5208215364
 30
0.0
 40
1.01968503937008
100
AcDbArc
 50
290.4841956016
 51
299.7544974799
  0
ARC
  5
E5
330
1F
100
AcDbEntity
  8
0
  6
Continuous
 62
     7
370
    25
100
AcDbCircle
 10
2.9816011177
 20
6.3941242131
 30
0.0
 40
2.618110236220475
100
AcDbArc
 50
223.2680704834
 51
224.2994970841
  0
ARC
  5
E6
330
1F
100
AcDbEntity
  8
0
  6
Continuous
 62
     7
370
    25
100
AcDbCircle
 10
2.0144152776
 20
4.2025818108
 30
0.0
 40
1.01968503937008
100
AcDbArc
 50
147.8130700877
 51
157.083371966
  0
ARC
  5
E7
330
1F
100
AcDbEntity
  8
0
  6
Continuous
 62
     7
370
    25
100
AcDbCircle
 10
2.9816011177
 20
6.3941242131
 30
0.0
 40
2.463051181102365
100
AcDbArc
 50
220.6942395869
 51
222.0084631158
  0
ARC
  5
E8
330
1F
100
AcDbEntity
  8
0
  6
Continuous
 62
     7
370
    25
100
AcDbCircle
 10
0.6849594184
 20
5.713137095
 30
0.0
 40
1.019685039370078
100
AcDbArc
 50
285.6193307368
 51
294.889632615
  0
ARC
  5
E9
330
1F
100
AcDbEntity
  8
0
  6
Continuous
 62
     7
370
    25
100
AcDbCircle
 10
2.9816011177
 20
6.3941242131
 30
0.0
 40
2.618110236220475
100
AcDbArc
 50
218.4032056186
 51
219.4346322193
  0
ARC
  5
EA
330
1F
100
AcDbEntity
  8
0
  6
Continuous
 62
     7
370
    25
100
AcDbCircle
 10
1.8320437962
 20
4.2924999568
 30
0.0
 40
1.01968503937008
100
AcDbArc
 50
142.9482052228
 51
152.2185071011
  0
ARC
  5
EB
330
1F
100
AcDbEntity
  8
0
  6
Continuous
 62
     7
370
    25
100
AcDbCircle
 10
2.9816011177
 20
6.3941242131
 30
0.0
 40
2.463051181102365
100
AcDbArc
 50
215.829374722
 51
217.143598251
  0
ARC
  5
EC
330
1F
100
AcDbEntity
  8
0
  6
Continuous
 62
     7
370
    25
100
AcDbCircle
 10
0.6354813543
 20
5.9103591814
 30
0.0
 40
1.01968503937008
100
AcDbArc
 50
280.7544658719
 51
290.0247677502
  0
ARC
  5
ED
330
1F
100
AcDbEntity
  8
0
  6
Continuous
 62
     7
370
    25
100
AcDbCircle
 10
2.9816011177
 20
6.3941242131
 30
0.0
 40
2.618110236220475
100
AcDbArc
 50
213.5383407537
 51
214.5697673544
  0
ARC
  5
EE
330
1F
100
AcDbEntity
  8
0
  6
Continuous
 62
     7
370
    25
100
AcDbCircle
 10
1.6579549016
 20
4.3975603536
 30
0.0
 40
1.019685039370082
100
AcDbArc
 50
138.0833403579
 51
147.3536422362
  0
ARC
  5
EF
330
1F
100
AcDbEntity
  8
0
  6
Continuous
 62
     7
370
    25
100
AcDbCircle
 10
2.9816011177
 20
6.3941242131
 30
0.0
 40
2.463051181102366
100
AcDbArc
 50
210.9645098571
 51
212.2787333861
  0
ARC
  5
F0
330
1F
100
AcDbEntity
  8
0
  6
Continuous
 62
     7
370
    25
100
AcDbCircle
 10
0.6029071369
 20
6.111066806
 30
0.0
 40
1.01968503937008
100
AcDbArc
 50
275.889601007
 51
285.1599028853
  0
ARC
  5
F1
330
1F
100
AcDbEntity
  8
0
  6
Continuous
 62
     7
370
    25
100
AcDbCircle
 10
2.9816011177
 20
6.3941242131
 30
0.0
 40
2.618110236220475
100
AcDbArc
 50
208.6734758888
 51
209.7049024895
  0
ARC
  5
F2
330
1F
100
AcDbEntity
  8
0
  6
Continuous
 62
     7
370
    25
100
AcDbCircle
 10
1.4934029084
 20
4.5170060388
 30
0.0
 40
1.01968503937008
100
AcDbArc
 50
133.2184754931
 51
142.4887773714
  0
ARC
  5
F3
330
1F
100
AcDbEntity
  8
0
  6
Continuous
 62
     7
370
    25
100
AcDbCircle
 10
2.9816011177
 20
6.3941242131
 30
0.0
 40
2.463051181102366
100
AcDbArc
 50
206.0996449923
 51
207.4138685212
  0
ARC
  5
F4
330
1F
100
AcDbEntity
  8
0
  6
Continuous
 62
     7
370
    25
100
AcDbCircle
 10
0.5874714641
 20
6.3138138656
 30
0.0
 40
1.01968503937008
100
AcDbArc
 50
271.0247361422
 51
280.2950380204
  0
ARC
  5
F5
330
1F
100
AcDbEntity
  8
0
  6
Continuous
 62
     7
370
    25
100
AcDbCircle
 10
2.9816011177
 20
6.3941242131
 30
0.0
 40
2.618110236220475
100
AcDbArc
 50
203.808611024
 51
204.8400376247
  0
ARC
  5
F6
330
1F
100
AcDbEntity
  8
0
  6
Continuous
 62
     7
370
    25
100
AcDbCircle
 10
1.3395734174
 20
4.6499764035
 30
0.0
 40
1.019685039370082
100
AcDbArc
 50
128.3536106282
 51
137.6239125065
  0
ARC
  5
F7
330
1F
100
AcDbEntity
  8
0
  6
Continuous
 62
     7
370
    25
100
AcDbCircle
 10
2.9816011177
 20
6.3941242131
 30
0.0
 40
2.463051181102366
100
AcDbArc
 50
201.2347801274
 51
202.5490036564
  0
ARC
  5
F8
330
1F
100
AcDbEntity
  8
0
  6
Continuous
 62
     7
370
    25
100
AcDbCircle
 10
0.5892855504
 20
6.5171395631
 30
0.0
 40
1.019685039370081
100
AcDbArc
 50
266.1598712773
 51
275.4301731556
  0
ARC
  5
F9
330
1F
100
AcDbEntity
  8
0
  6
Continuous
 62
     7
370
    25
100
AcDbCircle
 10
2.9816011177
 20
6.3941242131
 30
0.0
 40
2.618110236220476
100
AcDbArc
 50
198.9437461591
 51
199.9751727598
  0
ARC
  5
FA
330
1F
100
AcDbEntity
  8
0
  6
Continuous
 62
     7
370
    25
100
AcDbCircle
 10
1.1975747736
 20
4.7955133931
 30
0.0
 40
1.019685039370081
100
AcDbArc
 50
123.4887457633
 51
132.7590476416
  0
ARC
  5
FB
330
1F
100
AcDbEntity
  8
0
  6
Continuous
 62
     7
370
    25
100
AcDbCircle
 10
2.9816011177
 20
6.3941242131
 30
0.0
 40
2.463051181102365
100
AcDbArc
 50
196.3699152625
 51
197.6841387915
  0
ARC
  5
FC
330
1F
100
AcDbEntity
  8
0
  6
Continuous
 62
     7
370
    25
100
AcDbCircle
 10
0.6083363251
 20
6.7195789323
 30
0.0
 40
1.019685039370079
100
AcDbArc
 50
261.2950064124
 51
270.5653082907
  0
ARC
  5
FD
330
1F
100
AcDbEntity
  8
0
  6
Continuous
 62
     7
370
    25
100
AcDbCircle
 10
2.9816011177
 20
6.3941242131
 30
0.0
 40
2.618110236220475
100
AcDbArc
 50
194.0788812943
 51
195.1103078949
  0
ARC
  5
FE
330
1F
100
AcDbEntity
  8
0
  6
Continuous
 62
     7
370
    25
100
AcDbCircle
 10
1.0684300805
 20
4.9525684103
 30
0.0
 40
1.01968503937008
100
AcDbArc
 50
118.6238808985
 51
127.8941827768
  0
ARC
  5
FF
330
1F
100
AcDbEntity
  8
0
  6
Continuous
 62
     7
370
    25
100
AcDbCircle
 10
2.9816011177
 20
6.3941242131
 30
0.0
 40
2.463051181102365
100
AcDbArc
 50
191.5050503977
 51
192.8192739266
  0
ARC
  5
100
330
1F
100
AcDbEntity
  8
0
  6
Continuous
 62
     7
370
    25
100
AcDbCircle
 10
0.6444865271
 20
6.9196733927
 30
0.0
 40
1.019685039370079
100
AcDbArc
 50
256.4301415476
 51
265.7004434258
  0
ARC
  5
101
330
1F
100
AcDbEntity
  8
0
  6
Continuous
 62
     7
370
    25
100
AcDbCircle
 10
2.9816011177
 20
6.3941242131
 30
0.0
 40
2.618110236220476
100
AcDbArc
 50
189.2140164294
 51
190.2454430301
  0
ARC
  5
102
330
1F
100
AcDbEntity
  8
0
  6
Continuous
 62
     7
370
    25
100
AcDbCircle
 10
0.9530698285
 20
5.1200098701
 30
0.0
 40
1.019685039370081
100
AcDbArc
 50
113.7590160336
 51
123.0293179119
  0
ARC
  5
103
330
1F
100
AcDbEntity
  8
0
  6
Continuous
 62
     7
370
    25
100
AcDbCircle
 10
2.9816011177
 20
6.3941242131
 30
0.0
 40
2.463051181102365
100
AcDbArc
 50
186.6401855328
 51
187.9544090618
  0
ARC
  5
104
330
1F
100
AcDbEntity
  8
0
  6
Continuous
 62
     7
370
    25
100
AcDbCircle
 10
0.6974756932
 20
7.1159812592
 30
0.0
 40
1.01968503937008
100
AcDbArc
 50
251.5652766827
 51
260.835578561
  0
ARC
  5
105
330
1F
100
AcDbEntity
  8
0
  6
Continuous
 62
     7
370
    25
100
AcDbCircle
 10
2.9816011177
 20
6.3941242131
 30
0.0
 40
2.618110236220475
100
AcDbArc
 50
184.3491515645
 51
185.3805781652
  0
ARC
  5
106
330
1F
100
AcDbEntity
  8
0
  6
Continuous
 62
     7
370
    25
100
AcDbCircle
 10
0.852325191
 20
5.2966313529
 30
0.0
 40
1.019685039370081
100
AcDbArc
 50
108.8941511687
 51
118.164453047
  0
ARC
  5
107
330
1F
100
AcDbEntity
  8
0
  6
Continuous
 62
     7
370
    25
100
AcDbCircle
 10
2.9816011177
 20
6.3941242131
 30
0.0
 40
2.463051181102366
100
AcDbArc
 50
181.7753206679
 51
183.0895441969
  0
ARC
  5
108
330
1F
100
AcDbEntity
  8
0
  6
Continuous
 62
     7
370
    25
100
AcDbCircle
 10
0.7669220353
 20
7.3070881292
 30
0.0
 40
1.019685039370079
100
AcDbArc
 50
246.7004118178
 51
255.9707136961
  0
ARC
  5
109
330
1F
100
AcDbEntity
  8
0
  6
Continuous
 62
     7
370
    25
100
AcDbCircle
 10
2.9816011177
 20
6.3941242131
 30
0.0
 40
2.618110236220475
100
AcDbArc
 50
179.4842866997
 51
180.5157133003
  0
ARC
  5
10A
330
1F
100
AcDbEntity
  8
0
  6
Continuous
 62
     7
370
    25
100
AcDbCircle
 10
0.7669220353
 20
5.481160297
 30
0.0
 40
1.01968503937008
100
AcDbArc
 50
104.0292863039
 51
113.2995881822
  0
ARC
  5
10B
330
1F
100
AcDbEntity
  8
0
  6
Continuous
 62
     7
370
    25
100
AcDbCircle
 10
2.9816011177
 20
6.3941242131
 30
0.0
 40
2.463051181102367
100
AcDbArc
 50
176.9104558031
 51
178.2246793321
  0
ARC
  5
10C
330
1F
100
AcDbEntity
  8
0
  6
Continuous
 62
     7
370
    25
100
AcDbCircle
 10
0.852325191
 20
7.4916170732
 30
0.0
 40
1.019685039370078
100
AcDbArc
 50
241.835546953
 51
251.1058488313
  0
ARC
  5
10D
330
1F
100
AcDbEntity
  8
0
  6
Continuous
 62
     7
370
    25
100
AcDbCircle
 10
2.9816011177
 20
6.3941242131
 30
0.0
 40
2.618110236220476
100
AcDbArc
 50
174.6194218348
 51
175.6508484355
  0
ARC
  5
10E
330
1F
100
AcDbEntity
  8
0
  6
Continuous
 62
     7
370
    25
100
AcDbCircle
 10
0.6974756932
 20
5.6722671669
 30
0.0
 40
1.01968503937008
100
AcDbArc
 50
99.164421439
 51
108.4347233173
  0
ARC
  5
10F
330
1F
100
AcDbEntity
  8
0
  6
Continuous
 62
     7
370
    25
100
AcDbCircle
 10
2.9816011177
 20
6.3941242131
 30
0.0
 40
2.463051181102366
100
AcDbArc
 50
172.0455909382
 51
173.3598144672
  0
ARC
  5
110
330
1F
100
AcDbEntity
  8
0
  6
Continuous
 62
     7
370
    25
100
AcDbCircle
 10
0.9530698285
 20
7.668238556
 30
0.0
 40
1.01968503937008
100
AcDbArc
 50
236.9706820881
 51
246.2409839664
  0
ARC
  5
111
330
1F
100
AcDbEntity
  8
0
  6
Continuous
 62
     7
370
    25
100
AcDbCircle
 10
2.9816011177
 20
6.3941242131
 30
0.0
 40
2.618110236220476
100
AcDbArc
 50
169.7545569699
 51
170.7859835706
  0
ARC
  5
112
330
1F
100
AcDbEntity
  8
0
  6
Continuous
 62
     7
370
    25
100
AcDbCircle
 10
0.6444865271
 20
5.8685750334
 30
0.0
 40
1.019685039370078
100
AcDbArc
 50
94.2995565742
 51
103.5698584524
  0
ARC
  5
113
330
1F
100
AcDbEntity
  8
0
  6
Continuous
 62
     7
370
    25
100
AcDbCircle
 10
2.9816011177
 20
6.3941242131
 30
0.0
 40
2.463051181102366
100
AcDbArc
 50
167.1807260734
 51
168.4949496023
  0
ARC
  5
114
330
1F
100
AcDbEntity
  8
0
  6
Continuous
 62
     7
370
    25
100
AcDbCircle
 10
1.0684300805
 20
7.8356800158
 30
0.0
 40
1.01968503937008
100
AcDbArc
 50
232.1058172232
 51
241.3761191015
  0
ARC
  5
115
330
1F
100
AcDbEntity
  8
0
  6
Continuous
 62
     7
370
    25
100
AcDbCircle
 10
2.9816011177
 20
6.3941242131
 30
0.0
 40
2.618110236220475
100
AcDbArc
 50
164.8896921051
 51
165.9211187057
  0
ARC
  5
116
330
1F
100
AcDbEntity
  8
0
  6
Continuous
 62
     7
370
    25
100
AcDbCircle
 10
0.6083363251
 20
6.0686694939
 30
0.0
 40
1.019685039370079
100
AcDbArc
 50
89.4346917093
 51
98.7049935876
  0
ARC
  5
117
330
1F
100
AcDbEntity
  8
0
  6
Continuous
 62
     7
370
    25
100
AcDbCircle
 10
2.9816011177
 20
6.3941242131
 30
0.0
 40
2.463051181102364
100
AcDbArc
 50
162.3158612085
 51
163.6300847375
  0
ARC
  5
118
330
1F
100
AcDbEntity
  8
0
  6
Continuous
 62
     7
370
    25
100
AcDbCircle
 10
1.1975747736
 20
7.992735033
 30
0.0
 40
1.01968503937008
100
AcDbArc
 50
227.2409523584
 51
236.5112542367
  0
ARC
  5
119
330
1F
100
AcDbEntity
  8
0
  6
Continuous
 62
     7
370
    25
100
AcDbCircle
 10
2.9816011177
 20
6.3941242131
 30
0.0
 40
2.618110236220477
100
AcDbArc
 50
160.0248272402
 51
161.0562538409
  0
ARC
  5
11A
330
1F
100
AcDbEntity
  8
0
  6
Continuous
 62
     7
370
    25
100
AcDbCircle
 10
0.5892855504
 20
6.271108863
 30
0.0
 40
1.019685039370078
100
AcDbArc
 50
84.5698268444
 51
93.8401287227
  0
ARC
  5
11B
330
1F
100
AcDbEntity
  8
0
  6
Continuous
 62
     7
370
    25
100
AcDbCircle
 10
2.9816011177
 20
6.3941242131
 30
0.0
 40
2.463051181102366
100
AcDbArc
 50
157.4509963436
 51
158.7652198726
  0
ARC
  5
11C
330
1F
100
AcDbEntity
  8
0
  6
Continuous
 62
     7
370
    25
100
AcDbCircle
 10
1.3395734174
 20
8.1382720226
 30
0.0
 40
1.019685039370078
100
AcDbArc
 50
222.3760874935
 51
231.6463893718
  0
ARC
  5
11D
330
1F
100
AcDbEntity
  8
0
  6
Continuous
 62
     7
370
    25
100
AcDbCircle
 10
2.9816011177
 20
6.3941242131
 30
0.0
 40
2.618110236220475
100
AcDbArc
 50
155.1599623753
 51
156.191388976
  0
ARC
  5
11E
330
1F
100
AcDbEntity
  8
0
  6
Continuous
 62
     7
370
    25
100
AcDbCircle
 10
0.5874714641
 20
6.4744345605
 30
0.0
 40
1.01968503937008
100
AcDbArc
 50
79.7049619796
 51
88.9752638578
  0
ARC
  5
11F
330
1F
100
AcDbEntity
  8
0
  6
Continuous
 62
     7
370
    25
100
AcDbCircle
 10
2.9816011177
 20
6.3941242131
 30
0.0
 40
2.463051181102364
100
AcDbArc
 50
152.5861314788
 51
153.9003550077
  0
ARC
  5
120
330
1F
100
AcDbEntity
  8
0
  6
Continuous
 62
     7
370
    25
100
AcDbCircle
 10
1.4934029084
 20
8.2712423873
 30
0.0
 40
1.019685039370079
100
AcDbArc
 50
217.5112226286
 51
226.7815245069
  0
ARC
  5
121
330
1F
100
AcDbEntity
  8
0
  6
Continuous
 62
     7
370
    25
100
AcDbCircle
 10
2.9816011177
 20
6.3941242131
 30
0.0
 40
2.618110236220475
100
AcDbArc
 50
150.2950975105
 51
151.3265241112
  0
ARC
  5
122
330
1F
100
AcDbEntity
  8
0
  6
Continuous
 62
     7
370
    25
100
AcDbCircle
 10
0.6029071369
 20
6.6771816201
 30
0.0
 40
1.019685039370078
100
AcDbArc
 50
74.8400971147
 51
84.110398993
  0
ARC
  5
123
330
1F
100
AcDbEntity
  8
0
  6
Continuous
 62
     7
370
    25
100
AcDbCircle
 10
2.9816011177
 20
6.3941242131
 30
0.0
 40
2.463051181102365
100
AcDbArc
 50
147.7212666139
 51
149.0354901429
  0
ARC
  5
124
330
1F
100
AcDbEntity
  8
0
  6
Continuous
 62
     7
370
    25
100
AcDbCircle
 10
1.6579549016
 20
8.3906880725
 30
0.0
 40
1.01968503937008
100
AcDbArc
 50
212.6463577638
 51
221.9166596421
  0
ARC
  5
125
330
1F
100
AcDbEntity
  8
0
  6
Continuous
 62
     7
370
    25
100
AcDbCircle
 10
2.9816011177
 20
6.3941242131
 30
0.0
 40
2.618110236220475
100
AcDbArc
 50
145.4302326456
 51
146.4616592463
  0
ARC
  5
126
330
1F
100
AcDbEntity
  8
0
  6
Continuous
 62
     7
370
    25
100
AcDbCircle
 10
0.6354813543
 20
6.8778892447
 30
0.0
 40
1.01968503937008
100
AcDbArc
 50
69.9752322498
 51
79.2455341281
  0
ARC
  5
127
330
1F
100
AcDbEntity
  8
0
  6
Continuous
 62
     7
370
    25
100
AcDbCircle
 10
2.9816011177
 20
6.3941242131
 30
0.0
 40
2.463051181102366
100
AcDbArc
 50
142.856401749
 51
144.170625278
  0
ARC
  5
128
330
1F
100
AcDbEntity
  8
0
  6
Continuous
 62
     7
370
    25
100
AcDbCircle
 10
1.8320437962
 20
8.4957484693
 30
0.0
 40
1.019685039370079
100
AcDbArc
 50
207.7814928989
 51
217.0517947772
  0
ARC
  5
129
330
1F
100
AcDbEntity
  8
0
  6
Continuous
 62
     7
370
    25
100
AcDbCircle
 10
2.9816011177
 20
6.3941242131
 30
0.0
 40
2.618110236220475
100
AcDbArc
 50
140.5653677807
 51
141.5967943814
  0
ARC
  5
12A
330
1F
100
AcDbEntity
  8
0
  6
Continuous
 62
     7
370
    25
100
AcDbCircle
 10
0.6849594184
 20
7.0751113311
 30
0.0
 40
1.019685039370078
100
AcDbArc
 50
65.110367385
 51
74.3806692632
  0
ARC
  5
12B
330
1F
100
AcDbEntity
  8
0
  6
Continuous
 62
     7
370
    25
100
AcDbCircle
 10
2.9816011177
 20
6.3941242131
 30
0.0
 40
2.463051181102366
100
AcDbArc
 50
137.9915368842
 51
139.3057604131
  0
ARC
  5
12C
330
1F
100
AcDbEntity
  8
0
  6
Continuous
 62
     7
370
    25
100
AcDbCircle
 10
2.0144152776
 20
8.5856666153
 30
0.0
 40
1.01968503937008
100
AcDbArc
 50
202.916628034
 51
212.1869299123
  0
ARC
  5
12D
330
1F
100
AcDbEntity
  8
0
  6
Continuous
 62
     7
370
    25
100
AcDbCircle
 10
2.9816011177
 20
6.3941242131
 30
0.0
 40
2.618110236220476
100
AcDbArc
 50
135.7005029159
 51
136.7319295166
  0
ARC
  5
12E
330
1F
100
AcDbEntity
  8
0
  6
Continuous
 62
     7
370
    25
100
AcDbCircle
 10
0.7509848385
 20
7.2674268897
 30
0.0
 40
1.019685039370078
100
AcDbArc
 50
60.2455025201
 51
69.5158043984
  0
ARC
  5
12F
330
1F
100
AcDbEntity
  8
0
  6
Continuous
 62
     7
370
    25
100
AcDbCircle
 10
2.9816011177
 20
6.3941242131
 30
0.0
 40
2.463051181102365
100
AcDbArc
 50
133.1266720193
 51
134.4408955483
  0
ARC
  5
130
330
1F
100
AcDbEntity
  8
0
  6
Continuous
 62
     7
370
    25
100
AcDbCircle
 10
2.2037553551
 20
8.659794648
 30
0.0
 40
1.01968503937008
100
AcDbArc
 50
198.0517631692
 51
207.3220650475
  0
ARC
  5
131
330
1F
100
AcDbEntity
  8
0
  6
Continuous
 62
     7
370
    25
100
AcDbCircle
 10
2.9816011177
 20
6.3941242131
 30
0.0
 40
2.618110236220475
100
AcDbArc
 50
130.835638051
 51
131.8670646517
  0
ARC
  5
132
330
1F
100
AcDbEntity
  8
0
  6
Continuous
 62
     7
370
    25
100
AcDbCircle
 10
0.8330819
 20
7.4534502825
 30
0.0
 40
1.01968503937008
100
AcDbArc
 50
55.3806376552
 51
64.6509395335
  0
ARC
  5
133
330
1F
100
AcDbEntity
  8
0
  6
Continuous
 62
     7
370
    25
100
AcDbCircle
 10
2.9816011177
 20
6.3941242131
 30
0.0
 40
2.463051181102367
100
AcDbArc
 50
128.2618071544
 51
129.5760306834
  0
ARC
  5
134
330
1F
100
AcDbEntity
  8
0
  6
Continuous
 62
     7
370
    25
100
AcDbCircle
 10
2.3986998291
 20
8.7175984733
 30
0.0
 40
1.01968503937008
100
AcDbArc
 50
193.1868983043
 51
202.4572001826
  0
ARC
  5
135
330
1F
100
AcDbEntity
  8
0
  6
Continuous
 62
     7
370
    25
100
AcDbCircle
 10
2.9816011177
 20
6.3941242131
 30
0.0
 40
2.618110236220476
100
AcDbArc
 50
125.9707731861
 51
127.0021997868
  0
ARC
  5
136
330
1F
100
AcDbEntity
  8
0
  6
Continuous
 62
     7
370
    25
100
AcDbCircle
 10
0.9306590918
 20
7.6318412067
 30
0.0
 40
1.019685039370079
100
AcDbArc
 50
50.5157727904
 51
59.7860746687
  0
ARC
  5
137
330
1F
100
AcDbEntity
  8
0
  6
Continuous
 62
     7
370
    25
100
AcDbCircle
 10
2.9816011177
 20
6.3941242131
 30
0.0
 40
2.463051181102365
100
AcDbArc
 50
123.3969422896
 51
124.7111658185
  0
ARC
  5
138
330
1F
100
AcDbEntity
  8
0
  6
Continuous
 62
     7
370
    25
100
AcDbCircle
 10
2.5978441203
 20
8.7586616133
 30
0.0
 40
1.01968503937008
100
AcDbArc
 50
188.3220334395
 51
197.5923353177
  0
ARC
  5
139
330
1F
100
AcDbEntity
  8
0
  6
Continuous
 62
     7
370
    25
100
AcDbCircle
 10
2.9816011177
 20
6.3941242131
 30
0.0
 40
2.618110236220475
100
AcDbArc
 50
121.1059083213
 51
122.137334922
  0
ARC
  5
13A
330
1F
100
AcDbEntity
  8
0
  6
Continuous
 62
     7
370
    25
100
AcDbCircle
 10
1.0430133678
 20
7.8013143516
 30
0.0
 40
1.019685039370079
100
AcDbArc
 50
45.6509079255
 51
54.9212098038
  0
ARC
  5
13B
330
1F
100
AcDbEntity
  8
0
  6
Continuous
 62
     7
370
    25
100
AcDbCircle
 10
2.9816011177
 20
6.3941242131
 30
0.0
 40
2.463051181102364
100
AcDbArc
 50
118.5320774247
 51
119.8463009537
  0
ARC
  5
13C
330
1F
100
AcDbEntity
  8
0
  6
Continuous
 62
     7
370
    25
100
AcDbCircle
 10
2.7997533895
 20
8.7826882071
 30
0.0
 40
1.019685039370081
100
AcDbArc
 50
183.4571685746
 51
192.7274704529
  0
ARC
  5
13D
330
1F
100
AcDbEntity
  8
0
  6
Continuous
 62
     7
370
    25
100
AcDbCircle
 10
2.9816011177
 20
6.3941242131
 30
0.0
 40
2.618110236220477
100
AcDbArc
 50
116.2410434564
 51
117.2724700571
  0
ARC
  5
13E
330
1F
100
AcDbEntity
  8
0
  6
Continuous
 62
     7
370
    25
100
AcDbCircle
 10
1.169335213
 20
7.9606486593
 30
0.0
 40
1.019685039370081
100
AcDbArc
 50
40.7860430606
 51
50.0563449389
  0
ARC
  5
13F
330
1F
100
AcDbEntity
  8
0
  6
Continuous
 62
     7
370
    25
100
AcDbCircle
 10
2.9816011177
 20
6.3941242131
 30
0.0
 40
2.463051181102366
100
AcDbArc
 50
113.6672125598
 51
114.9814360888
  0
ARC
  5
140
330
1F
100
AcDbEntity
  8
0
  6
Continuous
 62
     7
370
    25
100
AcDbCircle
 10
3.0029728757
 20
8.7895051427
 30
0.0
 40
1.01968503937008
100
AcDbArc
 50
178.5923037097
 51
187.862605588
  0
ARC
  5
141
330
1F
100
AcDbEntity
  8
0
  6
Continuous
 62
     7
370
    25
100
AcDbCircle
 10
2.9816011177
 20
6.3941242131
 30
0.0
 40
2.618110236220475
100
AcDbArc
 50
111.3761785915
 51
112.4076051922
  0
ARC
  5
142
330
1F
100
AcDbEntity
  8
0
  6
Continuous
 62
     7
370
    25
100
AcDbCircle
 10
1.3087144756
 20
8.1086961225
 30
0.0
 40
1.019685039370078
100
AcDbArc
 50
35.9211781958
 51
45.1914800741
  0
ARC
  5
143
330
1F
100
AcDbEntity
  8
0
  6
Continuous
 62
     7
370
    25
100
AcDbCircle
 10
2.9816011177
 20
6.3941242131
 30
0.0
 40
2.463051181102367
100
AcDbArc
 50
108.802347695
 51
110.1165712239
  0
ARC
  5
144
330
1F
100
AcDbEntity
  8
0
  6
Continuous
 62
     7
370
    25
100
AcDbCircle
 10
3.2060383779
 20
8.7790633037
 30
0.0
 40
1.01968503937008
100
AcDbArc
 50
173.7274388449
 51
182.9977407231
  0
ARC
  5
145
330
1F
100
AcDbEntity
  8
0
  6
Continuous
 62
     7
370
    25
100
AcDbCircle
 10
2.9816011177
 20
6.3941242131
 30
0.0
 40
2.618110236220476
100
AcDbArc
 50
106.5113137267
 51
107.5427403274
  0
ARC
  5
146
330
1F
100
AcDbEntity
  8
0
  6
Continuous
 62
     7
370
    25
100
AcDbCircle
 10
1.4601469247
 20
8.2443900558
 30
0.0
 40
1.019685039370081
100
AcDbArc
 50
31.0563133309
 51
40.3266152092
  0
ARC
  5
147
330
1F
100
AcDbEntity
  8
0
  6
Continuous
 62
     7
370
    25
100
AcDbCircle
 10
2.9816011177
 20
6.3941242131
 30
0.0
 40
2.463051181102365
100
AcDbArc
 50
103.9374828301
 51
105.2517063591
  0
ARC
  5
148
330
1F
100
AcDbEntity
  8
0
  6
Continuous
 62
     7
370
    25
100
AcDbCircle
 10
3.4074868045
 20
8.751437924
 30
0.0
 40
1.019685039370079
100
AcDbArc
 50
168.86257398
 51
178.1328758583
  0
ARC
  5
149
330
1F
100
AcDbEntity
  8
0
  6
Continuous
 62
     7
370
    25
100
AcDbCircle
 10
2.9816011177
 20
6.3941242131
 30
0.0
 40
2.618110236220476
100
AcDbArc
 50
101.6464488618
 51
102.6778754625
  0
ARC
  5
14A
330
1F
100
AcDbEntity
  8
0
  6
Continuous
 62
     7
370
    25
100
AcDbCircle
 10
1.6225414862
 20
8.3667527813
 30
0.0
 40
1.019685039370079
100
AcDbArc
 50
26.191448466
 51
35.4617503443
  0
ARC
  5
14B
330
1F
100
AcDbEntity
  8
0
  6
Continuous
 62
     7
370
    25
100
AcDbCircle
 10
2.9816011177
 20
6.3941242131
 30
0.0
 40
2.463051181102364
100
AcDbArc
 50
99.0726179652
 51
100.3868414942
  0
ARC
  5
14C
330
1F
100
AcDbEntity
  8
0
  6
Continuous
 62
     7
370
    25
100
AcDbCircle
 10
3.605866715
 20
8.706828045
 30
0.0
 40
1.01968503937008
100
AcDbArc
 50
163.9977091151
 51
173.2680109934
  0
ARC
  5
14D
330
1F
100
AcDbEntity
  8
0
  6
Continuous
 62
     7
370
    25
100
AcDbCircle
 10
2.9816011177
 20
6.3941242131
 30
0.0
 40
2.618110236220476
100
AcDbArc
 50
96.781583997
 51
97.8130105976
  0
ARC
  5
14E
330
1F
100
AcDbEntity
  8
0
  6
Continuous
 62
     7
370
    25
100
AcDbCircle
 10
1.7947281035
 20
8.4749026727
 30
0.0
 40
1.01968503937008
100
AcDbArc
 50
21.3265836012
 51
30.5968854795
  0
ARC
  5
14F
330
1F
100
AcDbEntity
  8
0
  6
Continuous
 62
     7
370
    25
100
AcDbCircle
 10
2.9816011177
 20
6.3941242131
 30
0.0
 40
2.463051181102367
100
AcDbArc
 50
94.2077531004
 51
95.5219766293
  0
ARC
  5
150
330
1F
100
AcDbEntity
  8
0
  6
Continuous
 62
     7
370
    25
100
AcDbCircle
 10
3.7997487775
 20
8.6455550818
 30
0.0
 40
1.01968503937008
100
AcDbArc
 50
159.1328442503
 51
168.4031461286
  0
ARC
  5
151
330
1F
100
AcDbEntity
  8
0
  6
Continuous
 62
     7
370
    25
100
AcDbCircle
 10
2.9816011177
 20
6.3941242131
 30
0.0
 40
2.618110236220476
100
AcDbArc
 50
91.9167191321
 51
92.9481457328
  0
ARC
  5
152
330
1F
100
AcDbEntity
  8
0
  6
Continuous
 62
     7
370
    25
100
AcDbCircle
 10
1.975466168
 20
8.5680605077
 30
0.0
 40
1.01968503937008
100
AcDbArc
 50
16.4617187363
 51
25.7320206146
  0
ARC
  5
153
330
1F
100
AcDbEntity
  8
0
  6
Continuous
 62
     7
370
    25
100
AcDbCircle
 10
2.9816011177
 20
6.3941242131
 30
0.0
 40
2.463051181102367
100
AcDbArc
 50
89.3428882355
 51
90.6571117645
  0
ARC
  5
154
330
1F
100
AcDbEntity
  8
0
  6
Continuous
 62
     7
370
    25
100
AcDbCircle
 10
3.9877360674
 20
8.5680605077
 30
0.0
 40
1.01968503937008
100
AcDbArc
 50
154.2679793854
 51
163.5382812637
  0
ARC
  5
155
330
1F
100
AcDbEntity
  8
0
  6
Continuous
 62
     7
370
    25
100
AcDbCircle
 10
2.9816011177
 20
6.3941242131
 30
0.0
 40
2.618110236220474
100
AcDbArc
 50
87.0518542672
 51
88.0832808679
  0
ARC
  5
156
330
1F
100
AcDbEntity
  8
0
  6
Continuous
 62
     7
370
    25
100
AcDbCircle
 10
2.1634534579
 20
8.6455550818
 30
0.0
 40
1.01968503937008
100
AcDbArc
 50
11.5968538714
 51
20.8671557497
  0
ARC
  5
157
330
1F
100
AcDbEntity
  8
0
  6
Continuous
 62
     7
370
    25
100
AcDbCircle
 10
2.9816011177
 20
6.3941242131
 30
0.0
 40
2.463051181102365
100
AcDbArc
 50
84.4780233707
 51
85.7922468996
  0
ARC
  5
158
330
1F
100
AcDbEntity
  8
0
  6
Continuous
 62
     7
370
    25
100
AcDbCircle
 10
4.168474132
 20
8.4749026727
 30
0.0
 40
1.019685039370079
100
AcDbArc
 50
149.4031145205
 51
158.6734163988
  0
ARC
  5
159
330
1F
100
AcDbEntity
  8
0
  6
Continuous
 62
     7
370
    25
100
AcDbCircle
 10
2.9816011177
 20
6.3941242131
 30
0.0
 40
2.618110236220476
100
AcDbArc
 50
82.1869894024
 51
83.218416003
  0
ARC
  5
15A
330
1F
100
AcDbEntity
  8
0
  6
Continuous
 62
     7
370
    25
100
AcDbCircle
 10
2.3573355204
 20
8.706828045
 30
0.0
 40
1.01968503937008
100
AcDbArc
 50
6.7319890066
 51
16.0022908849
  0
ARC
  5
15B
330
1F
100
AcDbEntity
  8
0
  6
Continuous
 62
     7
370
    25
100
AcDbCircle
 10
2.9816011177
 20
6.3941242131
 30
0.0
 40
2.463051181102365
100
AcDbArc
 50
79.6131585058
 51
80.9273820348
  0
ARC
  5
15C
330
1F
100
AcDbEntity
  8
0
  6
Continuous
 62
     7
370
    25
100
AcDbCircle
 10
4.3406607492
 20
8.3667527813
 30
0.0
 40
1.01968503937008
100
AcDbArc
 50
144.5382496557
 51
153.808551534
  0
ARC
  5
15D
330
1F
100
AcDbEntity
  8
0
  6
Continuous
 62
     7
370
    25
100
AcDbCircle
 10
2.9816011177
 20
6.3941242131
 30
0.0
 40
2.618110236220476
100
AcDbArc
 50
77.3221245375
 51
78.3535511382
  0
ARC
  5
15E
330
1F
100
AcDbEntity
  8
0
  6
Continuous
 62
     7
370
    25
100
AcDbCircle
 10
2.5557154309
 20
8.751437924
 30
0.0
 40
1.019685039370079
100
AcDbArc
 50
1.8671241417
 51
11.13742602
  0
ARC
  5
15F
330
1F
100
AcDbEntity
  8
0
  6
Continuous
 62
     7
370
    25
100
AcDbCircle
 10
2.9816011177
 20
6.3941242131
 30
0.0
 40
2.463051181102366
100
AcDbArc
 50
74.7482936409
 51
76.0625171699
  0
ARC
  5
160
330
1F
100
AcDbEntity
  8
0
  6
Continuous
 62
     7
370
    25
100
AcDbCircle
 10
4.5030553107
 20
8.2443900558
 30
0.0
 40
1.01968503937008
100
AcDbArc
 50
139.6733847908
 51
148.9436866691
  0
ARC
  5
161
330
1F
100
AcDbEntity
  8
0
  6
Continuous
 62
     7
370
    25
100
AcDbCircle
 10
2.9816011177
 20
6.3941242131
 30
0.0
 40
2.618110236220477
100
AcDbArc
 50
72.4572596726
 51
73.4886862733
  0
ARC
  5
162
330
1F
100
AcDbEntity
  8
0
  6
Continuous
 62
     7
370
    25
100
AcDbCircle
 10
2.7571638575
 20
8.7790633037
 30
0.0
 40
1.01968503937008
100
AcDbArc
 50
357.0022592769
 51
6.2725611551
  0
ARC
  5
163
330
1F
100
AcDbEntity
  8
0
  6
Continuous
 62
     7
370
    25
100
AcDbCircle
 10
2.9816011177
 20
6.3941242131
 30
0.0
 40
2.463051181102365
100
AcDbArc
 50
69.8834287761
 51
71.197652305
  0
ARC
  5
164
330
1F
100
AcDbEntity
  8
0
  6
Continuous
 62
     7
370
    25
100
AcDbCircle
 10
4.6544877599
 20
8.1086961225
 30
0.0
 40
1.01968503937008
100
AcDbArc
 50
134.8085199259
 51
144.0788218042
  0
ARC
  5
165
330
1F
100
AcDbEntity
  8
0
  6
Continuous
 62
     7
370
    25
100
AcDbCircle
 10
2.9816011177
 20
6.3941242131
 30
0.0
 40
2.618110236220475
100
AcDbArc
 50
67.5923948078
 51
68.6238214085
  0
ARC
  5
166
330
1F
100
AcDbEntity
  8
0
  6
Continuous
 62
     7
370
    25
100
AcDbCircle
 10
2.9602293597
 20
8.7895051427
 30
0.0
 40
1.01968503937008
100
AcDbArc
 50
352.137394412
 51
1.4076962903
  0
ARC
  5
167
330
1F
100
AcDbEntity
  8
0
  6
Continuous
 62
     7
370
    25
100
AcDbCircle
 10
2.9816011177
 20
6.3941242131
 30
0.0
 40
2.463051181102364
100
AcDbArc
 50
65.0185639112
 51
66.3327874402
  0
ARC
  5
168
330
1F
100
AcDbEntity
  8
0
  6
Continuous
 62
     7
370
    25
100
AcDbCircle
 10
4.7938670224
 20
7.9606486593
 30
0.0
 40
1.01968503937008
100
AcDbArc
 50
129.9436550611
 51
139.2139569394
  0
ARC
  5
169
330
1F
100
AcDbEntity
  8
0
  6
Continuous
 62
     7
370
    25
100
AcDbCircle
 10
2.9816011177
 20
6.3941242131
 30
0.0
 40
2.618110236220474
100
AcDbArc
 50
62.7275299429
 51
63.7589565436
  0
ARC
  5
16A
330
1F
100
AcDbEntity
  8
0
  6
Continuous
 62
     7
370
    25
100
AcDbCircle
 10
3.1634488459
 20
8.7826882071
 30
0.0
 40
1.01968503937008
100
AcDbArc
 50
347.2725295471
 51
356.5428314254
  0
ARC
  5
16B
330
1F
100
AcDbEntity
  8
0
  6
Continuous
 62
     7
370
    25
100
AcDbCircle
 10
2.9816011177
 20
6.3941242131
 30
0.0
 40
2.463051181102365
100
AcDbArc
 50
60.1536990463
 51
61.4679225753
  0
ARC
  5
16C
330
1F
100
AcDbEntity
  8
0
  6
Continuous
 62
     7
370
    25
100
AcDbCircle
 10
4.9201888676
 20
7.8013143516
 30
0.0
 40
1.019685039370079
100
AcDbArc
 50
125.0787901962
 51
134.3490920745
  0
ARC
  5
16D
330
1F
100
AcDbEntity
  8
0
  6
Continuous
 62
     7
370
    25
100
AcDbCircle
 10
2.9816011177
 20
6.3941242131
 30
0.0
 40
2.618110236220474
100
AcDbArc
 50
57.862665078
 51
58.8940916787
  0
ARC
  5
16E
330
1F
100
AcDbEntity
  8
0
  6
Continuous
 62
     7
370
    25
100
AcDbCircle
 10
3.3653581151
 20
8.7586616133
 30
0.0
 40
1.01968503937008
100
AcDbArc
 50
342.4076646823
 51
351.6779665605
  0
ARC
  5
16F
330
1F
100
AcDbEntity
  8
0
  6
Continuous
 62
     7
370
    25
100
AcDbCircle
 10
2.9816011177
 20
6.3941242131
 30
0.0
 40
2.463051181102365
100
AcDbArc
 50
55.2888341815
 51
56.6030577104
  0
ARC
  5
170
330
1F
100
AcDbEntity
  8
0
  6
Continuous
 62
     7
370
    25
100
AcDbCircle
 10
5.0325431436
 20
7.6318412067
 30
0.0
 40
1.019685039370079
100
AcDbArc
 50
120.2139253313
 51
129.4842272096
  0
ARC
  5
171
330
1F
100
AcDbEntity
  8
0
  6
Continuous
 62
     7
370
    25
100
AcDbCircle
 10
2.9816011177
 20
6.3941242131
 30
0.0
 40
2.618110236220475
100
AcDbArc
 50
52.9978002132
 51
54.0292268139
  0
ARC
  5
172
330
1F
100
AcDbEntity
  8
0
  6
Continuous
 62
     7
370
    25
100
AcDbCircle
 10
3.5645024063
 20
8.7175984733
 30
0.0
 40
1.01968503937008
100
AcDbArc
 50
337.5427998174
 51
346.8131016957
  0
ARC
  5
173
330
1F
100
AcDbEntity
  8
0
  6
Continuous
 62
     7
370
    25
100
AcDbCircle
 10
2.9816011177
 20
6.3941242131
 30
0.0
 40
2.463051181102366
100
AcDbArc
 50
50.4239693166
 51
51.7381928456
  0
ARC
  5
174
330
1F
100
AcDbEntity
  8
0
  6
Continuous
 62
     7
370
    25
100
AcDbCircle
 10
5.1301203354
 20
7.4534502825
 30
0.0
 40
1.01968503937008
100
AcDbArc
 50
115.3490604665
 51
124.6193623448
  0
ARC
  5
175
330
1F
100
AcDbEntity
  8
0
  6
Continuous
 62
     7
370
    25
100
AcDbCircle
 10
2.9816011177
 20
6.3941242131
 30
0.0
 40
2.618110236220475
100
AcDbArc
 50
48.1329353483
 51
49.164361949
  0
ARC
  5
176
330
1F
100
AcDbEntity
  8
0
  6
Continuous
 62
     7
370
    25
100
AcDbCircle
 10
3.7594468804
 20
8.659794648
 30
0.0
 40
1.01968503937008
100
AcDbArc
 50
332.6779349525
 51
341.9482368308
  0
ARC
  5
177
330
1F
100
AcDbEntity
  8
0
  6
Continuous
 62
     7
370
    25
100
AcDbCircle
 10
2.9816011177
 20
6.3941242131
 30
0.0
 40
2.463051181102364
100
AcDbArc
 50
45.5591044517
 51
46.8733279807
  0
ARC
  5
178
330
1F
100
AcDbEntity
  8
0
  6
Continuous
 62
     7
370
    25
100
AcDbCircle
 10
5.2122173969
 20
7.2674268897
 30
0.0
 40
1.01968503937008
100
AcDbArc
 50
110.4841956016
 51
119.7544974799
  0
ARC
  5
179
330
1F
100
AcDbEntity
  8
0
  6
Continuous
 62
     7
370
    25
100
AcDbCircle
 10
2.9816011177
 20
6.3941242131
 30
0.0
 40
2.618110236220475
100
AcDbArc
 50
43.2680704834
 51
44.2994970841
  0
ARC
  5
17A
330
1F
100
AcDbEntity
  8
0
  6
Continuous
 62
     7
370
    25
100
AcDbCircle
 10
3.9487869579
 20
8.5856666153
 30
0.0
 40
1.01968503937008
100
AcDbArc
 50
327.8130700877
 51
337.083371966
  0
ARC
  5
17B
330
1F
100
AcDbEntity
  8
0
  6
Continuous
 62
     7
370
    25
100
AcDbCircle
 10
2.9816011177
 20
6.3941242131
 30
0.0
 40
2.463051181102365
100
AcDbArc
 50
40.6942395869
 51
42.0084631158
  0
ARC
  5
17C
330
1F
100
AcDbEntity
  8
0
  6
Continuous
 62
     7
370
    25
100
AcDbCircle
 10
5.2782428171
 20
7.0751113311
 30
0.0
 40
1.01968503937008
100
AcDbArc
 50
105.6193307368
 51
114.889632615
  0
ARC
  5
17D
330
1F
100
AcDbEntity
  8
0
  6
Continuous
 62
     7
370
    25
100
AcDbCircle
 10
2.9816011177
 20
6.3941242131
 30
0.0
 40
2.618110236220475
100
AcDbArc
 50
38.4032056186
 51
39.4346322193
  0
ARC
  5
17E
330
1F
100
AcDbEntity
  8
0
  6
Continuous
 62
     7
370
    25
100
AcDbCircle
 10
4.1311584392
 20
8.4957484693
 30
0.0
 40
1.01968503937008
100
AcDbArc
 50
322.9482052228
 51
332.2185071011
  0
ARC
  5
17F
330
1F
100
AcDbEntity
  8
0
  6
Continuous
 62
     7
370
    25
100
AcDbCircle
 10
2.9816011177
 20
6.3941242131
 30
0.0
 40
2.463051181102366
100
AcDbArc
 50
35.829374722
 51
37.143598251
  0
ARC
  5
180
330
1F
100
AcDbEntity
  8
0
  6
Continuous
 62
     7
370
    25
100
AcDbCircle
 10
5.3277208811
 20
6.8778892447
 30
0.0
 40
1.019685039370082
100
AcDbArc
 50
100.7544658719
 51
110.0247677502
  0
ARC
  5
181
330
1F
100
AcDbEntity
  8
0
  6
Continuous
 62
     7
370
    25
100
AcDbCircle
 10
2.9816011177
 20
6.3941242131
 30
0.0
 40
2.618110236220476
100
AcDbArc
 50
33.5383407537
 51
34.5697673544
  0
ARC
  5
182
330
1F
100
AcDbEntity
  8
0
  6
Continuous
 62
     7
370
    25
100
AcDbCircle
 10
4.3052473338
 20
8.3906880725
 30
0.0
 40
1.019685039370081
100
AcDbArc
 50
318.0833403579
 51
327.3536422362
  0
ARC
  5
183
330
1F
100
AcDbEntity
  8
0
  6
Continuous
 62
     7
370
    25
100
AcDbCircle
 10
2.9816011177
 20
6.3941242131
 30
0.0
 40
2.463051181102366
100
AcDbArc
 50
30.9645098571
 51
32.2787333861
  0
ARC
  5
184
330
1F
100
AcDbEntity
  8
0
  6
Continuous
 62
     7
370
    25
100
AcDbCircle
 10
5.3602950985
 20
6.6771816201
 30
0.0
 40
1.01968503937008
100
AcDbArc
 50
95.889601007
 51
105.1599028853
  0
ARC
  5
185
330
1F
100
AcDbEntity
  8
0
  6
Continuous
 62
     7
370
    25
100
AcDbCircle
 10
2.9816011177
 20
6.3941242131
 30
0.0
 40
2.618110236220475
100
AcDbArc
 50
28.6734758888
 51
29.7049024895
  0
ARC
  5
186
330
1F
100
AcDbEntity
  8
0
  6
Continuous
 62
     7
370
    25
100
AcDbCircle
 10
4.469799327
 20
8.2712423873
 30
0.0
 40
1.019685039370079
100
AcDbArc
 50
313.2184754931
 51
322.4887773714
  0
ARC
  5
187
330
1F
100
AcDbEntity
  8
0
  6
Continuous
 62
     7
370
    25
100
AcDbCircle
 10
2.9816011177
 20
6.3941242131
 30
0.0
 40
2.463051181102366
100
AcDbArc
 50
26.0996449923
 51
27.4138685212
  0
ARC
  5
188
330
1F
100
AcDbEntity
  8
0
  6
Continuous
 62
     7
370
    25
100
AcDbCircle
 10
5.3757307713
 20
6.4744345605
 30
0.0
 40
1.01968503937008
100
AcDbArc
 50
91.0247361422
 51
100.2950380204
  0
ARC
  5
189
330
1F
100
AcDbEntity
  8
0
  6
Continuous
 62
     7
370
    25
100
AcDbCircle
 10
2.9816011177
 20
6.3941242131
 30
0.0
 40
2.618110236220475
100
AcDbArc
 50
23.808611024
 51
24.8400376247
  0
ARC
  5
18A
330
1F
100
AcDbEntity
  8
0
  6
Continuous
 62
     7
370
    25
100
AcDbCircle
 10
4.623628818
 20
8.1382720226
 30
0.0
 40
1.01968503937008
100
AcDbArc
 50
308.3536106282
 51
317.6239125065
  0
ARC
  5
18B
330
1F
100
AcDbEntity
  8
0
  6
Continuous
 62
     7
370
    25
100
AcDbCircle
 10
2.9816011177
 20
6.3941242131
 30
0.0
 40
2.463051181102365
100
AcDbArc
 50
21.2347801274
 51
22.5490036564
  0
ARC
  5
18C
330
1F
100
AcDbEntity
  8
0
  6
Continuous
 62
     7
370
    25
100
AcDbCircle
 10
5.3739166851
 20
6.271108863
 30
0.0
 40
1.019685039370079
100
AcDbArc
 50
86.1598712773
 51
95.4301731556
  0
ARC
  5
18D
330
1F
100
AcDbEntity
  8
0
  6
Continuous
 62
     7
370
    25
100
AcDbCircle
 10
2.9816011177
 20
6.3941242131
 30
0.0
 40
2.618110236220475
100
AcDbArc
 50
18.9437461591
 51
19.9751727598
  0
ARC
  5
18E
330
1F
100
AcDbEntity
  8
0
  6
Continuous
 62
     7
370
    25
100
AcDbCircle
 10
4.7656274618
 20
7.992735033
 30
0.0
 40
1.01968503937008
100
AcDbArc
 50
303.4887457633
 51
312.7590476416
  0
ARC
  5
18F
330
1F
100
AcDbEntity
  8
0
  6
Continuous
 62
     7
370
    25
100
AcDbCircle
 10
2.9816011177
 20
6.3941242131
 30
0.0
 40
2.463051181102365
100
AcDbArc
 50
16.3699152625
 51
17.6841387915
  0
ARC
  5
190
330
1F
100
AcDbEntity
  8
0
  6
Continuous
 62
     7
370
    25
100
AcDbCircle
 10
5.3548659103
 20
6.0686694939
 30
0.0
 40
1.01968503937008
100
AcDbArc
 50
81.2950064124
 51
90.5653082907
  0
ARC
  5
191
330
1F
100
AcDbEntity
  8
0
  6
Continuous
 62
     7
370
    25
100
AcDbCircle
 10
2.9816011177
 20
6.3941242131
 30
0.0
 40
2.618110236220474
100
AcDbArc
 50
14.0788812943
 51
15.1103078949
  0
ARC
  5
192
330
1F
100
AcDbEntity
  8
0
  6
Continuous
 62
     7
370
    25
100
AcDbCircle
 10
4.8947721549
 20
7.8356800158
 30
0.0
 40
1.01968503937008
100
AcDbArc
 50
298.6238808985
 51
307.8941827768
  0
ARC
  5
193
330
1F
100
AcDbEntity
  8
0
  6
Continuous
 62
     7
370
    25
100
AcDbCircle
 10
2.9816011177
 20
6.3941242131
 30
0.0
 40
2.463051181102365
100
AcDbArc
 50
11.5050503977
 51
12.8192739266
  0
ARC
  5
194
330
1F
100
AcDbEntity
  8
0
  6
Continuous
 62
     7
370
    25
100
AcDbCircle
 10
5.3187157084
 20
5.8685750334
 30
0.0
 40
1.019685039370079
100
AcDbArc
 50
76.4301415476
 51
85.7004434258
  0
ARC
  5
195
330
1F
100
AcDbEntity
  8
0
  6
Continuous
 62
     7
370
    25
100
AcDbCircle
 10
2.9816011177
 20
6.3941242131
 30
0.0
 40
2.618110236220477
100
AcDbArc
 50
9.2140164294
 51
10.2454430301
  0
ARC
  5
196
330
1F
100
AcDbEntity
  8
0
  6
Continuous
 62
     7
370
    25
100
AcDbCircle
 10
5.0101324069
 20
7.668238556
 30
0.0
 40
1.01968503937008
100
AcDbArc
 50
293.7590160336
 51
303.0293179119
  0
ARC
  5
197
330
1F
100
AcDbEntity
  8
0
  6
Continuous
 62
     7
370
    25
100
AcDbCircle
 10
2.9816011177
 20
6.3941242131
 30
0.0
 40
2.463051181102366
100
AcDbArc
 50
6.6401855328
 51
7.9544090618
  0
ARC
  5
198
330
1F
100
AcDbEntity
  8
0
  6
Continuous
 62
     7
370
    25
100
AcDbCircle
 10
5.2657265423
 20
5.6722671669
 30
0.0
 40
1.01968503937008
100
AcDbArc
 50
71.5652766827
 51
80.835578561
  0
ARC
  5
199
330
1F
100
AcDbEntity
  8
0
  6
Continuous
 62
     7
370
    25
100
AcDbCircle
 10
2.9816011177
 20
6.3941242131
 30
0.0
 40
2.618110236220476
100
AcDbArc
 50
4.3491515645
 51
5.3805781652
  0
ARC
  5
19A
330
1F
100
AcDbEntity
  8
0
  6
Continuous
 62
     7
370
    25
100
AcDbCircle
 10
5.1108770444
 20
7.4916170732
 30
0.0
 40
1.01968503937008
100
AcDbArc
 50
288.8941511687
 51
298.164453047
  0
ARC
  5
19B
330
1F
100
AcDbEntity
  8
0
  6
Continuous
 62
     7
370
    25
100
AcDbCircle
 10
2.9816011177
 20
6.3941242131
 30
0.0
 40
2.463051181102365
100
AcDbArc
 50
1.7753206679
 51
3.0895441969
  0
ARC
  5
19C
330
1F
100
AcDbEntity
  8
0
  6
Continuous
 62
     7
370
    25
100
AcDbCircle
 10
5.1962802001
 20
5.481160297
 30
0.0
 40
1.01968503937008
100
AcDbArc
 50
66.7004118178
 51
75.9707136961
  0
ARC
  5
19D
330
1F
100
AcDbEntity
  8
0
  6
Continuous
 62
     7
370
    25
100
AcDbCircle
 10
2.9816011177
 20
6.3941242131
 30
0.0
 40
2.618110236220475
100
AcDbArc
 50
359.4842866997
 51
0.5157133003
  0
ARC
  5
19E
330
1F
100
AcDbEntity
  8
0
  6
Continuous
 62
     7
370
    25
100
AcDbCircle
 10
5.1962802001
 20
7.3070881292
 30
0.0
 40
1.019685039370078
100
AcDbArc
 50
284.0292863039
 51
293.2995881822
  0
ARC
  5
19F
330
1F
100
AcDbEntity
  8
0
  6
Continuous
 62
     7
370
    25
100
AcDbCircle
 10
2.9816011177
 20
6.3941242131
 30
0.0
 40
2.463051181102365
100
AcDbArc
 50
356.9104558031
 51
358.2246793321
  0
LINE
  5
1A0
330
1F
100
AcDbEntity
  8
0
  6
Continuous
 62
     7
370
    25
100
AcDbLine
 10
2.8136029112
 20
13.4571030336
 30
0.0
 11
2.8136029112
 21
13.2071029816
 31
0.0
  0
LINE
  5
1A1
330
1F
100
AcDbEntity
  8
0
  6
Continuous
 62
     7
370
    25
100
AcDbLine
 10
1.8293510013
 20
13.4571030336
 30
0.0
 11
2.8136029112
 21
13.4571030336
 31
0.0
  0
LINE
  5
1A2
330
1F
100
AcDbEntity
  8
0
  6
Continuous
 62
     7
370
    25
100
AcDbLine
 10
1.8293510013
 20
13.2071029816
 30
0.0
 11
1.8293510013
 21
13.4571030336
 31
0.0
  0
LINE
  5
1A3
330
1F
100
AcDbEntity
  8
0
  6
Continuous
 62
     7
370
    25
100
AcDbLine
 10
2.8136029112
 20
13.2071029816
 30
0.0
 11
1.8293510013
 21
13.2071029816
 31
0.0
  0
LINE
  5
1A4
330
1F
100
AcDbEntity
  8
0
  6
Continuous
 62
     7
370
    25
100
AcDbLine
 10
3.6900793219
 20
14.3389926926
 30
0.0
 11
3.6900793219
 21
13.3547407828
 31
0.0
  0
LINE
  5
1A5
330
1F
100
AcDbEntity
  8
0
  6
Continuous
 62
     7
370
    25
100
AcDbLine
 10
3.4400793249
 20
14.3389926926
 30
0.0
 11
3.6900793219
 21
14.3389926926
 31
0.0
  0
LINE
  5
1A6
330
1F
100
AcDbEntity
  8
0
  6
Continuous
 62
     7
370
    25
100
AcDbLine
 10
3.4400793249
 20
13.3547407828
 30
0.0
 11
3.4400793249
 21
14.3389926926
 31
0.0
  0
LINE
  5
1A7
330
1F
100
AcDbEntity
  8
0
  6
Continuous
 62
     7
370
    25
100
AcDbLine
 10
3.6900793219
 20
13.3547407828
 30
0.0
 11
3.4400793249
 21
13.3547407828
 31
0.0
  0
LINE
  5
1A8
330
1F
100
AcDbEntity
  8
0
  6
Continuous
 62
     7
370
    25
100
AcDbLine
 10
3.4400793249
 20
10.5004101563
 30
0.0
 11
3.4400793249
 21
11.4846620661
 31
0.0
  0
LINE
  5
1A9
330
1F
100
AcDbEntity
  8
0
  6
Continuous
 62
     7
370
    25
100
AcDbLine
 10
3.6900793219
 20
10.5004101563
 30
0.0
 11
3.4400793249
 21
10.5004101563
 31
0.0
  0
LINE
  5
1AA
330
1F
100
AcDbEntity
  8
0
  6
Continuous
 62
     7
370
    25
100
AcDbLine
 10
3.6900793219
 20
11.4846620661
 30
0.0
 11
3.6900793219
 21
10.5004101563
 31
0.0
  0
LINE
  5
1AB
330
1F
100
AcDbEntity
  8
0
  6
Continuous
 62
     7
370
    25
100
AcDbLine
 10
3.4400793249
 20
11.4846620661
 30
0.0
 11
3.6900793219
 21
11.4846620661
 31
0.0
  0
LINE
  5
1AC
330
1F
100
AcDbEntity
  8
0
  6
Continuous
 62
     7
370
    25
100
AcDbLine
 10
5.3008076454
 20
13.4571030336
 30
0.0
 11
5.3008076454
 21
13.2071029816
 31
0.0
  0
LINE
  5
1AD
330
1F
100
AcDbEntity
  8
0
  6
Continuous
 62
     7
370
    25
100
AcDbLine
 10
4.3165557356
 20
13.4571030336
 30
0.0
 11
5.3008076454
 21
13.4571030336
 31
0.0
  0
LINE
  5
1AE
330
1F
100
AcDbEntity
  8
0
  6
Continuous
 62
     7
370
    25
100
AcDbLine
 10
4.3165557356
 20
13.2071029816
 30
0.0
 11
4.3165557356
 21
13.4571030336
 31
0.0
  0
LINE
  5
1AF
330
1F
100
AcDbEntity
  8
0
  6
Continuous
 62
     7
370
    25
100
AcDbLine
 10
5.3008076454
 20
13.2071029816
 30
0.0
 11
4.3165557356
 21
13.2071029816
 31
0.0
  0
LINE
  5
1B0
330
1F
100
AcDbEntity
  8
0
  6
Continuous
 62
     7
370
    25
100
AcDbLine
 10
2.8136029112
 20
11.6322998672
 30
0.0
 11
2.8136029112
 21
11.3822998153
 31
0.0
  0
LINE
  5
1B1
330
1F
100
AcDbEntity
  8
0
  6
Continuous
 62
     7
370
    25
100
AcDbLine
 10
1.8293510013
 20
11.6322998672
 30
0.0
 11
2.8136029112
 21
11.6322998672
 31
0.0
  0
LINE
  5
1B2
330
1F
100
AcDbEntity
  8
0
  6
Continuous
 62
     7
370
    25
100
AcDbLine
 10
1.8293510013
 20
11.3822998153
 30
0.0
 11
1.8293510013
 21
11.6322998672
 31
0.0
  0
LINE
  5
1B3
330
1F
100
AcDbEntity
  8
0
  6
Continuous
 62
     7
370
    25
100
AcDbLine
 10
2.8136029112
 20
11.3822998153
 30
0.0
 11
1.8293510013
 21
11.3822998153
 31
0.0
  0
LINE
  5
1B4
330
1F
100
AcDbEntity
  8
0
  6
Continuous
 62
     7
370
    25
100
AcDbLine
 10
5.3008076454
 20
11.6322998672
 30
0.0
 11
5.3008076454
 21
11.3822998153
 31
0.0
  0
LINE
  5
1B5
330
1F
100
AcDbEntity
  8
0
  6
Continuous
 62
     7
370
    25
100
AcDbLine
 10
4.3165557356
 20
11.6322998672
 30
0.0
 11
5.3008076454
 21
11.6322998672
 31
0.0
  0
LINE
  5
1B6
330
1F
100
AcDbEntity
  8
0
  6
Continuous
 62
     7
370
    25
100
AcDbLine
 10
4.3165557356
 20
11.3822998153
 30
0.0
 11
4.3165557356
 21
11.6322998672
 31
0.0
  0
LINE
  5
1B7
330
1F
100
AcDbEntity
  8
0
  6
Continuous
 62
     7
370
    25
100
AcDbLine
 10
5.3008076454
 20
11.3822998153
 30
0.0
 11
4.3165557356
 21
11.3822998153
 31
0.0
  0
ARC
  5
1B8
330
1F
100
AcDbEntity
  8
0
  6
Continuous
 62
     7
370
    25
100
AcDbCircle
 10
2.3118137876
 20
9.7384846379
 30
0.0
 40
1.259842519685039
100
AcDbArc
 50
333.388333791
 51
344.1053250758
  0
ARC
  5
1B9
330
1F
100
AcDbEntity
  8
0
  6
Continuous
 62
     7
370
    25
100
AcDbCircle
 10
3.5650793234
 20
12.4197014244
 30
0.0
 40
3.248031496062993
100
AcDbArc
 50
266.613874181
 51
267.761125819
  0
ARC
  5
1BA
330
1F
100
AcDbEntity
  8
0
  6
Continuous
 62
     7
370
    25
100
AcDbCircle
 10
4.5495048411
 20
9.6285539257
 30
0.0
 40
1.259842519685042
100
AcDbArc
 50
190.2696749242
 51
200.986666209
  0
ARC
  5
1BB
330
1F
100
AcDbEntity
  8
0
  6
Continuous
 62
     7
370
    25
100
AcDbCircle
 10
3.5650793234
 20
12.4197014244
 30
0.0
 40
3.026535433070868
100
AcDbArc
 50
263.5876124769
 51
265.1623875231
  0
ARC
  5
1BC
330
1F
100
AcDbEntity
  8
0
  6
Continuous
 62
     7
370
    25
100
AcDbCircle
 10
2.0550434017
 20
9.8742369335
 30
0.0
 40
1.259842519685039
100
AcDbArc
 50
327.763333791
 51
338.4803250758
  0
ARC
  5
1BD
330
1F
100
AcDbEntity
  8
0
  6
Continuous
 62
     7
370
    25
100
AcDbCircle
 10
3.5650793234
 20
12.4197014244
 30
0.0
 40
3.248031496062993
100
AcDbArc
 50
260.988874181
 51
262.136125819
  0
ARC
  5
1BE
330
1F
100
AcDbEntity
  8
0
  6
Continuous
 62
     7
370
    25
100
AcDbCircle
 10
4.2711842671
 20
9.5455034897
 30
0.0
 40
1.259842519685042
100
AcDbArc
 50
184.6446749242
 51
195.361666209
  0
ARC
  5
1BF
330
1F
100
AcDbEntity
  8
0
  6
Continuous
 62
     7
370
    25
100
AcDbCircle
 10
3.5650793234
 20
12.4197014244
 30
0.0
 40
3.026535433070865
100
AcDbArc
 50
257.9626124769
 51
259.5373875231
  0
ARC
  5
1C0
330
1F
100
AcDbEntity
  8
0
  6
Continuous
 62
     7
370
    25
100
AcDbCircle
 10
1.8128154872
 20
10.0345034436
 30
0.0
 40
1.259842519685039
100
AcDbArc
 50
322.138333791
 51
332.8553250758
  0
ARC
  5
1C1
330
1F
100
AcDbEntity
  8
0
  6
Continuous
 62
     7
370
    25
100
AcDbCircle
 10
3.5650793234
 20
12.4197014244
 30
0.0
 40
3.248031496062993
100
AcDbArc
 50
255.363874181
 51
256.511125819
  0
ARC
  5
1C2
330
1F
100
AcDbEntity
  8
0
  6
Continuous
 62
     7
370
    25
100
AcDbCircle
 10
3.9860635164
 20
9.490133151
 30
0.0
 40
1.25984251968504
100
AcDbArc
 50
179.0196749242
 51
189.736666209
  0
ARC
  5
1C3
330
1F
100
AcDbEntity
  8
0
  6
Continuous
 62
     7
370
    25
100
AcDbCircle
 10
3.5650793234
 20
12.4197014244
 30
0.0
 40
3.026535433070866
100
AcDbArc
 50
252.3376124769
 51
253.9123875231
  0
ARC
  5
1C4
330
1F
100
AcDbEntity
  8
0
  6
Continuous
 62
     7
370
    25
100
AcDbCircle
 10
1.5874628313
 20
10.2177407141
 30
0.0
 40
1.259842519685039
100
AcDbArc
 50
316.513333791
 51
327.2303250758
  0
ARC
  5
1C5
330
1F
100
AcDbEntity
  8
0
  6
Continuous
 62
     7
370
    25
100
AcDbCircle
 10
3.5650793234
 20
12.4197014244
 30
0.0
 40
3.248031496062992
100
AcDbArc
 50
249.738874181
 51
250.886125819
  0
ARC
  5
1C6
330
1F
100
AcDbEntity
  8
0
  6
Continuous
 62
     7
370
    25
100
AcDbCircle
 10
3.6968884579
 20
9.4629761562
 30
0.0
 40
1.259842519685041
100
AcDbArc
 50
173.3946749242
 51
184.111666209
  0
ARC
  5
1C7
330
1F
100
AcDbEntity
  8
0
  6
Continuous
 62
     7
370
    25
100
AcDbCircle
 10
3.5650793234
 20
12.4197014244
 30
0.0
 40
3.026535433070868
100
AcDbArc
 50
246.7126124769
 51
248.2873875231
  0
ARC
  5
1C8
330
1F
100
AcDbEntity
  8
0
  6
Continuous
 62
     7
370
    25
100
AcDbCircle
 10
1.3811557033
 20
10.42218407
 30
0.0
 40
1.25984251968504
100
AcDbArc
 50
310.888333791
 51
321.6053250758
  0
ARC
  5
1C9
330
1F
100
AcDbEntity
  8
0
  6
Continuous
 62
     7
370
    25
100
AcDbCircle
 10
3.5650793234
 20
12.4197014244
 30
0.0
 40
3.248031496062993
100
AcDbArc
 50
244.113874181
 51
245.261125819
  0
ARC
  5
1CA
330
1F
100
AcDbEntity
  8
0
  6
Continuous
 62
     7
370
    25
100
AcDbCircle
 10
3.4064440054
 20
9.4642940421
 30
0.0
 40
1.259842519685043
100
AcDbArc
 50
167.7696749242
 51
178.486666209
  0
ARC
  5
1CB
330
1F
100
AcDbEntity
  8
0
  6
Continuous
 62
     7
370
    25
100
AcDbCircle
 10
3.5650793234
 20
12.4197014244
 30
0.0
 40
3.026535433070867
100
AcDbArc
 50
241.0876124769
 51
242.6623875231
  0
ARC
  5
1CC
330
1F
100
AcDbEntity
  8
0
  6
Continuous
 62
     7
370
    25
100
AcDbCircle
 10
1.1958809536
 20
10.64586461
 30
0.0
 40
1.25984251968504
100
AcDbArc
 50
305.263333791
 51
315.9803250758
  0
ARC
  5
1CD
330
1F
100
AcDbEntity
  8
0
  6
Continuous
 62
     7
370
    25
100
AcDbCircle
 10
3.5650793234
 20
12.4197014244
 30
0.0
 40
3.248031496062993
100
AcDbArc
 50
238.488874181
 51
239.636125819
  0
ARC
  5
1CE
330
1F
100
AcDbEntity
  8
0
  6
Continuous
 62
     7
370
    25
100
AcDbCircle
 10
3.1175272977
 20
9.4940741167
 30
0.0
 40
1.259842519685039
100
AcDbArc
 50
162.1446749242
 51
172.861666209
  0
ARC
  5
1CF
330
1F
100
AcDbEntity
  8
0
  6
Continuous
 62
     7
370
    25
100
AcDbCircle
 10
3.5650793234
 20
12.4197014244
 30
0.0
 40
3.026535433070867
100
AcDbArc
 50
235.4626124769
 51
237.0373875231
  0
ARC
  5
1D0
330
1F
100
AcDbEntity
  8
0
  6
Continuous
 62
     7
370
    25
100
AcDbCircle
 10
1.0334228793
 20
10.8866281682
 30
0.0
 40
1.259842519685039
100
AcDbArc
 50
299.638333791
 51
310.3553250758
  0
ARC
  5
1D1
330
1F
100
AcDbEntity
  8
0
  6
Continuous
 62
     7
370
    25
100
AcDbCircle
 10
3.5650793234
 20
12.4197014244
 30
0.0
 40
3.248031496062993
100
AcDbArc
 50
232.863874181
 51
234.011125819
  0
ARC
  5
1D2
330
1F
100
AcDbEntity
  8
0
  6
Continuous
 62
     7
370
    25
100
AcDbCircle
 10
2.8329207606
 20
9.5520295815
 30
0.0
 40
1.259842519685039
100
AcDbArc
 50
156.5196749242
 51
167.236666209
  0
ARC
  5
1D3
330
1F
100
AcDbEntity
  8
0
  6
Continuous
 62
     7
370
    25
100
AcDbCircle
 10
3.5650793234
 20
12.4197014244
 30
0.0
 40
3.026535433070866
100
AcDbArc
 50
229.8376124769
 51
231.4123875231
  0
ARC
  5
1D4
330
1F
100
AcDbEntity
  8
0
  6
Continuous
 62
     7
370
    25
100
AcDbCircle
 10
0.8953460406
 20
11.1421560599
 30
0.0
 40
1.259842519685038
100
AcDbArc
 50
294.013333791
 51
304.7303250758
  0
ARC
  5
1D5
330
1F
100
AcDbEntity
  8
0
  6
Continuous
 62
     7
370
    25
100
AcDbCircle
 10
3.5650793234
 20
12.4197014244
 30
0.0
 40
3.248031496062992
100
AcDbArc
 50
227.238874181
 51
228.386125819
  0
ARC
  5
1D6
330
1F
100
AcDbEntity
  8
0
  6
Continuous
 62
     7
370
    25
100
AcDbCircle
 10
2.5553653108
 20
9.6376022939
 30
0.0
 40
1.259842519685041
100
AcDbArc
 50
150.8946749242
 51
161.611666209
  0
ARC
  5
1D7
330
1F
100
AcDbEntity
  8
0
  6
Continuous
 62
     7
370
    25
100
AcDbCircle
 10
3.5650793234
 20
12.4197014244
 30
0.0
 40
3.026535433070866
100
AcDbArc
 50
224.2126124769
 51
225.7873875231
  0
ARC
  5
1D8
330
1F
100
AcDbEntity
  8
0
  6
Continuous
 62
     7
370
    25
100
AcDbCircle
 10
0.7829801928
 20
11.4099874118
 30
0.0
 40
1.25984251968504
100
AcDbArc
 50
288.388333791
 51
299.1053250758
  0
ARC
  5
1D9
330
1F
100
AcDbEntity
  8
0
  6
Continuous
 62
     7
370
    25
100
AcDbCircle
 10
3.5650793234
 20
12.4197014244
 30
0.0
 40
3.248031496062993
100
AcDbArc
 50
221.613874181
 51
222.761125819
  0
ARC
  5
1DA
330
1F
100
AcDbEntity
  8
0
  6
Continuous
 62
     7
370
    25
100
AcDbCircle
 10
2.2875339588
 20
9.7499681417
 30
0.0
 40
1.259842519685041
100
AcDbArc
 50
145.2696749242
 51
155.986666209
  0
ARC
  5
1DB
330
1F
100
AcDbEntity
  8
0
  6
Continuous
 62
     7
370
    25
100
AcDbCircle
 10
3.5650793234
 20
12.4197014244
 30
0.0
 40
3.026535433070867
100
AcDbArc
 50
218.5876124769
 51
220.1623875231
  0
ARC
  5
1DC
330
1F
100
AcDbEntity
  8
0
  6
Continuous
 62
     7
370
    25
100
AcDbCircle
 10
0.6974074805
 20
11.6875428617
 30
0.0
 40
1.259842519685038
100
AcDbArc
 50
282.763333791
 51
293.4803250758
  0
ARC
  5
1DD
330
1F
100
AcDbEntity
  8
0
  6
Continuous
 62
     7
370
    25
100
AcDbCircle
 10
3.5650793234
 20
12.4197014244
 30
0.0
 40
3.248031496062993
100
AcDbArc
 50
215.988874181
 51
217.136125819
  0
ARC
  5
1DE
330
1F
100
AcDbEntity
  8
0
  6
Continuous
 62
     7
370
    25
100
AcDbCircle
 10
2.0320060671
 20
9.8880449804
 30
0.0
 40
1.25984251968504
100
AcDbArc
 50
139.6446749242
 51
150.361666209
  0
ARC
  5
1DF
330
1F
100
AcDbEntity
  8
0
  6
Continuous
 62
     7
370
    25
100
AcDbCircle
 10
3.5650793234
 20
12.4197014244
 30
0.0
 40
3.026535433070867
100
AcDbArc
 50
212.9626124769
 51
214.5373875231
  0
ARC
  5
1E0
330
1F
100
AcDbEntity
  8
0
  6
Continuous
 62
     7
370
    25
100
AcDbCircle
 10
0.6394520156
 20
11.9721493987
 30
0.0
 40
1.259842519685038
100
AcDbArc
 50
277.138333791
 51
287.8553250758
  0
ARC
  5
1E1
330
1F
100
AcDbEntity
  8
0
  6
Continuous
 62
     7
370
    25
100
AcDbCircle
 10
3.5650793234
 20
12.4197014244
 30
0.0
 40
3.248031496062993
100
AcDbArc
 50
210.363874181
 51
211.511125819
  0
ARC
  5
1E2
330
1F
100
AcDbEntity
  8
0
  6
Continuous
 62
     7
370
    25
100
AcDbCircle
 10
1.791242509
 20
10.0505030547
 30
0.0
 40
1.259842519685042
100
AcDbArc
 50
134.0196749242
 51
144.736666209
  0
ARC
  5
1E3
330
1F
100
AcDbEntity
  8
0
  6
Continuous
 62
     7
370
    25
100
AcDbCircle
 10
3.5650793234
 20
12.4197014244
 30
0.0
 40
3.026535433070867
100
AcDbArc
 50
207.3376124769
 51
208.9123875231
  0
ARC
  5
1E4
330
1F
100
AcDbEntity
  8
0
  6
Continuous
 62
     7
370
    25
100
AcDbCircle
 10
0.6096719411
 20
12.2610661064
 30
0.0
 40
1.259842519685039
100
AcDbArc
 50
271.513333791
 51
282.2303250758
  0
ARC
  5
1E5
330
1F
100
AcDbEntity
  8
0
  6
Continuous
 62
     7
370
    25
100
AcDbCircle
 10
3.5650793234
 20
12.4197014244
 30
0.0
 40
3.248031496062992
100
AcDbArc
 50
204.738874181
 51
205.886125819
  0
ARC
  5
1E6
330
1F
100
AcDbEntity
  8
0
  6
Continuous
 62
     7
370
    25
100
AcDbCircle
 10
1.567561969
 20
10.2357778043
 30
0.0
 40
1.259842519685042
100
AcDbArc
 50
128.3946749242
 51
139.111666209
  0
ARC
  5
1E7
330
1F
100
AcDbEntity
  8
0
  6
Continuous
 62
     7
370
    25
100
AcDbCircle
 10
3.5650793234
 20
12.4197014244
 30
0.0
 40
3.026535433070867
100
AcDbArc
 50
201.7126124769
 51
203.2873875231
  0
ARC
  5
1E8
330
1F
100
AcDbEntity
  8
0
  6
Continuous
 62
     7
370
    25
100
AcDbCircle
 10
0.6083540552
 20
12.551510559
 30
0.0
 40
1.25984251968504
100
AcDbArc
 50
265.888333791
 51
276.6053250758
  0
ARC
  5
1E9
330
1F
100
AcDbEntity
  8
0
  6
Continuous
 62
     7
370
    25
100
AcDbCircle
 10
3.5650793234
 20
12.4197014244
 30
0.0
 40
3.248031496062993
100
AcDbArc
 50
199.113874181
 51
200.261125819
  0
ARC
  5
1EA
330
1F
100
AcDbEntity
  8
0
  6
Continuous
 62
     7
370
    25
100
AcDbCircle
 10
1.3631186131
 20
10.4420849323
 30
0.0
 40
1.259842519685041
100
AcDbArc
 50
122.7696749242
 51
133.486666209
  0
ARC
  5
1EB
330
1F
100
AcDbEntity
  8
0
  6
Continuous
 62
     7
370
    25
100
AcDbCircle
 10
3.5650793234
 20
12.4197014244
 30
0.0
 40
3.026535433070866
100
AcDbArc
 50
196.0876124769
 51
197.6623875231
  0
ARC
  5
1EC
330
1F
100
AcDbEntity
  8
0
  6
Continuous
 62
     7
370
    25
100
AcDbCircle
 10
0.6355110499
 20
12.8406856175
 30
0.0
 40
1.259842519685038
100
AcDbArc
 50
260.263333791
 51
270.9803250758
  0
ARC
  5
1ED
330
1F
100
AcDbEntity
  8
0
  6
Continuous
 62
     7
370
    25
100
AcDbCircle
 10
3.5650793234
 20
12.4197014244
 30
0.0
 40
3.248031496062992
100
AcDbArc
 50
193.488874181
 51
194.636125819
  0
ARC
  5
1EE
330
1F
100
AcDbEntity
  8
0
  6
Continuous
 62
     7
370
    25
100
AcDbCircle
 10
1.1798813425
 20
10.6674375882
 30
0.0
 40
1.259842519685041
100
AcDbArc
 50
117.1446749242
 51
127.861666209
  0
ARC
  5
1EF
330
1F
100
AcDbEntity
  8
0
  6
Continuous
 62
     7
370
    25
100
AcDbCircle
 10
3.5650793234
 20
12.4197014244
 30
0.0
 40
3.026535433070867
100
AcDbArc
 50
190.4626124769
 51
192.0373875231
  0
ARC
  5
1F0
330
1F
100
AcDbEntity
  8
0
  6
Continuous
 62
     7
370
    25
100
AcDbCircle
 10
0.6908813886
 20
13.1258063681
 30
0.0
 40
1.25984251968504
100
AcDbArc
 50
254.638333791
 51
265.3553250758
  0
ARC
  5
1F1
330
1F
100
AcDbEntity
  8
0
  6
Continuous
 62
     7
370
    25
100
AcDbCircle
 10
3.5650793234
 20
12.4197014244
 30
0.0
 40
3.248031496062993
100
AcDbArc
 50
187.863874181
 51
189.011125819
  0
ARC
  5
1F2
330
1F
100
AcDbEntity
  8
0
  6
Continuous
 62
     7
370
    25
100
AcDbCircle
 10
1.0196148324
 20
10.9096655027
 30
0.0
 40
1.259842519685042
100
AcDbArc
 50
111.5196749242
 51
122.236666209
  0
ARC
  5
1F3
330
1F
100
AcDbEntity
  8
0
  6
Continuous
 62
     7
370
    25
100
AcDbCircle
 10
3.5650793234
 20
12.4197014244
 30
0.0
 40
3.026535433070868
100
AcDbArc
 50
184.8376124769
 51
186.4123875231
  0
ARC
  5
1F4
330
1F
100
AcDbEntity
  8
0
  6
Continuous
 62
     7
370
    25
100
AcDbCircle
 10
0.7739318246
 20
13.4041269421
 30
0.0
 40
1.259842519685039
100
AcDbArc
 50
249.013333791
 51
259.7303250758
  0
ARC
  5
1F5
330
1F
100
AcDbEntity
  8
0
  6
Continuous
 62
     7
370
    25
100
AcDbCircle
 10
3.5650793234
 20
12.4197014244
 30
0.0
 40
3.248031496062993
100
AcDbArc
 50
182.238874181
 51
183.386125819
  0
ARC
  5
1F6
330
1F
100
AcDbEntity
  8
0
  6
Continuous
 62
     7
370
    25
100
AcDbCircle
 10
0.8838625368
 20
11.1664358886
 30
0.0
 40
1.259842519685041
100
AcDbArc
 50
105.8946749242
 51
116.611666209
  0
ARC
  5
1F7
330
1F
100
AcDbEntity
  8
0
  6
Continuous
 62
     7
370
    25
100
AcDbCircle
 10
3.5650793234
 20
12.4197014244
 30
0.0
 40
3.026535433070867
100
AcDbArc
 50
179.2126124769
 51
180.7873875231
  0
ARC
  5
1F8
330
1F
100
AcDbEntity
  8
0
  6
Continuous
 62
     7
370
    25
100
AcDbCircle
 10
0.8838625368
 20
13.6729669602
 30
0.0
 40
1.25984251968504
100
AcDbArc
 50
243.388333791
 51
254.1053250758
  0
ARC
  5
1F9
330
1F
100
AcDbEntity
  8
0
  6
Continuous
 62
     7
370
    25
100
AcDbCircle
 10
3.5650793234
 20
12.4197014244
 30
0.0
 40
3.248031496062993
100
AcDbArc
 50
176.613874181
 51
177.761125819
  0
ARC
  5
1FA
330
1F
100
AcDbEntity
  8
0
  6
Continuous
 62
     7
370
    25
100
AcDbCircle
 10
0.7739318246
 20
11.4352759068
 30
0.0
 40
1.259842519685041
100
AcDbArc
 50
100.2696749242
 51
110.986666209
  0
ARC
  5
1FB
330
1F
100
AcDbEntity
  8
0
  6
Continuous
 62
     7
370
    25
100
AcDbCircle
 10
3.5650793234
 20
12.4197014244
 30
0.0
 40
3.026535433070868
100
AcDbArc
 50
173.5876124769
 51
175.1623875231
  0
ARC
  5
1FC
330
1F
100
AcDbEntity
  8
0
  6
Continuous
 62
     7
370
    25
100
AcDbCircle
 10
1.0196148324
 20
13.9297373462
 30
0.0
 40
1.259842519685042
100
AcDbArc
 50
237.763333791
 51
248.4803250758
  0
ARC
  5
1FD
330
1F
100
AcDbEntity
  8
0
  6
Continuous
 62
     7
370
    25
100
AcDbCircle
 10
3.5650793234
 20
12.4197014244
 30
0.0
 40
3.248031496062993
100
AcDbArc
 50
170.988874181
 51
172.136125819
  0
ARC
  5
1FE
330
1F
100
AcDbEntity
  8
0
  6
Continuous
 62
     7
370
    25
100
AcDbCircle
 10
0.6908813886
 20
11.7135964808
 30
0.0
 40
1.259842519685041
100
AcDbArc
 50
94.6446749242
 51
105.361666209
  0
ARC
  5
1FF
330
1F
100
AcDbEntity
  8
0
  6
Continuous
 62
     7
370
    25
100
AcDbCircle
 10
3.5650793234
 20
12.4197014244
 30
0.0
 40
3.026535433070867
100
AcDbArc
 50
167.9626124769
 51
169.5373875231
  0
ARC
  5
200
330
1F
100
AcDbEntity
  8
0
  6
Continuous
 62
     7
370
    25
100
AcDbCircle
 10
1.1798813425
 20
14.1719652607
 30
0.0
 40
1.25984251968504
100
AcDbArc
 50
232.138333791
 51
242.8553250758
  0
ARC
  5
201
330
1F
100
AcDbEntity
  8
0
  6
Continuous
 62
     7
370
    25
100
AcDbCircle
 10
3.5650793234
 20
12.4197014244
 30
0.0
 40
3.248031496062993
100
AcDbArc
 50
165.363874181
 51
166.511125819
  0
ARC
  5
202
330
1F
100
AcDbEntity
  8
0
  6
Continuous
 62
     7
370
    25
100
AcDbCircle
 10
0.6355110499
 20
11.9987172314
 30
0.0
 40
1.25984251968504
100
AcDbArc
 50
89.0196749242
 51
99.736666209
  0
ARC
  5
203
330
1F
100
AcDbEntity
  8
0
  6
Continuous
 62
     7
370
    25
100
AcDbCircle
 10
3.5650793234
 20
12.4197014244
 30
0.0
 40
3.026535433070867
100
AcDbArc
 50
162.3376124769
 51
163.9123875231
  0
ARC
  5
204
330
1F
100
AcDbEntity
  8
0
  6
Continuous
 62
     7
370
    25
100
AcDbCircle
 10
1.3631186131
 20
14.3973179166
 30
0.0
 40
1.25984251968504
100
AcDbArc
 50
226.513333791
 51
237.2303250758
  0
ARC
  5
205
330
1F
100
AcDbEntity
  8
0
  6
Continuous
 62
     7
370
    25
100
AcDbCircle
 10
3.5650793234
 20
12.4197014244
 30
0.0
 40
3.248031496062993
100
AcDbArc
 50
159.738874181
 51
160.886125819
  0
ARC
  5
206
330
1F
100
AcDbEntity
  8
0
  6
Continuous
 62
     7
370
    25
100
AcDbCircle
 10
0.6083540552
 20
12.2878922899
 30
0.0
 40
1.25984251968504
100
AcDbArc
 50
83.3946749242
 51
94.111666209
  0
ARC
  5
207
330
1F
100
AcDbEntity
  8
0
  6
Continuous
 62
     7
370
    25
100
AcDbCircle
 10
3.5650793234
 20
12.4197014244
 30
0.0
 40
3.026535433070867
100
AcDbArc
 50
156.7126124769
 51
158.2873875231
  0
ARC
  5
208
330
1F
100
AcDbEntity
  8
0
  6
Continuous
 62
     7
370
    25
100
AcDbCircle
 10
1.567561969
 20
14.6036250446
 30
0.0
 40
1.25984251968504
100
AcDbArc
 50
220.888333791
 51
231.6053250758
  0
ARC
  5
209
330
1F
100
AcDbEntity
  8
0
  6
Continuous
 62
     7
370
    25
100
AcDbCircle
 10
3.5650793234
 20
12.4197014244
 30
0.0
 40
3.248031496062993
100
AcDbArc
 50
154.113874181
 51
155.261125819
  0
ARC
  5
20A
330
1F
100
AcDbEntity
  8
0
  6
Continuous
 62
     7
370
    25
100
AcDbCircle
 10
0.6096719411
 20
12.5783367424
 30
0.0
 40
1.259842519685041
100
AcDbArc
 50
77.7696749242
 51
88.486666209
  0
ARC
  5
20B
330
1F
100
AcDbEntity
  8
0
  6
Continuous
 62
     7
370
    25
100
AcDbCircle
 10
3.5650793234
 20
12.4197014244
 30
0.0
 40
3.026535433070868
100
AcDbArc
 50
151.0876124769
 51
152.6623875231
  0
ARC
  5
20C
330
1F
100
AcDbEntity
  8
0
  6
Continuous
 62
     7
370
    25
100
AcDbCircle
 10
1.791242509
 20
14.7888997942
 30
0.0
 40
1.25984251968504
100
AcDbArc
 50
215.263333791
 51
225.9803250758
  0
ARC
  5
20D
330
1F
100
AcDbEntity
  8
0
  6
Continuous
 62
     7
370
    25
100
AcDbCircle
 10
3.5650793234
 20
12.4197014244
 30
0.0
 40
3.248031496062993
100
AcDbArc
 50
148.488874181
 51
149.636125819
  0
ARC
  5
20E
330
1F
100
AcDbEntity
  8
0
  6
Continuous
 62
     7
370
    25
100
AcDbCircle
 10
0.6394520156
 20
12.8672534501
 30
0.0
 40
1.25984251968504
100
AcDbArc
 50
72.1446749242
 51
82.861666209
  0
ARC
  5
20F
330
1F
100
AcDbEntity
  8
0
  6
Continuous
 62
     7
370
    25
100
AcDbCircle
 10
3.5650793234
 20
12.4197014244
 30
0.0
 40
3.026535433070868
100
AcDbArc
 50
145.4626124769
 51
147.0373875231
  0
ARC
  5
210
330
1F
100
AcDbEntity
  8
0
  6
Continuous
 62
     7
370
    25
100
AcDbCircle
 10
2.0320060671
 20
14.9513578685
 30
0.0
 40
1.259842519685038
100
AcDbArc
 50
209.638333791
 51
220.3553250758
  0
ARC
  5
211
330
1F
100
AcDbEntity
  8
0
  6
Continuous
 62
     7
370
    25
100
AcDbCircle
 10
3.5650793234
 20
12.4197014244
 30
0.0
 40
3.248031496062993
100
AcDbArc
 50
142.863874181
 51
144.011125819
  0
ARC
  5
212
330
1F
100
AcDbEntity
  8
0
  6
Continuous
 62
     7
370
    25
100
AcDbCircle
 10
0.6974074805
 20
13.1518599872
 30
0.0
 40
1.25984251968504
100
AcDbArc
 50
66.5196749242
 51
77.236666209
  0
ARC
  5
213
330
1F
100
AcDbEntity
  8
0
  6
Continuous
 62
     7
370
    25
100
AcDbCircle
 10
3.5650793234
 20
12.4197014244
 30
0.0
 40
3.026535433070867
100
AcDbArc
 50
139.8376124769
 51
141.4123875231
  0
ARC
  5
214
330
1F
100
AcDbEntity
  8
0
  6
Continuous
 62
     7
370
    25
100
AcDbCircle
 10
2.2875339588
 20
15.0894347072
 30
0.0
 40
1.259842519685041
100
AcDbArc
 50
204.013333791
 51
214.7303250758
  0
ARC
  5
215
330
1F
100
AcDbEntity
  8
0
  6
Continuous
 62
     7
370
    25
100
AcDbCircle
 10
3.5650793234
 20
12.4197014244
 30
0.0
 40
3.248031496062993
100
AcDbArc
 50
137.238874181
 51
138.386125819
  0
ARC
  5
216
330
1F
100
AcDbEntity
  8
0
  6
Continuous
 62
     7
370
    25
100
AcDbCircle
 10
0.7829801928
 20
13.429415437
 30
0.0
 40
1.259842519685041
100
AcDbArc
 50
60.8946749242
 51
71.611666209
  0
ARC
  5
217
330
1F
100
AcDbEntity
  8
0
  6
Continuous
 62
     7
370
    25
100
AcDbCircle
 10
3.5650793234
 20
12.4197014244
 30
0.0
 40
3.026535433070867
100
AcDbArc
 50
134.2126124769
 51
135.7873875231
  0
ARC
  5
218
330
1F
100
AcDbEntity
  8
0
  6
Continuous
 62
     7
370
    25
100
AcDbCircle
 10
2.5553653108
 20
15.201800555
 30
0.0
 40
1.259842519685041
100
AcDbArc
 50
198.388333791
 51
209.1053250758
  0
ARC
  5
219
330
1F
100
AcDbEntity
  8
0
  6
Continuous
 62
     7
370
    25
100
AcDbCircle
 10
3.5650793234
 20
12.4197014244
 30
0.0
 40
3.248031496062993
100
AcDbArc
 50
131.613874181
 51
132.761125819
  0
ARC
  5
21A
330
1F
100
AcDbEntity
  8
0
  6
Continuous
 62
     7
370
    25
100
AcDbCircle
 10
0.8953460406
 20
13.697246789
 30
0.0
 40
1.25984251968504
100
AcDbArc
 50
55.2696749242
 51
65.986666209
  0
ARC
  5
21B
330
1F
100
AcDbEntity
  8
0
  6
Continuous
 62
     7
370
    25
100
AcDbCircle
 10
3.5650793234
 20
12.4197014244
 30
0.0
 40
3.026535433070867
100
AcDbArc
 50
128.5876124769
 51
130.1623875231
  0
ARC
  5
21C
330
1F
100
AcDbEntity
  8
0
  6
Continuous
 62
     7
370
    25
100
AcDbCircle
 10
2.8329207606
 20
15.2873732674
 30
0.0
 40
1.25984251968504
100
AcDbArc
 50
192.763333791
 51
203.4803250758
  0
ARC
  5
21D
330
1F
100
AcDbEntity
  8
0
  6
Continuous
 62
     7
370
    25
100
AcDbCircle
 10
3.5650793234
 20
12.4197014244
 30
0.0
 40
3.248031496062993
100
AcDbArc
 50
125.988874181
 51
127.136125819
  0
ARC
  5
21E
330
1F
100
AcDbEntity
  8
0
  6
Continuous
 62
     7
370
    25
100
AcDbCircle
 10
1.0334228793
 20
13.9527746807
 30
0.0
 40
1.259842519685041
100
AcDbArc
 50
49.6446749242
 51
60.361666209
  0
ARC
  5
21F
330
1F
100
AcDbEntity
  8
0
  6
Continuous
 62
     7
370
    25
100
AcDbCircle
 10
3.5650793234
 20
12.4197014244
 30
0.0
 40
3.026535433070866
100
AcDbArc
 50
122.9626124769
 51
124.5373875231
  0
ARC
  5
220
330
1F
100
AcDbEntity
  8
0
  6
Continuous
 62
     7
370
    25
100
AcDbCircle
 10
3.1175272977
 20
15.3453287322
 30
0.0
 40
1.259842519685041
100
AcDbArc
 50
187.138333791
 51
197.8553250758
  0
ARC
  5
221
330
1F
100
AcDbEntity
  8
0
  6
Continuous
 62
     7
370
    25
100
AcDbCircle
 10
3.5650793234
 20
12.4197014244
 30
0.0
 40
3.248031496062994
100
AcDbArc
 50
120.363874181
 51
121.511125819
  0
ARC
  5
222
330
1F
100
AcDbEntity
  8
0
  6
Continuous
 62
     7
370
    25
100
AcDbCircle
 10
1.1958809536
 20
14.1935382389
 30
0.0
 40
1.259842519685039
100
AcDbArc
 50
44.0196749242
 51
54.736666209
  0
ARC
  5
223
330
1F
100
AcDbEntity
  8
0
  6
Continuous
 62
     7
370
    25
100
AcDbCircle
 10
3.5650793234
 20
12.4197014244
 30
0.0
 40
3.026535433070867
100
AcDbArc
 50
117.3376124769
 51
118.9123875231
  0
ARC
  5
224
330
1F
100
AcDbEntity
  8
0
  6
Continuous
 62
     7
370
    25
100
AcDbCircle
 10
3.4064440054
 20
15.3751088068
 30
0.0
 40
1.25984251968504
100
AcDbArc
 50
181.513333791
 51
192.2303250758
  0
ARC
  5
225
330
1F
100
AcDbEntity
  8
0
  6
Continuous
 62
     7
370
    25
100
AcDbCircle
 10
3.5650793234
 20
12.4197014244
 30
0.0
 40
3.248031496062993
100
AcDbArc
 50
114.738874181
 51
115.886125819
  0
ARC
  5
226
330
1F
100
AcDbEntity
  8
0
  6
Continuous
 62
     7
370
    25
100
AcDbCircle
 10
1.3811557033
 20
14.4172187788
 30
0.0
 40
1.25984251968504
100
AcDbArc
 50
38.3946749242
 51
49.111666209
  0
ARC
  5
227
330
1F
100
AcDbEntity
  8
0
  6
Continuous
 62
     7
370
    25
100
AcDbCircle
 10
3.5650793234
 20
12.4197014244
 30
0.0
 40
3.026535433070867
100
AcDbArc
 50
111.7126124769
 51
113.2873875231
  0
ARC
  5
228
330
1F
100
AcDbEntity
  8
0
  6
Continuous
 62
     7
370
    25
100
AcDbCircle
 10
3.6968884579
 20
15.3764266927
 30
0.0
 40
1.25984251968504
100
AcDbArc
 50
175.888333791
 51
186.6053250758
  0
ARC
  5
229
330
1F
100
AcDbEntity
  8
0
  6
Continuous
 62
     7
370
    25
100
AcDbCircle
 10
3.5650793234
 20
12.4197014244
 30
0.0
 40
3.248031496062993
100
AcDbArc
 50
109.113874181
 51
110.261125819
  0
ARC
  5
22A
330
1F
100
AcDbEntity
  8
0
  6
Continuous
 62
     7
370
    25
100
AcDbCircle
 10
1.5874628313
 20
14.6216621347
 30
0.0
 40
1.25984251968504
100
AcDbArc
 50
32.7696749242
 51
43.486666209
  0
ARC
  5
22B
330
1F
100
AcDbEntity
  8
0
  6
Continuous
 62
     7
370
    25
100
AcDbCircle
 10
3.5650793234
 20
12.4197014244
 30
0.0
 40
3.026535433070867
100
AcDbArc
 50
106.0876124769
 51
107.6623875231
  0
ARC
  5
22C
330
1F
100
AcDbEntity
  8
0
  6
Continuous
 62
     7
370
    25
100
AcDbCircle
 10
3.9860635164
 20
15.3492696979
 30
0.0
 40
1.25984251968504
100
AcDbArc
 50
170.263333791
 51
180.9803250758
  0
ARC
  5
22D
330
1F
100
AcDbEntity
  8
0
  6
Continuous
 62
     7
370
    25
100
AcDbCircle
 10
3.5650793234
 20
12.4197014244
 30
0.0
 40
3.248031496062993
100
AcDbArc
 50
103.488874181
 51
104.636125819
  0
ARC
  5
22E
330
1F
100
AcDbEntity
  8
0
  6
Continuous
 62
     7
370
    25
100
AcDbCircle
 10
1.8128154872
 20
14.8048994053
 30
0.0
 40
1.25984251968504
100
AcDbArc
 50
27.1446749242
 51
37.861666209
  0
ARC
  5
22F
330
1F
100
AcDbEntity
  8
0
  6
Continuous
 62
     7
370
    25
100
AcDbCircle
 10
3.5650793234
 20
12.4197014244
 30
0.0
 40
3.026535433070868
100
AcDbArc
 50
100.4626124769
 51
102.0373875231
  0
ARC
  5
230
330
1F
100
AcDbEntity
  8
0
  6
Continuous
 62
     7
370
    25
100
AcDbCircle
 10
4.2711842671
 20
15.2938993592
 30
0.0
 40
1.25984251968504
100
AcDbArc
 50
164.638333791
 51
175.3553250758
  0
ARC
  5
231
330
1F
100
AcDbEntity
  8
0
  6
Continuous
 62
     7
370
    25
100
AcDbCircle
 10
3.5650793234
 20
12.4197014244
 30
0.0
 40
3.248031496062993
100
AcDbArc
 50
97.863874181
 51
99.011125819
  0
ARC
  5
232
330
1F
100
AcDbEntity
  8
0
  6
Continuous
 62
     7
370
    25
100
AcDbCircle
 10
2.0550434017
 20
14.9651659154
 30
0.0
 40
1.25984251968504
100
AcDbArc
 50
21.5196749242
 51
32.236666209
  0
ARC
  5
233
330
1F
100
AcDbEntity
  8
0
  6
Continuous
 62
     7
370
    25
100
AcDbCircle
 10
3.5650793234
 20
12.4197014244
 30
0.0
 40
3.026535433070866
100
AcDbArc
 50
94.8376124769
 51
96.4123875231
  0
ARC
  5
234
330
1F
100
AcDbEntity
  8
0
  6
Continuous
 62
     7
370
    25
100
AcDbCircle
 10
4.5495048411
 20
15.2108489232
 30
0.0
 40
1.259842519685039
100
AcDbArc
 50
159.013333791
 51
169.7303250758
  0
ARC
  5
235
330
1F
100
AcDbEntity
  8
0
  6
Continuous
 62
     7
370
    25
100
AcDbCircle
 10
3.5650793234
 20
12.4197014244
 30
0.0
 40
3.248031496062994
100
AcDbArc
 50
92.238874181
 51
93.386125819
  0
ARC
  5
236
330
1F
100
AcDbEntity
  8
0
  6
Continuous
 62
     7
370
    25
100
AcDbCircle
 10
2.3118137876
 20
15.100918211
 30
0.0
 40
1.25984251968504
100
AcDbArc
 50
15.8946749242
 51
26.611666209
  0
ARC
  5
237
330
1F
100
AcDbEntity
  8
0
  6
Continuous
 62
     7
370
    25
100
AcDbCircle
 10
3.5650793234
 20
12.4197014244
 30
0.0
 40
3.026535433070866
100
AcDbArc
 50
89.2126124769
 51
90.7873875231
  0
ARC
  5
238
330
1F
100
AcDbEntity
  8
0
  6
Continuous
 62
     7
370
    25
100
AcDbCircle
 10
4.8183448592
 20
15.100918211
 30
0.0
 40
1.259842519685039
100
AcDbArc
 50
153.388333791
 51
164.1053250758
  0
ARC
  5
239
330
1F
100
AcDbEntity
  8
0
  6
Continuous
 62
     7
370
    25
100
AcDbCircle
 10
3.5650793234
 20
12.4197014244
 30
0.0
 40
3.248031496062993
100
AcDbArc
 50
86.613874181
 51
87.761125819
  0
ARC
  5
23A
330
1F
100
AcDbEntity
  8
0
  6
Continuous
 62
     7
370
    25
100
AcDbCircle
 10
2.5806538057
 20
15.2108489232
 30
0.0
 40
1.259842519685039
100
AcDbArc
 50
10.2696749242
 51
20.986666209
  0
ARC
  5
23B
330
1F
100
AcDbEntity
  8
0
  6
Continuous
 62
     7
370
    25
100
AcDbCircle
 10
3.5650793234
 20
12.4197014244
 30
0.0
 40
3.026535433070868
100
AcDbArc
 50
83.5876124769
 51
85.1623875231
  0
ARC
  5
23C
330
1F
100
AcDbEntity
  8
0
  6
Continuous
 62
     7
370
    25
100
AcDbCircle
 10
5.0751152451
 20
14.9651659154
 30
0.0
 40
1.25984251968504
100
AcDbArc
 50
147.763333791
 51
158.4803250758
  0
ARC
  5
23D
330
1F
100
AcDbEntity
  8
0
  6
Continuous
 62
     7
370
    25
100
AcDbCircle
 10
3.5650793234
 20
12.4197014244
 30
0.0
 40
3.248031496062993
100
AcDbArc
 50
80.988874181
 51
82.136125819
  0
ARC
  5
23E
330
1F
100
AcDbEntity
  8
0
  6
Continuous
 62
     7
370
    25
100
AcDbCircle
 10
2.8589743797
 20
15.2938993592
 30
0.0
 40
1.25984251968504
100
AcDbArc
 50
4.6446749242
 51
15.361666209
  0
ARC
  5
23F
330
1F
100
AcDbEntity
  8
0
  6
Continuous
 62
     7
370
    25
100
AcDbCircle
 10
3.5650793234
 20
12.4197014244
 30
0.0
 40
3.026535433070867
100
AcDbArc
 50
77.9626124769
 51
79.5373875231
  0
ARC
  5
240
330
1F
100
AcDbEntity
  8
0
  6
Continuous
 62
     7
370
    25
100
AcDbCircle
 10
5.3173431596
 20
14.8048994053
 30
0.0
 40
1.259842519685042
100
AcDbArc
 50
142.138333791
 51
152.8553250758
  0
ARC
  5
241
330
1F
100
AcDbEntity
  8
0
  6
Continuous
 62
     7
370
    25
100
AcDbCircle
 10
3.5650793234
 20
12.4197014244
 30
0.0
 40
3.248031496062994
100
AcDbArc
 50
75.363874181
 51
76.511125819
  0
ARC
  5
242
330
1F
100
AcDbEntity
  8
0
  6
Continuous
 62
     7
370
    25
100
AcDbCircle
 10
3.1440951303
 20
15.3492696979
 30
0.0
 40
1.25984251968504
100
AcDbArc
 50
359.0196749242
 51
9.736666209
  0
ARC
  5
243
330
1F
100
AcDbEntity
  8
0
  6
Continuous
 62
     7
370
    25
100
AcDbCircle
 10
3.5650793234
 20
12.4197014244
 30
0.0
 40
3.026535433070867
100
AcDbArc
 50
72.3376124769
 51
73.9123875231
  0
ARC
  5
244
330
1F
100
AcDbEntity
  8
0
  6
Continuous
 62
     7
370
    25
100
AcDbCircle
 10
5.5426958155
 20
14.6216621347
 30
0.0
 40
1.25984251968504
100
AcDbArc
 50
136.513333791
 51
147.2303250758
  0
ARC
  5
245
330
1F
100
AcDbEntity
  8
0
  6
Continuous
 62
     7
370
    25
100
AcDbCircle
 10
3.5650793234
 20
12.4197014244
 30
0.0
 40
3.248031496062995
100
AcDbArc
 50
69.738874181
 51
70.886125819
  0
ARC
  5
246
330
1F
100
AcDbEntity
  8
0
  6
Continuous
 62
     7
370
    25
100
AcDbCircle
 10
3.4332701888
 20
15.3764266927
 30
0.0
 40
1.25984251968504
100
AcDbArc
 50
353.3946749242
 51
4.111666209
  0
ARC
  5
247
330
1F
100
AcDbEntity
  8
0
  6
Continuous
 62
     7
370
    25
100
AcDbCircle
 10
3.5650793234
 20
12.4197014244
 30
0.0
 40
3.026535433070867
100
AcDbArc
 50
66.7126124769
 51
68.2873875231
  0
ARC
  5
248
330
1F
100
AcDbEntity
  8
0
  6
Continuous
 62
     7
370
    25
100
AcDbCircle
 10
5.7490029435
 20
14.4172187788
 30
0.0
 40
1.259842519685042
100
AcDbArc
 50
130.888333791
 51
141.6053250758
  0
ARC
  5
249
330
1F
100
AcDbEntity
  8
0
  6
Continuous
 62
     7
370
    25
100
AcDbCircle
 10
3.5650793234
 20
12.4197014244
 30
0.0
 40
3.248031496062993
100
AcDbArc
 50
64.113874181
 51
65.261125819
  0
ARC
  5
24A
330
1F
100
AcDbEntity
  8
0
  6
Continuous
 62
     7
370
    25
100
AcDbCircle
 10
3.7237146414
 20
15.3751088068
 30
0.0
 40
1.259842519685039
100
AcDbArc
 50
347.7696749242
 51
358.486666209
  0
ARC
  5
24B
330
1F
100
AcDbEntity
  8
0
  6
Continuous
 62
     7
370
    25
100
AcDbCircle
 10
3.5650793234
 20
12.4197014244
 30
0.0
 40
3.026535433070867
100
AcDbArc
 50
61.0876124769
 51
62.6623875231
  0
ARC
  5
24C
330
1F
100
AcDbEntity
  8
0
  6
Continuous
 62
     7
370
    25
100
AcDbCircle
 10
5.9342776932
 20
14.1935382389
 30
0.0
 40
1.25984251968504
100
AcDbArc
 50
125.263333791
 51
135.9803250758
  0
ARC
  5
24D
330
1F
100
AcDbEntity
  8
0
  6
Continuous
 62
     7
370
    25
100
AcDbCircle
 10
3.5650793234
 20
12.4197014244
 30
0.0
 40
3.248031496062993
100
AcDbArc
 50
58.488874181
 51
59.636125819
  0
ARC
  5
24E
330
1F
100
AcDbEntity
  8
0
  6
Continuous
 62
     7
370
    25
100
AcDbCircle
 10
4.0126313491
 20
15.3453287322
 30
0.0
 40
1.25984251968504
100
AcDbArc
 50
342.1446749242
 51
352.861666209
  0
ARC
  5
24F
330
1F
100
AcDbEntity
  8
0
  6
Continuous
 62
     7
370
    25
100
AcDbCircle
 10
3.5650793234
 20
12.4197014244
 30
0.0
 40
3.026535433070865
100
AcDbArc
 50
55.4626124769
 51
57.0373875231
  0
ARC
  5
250
330
1F
100
AcDbEntity
  8
0
  6
Continuous
 62
     7
370
    25
100
AcDbCircle
 10
6.0967357674
 20
13.9527746807
 30
0.0
 40
1.25984251968504
100
AcDbArc
 50
119.638333791
 51
130.3553250758
  0
ARC
  5
251
330
1F
100
AcDbEntity
  8
0
  6
Continuous
 62
     7
370
    25
100
AcDbCircle
 10
3.5650793234
 20
12.4197014244
 30
0.0
 40
3.248031496062992
100
AcDbArc
 50
52.863874181
 51
54.011125819
  0
ARC
  5
252
330
1F
100
AcDbEntity
  8
0
  6
Continuous
 62
     7
370
    25
100
AcDbCircle
 10
4.2972378861
 20
15.2873732674
 30
0.0
 40
1.259842519685039
100
AcDbArc
 50
336.5196749242
 51
347.236666209
  0
ARC
  5
253
330
1F
100
AcDbEntity
  8
0
  6
Continuous
 62
     7
370
    25
100
AcDbCircle
 10
3.5650793234
 20
12.4197014244
 30
0.0
 40
3.026535433070866
100
AcDbArc
 50
49.8376124769
 51
51.4123875231
  0
ARC
  5
254
330
1F
100
AcDbEntity
  8
0
  6
Continuous
 62
     7
370
    25
100
AcDbCircle
 10
6.2348126062
 20
13.697246789
 30
0.0
 40
1.259842519685039
100
AcDbArc
 50
114.013333791
 51
124.7303250758
  0
ARC
  5
255
330
1F
100
AcDbEntity
  8
0
  6
Continuous
 62
     7
370
    25
100
AcDbCircle
 10
3.5650793234
 20
12.4197014244
 30
0.0
 40
3.248031496062992
100
AcDbArc
 50
47.238874181
 51
48.386125819
  0
ARC
  5
256
330
1F
100
AcDbEntity
  8
0
  6
Continuous
 62
     7
370
    25
100
AcDbCircle
 10
4.574793336
 20
15.201800555
 30
0.0
 40
1.259842519685039
100
AcDbArc
 50
330.8946749242
 51
341.611666209
  0
ARC
  5
257
330
1F
100
AcDbEntity
  8
0
  6
Continuous
 62
     7
370
    25
100
AcDbCircle
 10
3.5650793234
 20
12.4197014244
 30
0.0
 40
3.026535433070867
100
AcDbArc
 50
44.2126124769
 51
45.7873875231
  0
ARC
  5
258
330
1F
100
AcDbEntity
  8
0
  6
Continuous
 62
     7
370
    25
100
AcDbCircle
 10
6.347178454
 20
13.429415437
 30
0.0
 40
1.25984251968504
100
AcDbArc
 50
108.388333791
 51
119.1053250758
  0
ARC
  5
259
330
1F
100
AcDbEntity
  8
0
  6
Continuous
 62
     7
370
    25
100
AcDbCircle
 10
3.5650793234
 20
12.4197014244
 30
0.0
 40
3.248031496062992
100
AcDbArc
 50
41.613874181
 51
42.761125819
  0
ARC
  5
25A
330
1F
100
AcDbEntity
  8
0
  6
Continuous
 62
     7
370
    25
100
AcDbCircle
 10
4.8426246879
 20
15.0894347072
 30
0.0
 40
1.259842519685041
100
AcDbArc
 50
325.2696749242
 51
335.986666209
  0
ARC
  5
25B
330
1F
100
AcDbEntity
  8
0
  6
Continuous
 62
     7
370
    25
100
AcDbCircle
 10
3.5650793234
 20
12.4197014244
 30
0.0
 40
3.026535433070866
100
AcDbArc
 50
38.5876124769
 51
40.1623875231
  0
ARC
  5
25C
330
1F
100
AcDbEntity
  8
0
  6
Continuous
 62
     7
370
    25
100
AcDbCircle
 10
6.4327511663
 20
13.1518599872
 30
0.0
 40
1.25984251968504
100
AcDbArc
 50
102.763333791
 51
113.4803250758
  0
ARC
  5
25D
330
1F
100
AcDbEntity
  8
0
  6
Continuous
 62
     7
370
    25
100
AcDbCircle
 10
3.5650793234
 20
12.4197014244
 30
0.0
 40
3.248031496062993
100
AcDbArc
 50
35.988874181
 51
37.136125819
  0
ARC
  5
25E
330
1F
100
AcDbEntity
  8
0
  6
Continuous
 62
     7
370
    25
100
AcDbCircle
 10
5.0981525796
 20
14.9513578685
 30
0.0
 40
1.259842519685041
100
AcDbArc
 50
319.6446749242
 51
330.361666209
  0
ARC
  5
25F
330
1F
100
AcDbEntity
  8
0
  6
Continuous
 62
     7
370
    25
100
AcDbCircle
 10
3.5650793234
 20
12.4197014244
 30
0.0
 40
3.026535433070867
100
AcDbArc
 50
32.9626124769
 51
34.5373875231
  0
ARC
  5
260
330
1F
100
AcDbEntity
  8
0
  6
Continuous
 62
     7
370
    25
100
AcDbCircle
 10
6.4907066311
 20
12.8672534501
 30
0.0
 40
1.25984251968504
100
AcDbArc
 50
97.138333791
 51
107.8553250758
  0
ARC
  5
261
330
1F
100
AcDbEntity
  8
0
  6
Continuous
 62
     7
370
    25
100
AcDbCircle
 10
3.5650793234
 20
12.4197014244
 30
0.0
 40
3.248031496062993
100
AcDbArc
 50
30.363874181
 51
31.511125819
  0
ARC
  5
262
330
1F
100
AcDbEntity
  8
0
  6
Continuous
 62
     7
370
    25
100
AcDbCircle
 10
5.3389161378
 20
14.7888997942
 30
0.0
 40
1.259842519685039
100
AcDbArc
 50
314.0196749242
 51
324.736666209
  0
ARC
  5
263
330
1F
100
AcDbEntity
  8
0
  6
Continuous
 62
     7
370
    25
100
AcDbCircle
 10
3.5650793234
 20
12.4197014244
 30
0.0
 40
3.026535433070866
100
AcDbArc
 50
27.3376124769
 51
28.9123875231
  0
ARC
  5
264
330
1F
100
AcDbEntity
  8
0
  6
Continuous
 62
     7
370
    25
100
AcDbCircle
 10
6.5204867057
 20
12.5783367424
 30
0.0
 40
1.259842519685042
100
AcDbArc
 50
91.513333791
 51
102.2303250758
  0
ARC
  5
265
330
1F
100
AcDbEntity
  8
0
  6
Continuous
 62
     7
370
    25
100
AcDbCircle
 10
3.5650793234
 20
12.4197014244
 30
0.0
 40
3.248031496062993
100
AcDbArc
 50
24.738874181
 51
25.886125819
  0
ARC
  5
266
330
1F
100
AcDbEntity
  8
0
  6
Continuous
 62
     7
370
    25
100
AcDbCircle
 10
5.5625966778
 20
14.6036250446
 30
0.0
 40
1.25984251968504
100
AcDbArc
 50
308.3946749242
 51
319.111666209
  0
ARC
  5
267
330
1F
100
AcDbEntity
  8
0
  6
Continuous
 62
     7
370
    25
100
AcDbCircle
 10
3.5650793234
 20
12.4197014244
 30
0.0
 40
3.026535433070866
100
AcDbArc
 50
21.7126124769
 51
23.2873875231
  0
ARC
  5
268
330
1F
100
AcDbEntity
  8
0
  6
Continuous
 62
     7
370
    25
100
AcDbCircle
 10
6.5218045916
 20
12.2878922899
 30
0.0
 40
1.25984251968504
100
AcDbArc
 50
85.888333791
 51
96.6053250758
  0
ARC
  5
269
330
1F
100
AcDbEntity
  8
0
  6
Continuous
 62
     7
370
    25
100
AcDbCircle
 10
3.5650793234
 20
12.4197014244
 30
0.0
 40
3.248031496062991
100
AcDbArc
 50
19.113874181
 51
20.261125819
  0
ARC
  5
26A
330
1F
100
AcDbEntity
  8
0
  6
Continuous
 62
     7
370
    25
100
AcDbCircle
 10
5.7670400337
 20
14.3973179166
 30
0.0
 40
1.259842519685039
100
AcDbArc
 50
302.7696749242
 51
313.486666209
  0
ARC
  5
26B
330
1F
100
AcDbEntity
  8
0
  6
Continuous
 62
     7
370
    25
100
AcDbCircle
 10
3.5650793234
 20
12.4197014244
 30
0.0
 40
3.026535433070866
100
AcDbArc
 50
16.0876124769
 51
17.6623875231
  0
ARC
  5
26C
330
1F
100
AcDbEntity
  8
0
  6
Continuous
 62
     7
370
    25
100
AcDbCircle
 10
6.4946475968
 20
11.9987172314
 30
0.0
 40
1.25984251968504
100
AcDbArc
 50
80.263333791
 51
90.9803250758
  0
ARC
  5
26D
330
1F
100
AcDbEntity
  8
0
  6
Continuous
 62
     7
370
    25
100
AcDbCircle
 10
3.5650793234
 20
12.4197014244
 30
0.0
 40
3.248031496062993
100
AcDbArc
 50
13.488874181
 51
14.636125819
  0
ARC
  5
26E
330
1F
100
AcDbEntity
  8
0
  6
Continuous
 62
     7
370
    25
100
AcDbCircle
 10
5.9502773042
 20
14.1719652607
 30
0.0
 40
1.25984251968504
100
AcDbArc
 50
297.1446749242
 51
307.861666209
  0
ARC
  5
26F
330
1F
100
AcDbEntity
  8
0
  6
Continuous
 62
     7
370
    25
100
AcDbCircle
 10
3.5650793234
 20
12.4197014244
 30
0.0
 40
3.026535433070865
100
AcDbArc
 50
10.4626124769
 51
12.0373875231
  0
ARC
  5
270
330
1F
100
AcDbEntity
  8
0
  6
Continuous
 62
     7
370
    25
100
AcDbCircle
 10
6.4392772581
 20
11.7135964808
 30
0.0
 40
1.25984251968504
100
AcDbArc
 50
74.638333791
 51
85.3553250758
  0
ARC
  5
271
330
1F
100
AcDbEntity
  8
0
  6
Continuous
 62
     7
370
    25
100
AcDbCircle
 10
3.5650793234
 20
12.4197014244
 30
0.0
 40
3.248031496062993
100
AcDbArc
 50
7.863874181
 51
9.011125819
  0
ARC
  5
272
330
1F
100
AcDbEntity
  8
0
  6
Continuous
 62
     7
370
    25
100
AcDbCircle
 10
6.1105438143
 20
13.9297373462
 30
0.0
 40
1.25984251968504
100
AcDbArc
 50
291.5196749242
 51
302.236666209
  0
ARC
  5
273
330
1F
100
AcDbEntity
  8
0
  6
Continuous
 62
     7
370
    25
100
AcDbCircle
 10
3.5650793234
 20
12.4197014244
 30
0.0
 40
3.026535433070866
100
AcDbArc
 50
4.8376124769
 51
6.4123875231
  0
ARC
  5
274
330
1F
100
AcDbEntity
  8
0
  6
Continuous
 62
     7
370
    25
100
AcDbCircle
 10
6.3562268221
 20
11.4352759068
 30
0.0
 40
1.259842519685039
100
AcDbArc
 50
69.013333791
 51
79.7303250758
  0
ARC
  5
275
330
1F
100
AcDbEntity
  8
0
  6
Continuous
 62
     7
370
    25
100
AcDbCircle
 10
3.5650793234
 20
12.4197014244
 30
0.0
 40
3.248031496062993
100
AcDbArc
 50
2.238874181
 51
3.386125819
  0
ARC
  5
276
330
1F
100
AcDbEntity
  8
0
  6
Continuous
 62
     7
370
    25
100
AcDbCircle
 10
6.2462961099
 20
13.6729669602
 30
0.0
 40
1.25984251968504
100
AcDbArc
 50
285.8946749242
 51
296.611666209
  0
ARC
  5
277
330
1F
100
AcDbEntity
  8
0
  6
Continuous
 62
     7
370
    25
100
AcDbCircle
 10
3.5650793234
 20
12.4197014244
 30
0.0
 40
3.026535433070866
100
AcDbArc
 50
359.2126124769
 51
0.7873875231
  0
ARC
  5
278
330
1F
100
AcDbEntity
  8
0
  6
Continuous
 62
     7
370
    25
100
AcDbCircle
 10
6.2462961099
 20
11.1664358886
 30
0.0
 40
1.25984251968504
100
AcDbArc
 50
63.388333791
 51
74.1053250758
  0
ARC
  5
279
330
1F
100
AcDbEntity
  8
0
  6
Continuous
 62
     7
370
    25
100
AcDbCircle
 10
3.5650793234
 20
12.4197014244
 30
0.0
 40
3.248031496062993
100
AcDbArc
 50
356.613874181
 51
357.761125819
  0
ARC
  5
27A
330
1F
100
AcDbEntity
  8
0
  6
Continuous
 62
     7
370
    25
100
AcDbCircle
 10
6.3562268221
 20
13.4041269421
 30
0.0
 40
1.259842519685041
100
AcDbArc
 50
280.2696749242
 51
290.986666209
  0
ARC
  5
27B
330
1F
100
AcDbEntity
  8
0
  6
Continuous
 62
     7
370
    25
100
AcDbCircle
 10
3.5650793234
 20
12.4197014244
 30
0.0
 40
3.026535433070868
100
AcDbArc
 50
353.5876124769
 51
355.1623875231
  0
ARC
  5
27C
330
1F
100
AcDbEntity
  8
0
  6
Continuous
 62
     7
370
    25
100
AcDbCircle
 10
6.1105438143
 20
10.9096655027
 30
0.0
 40
1.259842519685041
100
AcDbArc
 50
57.763333791
 51
68.4803250758
  0
ARC
  5
27D
330
1F
100
AcDbEntity
  8
0
  6
Continuous
 62
     7
370
    25
100
AcDbCircle
 10
3.5650793234
 20
12.4197014244
 30
0.0
 40
3.248031496062991
100
AcDbArc
 50
350.988874181
 51
352.136125819
  0
ARC
  5
27E
330
1F
100
AcDbEntity
  8
0
  6
Continuous
 62
     7
370
    25
100
AcDbCircle
 10
6.4392772581
 20
13.1258063681
 30
0.0
 40
1.25984251968504
100
AcDbArc
 50
274.6446749242
 51
285.361666209
  0
ARC
  5
27F
330
1F
100
AcDbEntity
  8
0
  6
Continuous
 62
     7
370
    25
100
AcDbCircle
 10
3.5650793234
 20
12.4197014244
 30
0.0
 40
3.026535433070868
100
AcDbArc
 50
347.9626124769
 51
349.5373875231
  0
ARC
  5
280
330
1F
100
AcDbEntity
  8
0
  6
Continuous
 62
     7
370
    25
100
AcDbCircle
 10
5.9502773042
 20
10.6674375882
 30
0.0
 40
1.259842519685039
100
AcDbArc
 50
52.138333791
 51
62.8553250758
  0
ARC
  5
281
330
1F
100
AcDbEntity
  8
0
  6
Continuous
 62
     7
370
    25
100
AcDbCircle
 10
3.5650793234
 20
12.4197014244
 30
0.0
 40
3.248031496062993
100
AcDbArc
 50
345.363874181
 51
346.511125819
  0
ARC
  5
282
330
1F
100
AcDbEntity
  8
0
  6
Continuous
 62
     7
370
    25
100
AcDbCircle
 10
6.4946475968
 20
12.8406856175
 30
0.0
 40
1.259842519685042
100
AcDbArc
 50
269.0196749242
 51
279.736666209
  0
ARC
  5
283
330
1F
100
AcDbEntity
  8
0
  6
Continuous
 62
     7
370
    25
100
AcDbCircle
 10
3.5650793234
 20
12.4197014244
 30
0.0
 40
3.026535433070867
100
AcDbArc
 50
342.3376124769
 51
343.9123875231
  0
ARC
  5
284
330
1F
100
AcDbEntity
  8
0
  6
Continuous
 62
     7
370
    25
100
AcDbCircle
 10
5.7670400337
 20
10.4420849323
 30
0.0
 40
1.259842519685039
100
AcDbArc
 50
46.513333791
 51
57.2303250758
  0
ARC
  5
285
330
1F
100
AcDbEntity
  8
0
  6
Continuous
 62
     7
370
    25
100
AcDbCircle
 10
3.5650793234
 20
12.4197014244
 30
0.0
 40
3.248031496062993
100
AcDbArc
 50
339.738874181
 51
340.886125819
  0
ARC
  5
286
330
1F
100
AcDbEntity
  8
0
  6
Continuous
 62
     7
370
    25
100
AcDbCircle
 10
6.5218045916
 20
12.551510559
 30
0.0
 40
1.259842519685042
100
AcDbArc
 50
263.3946749242
 51
274.111666209
  0
ARC
  5
287
330
1F
100
AcDbEntity
  8
0
  6
Continuous
 62
     7
370
    25
100
AcDbCircle
 10
3.5650793234
 20
12.4197014244
 30
0.0
 40
3.026535433070866
100
AcDbArc
 50
336.7126124769
 51
338.2873875231
  0
ARC
  5
288
330
1F
100
AcDbEntity
  8
0
  6
Continuous
 62
     7
370
    25
100
AcDbCircle
 10
5.5625966778
 20
10.2357778043
 30
0.0
 40
1.259842519685039
100
AcDbArc
 50
40.888333791
 51
51.6053250758
  0
ARC
  5
289
330
1F
100
AcDbEntity
  8
0
  6
Continuous
 62
     7
370
    25
100
AcDbCircle
 10
3.5650793234
 20
12.4197014244
 30
0.0
 40
3.248031496062992
100
AcDbArc
 50
334.113874181
 51
335.261125819
  0
ARC
  5
28A
330
1F
100
AcDbEntity
  8
0
  6
Continuous
 62
     7
370
    25
100
AcDbCircle
 10
6.5204867057
 20
12.2610661064
 30
0.0
 40
1.25984251968504
100
AcDbArc
 50
257.7696749242
 51
268.486666209
  0
ARC
  5
28B
330
1F
100
AcDbEntity
  8
0
  6
Continuous
 62
     7
370
    25
100
AcDbCircle
 10
3.5650793234
 20
12.4197014244
 30
0.0
 40
3.026535433070865
100
AcDbArc
 50
331.0876124769
 51
332.6623875231
  0
ARC
  5
28C
330
1F
100
AcDbEntity
  8
0
  6
Continuous
 62
     7
370
    25
100
AcDbCircle
 10
5.3389161378
 20
10.0505030547
 30
0.0
 40
1.25984251968504
100
AcDbArc
 50
35.263333791
 51
45.9803250758
  0
ARC
  5
28D
330
1F
100
AcDbEntity
  8
0
  6
Continuous
 62
     7
370
    25
100
AcDbCircle
 10
3.5650793234
 20
12.4197014244
 30
0.0
 40
3.248031496062992
100
AcDbArc
 50
328.488874181
 51
329.636125819
  0
ARC
  5
28E
330
1F
100
AcDbEntity
  8
0
  6
Continuous
 62
     7
370
    25
100
AcDbCircle
 10
6.4907066311
 20
11.9721493987
 30
0.0
 40
1.259842519685039
100
AcDbArc
 50
252.1446749242
 51
262.861666209
  0
ARC
  5
28F
330
1F
100
AcDbEntity
  8
0
  6
Continuous
 62
     7
370
    25
100
AcDbCircle
 10
3.5650793234
 20
12.4197014244
 30
0.0
 40
3.026535433070867
100
AcDbArc
 50
325.4626124769
 51
327.0373875231
  0
ARC
  5
290
330
1F
100
AcDbEntity
  8
0
  6
Continuous
 62
     7
370
    25
100
AcDbCircle
 10
5.0981525796
 20
9.8880449804
 30
0.0
 40
1.25984251968504
100
AcDbArc
 50
29.638333791
 51
40.3553250758
  0
ARC
  5
291
330
1F
100
AcDbEntity
  8
0
  6
Continuous
 62
     7
370
    25
100
AcDbCircle
 10
3.5650793234
 20
12.4197014244
 30
0.0
 40
3.248031496062991
100
AcDbArc
 50
322.863874181
 51
324.011125819
  0
ARC
  5
292
330
1F
100
AcDbEntity
  8
0
  6
Continuous
 62
     7
370
    25
100
AcDbCircle
 10
6.4327511663
 20
11.6875428617
 30
0.0
 40
1.259842519685038
100
AcDbArc
 50
246.5196749242
 51
257.236666209
  0
ARC
  5
293
330
1F
100
AcDbEntity
  8
0
  6
Continuous
 62
     7
370
    25
100
AcDbCircle
 10
3.5650793234
 20
12.4197014244
 30
0.0
 40
3.026535433070867
100
AcDbArc
 50
319.8376124769
 51
321.4123875231
  0
ARC
  5
294
330
1F
100
AcDbEntity
  8
0
  6
Continuous
 62
     7
370
    25
100
AcDbCircle
 10
4.8426246879
 20
9.7499681417
 30
0.0
 40
1.259842519685039
100
AcDbArc
 50
24.013333791
 51
34.7303250758
  0
ARC
  5
295
330
1F
100
AcDbEntity
  8
0
  6
Continuous
 62
     7
370
    25
100
AcDbCircle
 10
3.5650793234
 20
12.4197014244
 30
0.0
 40
3.248031496062991
100
AcDbArc
 50
317.238874181
 51
318.386125819
  0
ARC
  5
296
330
1F
100
AcDbEntity
  8
0
  6
Continuous
 62
     7
370
    25
100
AcDbCircle
 10
6.347178454
 20
11.4099874118
 30
0.0
 40
1.25984251968504
100
AcDbArc
 50
240.8946749242
 51
251.611666209
  0
ARC
  5
297
330
1F
100
AcDbEntity
  8
0
  6
Continuous
 62
     7
370
    25
100
AcDbCircle
 10
3.5650793234
 20
12.4197014244
 30
0.0
 40
3.026535433070867
100
AcDbArc
 50
314.2126124769
 51
315.7873875231
  0
ARC
  5
298
330
1F
100
AcDbEntity
  8
0
  6
Continuous
 62
     7
370
    25
100
AcDbCircle
 10
4.574793336
 20
9.6376022939
 30
0.0
 40
1.259842519685039
100
AcDbArc
 50
18.388333791
 51
29.1053250758
  0
ARC
  5
299
330
1F
100
AcDbEntity
  8
0
  6
Continuous
 62
     7
370
    25
100
AcDbCircle
 10
3.5650793234
 20
12.4197014244
 30
0.0
 40
3.248031496062992
100
AcDbArc
 50
311.613874181
 51
312.761125819
  0
ARC
  5
29A
330
1F
100
AcDbEntity
  8
0
  6
Continuous
 62
     7
370
    25
100
AcDbCircle
 10
6.2348126062
 20
11.1421560599
 30
0.0
 40
1.25984251968504
100
AcDbArc
 50
235.2696749242
 51
245.986666209
  0
ARC
  5
29B
330
1F
100
AcDbEntity
  8
0
  6
Continuous
 62
     7
370
    25
100
AcDbCircle
 10
3.5650793234
 20
12.4197014244
 30
0.0
 40
3.026535433070867
100
AcDbArc
 50
308.5876124769
 51
310.1623875231
  0
ARC
  5
29C
330
1F
100
AcDbEntity
  8
0
  6
Continuous
 62
     7
370
    25
100
AcDbCircle
 10
4.2972378861
 20
9.5520295815
 30
0.0
 40
1.259842519685038
100
AcDbArc
 50
12.763333791
 51
23.4803250758
  0
ARC
  5
29D
330
1F
100
AcDbEntity
  8
0
  6
Continuous
 62
     7
370
    25
100
AcDbCircle
 10
3.5650793234
 20
12.4197014244
 30
0.0
 40
3.248031496062991
100
AcDbArc
 50
305.988874181
 51
307.136125819
  0
ARC
  5
29E
330
1F
100
AcDbEntity
  8
0
  6
Continuous
 62
     7
370
    25
100
AcDbCircle
 10
6.0967357674
 20
10.8866281682
 30
0.0
 40
1.259842519685039
100
AcDbArc
 50
229.6446749242
 51
240.361666209
  0
ARC
  5
29F
330
1F
100
AcDbEntity
  8
0
  6
Continuous
 62
     7
370
    25
100
AcDbCircle
 10
3.5650793234
 20
12.4197014244
 30
0.0
 40
3.026535433070867
100
AcDbArc
 50
302.9626124769
 51
304.5373875231
  0
ARC
  5
2A0
330
1F
100
AcDbEntity
  8
0
  6
Continuous
 62
     7
370
    25
100
AcDbCircle
 10
4.0126313491
 20
9.4940741167
 30
0.0
 40
1.25984251968504
100
AcDbArc
 50
7.138333791
 51
17.8553250758
  0
ARC
  5
2A1
330
1F
100
AcDbEntity
  8
0
  6
Continuous
 62
     7
370
    25
100
AcDbCircle
 10
3.5650793234
 20
12.4197014244
 30
0.0
 40
3.248031496062992
100
AcDbArc
 50
300.363874181
 51
301.511125819
  0
ARC
  5
2A2
330
1F
100
AcDbEntity
  8
0
  6
Continuous
 62
     7
370
    25
100
AcDbCircle
 10
5.9342776932
 20
10.64586461
 30
0.0
 40
1.259842519685039
100
AcDbArc
 50
224.0196749242
 51
234.736666209
  0
ARC
  5
2A3
330
1F
100
AcDbEntity
  8
0
  6
Continuous
 62
     7
370
    25
100
AcDbCircle
 10
3.5650793234
 20
12.4197014244
 30
0.0
 40
3.026535433070866
100
AcDbArc
 50
297.3376124769
 51
298.9123875231
  0
ARC
  5
2A4
330
1F
100
AcDbEntity
  8
0
  6
Continuous
 62
     7
370
    25
100
AcDbCircle
 10
3.7237146414
 20
9.4642940421
 30
0.0
 40
1.259842519685039
100
AcDbArc
 50
1.513333791
 51
12.2303250758
  0
ARC
  5
2A5
330
1F
100
AcDbEntity
  8
0
  6
Continuous
 62
     7
370
    25
100
AcDbCircle
 10
3.5650793234
 20
12.4197014244
 30
0.0
 40
3.248031496062992
100
AcDbArc
 50
294.738874181
 51
295.886125819
  0
ARC
  5
2A6
330
1F
100
AcDbEntity
  8
0
  6
Continuous
 62
     7
370
    25
100
AcDbCircle
 10
5.7490029435
 20
10.42218407
 30
0.0
 40
1.259842519685041
100
AcDbArc
 50
218.3946749242
 51
229.111666209
  0
ARC
  5
2A7
330
1F
100
AcDbEntity
  8
0
  6
Continuous
 62
     7
370
    25
100
AcDbCircle
 10
3.5650793234
 20
12.4197014244
 30
0.0
 40
3.026535433070866
100
AcDbArc
 50
291.7126124769
 51
293.2873875231
  0
ARC
  5
2A8
330
1F
100
AcDbEntity
  8
0
  6
Continuous
 62
     7
370
    25
100
AcDbCircle
 10
3.4332701888
 20
9.4629761562
 30
0.0
 40
1.25984251968504
100
AcDbArc
 50
355.888333791
 51
6.6053250758
  0
ARC
  5
2A9
330
1F
100
AcDbEntity
  8
0
  6
Continuous
 62
     7
370
    25
100
AcDbCircle
 10
3.5650793234
 20
12.4197014244
 30
0.0
 40
3.248031496062993
100
AcDbArc
 50
289.113874181
 51
290.261125819
  0
ARC
  5
2AA
330
1F
100
AcDbEntity
  8
0
  6
Continuous
 62
     7
370
    25
100
AcDbCircle
 10
5.5426958155
 20
10.2177407141
 30
0.0
 40
1.259842519685039
100
AcDbArc
 50
212.7696749242
 51
223.486666209
  0
ARC
  5
2AB
330
1F
100
AcDbEntity
  8
0
  6
Continuous
 62
     7
370
    25
100
AcDbCircle
 10
3.5650793234
 20
12.4197014244
 30
0.0
 40
3.026535433070866
100
AcDbArc
 50
286.0876124769
 51
287.6623875231
  0
ARC
  5
2AC
330
1F
100
AcDbEntity
  8
0
  6
Continuous
 62
     7
370
    25
100
AcDbCircle
 10
3.1440951303
 20
9.490133151
 30
0.0
 40
1.259842519685039
100
AcDbArc
 50
350.263333791
 51
0.9803250758
  0
ARC
  5
2AD
330
1F
100
AcDbEntity
  8
0
  6
Continuous
 62
     7
370
    25
100
AcDbCircle
 10
3.5650793234
 20
12.4197014244
 30
0.0
 40
3.248031496062991
100
AcDbArc
 50
283.488874181
 51
284.636125819
  0
ARC
  5
2AE
330
1F
100
AcDbEntity
  8
0
  6
Continuous
 62
     7
370
    25
100
AcDbCircle
 10
5.3173431596
 20
10.0345034436
 30
0.0
 40
1.25984251968504
100
AcDbArc
 50
207.1446749242
 51
217.861666209
  0
ARC
  5
2AF
330
1F
100
AcDbEntity
  8
0
  6
Continuous
 62
     7
370
    25
100
AcDbCircle
 10
3.5650793234
 20
12.4197014244
 30
0.0
 40
3.026535433070866
100
AcDbArc
 50
280.4626124769
 51
282.0373875231
  0
ARC
  5
2B0
330
1F
100
AcDbEntity
  8
0
  6
Continuous
 62
     7
370
    25
100
AcDbCircle
 10
2.8589743797
 20
9.5455034897
 30
0.0
 40
1.259842519685039
100
AcDbArc
 50
344.638333791
 51
355.3553250758
  0
ARC
  5
2B1
330
1F
100
AcDbEntity
  8
0
  6
Continuous
 62
     7
370
    25
100
AcDbCircle
 10
3.5650793234
 20
12.4197014244
 30
0.0
 40
3.248031496062992
100
AcDbArc
 50
277.863874181
 51
279.011125819
  0
ARC
  5
2B2
330
1F
100
AcDbEntity
  8
0
  6
Continuous
 62
     7
370
    25
100
AcDbCircle
 10
5.0751152451
 20
9.8742369335
 30
0.0
 40
1.259842519685041
100
AcDbArc
 50
201.5196749242
 51
212.236666209
  0
ARC
  5
2B3
330
1F
100
AcDbEntity
  8
0
  6
Continuous
 62
     7
370
    25
100
AcDbCircle
 10
3.5650793234
 20
12.4197014244
 30
0.0
 40
3.026535433070866
100
AcDbArc
 50
274.8376124769
 51
276.4123875231
  0
ARC
  5
2B4
330
1F
100
AcDbEntity
  8
0
  6
Continuous
 62
     7
370
    25
100
AcDbCircle
 10
2.5806538057
 20
9.6285539257
 30
0.0
 40
1.25984251968504
100
AcDbArc
 50
339.013333791
 51
349.7303250758
  0
ARC
  5
2B5
330
1F
100
AcDbEntity
  8
0
  6
Continuous
 62
     7
370
    25
100
AcDbCircle
 10
3.5650793234
 20
12.4197014244
 30
0.0
 40
3.248031496062991
100
AcDbArc
 50
272.238874181
 51
273.386125819
  0
ARC
  5
2B6
330
1F
100
AcDbEntity
  8
0
  6
Continuous
 62
     7
370
    25
100
AcDbCircle
 10
4.8183448592
 20
9.7384846379
 30
0.0
 40
1.259842519685039
100
AcDbArc
 50
195.8946749242
 51
206.611666209
  0
ARC
  5
2B7
330
1F
100
AcDbEntity
  8
0
  6
Continuous
 62
     7
370
    25
100
AcDbCircle
 10
3.5650793234
 20
12.4197014244
 30
0.0
 40
3.026535433070866
100
AcDbArc
 50
269.2126124769
 51
270.7873875231
  0
CIRCLE
  5
2B8
330
1F
100
AcDbEntity
  8
0
  6
Continuous
 62
     7
370
    25
100
AcDbCircle
 10
3.5650793234
 20
12.4197014244
 30
0.0
 40
0.125
  0
CIRCLE
  5
2B9
330
1F
100
AcDbEntity
  8
0
  6
Continuous
 62
     7
370
    25
100
AcDbCircle
 10
3.2928432126
 20
12.1474653137
 30
0.0
 40
0.0720472440944881
  0
CIRCLE
  5
2BA
330
1F
100
AcDbEntity
  8
0
  6
Continuous
 62
     7
370
    25
100
AcDbCircle
 10
3.2928432126
 20
12.6919375352
 30
0.0
 40
0.0720472440944881
  0
CIRCLE
  5
2BB
330
1F
100
AcDbEntity
  8
0
  6
Continuous
 62
     7
370
    25
100
AcDbCircle
 10
3.8373154341
 20
12.6919375352
 30
0.0
 40
0.0720472440944881
  0
CIRCLE
  5
2BC
330
1F
100
AcDbEntity
  8
0
  6
Continuous
 62
     7
370
    25
100
AcDbCircle
 10
3.8373154341
 20
12.1474653137
 30
0.0
 40
0.0720472440944881
  0
MTEXT
  5
2BE
330
1F
100
AcDbEntity
  8
0
  6
Continuous
 62
     7
100
AcDbMText
 10
0.0
 20
0.7720139504
 30
0.0
 40
0.2768
 41
0.0
 71
     1
 72
     1
  1
SOLIDWORKS Educational Product.
  7
SLDTEXTSTYLE0
 73
     1
 44
1.0
  0
MTEXT
  5
2BF
330
1F
100
AcDbEntity
  8
0
  6
Continuous
 62
     7
100
AcDbMText
 10
0.0
 20
0.3568139504
 30
0.0
 40
0.2768
 41
0.0
 71
     1
 72
     1
  1
For Instructional Use Only.
  7
SLDTEXTSTYLE0
 73
     1
 44
1.0
  0
ENDSEC
  0
SECTION
  2
OBJECTS
  0
DICTIONARY
  5
C
330
0
100
AcDbDictionary
281
     1
  3
ACAD_GROUP
350
D
  3
ACAD_LAYOUT
350
1A
  3
ACAD_MLINESTYLE
350
17
  3
ACAD_PLOTSETTINGS
350
19
  3
ACAD_PLOTSTYLENAME
350
E
  3
ACAD_SCALELIST
350
47
  0
DICTIONARY
  5
D
102
{ACAD_REACTORS
330
C
102
}
330
C
100
AcDbDictionary
281
     1
  0
DICTIONARY
  5
1A
102
{ACAD_REACTORS
330
C
102
}
330
C
100
AcDbDictionary
281
     1
  3
Layout1
350
1E
  3
Layout2
350
26
  3
Model
350
22
  0
DICTIONARY
  5
17
102
{ACAD_REACTORS
330
C
102
}
330
C
100
AcDbDictionary
281
     1
  3
Standard
350
18
  0
DICTIONARY
  5
19
102
{ACAD_REACTORS
330
C
102
}
330
C
100
AcDbDictionary
281
     1
  0
ACDBDICTIONARYWDFLT
  5
E
102
{ACAD_REACTORS
330
C
102
}
330
C
100
AcDbDictionary
281
     1
  3
Normal
350
F
100
AcDbDictionaryWithDefault
340
F
  0
DICTIONARY
  5
47
102
{ACAD_REACTORS
330
C
102
}
330
C
100
AcDbDictionary
281
     1
  3
A0
350
48
  3
A1
350
49
  3
A2
350
4A
  3
A3
350
4B
  3
A4
350
4C
  3
A5
350
4D
  3
A6
350
4E
  3
A7
350
4F
  3
A8
350
50
  3
A9
350
51
  3
B0
350
52
  3
B1
350
53
  3
B2
350
54
  3
B3
350
55
  3
B4
350
56
  3
B5
350
57
  3
B6
350
58
  3
B7
350
59
  3
B8
350
5A
  3
B9
350
5B
  3
C0
350
5C
  3
C1
350
5D
  3
C2
350
5E
  3
C3
350
5F
  3
C4
350
60
  3
C5
350
61
  3
C6
350
62
  3
C7
350
63
  3
C8
350
64
  3
C9
350
65
  3
D0
350
66
  3
D1
350
67
  3
D2
350
68
  0
LAYOUT
  5
1E
102
{ACAD_REACTORS
330
1A
102
}
330
1A
100
AcDbPlotSettings
  1

  2
none_device
  4

  6

 40
0.0
 41
0.0
 42
0.0
 43
0.0
 44
0.0
 45
0.0
 46
0.0
 47
0.0
 48
0.0
 49
0.0
140
0.0
141
0.0
142
1.0
143
1.0
 70
   688
 72
     0
 73
     0
 74
     5
  7

 75
    16
147
1.0
148
0.0
149
0.0
100
AcDbLayout
  1
Layout1
 70
     1
 71
     1
 10
0.0
 20
0.0
 11
12.0
 21
9.0
 12
0.0
 22
0.0
 32
0.0
 14
1.0000000000E+20
 24
1.0000000000E+20
 34
1.0000000000E+20
 15
-1.0000000000E+20
 25
-1.0000000000E+20
 35
-1.0000000000E+20
146
0.0
 13
0.0
 23
0.0
 33
0.0
 16
1.0
 26
0.0
 36
0.0
 17
0.0
 27
1.0
 37
0.0
 76
     0
330
1B
  0
LAYOUT
  5
26
102
{ACAD_REACTORS
330
1A
102
}
330
1A
100
AcDbPlotSettings
  1

  2
none_device
  4

  6

 40
0.0
 41
0.0
 42
0.0
 43
0.0
 44
0.0
 45
0.0
 46
0.0
 47
0.0
 48
0.0
 49
0.0
140
0.0
141
0.0
142
1.0
143
1.0
 70
   688
 72
     0
 73
     0
 74
     5
  7

 75
    16
147
1.0
148
0.0
149
0.0
100
AcDbLayout
  1
Layout2
 70
     1
 71
     2
 10
0.0
 20
0.0
 11
0.0
 21
0.0
 12
0.0
 22
0.0
 32
0.0
 14
0.0
 24
0.0
 34
0.0
 15
0.0
 25
0.0
 35
0.0
146
0.0
 13
0.0
 23
0.0
 33
0.0
 16
1.0
 26
0.0
 36
0.0
 17
0.0
 27
1.0
 37
0.0
 76
     0
330
23
  0
LAYOUT
  5
22
102
{ACAD_REACTORS
330
1A
102
}
330
1A
100
AcDbPlotSettings
  1

  2
none_device
  4
Letter_(8.50_x_11.00_Inches)
  6

 40
6.35
 41
6.35
 42
6.35000508
 43
6.35000508
 44
215.9
 45
279.4
 46
0.0
 47
0.0
 48
0.0
 49
0.0
140
0.0
141
0.0
142
1.0
143
1.0
 70
  1712
 72
     0
 73
     0
 74
     0
  7

 75
     0
147
1.0
148
0.0
149
0.0
100
AcDbLayout
  1
Model
 70
     1
 71
     0
 10
0.0
 20
0.0
 11
24.0
 21
16.0
 12
0.0
 22
0.0
 32
0.0
 14
0.0
 24
0.0
 34
0.0
 15
24.0
 25
16.0
 35
0.0
146
0.0
 13
0.0
 23
0.0
 33
0.0
 16
1.0
 26
0.0
 36
0.0
 17
0.0
 27
1.0
 37
0.0
 76
     0
330
1F
331
29
  0
MLINESTYLE
  5
18
102
{ACAD_REACTORS
330
17
102
}
330
17
100
AcDbMlineStyle
  2
Standard
 70
     0
  3

 62
   256
 51
90.0
 52
90.0
 71
     2
 49
0.5
 62
   256
  6
BYLAYER
 49
-0.5
 62
   256
  6
BYLAYER
  0
ACDBPLACEHOLDER
  5
F
102
{ACAD_REACTORS
330
E
102
}
330
E
  0
SCALE
  5
48
102
{ACAD_REACTORS
330
47
102
}
330
47
100
AcDbScale
 70
     0
300
1:1
140
1.0
141
1.0
290
     1
  0
SCALE
  5
49
102
{ACAD_REACTORS
330
47
102
}
330
47
100
AcDbScale
 70
     0
300
1:2
140
1.0
141
2.0
290
     0
  0
SCALE
  5
4A
102
{ACAD_REACTORS
330
47
102
}
330
47
100
AcDbScale
 70
     0
300
1:4
140
1.0
141
4.0
290
     0
  0
SCALE
  5
4B
102
{ACAD_REACTORS
330
47
102
}
330
47
100
AcDbScale
 70
     0
300
1:5
140
1.0
141
5.0
290
     0
  0
SCALE
  5
4C
102
{ACAD_REACTORS
330
47
102
}
330
47
100
AcDbScale
 70
     0
300
1:8
140
1.0
141
8.0
290
     0
  0
SCALE
  5
4D
102
{ACAD_REACTORS
330
47
102
}
330
47
100
AcDbScale
 70
     0
300
1:10
140
1.0
141
10.0
290
     0
  0
SCALE
  5
4E
102
{ACAD_REACTORS
330
47
102
}
330
47
100
AcDbScale
 70
     0
300
1:16
140
1.0
141
16.0
290
     0
  0
SCALE
  5
4F
102
{ACAD_REACTORS
330
47
102
}
330
47
100
AcDbScale
 70
     0
300
1:20
140
1.0
141
20.0
290
     0
  0
SCALE
  5
50
102
{ACAD_REACTORS
330
47
102
}
330
47
100
AcDbScale
 70
     0
300
1:30
140
1.0
141
30.0
290
     0
  0
SCALE
  5
51
102
{ACAD_REACTORS
330
47
102
}
330
47
100
AcDbScale
 70
     0
300
1:40
140
1.0
141
40.0
290
     0
  0
SCALE
  5
52
102
{ACAD_REACTORS
330
47
102
}
330
47
100
AcDbScale
 70
     0
300
1:50
140
1.0
141
50.0
290
     0
  0
SCALE
  5
53
102
{ACAD_REACTORS
330
47
102
}
330
47
100
AcDbScale
 70
     0
300
1:100
140
1.0
141
100.0
290
     0
  0
SCALE
  5
54
102
{ACAD_REACTORS
330
47
102
}
330
47
100
AcDbScale
 70
     0
300
2:1
140
2.0
141
1.0
290
     0
  0
SCALE
  5
55
102
{ACAD_REACTORS
330
47
102
}
330
47
100
AcDbScale
 70
     0
300
4:1
140
4.0
141
1.0
290
     0
  0
SCALE
  5
56
102
{ACAD_REACTORS
330
47
102
}
330
47
100
AcDbScale
 70
     0
300
8:1
140
8.0
141
1.0
290
     0
  0
SCALE
  5
57
102
{ACAD_REACTORS
330
47
102
}
330
47
100
AcDbScale
 70
     0
300
10:1
140
10.0
141
1.0
290
     0
  0
SCALE
  5
58
102
{ACAD_REACTORS
330
47
102
}
330
47
100
AcDbScale
 70
     0
300
100:1
140
100.0
141
1.0
290
     0
  0
SCALE
  5
59
102
{ACAD_REACTORS
330
47
102
}
330
47
100
AcDbScale
 70
     0
300
1/128" = 1'-0"
140
0.0078125
141
12.0
290
     0
  0
SCALE
  5
5A
102
{ACAD_REACTORS
330
47
102
}
330
47
100
AcDbScale
 70
     0
300
1/64" = 1'-0"
140
0.015625
141
12.0
290
     0
  0
SCALE
  5
5B
102
{ACAD_REACTORS
330
47
102
}
330
47
100
AcDbScale
 70
     0
300
1/32" = 1'-0"
140
0.03125
141
12.0
290
     0
  0
SCALE
  5
5C
102
{ACAD_REACTORS
330
47
102
}
330
47
100
AcDbScale
 70
     0
300
1/16" = 1'-0"
140
0.0625
141
12.0
290
     0
  0
SCALE
  5
5D
102
{ACAD_REACTORS
330
47
102
}
330
47
100
AcDbScale
 70
     0
300
3/32" = 1'-0"
140
0.09375
141
12.0
290
     0
  0
SCALE
  5
5E
102
{ACAD_REACTORS
330
47
102
}
330
47
100
AcDbScale
 70
     0
300
1/8" = 1'-0"
140
0.125
141
12.0
290
     0
  0
SCALE
  5
5F
102
{ACAD_REACTORS
330
47
102
}
330
47
100
AcDbScale
 70
     0
300
3/16" = 1'-0"
140
0.1875
141
12.0
290
     0
  0
SCALE
  5
60
102
{ACAD_REACTORS
330
47
102
}
330
47
100
AcDbScale
 70
     0
300
1/4" = 1'-0"
140
0.25
141
12.0
290
     0
  0
SCALE
  5
61
102
{ACAD_REACTORS
330
47
102
}
330
47
100
AcDbScale
 70
     0
300
3/8" = 1'-0"
140
0.375
141
12.0
290
     0
  0
SCALE
  5
62
102
{ACAD_REACTORS
330
47
102
}
330
47
100
AcDbScale
 70
     0
300
1/2" = 1'-0"
140
0.5
141
12.0
290
     0
  0
SCALE
  5
63
102
{ACAD_REACTORS
330
47
102
}
330
47
100
AcDbScale
 70
     0
300
3/4" = 1'-0"
140
0.75
141
12.0
290
     0
  0
SCALE
  5
64
102
{ACAD_REACTORS
330
47
102
}
330
47
100
AcDbScale
 70
     0
300
1" = 1'-0"
140
1.0
141
12.0
290
     0
  0
SCALE
  5
65
102
{ACAD_REACTORS
330
47
102
}
330
47
100
AcDbScale
 70
     0
300
1-1/2" = 1'-0"
140
1.5
141
12.0
290
     0
  0
SCALE
  5
66
102
{ACAD_REACTORS
330
47
102
}
330
47
100
AcDbScale
 70
     0
300
3" = 1'-0"
140
3.0
141
12.0
290
     0
  0
SCALE
  5
67
102
{ACAD_REACTORS
330
47
102
}
330
47
100
AcDbScale
 70
     0
300
6" = 1'-0"
140
6.0
141
12.0
290
     0
  0
SCALE
  5
68
102
{ACAD_REACTORS
330
47
102
}
330
47
100
AcDbScale
 70
     0
300
1'-0" = 1'-0"
140
12.0
141
12.0
290
     0
  0
ENDSEC
  0
EOF
