  0
SECTION
  2
HEADER
  9
$ACADVER
  1
AC1015
  9
$ACADMAINTVER
 70
     6
  9
$DWGCODEPAGE
  3
ANSI_1252
  9
$INSBASE
 10
0.0
 20
0.0
 30
0.0
  9
$EXTMIN
 10
0.0
 20
0.0
 30
0.0
  9
$EXTMAX
 10
24.0
 20
16.0
 30
0.0
  9
$LIMMIN
 10
0.0
 20
0.0
  9
$LIMMAX
 10
24.0
 20
16.0
  9
$ORTHOMODE
 70
     0
  9
$REGENMODE
 70
     1
  9
$FILLMODE
 70
     1
  9
$QTEXTMODE
 70
     0
  9
$MIRRTEXT
 70
     1
  9
$LTSCALE
 40
1.0
  9
$ATTMODE
 70
     1
  9
$TEXTSIZE
 40
0.1377952756
  9
$TRACEWID
 40
0.05
  9
$TEXTSTYLE
  7
Standard
  9
$CLAYER
  8
0
  9
$CELTYPE
  6
ByLayer
  9
$CECOLOR
 62
   256
  9
$CELTSCALE
 40
1.0
  9
$DISPSILH
 70
     0
  9
$DIMSCALE
 40
1.0
  9
$DIMASZ
 40
0.13
  9
$DIMEXO
 40
0.05
  9
$DIMDLI
 40
0.38
  9
$DIMRND
 40
0.0
  9
$DIMDLE
 40
0.0
  9
$DIMEXE
 40
0.125
  9
$DIMTP
 40
0.0
  9
$DIMTM
 40
0.0
  9
$DIMTXT
 40
0.1377952756
  9
$DIMCEN
 40
0.09
  9
$DIMTSZ
 40
0.0
  9
$DIMTOL
 70
     0
  9
$DIMLIM
 70
     0
  9
$DIMTIH
 70
     1
  9
$DIMTOH
 70
     1
  9
$DIMSE1
 70
     0
  9
$DIMSE2
 70
     0
  9
$DIMTAD
 70
     1
  9
$DIMZIN
 70
     1
  9
$DIMBLK
  1

  9
$DIMASO
 70
     1
  9
$DIMSHO
 70
     1
  9
$DIMPOST
  1

  9
$DIMAPOST
  1

  9
$DIMALT
 70
     0
  9
$DIMALTD
 70
     2
  9
$DIMALTF
 40
25.4
  9
$DIMLFAC
 40
1.0
  9
$DIMTOFL
 70
     0
  9
$DIMTVP
 40
0.0
  9
$DIMTIX
 70
     0
  9
$DIMSOXD
 70
     0
  9
$DIMSAH
 70
     0
  9
$DIMBLK1
  1

  9
$DIMBLK2
  1

  9
$DIMSTYLE
  2
Standard
  9
$DIMCLRD
 70
     0
  9
$DIMCLRE
 70
     0
  9
$DIMCLRT
 70
     0
  9
$DIMTFAC
 40
1.0
  9
$DIMGAP
 40
0.06
  9
$DIMJUST
 70
     0
  9
$DIMSD1
 70
     0
  9
$DIMSD2
 70
     0
  9
$DIMTOLJ
 70
     1
  9
$DIMTZIN
 70
     1
  9
$DIMALTZ
 70
     0
  9
$DIMALTTZ
 70
     0
  9
$DIMUPT
 70
     0
  9
$DIMDEC
 70
     2
  9
$DIMTDEC
 70
     2
  9
$DIMALTU
 70
     2
  9
$DIMALTTD
 70
     2
  9
$DIMTXSTY
  7
Standard
  9
$DIMAUNIT
 70
     0
  9
$DIMADEC
 70
     2
  9
$DIMALTRND
 40
0.0
  9
$DIMAZIN
 70
     0
  9
$DIMDSEP
 70
    46
  9
$DIMATFIT
 70
     3
  9
$DIMFRAC
 70
     0
  9
$DIMLDRBLK
  1

  9
$DIMLUNIT
 70
     2
  9
$DIMLWD
 70
    -2
  9
$DIMLWE
 70
    -2
  9
$DIMTMOVE
 70
     0
  9
$LUNITS
 70
     2
  9
$LUPREC
 70
     0
  9
$SKETCHINC
 40
0.1
  9
$FILLETRAD
 40
0.5
  9
$AUNITS
 70
     0
  9
$AUPREC
 70
     0
  9
$MENU
  1
.
  9
$ELEVATION
 40
0.0
  9
$PELEVATION
 40
0.0
  9
$THICKNESS
 40
0.0
  9
$LIMCHECK
 70
     0
  9
$CHAMFERA
 40
0.0
  9
$CHAMFERB
 40
0.0
  9
$CHAMFERC
 40
0.0
  9
$CHAMFERD
 40
0.0
  9
$SKPOLY
 70
     0
  9
$TDCREATE
 40
2458583.549719711
  9
$TDUCREATE
 40
2458583.716386377
  9
$TDUPDATE
 40
2458583.54972088
  9
$TDUUPDATE
 40
2458583.716387546
  9
$TDINDWG
 40
0.0000000116
  9
$TDUSRTIMER
 40
0.0000000116
  9
$USRTIMER
 70
     1
  9
$ANGBASE
 50
0.0
  9
$ANGDIR
 70
     0
  9
$PDMODE
 70
     0
  9
$PDSIZE
 40
-1.0
  9
$PLINEWID
 40
0.0
  9
$SPLFRAME
 70
     0
  9
$SPLINETYPE
 70
     6
  9
$SPLINESEGS
 70
     8
  9
$HANDSEED
  5
3DF
  9
$SURFTAB1
 70
     6
  9
$SURFTAB2
 70
     6
  9
$SURFTYPE
 70
     6
  9
$SURFU
 70
     6
  9
$SURFV
 70
     6
  9
$UCSBASE
  2

  9
$UCSNAME
  2

  9
$UCSORG
 10
0.0
 20
0.0
 30
0.0
  9
$UCSXDIR
 10
1.0
 20
0.0
 30
0.0
  9
$UCSYDIR
 10
0.0
 20
1.0
 30
0.0
  9
$UCSORTHOREF
  2

  9
$UCSORTHOVIEW
 70
     0
  9
$UCSORGTOP
 10
0.0
 20
0.0
 30
0.0
  9
$UCSORGBOTTOM
 10
0.0
 20
0.0
 30
0.0
  9
$UCSORGLEFT
 10
0.0
 20
0.0
 30
0.0
  9
$UCSORGRIGHT
 10
0.0
 20
0.0
 30
0.0
  9
$UCSORGFRONT
 10
0.0
 20
0.0
 30
0.0
  9
$UCSORGBACK
 10
0.0
 20
0.0
 30
0.0
  9
$PUCSBASE
  2

  9
$PUCSNAME
  2

  9
$PUCSORG
 10
0.0
 20
0.0
 30
0.0
  9
$PUCSXDIR
 10
1.0
 20
0.0
 30
0.0
  9
$PUCSYDIR
 10
0.0
 20
1.0
 30
0.0
  9
$PUCSORTHOREF
  2

  9
$PUCSORTHOVIEW
 70
     0
  9
$PUCSORGTOP
 10
0.0
 20
0.0
 30
0.0
  9
$PUCSORGBOTTOM
 10
0.0
 20
0.0
 30
0.0
  9
$PUCSORGLEFT
 10
0.0
 20
0.0
 30
0.0
  9
$PUCSORGRIGHT
 10
0.0
 20
0.0
 30
0.0
  9
$PUCSORGFRONT
 10
0.0
 20
0.0
 30
0.0
  9
$PUCSORGBACK
 10
0.0
 20
0.0
 30
0.0
  9
$USERI1
 70
     0
  9
$USERI2
 70
     0
  9
$USERI3
 70
     0
  9
$USERI4
 70
     0
  9
$USERI5
 70
     0
  9
$USERR1
 40
0.0
  9
$USERR2
 40
0.0
  9
$USERR3
 40
0.0
  9
$USERR4
 40
0.0
  9
$USERR5
 40
0.0
  9
$WORLDVIEW
 70
     1
  9
$SHADEDGE
 70
     3
  9
$SHADEDIF
 70
    70
  9
$TILEMODE
 70
     1
  9
$MAXACTVP
 70
    64
  9
$PINSBASE
 10
0.0
 20
0.0
 30
0.0
  9
$PLIMCHECK
 70
     0
  9
$PEXTMIN
 10
1.0000000000E+20
 20
1.0000000000E+20
 30
1.0000000000E+20
  9
$PEXTMAX
 10
-1.0000000000E+20
 20
-1.0000000000E+20
 30
-1.0000000000E+20
  9
$PLIMMIN
 10
0.0
 20
0.0
  9
$PLIMMAX
 10
12.0
 20
9.0
  9
$UNITMODE
 70
     0
  9
$VISRETAIN
 70
     1
  9
$PLINEGEN
 70
     0
  9
$PSLTSCALE
 70
     1
  9
$TREEDEPTH
 70
  3020
  9
$CMLSTYLE
  2
Standard
  9
$CMLJUST
 70
     0
  9
$CMLSCALE
 40
1.0
  9
$PROXYGRAPHICS
 70
     1
  9
$MEASUREMENT
 70
     0
  9
$CELWEIGHT
370
    -1
  9
$ENDCAPS
280
     0
  9
$JOINSTYLE
280
     0
  9
$LWDISPLAY
290
     1
  9
$INSUNITS
 70
     1
  9
$HYPERLINKBASE
  1

  9
$STYLESHEET
  1

  9
$XEDIT
290
     1
  9
$CEPSNTYPE
380
     0
  9
$PSTYLEMODE
290
     1
  9
$FINGERPRINTGUID
  2
{801D4610-8F50-45D7-BB76-8B50FDC7A22A}
  9
$VERSIONGUID
  2
{FAEB1C32-E019-11D5-929B-00C0DF256EC4}
  9
$EXTNAMES
290
     1
  9
$PSVPSCALE
 40
0.0
  9
$OLESTARTUP
290
     0
  0
ENDSEC
  0
SECTION
  2
CLASSES
  0
CLASS
  1
ACDBDICTIONARYWDFLT
  2
AcDbDictionaryWithDefault
  3
ObjectDBX Classes
 90
        0
280
     0
281
     0
  0
CLASS
  1
VISUALSTYLE
  2
AcDbVisualStyle
  3
ObjectDBX Classes
 90
     4095
280
     0
281
     0
  0
CLASS
  1
MATERIAL
  2
AcDbMaterial
  3
ObjectDBX Classes
 90
     1153
280
     0
281
     0
  0
CLASS
  1
SCALE
  2
AcDbScale
  3
ObjectDBX Classes
 90
     1153
280
     0
281
     0
  0
CLASS
  1
TABLESTYLE
  2
AcDbTableStyle
  3
ObjectDBX Classes
 90
     4095
280
     0
281
     0
  0
CLASS
  1
MLEADERSTYLE
  2
AcDbMLeaderStyle
  3
ACDB_MLEADERSTYLE_CLASS
 90
     4095
280
     0
281
     0
  0
CLASS
  1
SUN
  2
AcDbSun
  3
SCENEOE
 90
     1153
280
     0
281
     0
  0
CLASS
  1
ACDBPLACEHOLDER
  2
AcDbPlaceHolder
  3
ObjectDBX Classes
 90
        0
280
     0
281
     0
  0
CLASS
  1
LAYOUT
  2
AcDbLayout
  3
ObjectDBX Classes
 90
        0
280
     0
281
     0
  0
ENDSEC
  0
SECTION
  2
TABLES
  0
TABLE
  2
VPORT
  5
8
330
0
100
AcDbSymbolTable
 70
     1
  0
VPORT
  5
29
330
8
100
AcDbSymbolTableRecord
100
AcDbViewportTableRecord
  2
*Active
 70
     0
 10
0.0
 20
0.0
 11
1.0
 21
1.0
 12
12.0
 22
8.0
 13
0.0
 23
0.0
 14
0.5
 24
0.5
 15
0.5
 25
0.5
 16
0.0
 26
0.0
 36
1.0
 17
0.0
 27
0.0
 37
0.0
 40
16.0
 41
1.5
 42
50.0
 43
0.0
 44
0.0
 50
0.0
 51
0.0
 71
     0
 72
  2000
 73
     1
 74
     3
 75
     0
 76
     0
 77
     0
 78
     0
281
     0
 65
     1
110
0.0
120
0.0
130
0.0
111
1.0
121
0.0
131
0.0
112
0.0
122
1.0
132
0.0
 79
     0
146
0.0
  0
ENDTAB
  0
TABLE
  2
LTYPE
  5
5
330
0
100
AcDbSymbolTable
 70
     6
  0
LTYPE
  5
14
330
5
100
AcDbSymbolTableRecord
100
AcDbLinetypeTableRecord
  2
ByBlock
 70
     0
  3

 72
    65
 73
     0
 40
0.0
  0
LTYPE
  5
15
330
5
100
AcDbSymbolTableRecord
100
AcDbLinetypeTableRecord
  2
ByLayer
 70
     0
  3

 72
    65
 73
     0
 40
0.0
  0
LTYPE
  5
16
330
5
100
AcDbSymbolTableRecord
100
AcDbLinetypeTableRecord
  2
Continuous
 70
     0
  3
Solid line
 72
    65
 73
     0
 40
0.0
  0
LTYPE
  5
6E
330
5
100
AcDbSymbolTableRecord
100
AcDbLinetypeTableRecord
  2
HIDDEN
 70
     0
  3
Hidden __ __ __ __ __ __ __ __ __ __ __ __ __ __
 72
    65
 73
     2
 40
0.075
 49
0.05
 74
     0
 49
-0.025
 74
     0
  0
LTYPE
  5
6F
330
5
100
AcDbSymbolTableRecord
100
AcDbLinetypeTableRecord
  2
PHANTOM
 70
     0
  3
Phantom ______  __  __  ______  __  __  ______
 72
    65
 73
     6
 40
0.5
 49
0.25
 74
     0
 49
-0.05
 74
     0
 49
0.05
 74
     0
 49
-0.05
 74
     0
 49
0.05
 74
     0
 49
-0.05
 74
     0
  0
LTYPE
  5
70
330
5
100
AcDbSymbolTableRecord
100
AcDbLinetypeTableRecord
  2
CENTER
 70
     0
  3
Center ____ _ ____ _ ____ _ ____ _ ____ _ ____
 72
    65
 73
     4
 40
0.4
 49
0.25
 74
     0
 49
-0.05
 74
     0
 49
0.05
 74
     0
 49
-0.05
 74
     0
  0
LTYPE
  5
71
330
5
100
AcDbSymbolTableRecord
100
AcDbLinetypeTableRecord
  2
CENTERX2
 70
     0
  3
Center (2x) ________  __  ________  __  _____
 72
    65
 73
     4
 40
0.8
 49
0.5
 74
     0
 49
-0.1
 74
     0
 49
0.1
 74
     0
 49
-0.1
 74
     0
  0
LTYPE
  5
72
330
5
100
AcDbSymbolTableRecord
100
AcDbLinetypeTableRecord
  2
DOT2
 70
     0
  3
Dot (.5x) ........................................
 72
    65
 73
     2
 40
0.025
 49
0.0
 74
     0
 49
-0.025
 74
     0
  0
ENDTAB
  0
TABLE
  2
LAYER
  5
2
330
0
100
AcDbSymbolTable
 70
     1
  0
LAYER
  5
10
330
2
100
AcDbSymbolTableRecord
100
AcDbLayerTableRecord
  2
0
 70
     0
 62
     7
  6
Continuous
370
    -3
390
F
  0
ENDTAB
  0
TABLE
  2
STYLE
  5
3
330
0
100
AcDbSymbolTable
 70
     2
  0
STYLE
  5
11
330
3
100
AcDbSymbolTableRecord
100
AcDbTextStyleTableRecord
  2
Standard
 70
     0
 40
0.0
 41
1.0
 50
0.0
 71
     0
 42
0.1377952756
  3
txt
  4

  0
STYLE
  5
3DD
330
3
100
AcDbSymbolTableRecord
100
AcDbTextStyleTableRecord
  2
SLDTEXTSTYLE0
 70
     0
 40
0.0
 41
0.7
 50
0.0
 71
     0
 42
0.1377952756
  3
TXT
  4
bigfont
  0
ENDTAB
  0
TABLE
  2
VIEW
  5
6
330
0
100
AcDbSymbolTable
 70
     0
  0
ENDTAB
  0
TABLE
  2
UCS
  5
7
330
0
100
AcDbSymbolTable
 70
     0
  0
ENDTAB
  0
TABLE
  2
APPID
  5
9
330
0
100
AcDbSymbolTable
 70
     1
  0
APPID
  5
12
330
9
100
AcDbSymbolTableRecord
100
AcDbRegAppTableRecord
  2
ACAD
 70
     0
  0
ENDTAB
  0
TABLE
  2
DIMSTYLE
  5
A
330
0
100
AcDbSymbolTable
 70
     1
100
AcDbDimStyleTable
  0
DIMSTYLE
105
27
330
A
100
AcDbSymbolTableRecord
100
AcDbDimStyleTableRecord
  2
Standard
 70
     0
178
     0
340
11
  0
ENDTAB
  0
TABLE
  2
BLOCK_RECORD
  5
1
330
0
100
AcDbSymbolTable
 70
     1
  0
BLOCK_RECORD
  5
1F
330
1
100
AcDbSymbolTableRecord
100
AcDbBlockTableRecord
  2
*Model_Space
340
22
  0
BLOCK_RECORD
  5
1B
330
1
100
AcDbSymbolTableRecord
100
AcDbBlockTableRecord
  2
*Paper_Space
340
1E
  0
BLOCK_RECORD
  5
23
330
1
100
AcDbSymbolTableRecord
100
AcDbBlockTableRecord
  2
*Paper_Space0
340
26
  0
ENDTAB
  0
ENDSEC
  0
SECTION
  2
BLOCKS
  0
BLOCK
  5
20
330
1F
100
AcDbEntity
  8
0
100
AcDbBlockBegin
  2
*Model_Space
 70
     0
 10
0.0
 20
0.0
 30
0.0
  3
*Model_Space
  1

  0
ENDBLK
  5
21
330
1F
100
AcDbEntity
  8
0
100
AcDbBlockEnd
  0
BLOCK
  5
1C
330
1B
100
AcDbEntity
 67
     1
  8
0
100
AcDbBlockBegin
  2
*Paper_Space
 70
     0
 10
0.0
 20
0.0
 30
0.0
  3
*Paper_Space
  1

  0
ENDBLK
  5
1D
330
1B
100
AcDbEntity
 67
     1
  8
0
100
AcDbBlockEnd
  0
BLOCK
  5
24
330
23
100
AcDbEntity
  8
0
100
AcDbBlockBegin
  2
*Paper_Space0
 70
     0
 10
0.0
 20
0.0
 30
0.0
  3
*Paper_Space0
  1

  0
ENDBLK
  5
25
330
23
100
AcDbEntity
  8
0
100
AcDbBlockEnd
  0
ENDSEC
  0
SECTION
  2
ENTITIES
  0
LINE
  5
73
330
1F
100
AcDbEntity
  8
0
  6
Continuous
 62
     7
370
    25
100
AcDbLine
 10
2.1749176134
 20
14.537531658
 30
0.0
 11
1.9249176164
 21
14.537531658
 31
0.0
  0
LINE
  5
74
330
1F
100
AcDbEntity
  8
0
  6
Continuous
 62
     7
370
    25
100
AcDbLine
 10
2.1749176134
 20
14.537531658
 30
0.0
 11
2.1749176134
 21
13.7501301008
 31
0.0
  0
LINE
  5
75
330
1F
100
AcDbEntity
  8
0
  6
Continuous
 62
     7
370
    25
100
AcDbLine
 10
2.1749176134
 20
13.7501301008
 30
0.0
 11
1.9249176164
 21
13.7501301008
 31
0.0
  0
LINE
  5
76
330
1F
100
AcDbEntity
  8
0
  6
Continuous
 62
     7
370
    25
100
AcDbLine
 10
1.6493270567
 20
13.1064293252
 30
0.0
 11
1.6493270567
 21
13.3564293222
 31
0.0
  0
LINE
  5
77
330
1F
100
AcDbEntity
  8
0
  6
Continuous
 62
     7
370
    25
100
AcDbLine
 10
1.6493270567
 20
13.1064293252
 30
0.0
 11
1.0587758888
 21
13.1064293252
 31
0.0
  0
LINE
  5
78
330
1F
100
AcDbEntity
  8
0
  6
Continuous
 62
     7
370
    25
100
AcDbLine
 10
1.0587758888
 20
13.1064293252
 30
0.0
 11
1.0587758888
 21
13.3564293222
 31
0.0
  0
LINE
  5
79
330
1F
100
AcDbEntity
  8
0
  6
Continuous
 62
     7
370
    25
100
AcDbLine
 10
1.9249176164
 20
15.3249332886
 30
0.0
 11
0.7438152806
 21
13.3564293222
 31
0.0
  0
LINE
  5
7A
330
1F
100
AcDbEntity
  8
0
  6
Continuous
 62
     7
370
    25
100
AcDbLine
 10
1.9249176164
 20
13.3564293222
 30
0.0
 11
1.9249176164
 21
13.7501301008
 31
0.0
  0
LINE
  5
7B
330
1F
100
AcDbEntity
  8
0
  6
Continuous
 62
     7
370
    25
100
AcDbLine
 10
1.9249176164
 20
14.537531658
 30
0.0
 11
1.9249176164
 21
15.3249332886
 31
0.0
  0
LINE
  5
7C
330
1F
100
AcDbEntity
  8
0
  6
Continuous
 62
     7
370
    25
100
AcDbLine
 10
0.7438152806
 20
13.3564293222
 30
0.0
 11
1.0587758888
 21
13.3564293222
 31
0.0
  0
LINE
  5
7D
330
1F
100
AcDbEntity
  8
0
  6
Continuous
 62
     7
370
    25
100
AcDbLine
 10
1.6493270567
 20
13.3564293222
 30
0.0
 11
1.9249176164
 21
13.3564293222
 31
0.0
  0
LINE
  5
7E
330
1F
100
AcDbEntity
  8
0
  6
Continuous
 62
     7
370
    25
100
AcDbLine
 10
0.4059607648
 20
14.1798653389
 30
0.0
 11
0.6559607618
 21
14.1798653389
 31
0.0
  0
LINE
  5
7F
330
1F
100
AcDbEntity
  8
0
  6
Continuous
 62
     7
370
    25
100
AcDbLine
 10
0.4059607648
 20
14.1798653389
 30
0.0
 11
0.4059607648
 21
14.9672668961
 31
0.0
  0
LINE
  5
80
330
1F
100
AcDbEntity
  8
0
  6
Continuous
 62
     7
370
    25
100
AcDbLine
 10
0.4059607648
 20
14.9672668961
 30
0.0
 11
0.6559607618
 21
14.9672668961
 31
0.0
  0
LINE
  5
81
330
1F
100
AcDbEntity
  8
0
  6
Continuous
 62
     7
370
    25
100
AcDbLine
 10
0.9315513215
 20
15.6109676717
 30
0.0
 11
0.9315513215
 21
15.3609676747
 31
0.0
  0
LINE
  5
82
330
1F
100
AcDbEntity
  8
0
  6
Continuous
 62
     7
370
    25
100
AcDbLine
 10
0.9315513215
 20
15.6109676717
 30
0.0
 11
1.5221024894
 21
15.6109676717
 31
0.0
  0
LINE
  5
83
330
1F
100
AcDbEntity
  8
0
  6
Continuous
 62
     7
370
    25
100
AcDbLine
 10
1.5221024894
 20
15.6109676717
 30
0.0
 11
1.5221024894
 21
15.3609676747
 31
0.0
  0
LINE
  5
84
330
1F
100
AcDbEntity
  8
0
  6
Continuous
 62
     7
370
    25
100
AcDbLine
 10
0.6559607618
 20
13.3924637083
 30
0.0
 11
1.8370630976
 21
15.3609676747
 31
0.0
  0
LINE
  5
85
330
1F
100
AcDbEntity
  8
0
  6
Continuous
 62
     7
370
    25
100
AcDbLine
 10
0.6559607618
 20
15.3609676747
 30
0.0
 11
0.6559607618
 21
14.9672668961
 31
0.0
  0
LINE
  5
86
330
1F
100
AcDbEntity
  8
0
  6
Continuous
 62
     7
370
    25
100
AcDbLine
 10
0.6559607618
 20
14.1798653389
 30
0.0
 11
0.6559607618
 21
13.3924637083
 31
0.0
  0
LINE
  5
87
330
1F
100
AcDbEntity
  8
0
  6
Continuous
 62
     7
370
    25
100
AcDbLine
 10
1.8370630976
 20
15.3609676747
 30
0.0
 11
1.5221024894
 21
15.3609676747
 31
0.0
  0
LINE
  5
88
330
1F
100
AcDbEntity
  8
0
  6
Continuous
 62
     7
370
    25
100
AcDbLine
 10
0.9315513215
 20
15.3609676747
 30
0.0
 11
0.6559607618
 21
15.3609676747
 31
0.0
  0
LINE
  5
89
330
1F
100
AcDbEntity
  8
0
  6
Continuous
 62
     7
370
    25
100
AcDbLine
 10
2.1749176134
 20
11.834151556
 30
0.0
 11
1.9249176164
 21
11.834151556
 31
0.0
  0
LINE
  5
8A
330
1F
100
AcDbEntity
  8
0
  6
Continuous
 62
     7
370
    25
100
AcDbLine
 10
2.1749176134
 20
11.834151556
 30
0.0
 11
2.1749176134
 21
11.0467499988
 31
0.0
  0
LINE
  5
8B
330
1F
100
AcDbEntity
  8
0
  6
Continuous
 62
     7
370
    25
100
AcDbLine
 10
2.1749176134
 20
11.0467499988
 30
0.0
 11
1.9249176164
 21
11.0467499988
 31
0.0
  0
LINE
  5
8C
330
1F
100
AcDbEntity
  8
0
  6
Continuous
 62
     7
370
    25
100
AcDbLine
 10
1.6493270567
 20
10.4030492232
 30
0.0
 11
1.6493270567
 21
10.6530492202
 31
0.0
  0
LINE
  5
8D
330
1F
100
AcDbEntity
  8
0
  6
Continuous
 62
     7
370
    25
100
AcDbLine
 10
1.6493270567
 20
10.4030492232
 30
0.0
 11
1.0587758888
 21
10.4030492232
 31
0.0
  0
LINE
  5
8E
330
1F
100
AcDbEntity
  8
0
  6
Continuous
 62
     7
370
    25
100
AcDbLine
 10
1.0587758888
 20
10.4030492232
 30
0.0
 11
1.0587758888
 21
10.6530492202
 31
0.0
  0
LINE
  5
8F
330
1F
100
AcDbEntity
  8
0
  6
Continuous
 62
     7
370
    25
100
AcDbLine
 10
1.9249176164
 20
12.6215531866
 30
0.0
 11
0.7438152806
 21
10.6530492202
 31
0.0
  0
LINE
  5
90
330
1F
100
AcDbEntity
  8
0
  6
Continuous
 62
     7
370
    25
100
AcDbLine
 10
1.9249176164
 20
10.6530492202
 30
0.0
 11
1.9249176164
 21
11.0467499988
 31
0.0
  0
LINE
  5
91
330
1F
100
AcDbEntity
  8
0
  6
Continuous
 62
     7
370
    25
100
AcDbLine
 10
1.9249176164
 20
11.834151556
 30
0.0
 11
1.9249176164
 21
12.6215531866
 31
0.0
  0
LINE
  5
92
330
1F
100
AcDbEntity
  8
0
  6
Continuous
 62
     7
370
    25
100
AcDbLine
 10
0.7438152806
 20
10.6530492202
 30
0.0
 11
1.0587758888
 21
10.6530492202
 31
0.0
  0
LINE
  5
93
330
1F
100
AcDbEntity
  8
0
  6
Continuous
 62
     7
370
    25
100
AcDbLine
 10
1.6493270567
 20
10.6530492202
 30
0.0
 11
1.9249176164
 21
10.6530492202
 31
0.0
  0
LINE
  5
94
330
1F
100
AcDbEntity
  8
0
  6
Continuous
 62
     7
370
    25
100
AcDbLine
 10
0.4059607648
 20
11.495989611
 30
0.0
 11
0.6559607618
 21
11.495989611
 31
0.0
  0
LINE
  5
95
330
1F
100
AcDbEntity
  8
0
  6
Continuous
 62
     7
370
    25
100
AcDbLine
 10
0.4059607648
 20
11.495989611
 30
0.0
 11
0.4059607648
 21
12.2833911682
 31
0.0
  0
LINE
  5
96
330
1F
100
AcDbEntity
  8
0
  6
Continuous
 62
     7
370
    25
100
AcDbLine
 10
0.4059607648
 20
12.2833911682
 30
0.0
 11
0.6559607618
 21
12.2833911682
 31
0.0
  0
LINE
  5
97
330
1F
100
AcDbEntity
  8
0
  6
Continuous
 62
     7
370
    25
100
AcDbLine
 10
0.9315513215
 20
12.9270919438
 30
0.0
 11
0.9315513215
 21
12.6770919468
 31
0.0
  0
LINE
  5
98
330
1F
100
AcDbEntity
  8
0
  6
Continuous
 62
     7
370
    25
100
AcDbLine
 10
0.9315513215
 20
12.9270919438
 30
0.0
 11
1.5221024894
 21
12.9270919438
 31
0.0
  0
LINE
  5
99
330
1F
100
AcDbEntity
  8
0
  6
Continuous
 62
     7
370
    25
100
AcDbLine
 10
1.5221024894
 20
12.9270919438
 30
0.0
 11
1.5221024894
 21
12.6770919468
 31
0.0
  0
LINE
  5
9A
330
1F
100
AcDbEntity
  8
0
  6
Continuous
 62
     7
370
    25
100
AcDbLine
 10
0.6559607618
 20
10.7085879805
 30
0.0
 11
1.8370630976
 21
12.6770919468
 31
0.0
  0
LINE
  5
9B
330
1F
100
AcDbEntity
  8
0
  6
Continuous
 62
     7
370
    25
100
AcDbLine
 10
0.6559607618
 20
12.6770919468
 30
0.0
 11
0.6559607618
 21
12.2833911682
 31
0.0
  0
LINE
  5
9C
330
1F
100
AcDbEntity
  8
0
  6
Continuous
 62
     7
370
    25
100
AcDbLine
 10
0.6559607618
 20
11.495989611
 30
0.0
 11
0.6559607618
 21
10.7085879805
 31
0.0
  0
LINE
  5
9D
330
1F
100
AcDbEntity
  8
0
  6
Continuous
 62
     7
370
    25
100
AcDbLine
 10
1.8370630976
 20
12.6770919468
 30
0.0
 11
1.5221024894
 21
12.6770919468
 31
0.0
  0
LINE
  5
9E
330
1F
100
AcDbEntity
  8
0
  6
Continuous
 62
     7
370
    25
100
AcDbLine
 10
0.9315513215
 20
12.6770919468
 30
0.0
 11
0.6559607618
 21
12.6770919468
 31
0.0
  0
LINE
  5
9F
330
1F
100
AcDbEntity
  8
0
  6
Continuous
 62
     7
370
    25
100
AcDbLine
 10
4.1073855161
 20
14.6112066322
 30
0.0
 11
3.8573855191
 21
14.6112066322
 31
0.0
  0
LINE
  5
A0
330
1F
100
AcDbEntity
  8
0
  6
Continuous
 62
     7
370
    25
100
AcDbLine
 10
4.1073855161
 20
14.6112066322
 30
0.0
 11
4.1073855161
 21
13.823805075
 31
0.0
  0
LINE
  5
A1
330
1F
100
AcDbEntity
  8
0
  6
Continuous
 62
     7
370
    25
100
AcDbLine
 10
4.1073855161
 20
13.823805075
 30
0.0
 11
3.8573855191
 21
13.823805075
 31
0.0
  0
LINE
  5
A2
330
1F
100
AcDbEntity
  8
0
  6
Continuous
 62
     7
370
    25
100
AcDbLine
 10
3.5817949594
 20
13.1801042994
 30
0.0
 11
3.5817949594
 21
13.4301042963
 31
0.0
  0
LINE
  5
A3
330
1F
100
AcDbEntity
  8
0
  6
Continuous
 62
     7
370
    25
100
AcDbLine
 10
3.5817949594
 20
13.1801042994
 30
0.0
 11
2.9912437915
 21
13.1801042994
 31
0.0
  0
LINE
  5
A4
330
1F
100
AcDbEntity
  8
0
  6
Continuous
 62
     7
370
    25
100
AcDbLine
 10
2.9912437915
 20
13.1801042994
 30
0.0
 11
2.9912437915
 21
13.4301042963
 31
0.0
  0
LINE
  5
A5
330
1F
100
AcDbEntity
  8
0
  6
Continuous
 62
     7
370
    25
100
AcDbLine
 10
3.8573855191
 20
15.3986082627
 30
0.0
 11
2.6762831833
 21
13.4301042963
 31
0.0
  0
LINE
  5
A6
330
1F
100
AcDbEntity
  8
0
  6
Continuous
 62
     7
370
    25
100
AcDbLine
 10
3.8573855191
 20
13.4301042963
 30
0.0
 11
3.8573855191
 21
13.823805075
 31
0.0
  0
LINE
  5
A7
330
1F
100
AcDbEntity
  8
0
  6
Continuous
 62
     7
370
    25
100
AcDbLine
 10
3.8573855191
 20
14.6112066322
 30
0.0
 11
3.8573855191
 21
15.3986082627
 31
0.0
  0
LINE
  5
A8
330
1F
100
AcDbEntity
  8
0
  6
Continuous
 62
     7
370
    25
100
AcDbLine
 10
2.6762831833
 20
13.4301042963
 30
0.0
 11
2.9912437915
 21
13.4301042963
 31
0.0
  0
LINE
  5
A9
330
1F
100
AcDbEntity
  8
0
  6
Continuous
 62
     7
370
    25
100
AcDbLine
 10
3.5817949594
 20
13.4301042963
 30
0.0
 11
3.8573855191
 21
13.4301042963
 31
0.0
  0
LINE
  5
AA
330
1F
100
AcDbEntity
  8
0
  6
Continuous
 62
     7
370
    25
100
AcDbLine
 10
2.3384286675
 20
14.253540313
 30
0.0
 11
2.5884286644
 21
14.253540313
 31
0.0
  0
LINE
  5
AB
330
1F
100
AcDbEntity
  8
0
  6
Continuous
 62
     7
370
    25
100
AcDbLine
 10
2.3384286675
 20
14.253540313
 30
0.0
 11
2.3384286675
 21
15.0409418702
 31
0.0
  0
LINE
  5
AC
330
1F
100
AcDbEntity
  8
0
  6
Continuous
 62
     7
370
    25
100
AcDbLine
 10
2.3384286675
 20
15.0409418702
 30
0.0
 11
2.5884286644
 21
15.0409418702
 31
0.0
  0
LINE
  5
AD
330
1F
100
AcDbEntity
  8
0
  6
Continuous
 62
     7
370
    25
100
AcDbLine
 10
2.8640192241
 20
15.6846426458
 30
0.0
 11
2.8640192241
 21
15.4346426488
 31
0.0
  0
LINE
  5
AE
330
1F
100
AcDbEntity
  8
0
  6
Continuous
 62
     7
370
    25
100
AcDbLine
 10
2.8640192241
 20
15.6846426458
 30
0.0
 11
3.454570392
 21
15.6846426458
 31
0.0
  0
LINE
  5
AF
330
1F
100
AcDbEntity
  8
0
  6
Continuous
 62
     7
370
    25
100
AcDbLine
 10
3.454570392
 20
15.6846426458
 30
0.0
 11
3.454570392
 21
15.4346426488
 31
0.0
  0
LINE
  5
B0
330
1F
100
AcDbEntity
  8
0
  6
Continuous
 62
     7
370
    25
100
AcDbLine
 10
2.5884286644
 20
13.4661386825
 30
0.0
 11
3.7695310002
 21
15.4346426488
 31
0.0
  0
LINE
  5
B1
330
1F
100
AcDbEntity
  8
0
  6
Continuous
 62
     7
370
    25
100
AcDbLine
 10
2.5884286644
 20
15.4346426488
 30
0.0
 11
2.5884286644
 21
15.0409418702
 31
0.0
  0
LINE
  5
B2
330
1F
100
AcDbEntity
  8
0
  6
Continuous
 62
     7
370
    25
100
AcDbLine
 10
2.5884286644
 20
14.253540313
 30
0.0
 11
2.5884286644
 21
13.4661386825
 31
0.0
  0
LINE
  5
B3
330
1F
100
AcDbEntity
  8
0
  6
Continuous
 62
     7
370
    25
100
AcDbLine
 10
3.7695310002
 20
15.4346426488
 30
0.0
 11
3.454570392
 21
15.4346426488
 31
0.0
  0
LINE
  5
B4
330
1F
100
AcDbEntity
  8
0
  6
Continuous
 62
     7
370
    25
100
AcDbLine
 10
2.8640192241
 20
15.4346426488
 30
0.0
 11
2.5884286644
 21
15.4346426488
 31
0.0
  0
LINE
  5
B5
330
1F
100
AcDbEntity
  8
0
  6
Continuous
 62
     7
370
    25
100
AcDbLine
 10
4.1073855161
 20
11.9078265302
 30
0.0
 11
3.8573855191
 21
11.9078265302
 31
0.0
  0
LINE
  5
B6
330
1F
100
AcDbEntity
  8
0
  6
Continuous
 62
     7
370
    25
100
AcDbLine
 10
4.1073855161
 20
11.9078265302
 30
0.0
 11
4.1073855161
 21
11.120424973
 31
0.0
  0
LINE
  5
B7
330
1F
100
AcDbEntity
  8
0
  6
Continuous
 62
     7
370
    25
100
AcDbLine
 10
4.1073855161
 20
11.120424973
 30
0.0
 11
3.8573855191
 21
11.120424973
 31
0.0
  0
LINE
  5
B8
330
1F
100
AcDbEntity
  8
0
  6
Continuous
 62
     7
370
    25
100
AcDbLine
 10
3.5817949594
 20
10.4767241974
 30
0.0
 11
3.5817949594
 21
10.7267241944
 31
0.0
  0
LINE
  5
B9
330
1F
100
AcDbEntity
  8
0
  6
Continuous
 62
     7
370
    25
100
AcDbLine
 10
3.5817949594
 20
10.4767241974
 30
0.0
 11
2.9912437915
 21
10.4767241974
 31
0.0
  0
LINE
  5
BA
330
1F
100
AcDbEntity
  8
0
  6
Continuous
 62
     7
370
    25
100
AcDbLine
 10
2.9912437915
 20
10.4767241974
 30
0.0
 11
2.9912437915
 21
10.7267241944
 31
0.0
  0
LINE
  5
BB
330
1F
100
AcDbEntity
  8
0
  6
Continuous
 62
     7
370
    25
100
AcDbLine
 10
3.8573855191
 20
12.6952281607
 30
0.0
 11
2.6762831833
 21
10.7267241944
 31
0.0
  0
LINE
  5
BC
330
1F
100
AcDbEntity
  8
0
  6
Continuous
 62
     7
370
    25
100
AcDbLine
 10
3.8573855191
 20
10.7267241944
 30
0.0
 11
3.8573855191
 21
11.120424973
 31
0.0
  0
LINE
  5
BD
330
1F
100
AcDbEntity
  8
0
  6
Continuous
 62
     7
370
    25
100
AcDbLine
 10
3.8573855191
 20
11.9078265302
 30
0.0
 11
3.8573855191
 21
12.6952281607
 31
0.0
  0
LINE
  5
BE
330
1F
100
AcDbEntity
  8
0
  6
Continuous
 62
     7
370
    25
100
AcDbLine
 10
2.6762831833
 20
10.7267241944
 30
0.0
 11
2.9912437915
 21
10.7267241944
 31
0.0
  0
LINE
  5
BF
330
1F
100
AcDbEntity
  8
0
  6
Continuous
 62
     7
370
    25
100
AcDbLine
 10
3.5817949594
 20
10.7267241944
 30
0.0
 11
3.8573855191
 21
10.7267241944
 31
0.0
  0
LINE
  5
C0
330
1F
100
AcDbEntity
  8
0
  6
Continuous
 62
     7
370
    25
100
AcDbLine
 10
2.3384286675
 20
11.5696645852
 30
0.0
 11
2.5884286644
 21
11.5696645852
 31
0.0
  0
LINE
  5
C1
330
1F
100
AcDbEntity
  8
0
  6
Continuous
 62
     7
370
    25
100
AcDbLine
 10
2.3384286675
 20
11.5696645852
 30
0.0
 11
2.3384286675
 21
12.3570661424
 31
0.0
  0
LINE
  5
C2
330
1F
100
AcDbEntity
  8
0
  6
Continuous
 62
     7
370
    25
100
AcDbLine
 10
2.3384286675
 20
12.3570661424
 30
0.0
 11
2.5884286644
 21
12.3570661424
 31
0.0
  0
LINE
  5
C3
330
1F
100
AcDbEntity
  8
0
  6
Continuous
 62
     7
370
    25
100
AcDbLine
 10
2.8640192241
 20
13.0007669179
 30
0.0
 11
2.8640192241
 21
12.750766921
 31
0.0
  0
LINE
  5
C4
330
1F
100
AcDbEntity
  8
0
  6
Continuous
 62
     7
370
    25
100
AcDbLine
 10
2.8640192241
 20
13.0007669179
 30
0.0
 11
3.454570392
 21
13.0007669179
 31
0.0
  0
LINE
  5
C5
330
1F
100
AcDbEntity
  8
0
  6
Continuous
 62
     7
370
    25
100
AcDbLine
 10
3.454570392
 20
13.0007669179
 30
0.0
 11
3.454570392
 21
12.750766921
 31
0.0
  0
LINE
  5
C6
330
1F
100
AcDbEntity
  8
0
  6
Continuous
 62
     7
370
    25
100
AcDbLine
 10
2.5884286644
 20
10.7822629546
 30
0.0
 11
3.7695310002
 21
12.750766921
 31
0.0
  0
LINE
  5
C7
330
1F
100
AcDbEntity
  8
0
  6
Continuous
 62
     7
370
    25
100
AcDbLine
 10
2.5884286644
 20
12.750766921
 30
0.0
 11
2.5884286644
 21
12.3570661424
 31
0.0
  0
LINE
  5
C8
330
1F
100
AcDbEntity
  8
0
  6
Continuous
 62
     7
370
    25
100
AcDbLine
 10
2.5884286644
 20
11.5696645852
 30
0.0
 11
2.5884286644
 21
10.7822629546
 31
0.0
  0
LINE
  5
C9
330
1F
100
AcDbEntity
  8
0
  6
Continuous
 62
     7
370
    25
100
AcDbLine
 10
3.7695310002
 20
12.750766921
 30
0.0
 11
3.454570392
 21
12.750766921
 31
0.0
  0
LINE
  5
CA
330
1F
100
AcDbEntity
  8
0
  6
Continuous
 62
     7
370
    25
100
AcDbLine
 10
2.8640192241
 20
12.750766921
 30
0.0
 11
2.5884286644
 21
12.750766921
 31
0.0
  0
LINE
  5
CB
330
1F
100
AcDbEntity
  8
0
  6
Continuous
 62
     7
370
    25
100
AcDbLine
 10
6.0383185568
 20
14.6112066322
 30
0.0
 11
5.7883185598
 21
14.6112066322
 31
0.0
  0
LINE
  5
CC
330
1F
100
AcDbEntity
  8
0
  6
Continuous
 62
     7
370
    25
100
AcDbLine
 10
6.0383185568
 20
14.6112066322
 30
0.0
 11
6.0383185568
 21
13.823805075
 31
0.0
  0
LINE
  5
CD
330
1F
100
AcDbEntity
  8
0
  6
Continuous
 62
     7
370
    25
100
AcDbLine
 10
6.0383185568
 20
13.823805075
 30
0.0
 11
5.7883185598
 21
13.823805075
 31
0.0
  0
LINE
  5
CE
330
1F
100
AcDbEntity
  8
0
  6
Continuous
 62
     7
370
    25
100
AcDbLine
 10
5.5127280001
 20
13.1801042994
 30
0.0
 11
5.5127280001
 21
13.4301042963
 31
0.0
  0
LINE
  5
CF
330
1F
100
AcDbEntity
  8
0
  6
Continuous
 62
     7
370
    25
100
AcDbLine
 10
5.5127280001
 20
13.1801042994
 30
0.0
 11
4.9221768322
 21
13.1801042994
 31
0.0
  0
LINE
  5
D0
330
1F
100
AcDbEntity
  8
0
  6
Continuous
 62
     7
370
    25
100
AcDbLine
 10
4.9221768322
 20
13.1801042994
 30
0.0
 11
4.9221768322
 21
13.4301042963
 31
0.0
  0
LINE
  5
D1
330
1F
100
AcDbEntity
  8
0
  6
Continuous
 62
     7
370
    25
100
AcDbLine
 10
5.7883185598
 20
15.3986082627
 30
0.0
 11
4.607216224
 21
13.4301042963
 31
0.0
  0
LINE
  5
D2
330
1F
100
AcDbEntity
  8
0
  6
Continuous
 62
     7
370
    25
100
AcDbLine
 10
5.7883185598
 20
13.4301042963
 30
0.0
 11
5.7883185598
 21
13.823805075
 31
0.0
  0
LINE
  5
D3
330
1F
100
AcDbEntity
  8
0
  6
Continuous
 62
     7
370
    25
100
AcDbLine
 10
5.7883185598
 20
14.6112066322
 30
0.0
 11
5.7883185598
 21
15.3986082627
 31
0.0
  0
LINE
  5
D4
330
1F
100
AcDbEntity
  8
0
  6
Continuous
 62
     7
370
    25
100
AcDbLine
 10
4.607216224
 20
13.4301042963
 30
0.0
 11
4.9221768322
 21
13.4301042963
 31
0.0
  0
LINE
  5
D5
330
1F
100
AcDbEntity
  8
0
  6
Continuous
 62
     7
370
    25
100
AcDbLine
 10
5.5127280001
 20
13.4301042963
 30
0.0
 11
5.7883185598
 21
13.4301042963
 31
0.0
  0
LINE
  5
D6
330
1F
100
AcDbEntity
  8
0
  6
Continuous
 62
     7
370
    25
100
AcDbLine
 10
4.2693617082
 20
14.253540313
 30
0.0
 11
4.5193617051
 21
14.253540313
 31
0.0
  0
LINE
  5
D7
330
1F
100
AcDbEntity
  8
0
  6
Continuous
 62
     7
370
    25
100
AcDbLine
 10
4.2693617082
 20
14.253540313
 30
0.0
 11
4.2693617082
 21
15.0409418702
 31
0.0
  0
LINE
  5
D8
330
1F
100
AcDbEntity
  8
0
  6
Continuous
 62
     7
370
    25
100
AcDbLine
 10
4.2693617082
 20
15.0409418702
 30
0.0
 11
4.5193617051
 21
15.0409418702
 31
0.0
  0
LINE
  5
D9
330
1F
100
AcDbEntity
  8
0
  6
Continuous
 62
     7
370
    25
100
AcDbLine
 10
4.7949522648
 20
15.6846426458
 30
0.0
 11
4.7949522648
 21
15.4346426488
 31
0.0
  0
LINE
  5
DA
330
1F
100
AcDbEntity
  8
0
  6
Continuous
 62
     7
370
    25
100
AcDbLine
 10
4.7949522648
 20
15.6846426458
 30
0.0
 11
5.3855034327
 21
15.6846426458
 31
0.0
  0
LINE
  5
DB
330
1F
100
AcDbEntity
  8
0
  6
Continuous
 62
     7
370
    25
100
AcDbLine
 10
5.3855034327
 20
15.6846426458
 30
0.0
 11
5.3855034327
 21
15.4346426488
 31
0.0
  0
LINE
  5
DC
330
1F
100
AcDbEntity
  8
0
  6
Continuous
 62
     7
370
    25
100
AcDbLine
 10
4.5193617051
 20
13.4661386825
 30
0.0
 11
5.7004640409
 21
15.4346426488
 31
0.0
  0
LINE
  5
DD
330
1F
100
AcDbEntity
  8
0
  6
Continuous
 62
     7
370
    25
100
AcDbLine
 10
4.5193617051
 20
15.4346426488
 30
0.0
 11
4.5193617051
 21
15.0409418702
 31
0.0
  0
LINE
  5
DE
330
1F
100
AcDbEntity
  8
0
  6
Continuous
 62
     7
370
    25
100
AcDbLine
 10
4.5193617051
 20
14.253540313
 30
0.0
 11
4.5193617051
 21
13.4661386825
 31
0.0
  0
LINE
  5
DF
330
1F
100
AcDbEntity
  8
0
  6
Continuous
 62
     7
370
    25
100
AcDbLine
 10
5.7004640409
 20
15.4346426488
 30
0.0
 11
5.3855034327
 21
15.4346426488
 31
0.0
  0
LINE
  5
E0
330
1F
100
AcDbEntity
  8
0
  6
Continuous
 62
     7
370
    25
100
AcDbLine
 10
4.7949522648
 20
15.4346426488
 30
0.0
 11
4.5193617051
 21
15.4346426488
 31
0.0
  0
LINE
  5
E1
330
1F
100
AcDbEntity
  8
0
  6
Continuous
 62
     7
370
    25
100
AcDbLine
 10
6.0383185568
 20
11.9078265302
 30
0.0
 11
5.7883185598
 21
11.9078265302
 31
0.0
  0
LINE
  5
E2
330
1F
100
AcDbEntity
  8
0
  6
Continuous
 62
     7
370
    25
100
AcDbLine
 10
6.0383185568
 20
11.9078265302
 30
0.0
 11
6.0383185568
 21
11.120424973
 31
0.0
  0
LINE
  5
E3
330
1F
100
AcDbEntity
  8
0
  6
Continuous
 62
     7
370
    25
100
AcDbLine
 10
6.0383185568
 20
11.120424973
 30
0.0
 11
5.7883185598
 21
11.120424973
 31
0.0
  0
LINE
  5
E4
330
1F
100
AcDbEntity
  8
0
  6
Continuous
 62
     7
370
    25
100
AcDbLine
 10
5.5127280001
 20
10.4767241974
 30
0.0
 11
5.5127280001
 21
10.7267241944
 31
0.0
  0
LINE
  5
E5
330
1F
100
AcDbEntity
  8
0
  6
Continuous
 62
     7
370
    25
100
AcDbLine
 10
5.5127280001
 20
10.4767241974
 30
0.0
 11
4.9221768322
 21
10.4767241974
 31
0.0
  0
LINE
  5
E6
330
1F
100
AcDbEntity
  8
0
  6
Continuous
 62
     7
370
    25
100
AcDbLine
 10
4.9221768322
 20
10.4767241974
 30
0.0
 11
4.9221768322
 21
10.7267241944
 31
0.0
  0
LINE
  5
E7
330
1F
100
AcDbEntity
  8
0
  6
Continuous
 62
     7
370
    25
100
AcDbLine
 10
5.7883185598
 20
12.6952281607
 30
0.0
 11
4.607216224
 21
10.7267241944
 31
0.0
  0
LINE
  5
E8
330
1F
100
AcDbEntity
  8
0
  6
Continuous
 62
     7
370
    25
100
AcDbLine
 10
5.7883185598
 20
10.7267241944
 30
0.0
 11
5.7883185598
 21
11.120424973
 31
0.0
  0
LINE
  5
E9
330
1F
100
AcDbEntity
  8
0
  6
Continuous
 62
     7
370
    25
100
AcDbLine
 10
5.7883185598
 20
11.9078265302
 30
0.0
 11
5.7883185598
 21
12.6952281607
 31
0.0
  0
LINE
  5
EA
330
1F
100
AcDbEntity
  8
0
  6
Continuous
 62
     7
370
    25
100
AcDbLine
 10
4.607216224
 20
10.7267241944
 30
0.0
 11
4.9221768322
 21
10.7267241944
 31
0.0
  0
LINE
  5
EB
330
1F
100
AcDbEntity
  8
0
  6
Continuous
 62
     7
370
    25
100
AcDbLine
 10
5.5127280001
 20
10.7267241944
 30
0.0
 11
5.7883185598
 21
10.7267241944
 31
0.0
  0
LINE
  5
EC
330
1F
100
AcDbEntity
  8
0
  6
Continuous
 62
     7
370
    25
100
AcDbLine
 10
4.2693617082
 20
11.5696645852
 30
0.0
 11
4.5193617051
 21
11.5696645852
 31
0.0
  0
LINE
  5
ED
330
1F
100
AcDbEntity
  8
0
  6
Continuous
 62
     7
370
    25
100
AcDbLine
 10
4.2693617082
 20
11.5696645852
 30
0.0
 11
4.2693617082
 21
12.3570661424
 31
0.0
  0
LINE
  5
EE
330
1F
100
AcDbEntity
  8
0
  6
Continuous
 62
     7
370
    25
100
AcDbLine
 10
4.2693617082
 20
12.3570661424
 30
0.0
 11
4.5193617051
 21
12.3570661424
 31
0.0
  0
LINE
  5
EF
330
1F
100
AcDbEntity
  8
0
  6
Continuous
 62
     7
370
    25
100
AcDbLine
 10
4.7949522648
 20
13.0007669179
 30
0.0
 11
4.7949522648
 21
12.750766921
 31
0.0
  0
LINE
  5
F0
330
1F
100
AcDbEntity
  8
0
  6
Continuous
 62
     7
370
    25
100
AcDbLine
 10
4.7949522648
 20
13.0007669179
 30
0.0
 11
5.3855034327
 21
13.0007669179
 31
0.0
  0
LINE
  5
F1
330
1F
100
AcDbEntity
  8
0
  6
Continuous
 62
     7
370
    25
100
AcDbLine
 10
5.3855034327
 20
13.0007669179
 30
0.0
 11
5.3855034327
 21
12.750766921
 31
0.0
  0
LINE
  5
F2
330
1F
100
AcDbEntity
  8
0
  6
Continuous
 62
     7
370
    25
100
AcDbLine
 10
4.5193617051
 20
10.7822629546
 30
0.0
 11
5.7004640409
 21
12.750766921
 31
0.0
  0
LINE
  5
F3
330
1F
100
AcDbEntity
  8
0
  6
Continuous
 62
     7
370
    25
100
AcDbLine
 10
4.5193617051
 20
12.750766921
 30
0.0
 11
4.5193617051
 21
12.3570661424
 31
0.0
  0
LINE
  5
F4
330
1F
100
AcDbEntity
  8
0
  6
Continuous
 62
     7
370
    25
100
AcDbLine
 10
4.5193617051
 20
11.5696645852
 30
0.0
 11
4.5193617051
 21
10.7822629546
 31
0.0
  0
LINE
  5
F5
330
1F
100
AcDbEntity
  8
0
  6
Continuous
 62
     7
370
    25
100
AcDbLine
 10
5.7004640409
 20
12.750766921
 30
0.0
 11
5.3855034327
 21
12.750766921
 31
0.0
  0
LINE
  5
F6
330
1F
100
AcDbEntity
  8
0
  6
Continuous
 62
     7
370
    25
100
AcDbLine
 10
4.7949522648
 20
12.750766921
 30
0.0
 11
4.5193617051
 21
12.750766921
 31
0.0
  0
LINE
  5
F7
330
1F
100
AcDbEntity
  8
0
  6
Continuous
 62
     7
370
    25
100
AcDbLine
 10
3.7533734938
 20
10.1946916523
 30
0.0
 11
0.3438247212
 21
10.1946916523
 31
0.0
  0
LINE
  5
F8
330
1F
100
AcDbEntity
  8
0
  6
Continuous
 62
     7
370
    25
100
AcDbLine
 10
3.7533734938
 20
8.2261876859
 30
0.0
 11
3.7533734938
 21
10.1946916523
 31
0.0
  0
LINE
  5
F9
330
1F
100
AcDbEntity
  8
0
  6
Continuous
 62
     7
370
    25
100
AcDbLine
 10
3.5565231412
 20
8.2261876859
 30
0.0
 11
3.7533734938
 21
8.2261876859
 31
0.0
  0
LINE
  5
FA
330
1F
100
AcDbEntity
  8
0
  6
Continuous
 62
     7
370
    25
100
AcDbLine
 10
3.5565231412
 20
7.9761876339
 30
0.0
 11
3.5565231412
 21
8.2261876859
 31
0.0
  0
LINE
  5
FB
330
1F
100
AcDbEntity
  8
0
  6
Continuous
 62
     7
370
    25
100
AcDbLine
 10
3.5565231412
 20
7.9761876339
 30
0.0
 11
2.9659719366
 21
7.9761876339
 31
0.0
  0
LINE
  5
FC
330
1F
100
AcDbEntity
  8
0
  6
Continuous
 62
     7
370
    25
100
AcDbLine
 10
2.9659719366
 20
7.9761876339
 30
0.0
 11
2.9659719366
 21
8.2261876859
 31
0.0
  0
LINE
  5
FD
330
1F
100
AcDbEntity
  8
0
  6
Continuous
 62
     7
370
    25
100
AcDbLine
 10
2.3438746915
 20
8.2261876859
 30
0.0
 11
2.9659719366
 21
8.2261876859
 31
0.0
  0
LINE
  5
FE
330
1F
100
AcDbEntity
  8
0
  6
Continuous
 62
     7
370
    25
100
AcDbLine
 10
2.3438746915
 20
7.9761876339
 30
0.0
 11
1.7533235236
 21
7.9761876339
 31
0.0
  0
LINE
  5
FF
330
1F
100
AcDbEntity
  8
0
  6
Continuous
 62
     7
370
    25
100
AcDbLine
 10
1.7533235236
 20
7.9761876339
 30
0.0
 11
1.7533235236
 21
8.2261876859
 31
0.0
  0
LINE
  5
100
330
1F
100
AcDbEntity
  8
0
  6
Continuous
 62
     7
370
    25
100
AcDbLine
 10
1.1312262785
 20
8.2261876859
 30
0.0
 11
1.7533235236
 21
8.2261876859
 31
0.0
  0
LINE
  5
101
330
1F
100
AcDbEntity
  8
0
  6
Continuous
 62
     7
370
    25
100
AcDbLine
 10
1.1312262785
 20
7.9761876339
 30
0.0
 11
1.1312262785
 21
8.2261876859
 31
0.0
  0
LINE
  5
102
330
1F
100
AcDbEntity
  8
0
  6
Continuous
 62
     7
370
    25
100
AcDbLine
 10
1.1312262785
 20
7.9761876339
 30
0.0
 11
0.5406750739
 21
7.9761876339
 31
0.0
  0
LINE
  5
103
330
1F
100
AcDbEntity
  8
0
  6
Continuous
 62
     7
370
    25
100
AcDbLine
 10
0.5406750739
 20
7.9761876339
 30
0.0
 11
0.5406750739
 21
8.2261876859
 31
0.0
  0
LINE
  5
104
330
1F
100
AcDbEntity
  8
0
  6
Continuous
 62
     7
370
    25
100
AcDbLine
 10
0.3438247212
 20
8.2261876859
 30
0.0
 11
0.5406750739
 21
8.2261876859
 31
0.0
  0
LINE
  5
105
330
1F
100
AcDbEntity
  8
0
  6
Continuous
 62
     7
370
    25
100
AcDbLine
 10
0.3438247212
 20
10.1946916523
 30
0.0
 11
0.3438247212
 21
8.2261876859
 31
0.0
  0
CIRCLE
  5
106
330
1F
100
AcDbEntity
  8
0
  6
Continuous
 62
     7
370
    25
100
AcDbCircle
 10
2.0485991075
 20
9.8600459683
 30
0.0
 40
0.1875
  0
LINE
  5
107
330
1F
100
AcDbEntity
  8
0
  6
Continuous
 62
     7
370
    25
100
AcDbLine
 10
1.4580479396
 20
8.6198885012
 30
0.0
 11
1.2080479243
 21
8.6198885012
 31
0.0
  0
LINE
  5
108
330
1F
100
AcDbEntity
  8
0
  6
Continuous
 62
     7
370
    25
100
AcDbLine
 10
1.4580479396
 20
9.4072900584
 30
0.0
 11
1.4580479396
 21
8.6198885012
 31
0.0
  0
LINE
  5
109
330
1F
100
AcDbEntity
  8
0
  6
Continuous
 62
     7
370
    25
100
AcDbLine
 10
1.2080479243
 20
9.4072900584
 30
0.0
 11
1.4580479396
 21
9.4072900584
 31
0.0
  0
LINE
  5
10A
330
1F
100
AcDbEntity
  8
0
  6
Continuous
 62
     7
370
    25
100
AcDbLine
 10
1.2080479243
 20
8.6198885012
 30
0.0
 11
1.2080479243
 21
9.4072900584
 31
0.0
  0
LINE
  5
10B
330
1F
100
AcDbEntity
  8
0
  6
Continuous
 62
     7
370
    25
100
AcDbLine
 10
2.6391502755
 20
9.4072900584
 30
0.0
 11
2.8891502908
 21
9.4072900584
 31
0.0
  0
LINE
  5
10C
330
1F
100
AcDbEntity
  8
0
  6
Continuous
 62
     7
370
    25
100
AcDbLine
 10
2.6391502755
 20
8.6198885012
 30
0.0
 11
2.6391502755
 21
9.4072900584
 31
0.0
  0
LINE
  5
10D
330
1F
100
AcDbEntity
  8
0
  6
Continuous
 62
     7
370
    25
100
AcDbLine
 10
2.8891502908
 20
8.6198885012
 30
0.0
 11
2.6391502755
 21
8.6198885012
 31
0.0
  0
LINE
  5
10E
330
1F
100
AcDbEntity
  8
0
  6
Continuous
 62
     7
370
    25
100
AcDbLine
 10
2.8891502908
 20
9.4072900584
 30
0.0
 11
2.8891502908
 21
8.6198885012
 31
0.0
  0
LINE
  5
10F
330
1F
100
AcDbEntity
  8
0
  6
Continuous
 62
     7
370
    25
100
AcDbLine
 10
2.3438746915
 20
7.9761876339
 30
0.0
 11
2.3438746915
 21
8.2261876859
 31
0.0
  0
LINE
  5
110
330
1F
100
AcDbEntity
  8
0
  6
Continuous
 62
     7
370
    25
100
AcDbLine
 10
3.7413972553
 20
2.8536913725
 30
0.0
 11
0.3318484827
 21
2.8536913725
 31
0.0
  0
LINE
  5
111
330
1F
100
AcDbEntity
  8
0
  6
Continuous
 62
     7
370
    25
100
AcDbLine
 10
3.7413972553
 20
0.8851874062
 30
0.0
 11
3.7413972553
 21
2.8536913725
 31
0.0
  0
LINE
  5
112
330
1F
100
AcDbEntity
  8
0
  6
Continuous
 62
     7
370
    25
100
AcDbLine
 10
3.5445469027
 20
0.8851874062
 30
0.0
 11
3.7413972553
 21
0.8851874062
 31
0.0
  0
LINE
  5
113
330
1F
100
AcDbEntity
  8
0
  6
Continuous
 62
     7
370
    25
100
AcDbLine
 10
3.5445469027
 20
0.6351873542
 30
0.0
 11
3.5445469027
 21
0.8851874062
 31
0.0
  0
LINE
  5
114
330
1F
100
AcDbEntity
  8
0
  6
Continuous
 62
     7
370
    25
100
AcDbLine
 10
3.5445469027
 20
0.6351873542
 30
0.0
 11
2.9539956981
 21
0.6351873542
 31
0.0
  0
LINE
  5
115
330
1F
100
AcDbEntity
  8
0
  6
Continuous
 62
     7
370
    25
100
AcDbLine
 10
2.9539956981
 20
0.6351873542
 30
0.0
 11
2.9539956981
 21
0.8851874062
 31
0.0
  0
LINE
  5
116
330
1F
100
AcDbEntity
  8
0
  6
Continuous
 62
     7
370
    25
100
AcDbLine
 10
2.331898453
 20
0.8851874062
 30
0.0
 11
2.9539956981
 21
0.8851874062
 31
0.0
  0
LINE
  5
117
330
1F
100
AcDbEntity
  8
0
  6
Continuous
 62
     7
370
    25
100
AcDbLine
 10
2.331898453
 20
0.6351873542
 30
0.0
 11
1.7413472851
 21
0.6351873542
 31
0.0
  0
LINE
  5
118
330
1F
100
AcDbEntity
  8
0
  6
Continuous
 62
     7
370
    25
100
AcDbLine
 10
1.7413472851
 20
0.6351873542
 30
0.0
 11
1.7413472851
 21
0.8851874062
 31
0.0
  0
LINE
  5
119
330
1F
100
AcDbEntity
  8
0
  6
Continuous
 62
     7
370
    25
100
AcDbLine
 10
1.1192500399
 20
0.8851874062
 30
0.0
 11
1.7413472851
 21
0.8851874062
 31
0.0
  0
LINE
  5
11A
330
1F
100
AcDbEntity
  8
0
  6
Continuous
 62
     7
370
    25
100
AcDbLine
 10
1.1192500399
 20
0.6351873542
 30
0.0
 11
1.1192500399
 21
0.8851874062
 31
0.0
  0
LINE
  5
11B
330
1F
100
AcDbEntity
  8
0
  6
Continuous
 62
     7
370
    25
100
AcDbLine
 10
1.1192500399
 20
0.6351873542
 30
0.0
 11
0.5286988353
 21
0.6351873542
 31
0.0
  0
LINE
  5
11C
330
1F
100
AcDbEntity
  8
0
  6
Continuous
 62
     7
370
    25
100
AcDbLine
 10
0.5286988353
 20
0.6351873542
 30
0.0
 11
0.5286988353
 21
0.8851874062
 31
0.0
  0
LINE
  5
11D
330
1F
100
AcDbEntity
  8
0
  6
Continuous
 62
     7
370
    25
100
AcDbLine
 10
0.3318484827
 20
0.8851874062
 30
0.0
 11
0.5286988353
 21
0.8851874062
 31
0.0
  0
LINE
  5
11E
330
1F
100
AcDbEntity
  8
0
  6
Continuous
 62
     7
370
    25
100
AcDbLine
 10
0.3318484827
 20
2.8536913725
 30
0.0
 11
0.3318484827
 21
0.8851874062
 31
0.0
  0
CIRCLE
  5
11F
330
1F
100
AcDbEntity
  8
0
  6
Continuous
 62
     7
370
    25
100
AcDbCircle
 10
2.036622869
 20
2.5190456886
 30
0.0
 40
0.1875
  0
LINE
  5
120
330
1F
100
AcDbEntity
  8
0
  6
Continuous
 62
     7
370
    25
100
AcDbLine
 10
1.4460717011
 20
1.2788882215
 30
0.0
 11
1.1960716858
 21
1.2788882215
 31
0.0
  0
LINE
  5
121
330
1F
100
AcDbEntity
  8
0
  6
Continuous
 62
     7
370
    25
100
AcDbLine
 10
1.4460717011
 20
2.0662897787
 30
0.0
 11
1.4460717011
 21
1.2788882215
 31
0.0
  0
LINE
  5
122
330
1F
100
AcDbEntity
  8
0
  6
Continuous
 62
     7
370
    25
100
AcDbLine
 10
1.1960716858
 20
2.0662897787
 30
0.0
 11
1.4460717011
 21
2.0662897787
 31
0.0
  0
LINE
  5
123
330
1F
100
AcDbEntity
  8
0
  6
Continuous
 62
     7
370
    25
100
AcDbLine
 10
1.1960716858
 20
1.2788882215
 30
0.0
 11
1.1960716858
 21
2.0662897787
 31
0.0
  0
LINE
  5
124
330
1F
100
AcDbEntity
  8
0
  6
Continuous
 62
     7
370
    25
100
AcDbLine
 10
2.6271740369
 20
2.0662897787
 30
0.0
 11
2.8771740522
 21
2.0662897787
 31
0.0
  0
LINE
  5
125
330
1F
100
AcDbEntity
  8
0
  6
Continuous
 62
     7
370
    25
100
AcDbLine
 10
2.6271740369
 20
1.2788882215
 30
0.0
 11
2.6271740369
 21
2.0662897787
 31
0.0
  0
LINE
  5
126
330
1F
100
AcDbEntity
  8
0
  6
Continuous
 62
     7
370
    25
100
AcDbLine
 10
2.8771740522
 20
1.2788882215
 30
0.0
 11
2.6271740369
 21
1.2788882215
 31
0.0
  0
LINE
  5
127
330
1F
100
AcDbEntity
  8
0
  6
Continuous
 62
     7
370
    25
100
AcDbLine
 10
2.8771740522
 20
2.0662897787
 30
0.0
 11
2.8771740522
 21
1.2788882215
 31
0.0
  0
LINE
  5
128
330
1F
100
AcDbEntity
  8
0
  6
Continuous
 62
     7
370
    25
100
AcDbLine
 10
2.331898453
 20
0.6351873542
 30
0.0
 11
2.331898453
 21
0.8851874062
 31
0.0
  0
LINE
  5
129
330
1F
100
AcDbEntity
  8
0
  6
Continuous
 62
     7
370
    25
100
AcDbLine
 10
3.7541656765
 20
5.3712442431
 30
0.0
 11
0.3446169039
 21
5.3712442431
 31
0.0
  0
LINE
  5
12A
330
1F
100
AcDbEntity
  8
0
  6
Continuous
 62
     7
370
    25
100
AcDbLine
 10
3.7541656765
 20
3.4027402768
 30
0.0
 11
3.7541656765
 21
5.3712442431
 31
0.0
  0
LINE
  5
12B
330
1F
100
AcDbEntity
  8
0
  6
Continuous
 62
     7
370
    25
100
AcDbLine
 10
3.5573153239
 20
3.4027402768
 30
0.0
 11
3.7541656765
 21
3.4027402768
 31
0.0
  0
LINE
  5
12C
330
1F
100
AcDbEntity
  8
0
  6
Continuous
 62
     7
370
    25
100
AcDbLine
 10
3.5573153239
 20
3.1527402248
 30
0.0
 11
3.5573153239
 21
3.4027402768
 31
0.0
  0
LINE
  5
12D
330
1F
100
AcDbEntity
  8
0
  6
Continuous
 62
     7
370
    25
100
AcDbLine
 10
3.5573153239
 20
3.1527402248
 30
0.0
 11
2.9667641193
 21
3.1527402248
 31
0.0
  0
LINE
  5
12E
330
1F
100
AcDbEntity
  8
0
  6
Continuous
 62
     7
370
    25
100
AcDbLine
 10
2.9667641193
 20
3.1527402248
 30
0.0
 11
2.9667641193
 21
3.4027402768
 31
0.0
  0
LINE
  5
12F
330
1F
100
AcDbEntity
  8
0
  6
Continuous
 62
     7
370
    25
100
AcDbLine
 10
2.3446668741
 20
3.4027402768
 30
0.0
 11
2.9667641193
 21
3.4027402768
 31
0.0
  0
LINE
  5
130
330
1F
100
AcDbEntity
  8
0
  6
Continuous
 62
     7
370
    25
100
AcDbLine
 10
2.3446668741
 20
3.1527402248
 30
0.0
 11
1.7541157062
 21
3.1527402248
 31
0.0
  0
LINE
  5
131
330
1F
100
AcDbEntity
  8
0
  6
Continuous
 62
     7
370
    25
100
AcDbLine
 10
1.7541157062
 20
3.1527402248
 30
0.0
 11
1.7541157062
 21
3.4027402768
 31
0.0
  0
LINE
  5
132
330
1F
100
AcDbEntity
  8
0
  6
Continuous
 62
     7
370
    25
100
AcDbLine
 10
1.1320184611
 20
3.4027402768
 30
0.0
 11
1.7541157062
 21
3.4027402768
 31
0.0
  0
LINE
  5
133
330
1F
100
AcDbEntity
  8
0
  6
Continuous
 62
     7
370
    25
100
AcDbLine
 10
1.1320184611
 20
3.1527402248
 30
0.0
 11
1.1320184611
 21
3.4027402768
 31
0.0
  0
LINE
  5
134
330
1F
100
AcDbEntity
  8
0
  6
Continuous
 62
     7
370
    25
100
AcDbLine
 10
1.1320184611
 20
3.1527402248
 30
0.0
 11
0.5414672565
 21
3.1527402248
 31
0.0
  0
LINE
  5
135
330
1F
100
AcDbEntity
  8
0
  6
Continuous
 62
     7
370
    25
100
AcDbLine
 10
0.5414672565
 20
3.1527402248
 30
0.0
 11
0.5414672565
 21
3.4027402768
 31
0.0
  0
LINE
  5
136
330
1F
100
AcDbEntity
  8
0
  6
Continuous
 62
     7
370
    25
100
AcDbLine
 10
0.3446169039
 20
3.4027402768
 30
0.0
 11
0.5414672565
 21
3.4027402768
 31
0.0
  0
LINE
  5
137
330
1F
100
AcDbEntity
  8
0
  6
Continuous
 62
     7
370
    25
100
AcDbLine
 10
0.3446169039
 20
5.3712442431
 30
0.0
 11
0.3446169039
 21
3.4027402768
 31
0.0
  0
CIRCLE
  5
138
330
1F
100
AcDbEntity
  8
0
  6
Continuous
 62
     7
370
    25
100
AcDbCircle
 10
2.0493912902
 20
5.0365985592
 30
0.0
 40
0.1875
  0
LINE
  5
139
330
1F
100
AcDbEntity
  8
0
  6
Continuous
 62
     7
370
    25
100
AcDbLine
 10
1.4588401223
 20
3.7964410921
 30
0.0
 11
1.208840107
 21
3.7964410921
 31
0.0
  0
LINE
  5
13A
330
1F
100
AcDbEntity
  8
0
  6
Continuous
 62
     7
370
    25
100
AcDbLine
 10
1.4588401223
 20
4.5838426493
 30
0.0
 11
1.4588401223
 21
3.7964410921
 31
0.0
  0
LINE
  5
13B
330
1F
100
AcDbEntity
  8
0
  6
Continuous
 62
     7
370
    25
100
AcDbLine
 10
1.208840107
 20
4.5838426493
 30
0.0
 11
1.4588401223
 21
4.5838426493
 31
0.0
  0
LINE
  5
13C
330
1F
100
AcDbEntity
  8
0
  6
Continuous
 62
     7
370
    25
100
AcDbLine
 10
1.208840107
 20
3.7964410921
 30
0.0
 11
1.208840107
 21
4.5838426493
 31
0.0
  0
LINE
  5
13D
330
1F
100
AcDbEntity
  8
0
  6
Continuous
 62
     7
370
    25
100
AcDbLine
 10
2.6399424581
 20
4.5838426493
 30
0.0
 11
2.8899424734
 21
4.5838426493
 31
0.0
  0
LINE
  5
13E
330
1F
100
AcDbEntity
  8
0
  6
Continuous
 62
     7
370
    25
100
AcDbLine
 10
2.6399424581
 20
3.7964410921
 30
0.0
 11
2.6399424581
 21
4.5838426493
 31
0.0
  0
LINE
  5
13F
330
1F
100
AcDbEntity
  8
0
  6
Continuous
 62
     7
370
    25
100
AcDbLine
 10
2.8899424734
 20
3.7964410921
 30
0.0
 11
2.6399424581
 21
3.7964410921
 31
0.0
  0
LINE
  5
140
330
1F
100
AcDbEntity
  8
0
  6
Continuous
 62
     7
370
    25
100
AcDbLine
 10
2.8899424734
 20
4.5838426493
 30
0.0
 11
2.8899424734
 21
3.7964410921
 31
0.0
  0
LINE
  5
141
330
1F
100
AcDbEntity
  8
0
  6
Continuous
 62
     7
370
    25
100
AcDbLine
 10
2.3446668741
 20
3.1527402248
 30
0.0
 11
2.3446668741
 21
3.4027402768
 31
0.0
  0
LINE
  5
142
330
1F
100
AcDbEntity
  8
0
  6
Continuous
 62
     7
370
    25
100
AcDbLine
 10
3.7520693373
 20
7.7898977799
 30
0.0
 11
0.3425205647
 21
7.7898977799
 31
0.0
  0
LINE
  5
143
330
1F
100
AcDbEntity
  8
0
  6
Continuous
 62
     7
370
    25
100
AcDbLine
 10
3.7520693373
 20
5.8213938135
 30
0.0
 11
3.7520693373
 21
7.7898977799
 31
0.0
  0
LINE
  5
144
330
1F
100
AcDbEntity
  8
0
  6
Continuous
 62
     7
370
    25
100
AcDbLine
 10
3.5552189847
 20
5.8213938135
 30
0.0
 11
3.7520693373
 21
5.8213938135
 31
0.0
  0
LINE
  5
145
330
1F
100
AcDbEntity
  8
0
  6
Continuous
 62
     7
370
    25
100
AcDbLine
 10
3.5552189847
 20
5.5713937616
 30
0.0
 11
3.5552189847
 21
5.8213938135
 31
0.0
  0
LINE
  5
146
330
1F
100
AcDbEntity
  8
0
  6
Continuous
 62
     7
370
    25
100
AcDbLine
 10
3.5552189847
 20
5.5713937616
 30
0.0
 11
2.9646677801
 21
5.5713937616
 31
0.0
  0
LINE
  5
147
330
1F
100
AcDbEntity
  8
0
  6
Continuous
 62
     7
370
    25
100
AcDbLine
 10
2.9646677801
 20
5.5713937616
 30
0.0
 11
2.9646677801
 21
5.8213938135
 31
0.0
  0
LINE
  5
148
330
1F
100
AcDbEntity
  8
0
  6
Continuous
 62
     7
370
    25
100
AcDbLine
 10
2.342570535
 20
5.8213938135
 30
0.0
 11
2.9646677801
 21
5.8213938135
 31
0.0
  0
LINE
  5
149
330
1F
100
AcDbEntity
  8
0
  6
Continuous
 62
     7
370
    25
100
AcDbLine
 10
2.342570535
 20
5.5713937616
 30
0.0
 11
1.7520193671
 21
5.5713937616
 31
0.0
  0
LINE
  5
14A
330
1F
100
AcDbEntity
  8
0
  6
Continuous
 62
     7
370
    25
100
AcDbLine
 10
1.7520193671
 20
5.5713937616
 30
0.0
 11
1.7520193671
 21
5.8213938135
 31
0.0
  0
LINE
  5
14B
330
1F
100
AcDbEntity
  8
0
  6
Continuous
 62
     7
370
    25
100
AcDbLine
 10
1.1299221219
 20
5.8213938135
 30
0.0
 11
1.7520193671
 21
5.8213938135
 31
0.0
  0
LINE
  5
14C
330
1F
100
AcDbEntity
  8
0
  6
Continuous
 62
     7
370
    25
100
AcDbLine
 10
1.1299221219
 20
5.5713937616
 30
0.0
 11
1.1299221219
 21
5.8213938135
 31
0.0
  0
LINE
  5
14D
330
1F
100
AcDbEntity
  8
0
  6
Continuous
 62
     7
370
    25
100
AcDbLine
 10
1.1299221219
 20
5.5713937616
 30
0.0
 11
0.5393709174
 21
5.5713937616
 31
0.0
  0
LINE
  5
14E
330
1F
100
AcDbEntity
  8
0
  6
Continuous
 62
     7
370
    25
100
AcDbLine
 10
0.5393709174
 20
5.5713937616
 30
0.0
 11
0.5393709174
 21
5.8213938135
 31
0.0
  0
LINE
  5
14F
330
1F
100
AcDbEntity
  8
0
  6
Continuous
 62
     7
370
    25
100
AcDbLine
 10
0.3425205647
 20
5.8213938135
 30
0.0
 11
0.5393709174
 21
5.8213938135
 31
0.0
  0
LINE
  5
150
330
1F
100
AcDbEntity
  8
0
  6
Continuous
 62
     7
370
    25
100
AcDbLine
 10
0.3425205647
 20
7.7898977799
 30
0.0
 11
0.3425205647
 21
5.8213938135
 31
0.0
  0
CIRCLE
  5
151
330
1F
100
AcDbEntity
  8
0
  6
Continuous
 62
     7
370
    25
100
AcDbCircle
 10
2.047294951
 20
7.4552520959
 30
0.0
 40
0.1875
  0
LINE
  5
152
330
1F
100
AcDbEntity
  8
0
  6
Continuous
 62
     7
370
    25
100
AcDbLine
 10
1.4567437831
 20
6.2150946288
 30
0.0
 11
1.2067437678
 21
6.2150946288
 31
0.0
  0
LINE
  5
153
330
1F
100
AcDbEntity
  8
0
  6
Continuous
 62
     7
370
    25
100
AcDbLine
 10
1.4567437831
 20
7.002496186
 30
0.0
 11
1.4567437831
 21
6.2150946288
 31
0.0
  0
LINE
  5
154
330
1F
100
AcDbEntity
  8
0
  6
Continuous
 62
     7
370
    25
100
AcDbLine
 10
1.2067437678
 20
7.002496186
 30
0.0
 11
1.4567437831
 21
7.002496186
 31
0.0
  0
LINE
  5
155
330
1F
100
AcDbEntity
  8
0
  6
Continuous
 62
     7
370
    25
100
AcDbLine
 10
1.2067437678
 20
6.2150946288
 30
0.0
 11
1.2067437678
 21
7.002496186
 31
0.0
  0
LINE
  5
156
330
1F
100
AcDbEntity
  8
0
  6
Continuous
 62
     7
370
    25
100
AcDbLine
 10
2.6378461189
 20
7.002496186
 30
0.0
 11
2.8878461342
 21
7.002496186
 31
0.0
  0
LINE
  5
157
330
1F
100
AcDbEntity
  8
0
  6
Continuous
 62
     7
370
    25
100
AcDbLine
 10
2.6378461189
 20
6.2150946288
 30
0.0
 11
2.6378461189
 21
7.002496186
 31
0.0
  0
LINE
  5
158
330
1F
100
AcDbEntity
  8
0
  6
Continuous
 62
     7
370
    25
100
AcDbLine
 10
2.8878461342
 20
6.2150946288
 30
0.0
 11
2.6378461189
 21
6.2150946288
 31
0.0
  0
LINE
  5
159
330
1F
100
AcDbEntity
  8
0
  6
Continuous
 62
     7
370
    25
100
AcDbLine
 10
2.8878461342
 20
7.002496186
 30
0.0
 11
2.8878461342
 21
6.2150946288
 31
0.0
  0
LINE
  5
15A
330
1F
100
AcDbEntity
  8
0
  6
Continuous
 62
     7
370
    25
100
AcDbLine
 10
2.342570535
 20
5.5713937616
 30
0.0
 11
2.342570535
 21
5.8213938135
 31
0.0
  0
LINE
  5
15B
330
1F
100
AcDbEntity
  8
0
  6
Continuous
 62
     7
370
    25
100
AcDbLine
 10
7.3269035747
 20
2.7837789654
 30
0.0
 11
3.9173548021
 21
2.7837789654
 31
0.0
  0
LINE
  5
15C
330
1F
100
AcDbEntity
  8
0
  6
Continuous
 62
     7
370
    25
100
AcDbLine
 10
7.3269035747
 20
0.8152749991
 30
0.0
 11
7.3269035747
 21
2.7837789654
 31
0.0
  0
LINE
  5
15D
330
1F
100
AcDbEntity
  8
0
  6
Continuous
 62
     7
370
    25
100
AcDbLine
 10
7.1300532221
 20
0.8152749991
 30
0.0
 11
7.3269035747
 21
0.8152749991
 31
0.0
  0
LINE
  5
15E
330
1F
100
AcDbEntity
  8
0
  6
Continuous
 62
     7
370
    25
100
AcDbLine
 10
7.1300532221
 20
0.5652749471
 30
0.0
 11
7.1300532221
 21
0.8152749991
 31
0.0
  0
LINE
  5
15F
330
1F
100
AcDbEntity
  8
0
  6
Continuous
 62
     7
370
    25
100
AcDbLine
 10
7.1300532221
 20
0.5652749471
 30
0.0
 11
6.5395020175
 21
0.5652749471
 31
0.0
  0
LINE
  5
160
330
1F
100
AcDbEntity
  8
0
  6
Continuous
 62
     7
370
    25
100
AcDbLine
 10
6.5395020175
 20
0.5652749471
 30
0.0
 11
6.5395020175
 21
0.8152749991
 31
0.0
  0
LINE
  5
161
330
1F
100
AcDbEntity
  8
0
  6
Continuous
 62
     7
370
    25
100
AcDbLine
 10
5.9174047724
 20
0.8152749991
 30
0.0
 11
6.5395020175
 21
0.8152749991
 31
0.0
  0
LINE
  5
162
330
1F
100
AcDbEntity
  8
0
  6
Continuous
 62
     7
370
    25
100
AcDbLine
 10
5.9174047724
 20
0.5652749471
 30
0.0
 11
5.3268536045
 21
0.5652749471
 31
0.0
  0
LINE
  5
163
330
1F
100
AcDbEntity
  8
0
  6
Continuous
 62
     7
370
    25
100
AcDbLine
 10
5.3268536045
 20
0.5652749471
 30
0.0
 11
5.3268536045
 21
0.8152749991
 31
0.0
  0
LINE
  5
164
330
1F
100
AcDbEntity
  8
0
  6
Continuous
 62
     7
370
    25
100
AcDbLine
 10
4.7047563593
 20
0.8152749991
 30
0.0
 11
5.3268536045
 21
0.8152749991
 31
0.0
  0
LINE
  5
165
330
1F
100
AcDbEntity
  8
0
  6
Continuous
 62
     7
370
    25
100
AcDbLine
 10
4.7047563593
 20
0.5652749471
 30
0.0
 11
4.7047563593
 21
0.8152749991
 31
0.0
  0
LINE
  5
166
330
1F
100
AcDbEntity
  8
0
  6
Continuous
 62
     7
370
    25
100
AcDbLine
 10
4.7047563593
 20
0.5652749471
 30
0.0
 11
4.1142051548
 21
0.5652749471
 31
0.0
  0
LINE
  5
167
330
1F
100
AcDbEntity
  8
0
  6
Continuous
 62
     7
370
    25
100
AcDbLine
 10
4.1142051548
 20
0.5652749471
 30
0.0
 11
4.1142051548
 21
0.8152749991
 31
0.0
  0
LINE
  5
168
330
1F
100
AcDbEntity
  8
0
  6
Continuous
 62
     7
370
    25
100
AcDbLine
 10
3.9173548021
 20
0.8152749991
 30
0.0
 11
4.1142051548
 21
0.8152749991
 31
0.0
  0
LINE
  5
169
330
1F
100
AcDbEntity
  8
0
  6
Continuous
 62
     7
370
    25
100
AcDbLine
 10
3.9173548021
 20
2.7837789654
 30
0.0
 11
3.9173548021
 21
0.8152749991
 31
0.0
  0
CIRCLE
  5
16A
330
1F
100
AcDbEntity
  8
0
  6
Continuous
 62
     7
370
    25
100
AcDbCircle
 10
5.6221291884
 20
2.4491332814
 30
0.0
 40
0.1875
  0
LINE
  5
16B
330
1F
100
AcDbEntity
  8
0
  6
Continuous
 62
     7
370
    25
100
AcDbLine
 10
5.0315780205
 20
1.2089758143
 30
0.0
 11
4.7815780052
 21
1.2089758143
 31
0.0
  0
LINE
  5
16C
330
1F
100
AcDbEntity
  8
0
  6
Continuous
 62
     7
370
    25
100
AcDbLine
 10
5.0315780205
 20
1.9963773715
 30
0.0
 11
5.0315780205
 21
1.2089758143
 31
0.0
  0
LINE
  5
16D
330
1F
100
AcDbEntity
  8
0
  6
Continuous
 62
     7
370
    25
100
AcDbLine
 10
4.7815780052
 20
1.9963773715
 30
0.0
 11
5.0315780205
 21
1.9963773715
 31
0.0
  0
LINE
  5
16E
330
1F
100
AcDbEntity
  8
0
  6
Continuous
 62
     7
370
    25
100
AcDbLine
 10
4.7815780052
 20
1.2089758143
 30
0.0
 11
4.7815780052
 21
1.9963773715
 31
0.0
  0
LINE
  5
16F
330
1F
100
AcDbEntity
  8
0
  6
Continuous
 62
     7
370
    25
100
AcDbLine
 10
6.2126803563
 20
1.9963773715
 30
0.0
 11
6.4626803716
 21
1.9963773715
 31
0.0
  0
LINE
  5
170
330
1F
100
AcDbEntity
  8
0
  6
Continuous
 62
     7
370
    25
100
AcDbLine
 10
6.2126803563
 20
1.2089758143
 30
0.0
 11
6.2126803563
 21
1.9963773715
 31
0.0
  0
LINE
  5
171
330
1F
100
AcDbEntity
  8
0
  6
Continuous
 62
     7
370
    25
100
AcDbLine
 10
6.4626803716
 20
1.2089758143
 30
0.0
 11
6.2126803563
 21
1.2089758143
 31
0.0
  0
LINE
  5
172
330
1F
100
AcDbEntity
  8
0
  6
Continuous
 62
     7
370
    25
100
AcDbLine
 10
6.4626803716
 20
1.9963773715
 30
0.0
 11
6.4626803716
 21
1.2089758143
 31
0.0
  0
LINE
  5
173
330
1F
100
AcDbEntity
  8
0
  6
Continuous
 62
     7
370
    25
100
AcDbLine
 10
5.9174047724
 20
0.5652749471
 30
0.0
 11
5.9174047724
 21
0.8152749991
 31
0.0
  0
LINE
  5
174
330
1F
100
AcDbEntity
  8
0
  6
Continuous
 62
     7
370
    25
100
AcDbLine
 10
7.2942605631
 20
10.2099836037
 30
0.0
 11
3.8847117904
 21
10.2099836037
 31
0.0
  0
LINE
  5
175
330
1F
100
AcDbEntity
  8
0
  6
Continuous
 62
     7
370
    25
100
AcDbLine
 10
7.2942605631
 20
8.2414796374
 30
0.0
 11
7.2942605631
 21
10.2099836037
 31
0.0
  0
LINE
  5
176
330
1F
100
AcDbEntity
  8
0
  6
Continuous
 62
     7
370
    25
100
AcDbLine
 10
7.0974102104
 20
8.2414796374
 30
0.0
 11
7.2942605631
 21
8.2414796374
 31
0.0
  0
LINE
  5
177
330
1F
100
AcDbEntity
  8
0
  6
Continuous
 62
     7
370
    25
100
AcDbLine
 10
7.0974102104
 20
7.9914795854
 30
0.0
 11
7.0974102104
 21
8.2414796374
 31
0.0
  0
LINE
  5
178
330
1F
100
AcDbEntity
  8
0
  6
Continuous
 62
     7
370
    25
100
AcDbLine
 10
7.0974102104
 20
7.9914795854
 30
0.0
 11
6.5068590058
 21
7.9914795854
 31
0.0
  0
LINE
  5
179
330
1F
100
AcDbEntity
  8
0
  6
Continuous
 62
     7
370
    25
100
AcDbLine
 10
6.5068590058
 20
7.9914795854
 30
0.0
 11
6.5068590058
 21
8.2414796374
 31
0.0
  0
LINE
  5
17A
330
1F
100
AcDbEntity
  8
0
  6
Continuous
 62
     7
370
    25
100
AcDbLine
 10
5.8847617607
 20
8.2414796374
 30
0.0
 11
6.5068590058
 21
8.2414796374
 31
0.0
  0
LINE
  5
17B
330
1F
100
AcDbEntity
  8
0
  6
Continuous
 62
     7
370
    25
100
AcDbLine
 10
5.8847617607
 20
7.9914795854
 30
0.0
 11
5.2942105928
 21
7.9914795854
 31
0.0
  0
LINE
  5
17C
330
1F
100
AcDbEntity
  8
0
  6
Continuous
 62
     7
370
    25
100
AcDbLine
 10
5.2942105928
 20
7.9914795854
 30
0.0
 11
5.2942105928
 21
8.2414796374
 31
0.0
  0
LINE
  5
17D
330
1F
100
AcDbEntity
  8
0
  6
Continuous
 62
     7
370
    25
100
AcDbLine
 10
4.6721133477
 20
8.2414796374
 30
0.0
 11
5.2942105928
 21
8.2414796374
 31
0.0
  0
LINE
  5
17E
330
1F
100
AcDbEntity
  8
0
  6
Continuous
 62
     7
370
    25
100
AcDbLine
 10
4.6721133477
 20
7.9914795854
 30
0.0
 11
4.6721133477
 21
8.2414796374
 31
0.0
  0
LINE
  5
17F
330
1F
100
AcDbEntity
  8
0
  6
Continuous
 62
     7
370
    25
100
AcDbLine
 10
4.6721133477
 20
7.9914795854
 30
0.0
 11
4.0815621431
 21
7.9914795854
 31
0.0
  0
LINE
  5
180
330
1F
100
AcDbEntity
  8
0
  6
Continuous
 62
     7
370
    25
100
AcDbLine
 10
4.0815621431
 20
7.9914795854
 30
0.0
 11
4.0815621431
 21
8.2414796374
 31
0.0
  0
LINE
  5
181
330
1F
100
AcDbEntity
  8
0
  6
Continuous
 62
     7
370
    25
100
AcDbLine
 10
3.8847117904
 20
8.2414796374
 30
0.0
 11
4.0815621431
 21
8.2414796374
 31
0.0
  0
LINE
  5
182
330
1F
100
AcDbEntity
  8
0
  6
Continuous
 62
     7
370
    25
100
AcDbLine
 10
3.8847117904
 20
10.2099836037
 30
0.0
 11
3.8847117904
 21
8.2414796374
 31
0.0
  0
CIRCLE
  5
183
330
1F
100
AcDbEntity
  8
0
  6
Continuous
 62
     7
370
    25
100
AcDbCircle
 10
5.5894861768
 20
9.8753379198
 30
0.0
 40
0.1875
  0
LINE
  5
184
330
1F
100
AcDbEntity
  8
0
  6
Continuous
 62
     7
370
    25
100
AcDbLine
 10
4.9989350088
 20
8.6351804527
 30
0.0
 11
4.7489349935
 21
8.6351804527
 31
0.0
  0
LINE
  5
185
330
1F
100
AcDbEntity
  8
0
  6
Continuous
 62
     7
370
    25
100
AcDbLine
 10
4.9989350088
 20
9.4225820099
 30
0.0
 11
4.9989350088
 21
8.6351804527
 31
0.0
  0
LINE
  5
186
330
1F
100
AcDbEntity
  8
0
  6
Continuous
 62
     7
370
    25
100
AcDbLine
 10
4.7489349935
 20
9.4225820099
 30
0.0
 11
4.9989350088
 21
9.4225820099
 31
0.0
  0
LINE
  5
187
330
1F
100
AcDbEntity
  8
0
  6
Continuous
 62
     7
370
    25
100
AcDbLine
 10
4.7489349935
 20
8.6351804527
 30
0.0
 11
4.7489349935
 21
9.4225820099
 31
0.0
  0
LINE
  5
188
330
1F
100
AcDbEntity
  8
0
  6
Continuous
 62
     7
370
    25
100
AcDbLine
 10
6.1800373447
 20
9.4225820099
 30
0.0
 11
6.43003736
 21
9.4225820099
 31
0.0
  0
LINE
  5
189
330
1F
100
AcDbEntity
  8
0
  6
Continuous
 62
     7
370
    25
100
AcDbLine
 10
6.1800373447
 20
8.6351804527
 30
0.0
 11
6.1800373447
 21
9.4225820099
 31
0.0
  0
LINE
  5
18A
330
1F
100
AcDbEntity
  8
0
  6
Continuous
 62
     7
370
    25
100
AcDbLine
 10
6.43003736
 20
8.6351804527
 30
0.0
 11
6.1800373447
 21
8.6351804527
 31
0.0
  0
LINE
  5
18B
330
1F
100
AcDbEntity
  8
0
  6
Continuous
 62
     7
370
    25
100
AcDbLine
 10
6.43003736
 20
9.4225820099
 30
0.0
 11
6.43003736
 21
8.6351804527
 31
0.0
  0
LINE
  5
18C
330
1F
100
AcDbEntity
  8
0
  6
Continuous
 62
     7
370
    25
100
AcDbLine
 10
5.8847617607
 20
7.9914795854
 30
0.0
 11
5.8847617607
 21
8.2414796374
 31
0.0
  0
CIRCLE
  5
18D
330
1F
100
AcDbEntity
  8
0
  6
Continuous
 62
     7
370
    25
100
AcDbCircle
 10
4.8843514015
 20
6.8299174217
 30
0.0
 40
0.1240157480314954
  0
CIRCLE
  5
18E
330
1F
100
AcDbEntity
  8
0
  6
Continuous
 62
     7
370
    25
100
AcDbCircle
 10
5.1565875122
 20
6.5576813109
 30
0.0
 40
0.0720472440944881
  0
CIRCLE
  5
18F
330
1F
100
AcDbEntity
  8
0
  6
Continuous
 62
     7
370
    25
100
AcDbCircle
 10
5.1565875122
 20
7.1021535324
 30
0.0
 40
0.0720472440944881
  0
CIRCLE
  5
190
330
1F
100
AcDbEntity
  8
0
  6
Continuous
 62
     7
370
    25
100
AcDbCircle
 10
4.6121152907
 20
7.1021535324
 30
0.0
 40
0.0720472440944881
  0
CIRCLE
  5
191
330
1F
100
AcDbEntity
  8
0
  6
Continuous
 62
     7
370
    25
100
AcDbCircle
 10
4.6121152907
 20
6.5576813109
 30
0.0
 40
0.0720472440944881
  0
ARC
  5
192
330
1F
100
AcDbEntity
  8
0
  6
Continuous
 62
     7
370
    25
100
AcDbCircle
 10
4.5749448754
 20
5.9583113811
 30
0.0
 40
0.3937007874015749
100
AcDbArc
 50
327.6224952927
 51
2.1156275406
  0
ARC
  5
193
330
1F
100
AcDbEntity
  8
0
  6
Continuous
 62
     7
370
    25
100
AcDbCircle
 10
4.8843514015
 20
6.8299174217
 30
0.0
 40
1.082677165354331
100
AcDbArc
 50
268.4641610447
 51
271.2219649041
  0
ARC
  5
194
330
1F
100
AcDbEntity
  8
0
  6
Continuous
 62
     7
370
    25
100
AcDbCircle
 10
5.1889785326
 20
5.9566294971
 30
0.0
 40
0.3937007874015747
100
AcDbArc
 50
177.5704984083
 51
212.0636306562
  0
ARC
  5
195
330
1F
100
AcDbEntity
  8
0
  6
Continuous
 62
     7
370
    25
100
AcDbCircle
 10
4.8843514015
 20
6.8299174217
 30
0.0
 40
0.8611811023622038
100
AcDbArc
 50
257.5992880898
 51
264.0868378591
  0
ARC
  5
196
330
1F
100
AcDbEntity
  8
0
  6
Continuous
 62
     7
370
    25
100
AcDbCircle
 10
4.3207472297
 20
6.0965826919
 30
0.0
 40
0.3937007874015758
100
AcDbArc
 50
309.6224952927
 51
344.1156275406
  0
ARC
  5
197
330
1F
100
AcDbEntity
  8
0
  6
Continuous
 62
     7
370
    25
100
AcDbCircle
 10
4.8843514015
 20
6.8299174217
 30
0.0
 40
1.082677165354331
100
AcDbArc
 50
250.4641610447
 51
253.2219649041
  0
ARC
  5
198
330
1F
100
AcDbEntity
  8
0
  6
Continuous
 62
     7
370
    25
100
AcDbCircle
 10
4.9042082099
 20
5.9052362899
 30
0.0
 40
0.393700787401575
100
AcDbArc
 50
159.5704984083
 51
194.0636306562
  0
ARC
  5
199
330
1F
100
AcDbEntity
  8
0
  6
Continuous
 62
     7
370
    25
100
AcDbCircle
 10
4.8843514015
 20
6.8299174217
 30
0.0
 40
0.8611811023622044
100
AcDbArc
 50
239.5992880898
 51
246.0868378591
  0
ARC
  5
19A
330
1F
100
AcDbEntity
  8
0
  6
Continuous
 62
     7
370
    25
100
AcDbCircle
 10
4.1217190873
 20
6.3066379155
 30
0.0
 40
0.3937007874015753
100
AcDbArc
 50
291.6224952927
 51
326.1156275406
  0
ARC
  5
19B
330
1F
100
AcDbEntity
  8
0
  6
Continuous
 62
     7
370
    25
100
AcDbCircle
 10
4.8843514015
 20
6.8299174217
 30
0.0
 40
1.082677165354331
100
AcDbArc
 50
232.4641610447
 51
235.2219649041
  0
ARC
  5
19C
330
1F
100
AcDbEntity
  8
0
  6
Continuous
 62
     7
370
    25
100
AcDbCircle
 10
4.6174941645
 20
5.9443573146
 30
0.0
 40
0.3937007874015752
100
AcDbArc
 50
141.5704984083
 51
176.0636306562
  0
ARC
  5
19D
330
1F
100
AcDbEntity
  8
0
  6
Continuous
 62
     7
370
    25
100
AcDbCircle
 10
4.8843514015
 20
6.8299174217
 30
0.0
 40
0.8611811023622042
100
AcDbArc
 50
221.5992880898
 51
228.0868378591
  0
ARC
  5
19E
330
1F
100
AcDbEntity
  8
0
  6
Continuous
 62
     7
370
    25
100
AcDbCircle
 10
3.9973427093
 20
6.567915383
 30
0.0
 40
0.3937007874015755
100
AcDbArc
 50
273.6224952927
 51
308.1156275406
  0
ARC
  5
19F
330
1F
100
AcDbEntity
  8
0
  6
Continuous
 62
     7
370
    25
100
AcDbCircle
 10
4.8843514015
 20
6.8299174217
 30
0.0
 40
1.082677165354331
100
AcDbArc
 50
214.4641610447
 51
217.2219649041
  0
ARC
  5
1A0
330
1F
100
AcDbEntity
  8
0
  6
Continuous
 62
     7
370
    25
100
AcDbCircle
 10
4.3569019647
 20
6.0701631325
 30
0.0
 40
0.3937007874015753
100
AcDbArc
 50
123.5704984083
 51
158.0636306562
  0
ARC
  5
1A1
330
1F
100
AcDbEntity
  8
0
  6
Continuous
 62
     7
370
    25
100
AcDbCircle
 10
4.8843514015
 20
6.8299174217
 30
0.0
 40
0.8611811023622048
100
AcDbArc
 50
203.5992880898
 51
210.0868378591
  0
ARC
  5
1A2
330
1F
100
AcDbEntity
  8
0
  6
Continuous
 62
     7
370
    25
100
AcDbCircle
 10
3.9597929222
 20
6.8548394355
 30
0.0
 40
0.393700787401576
100
AcDbArc
 50
255.6224952927
 51
290.1156275406
  0
ARC
  5
1A3
330
1F
100
AcDbEntity
  8
0
  6
Continuous
 62
     7
370
    25
100
AcDbCircle
 10
4.8843514015
 20
6.8299174217
 30
0.0
 40
1.082677165354331
100
AcDbArc
 50
196.4641610447
 51
199.2219649041
  0
ARC
  5
1A4
330
1F
100
AcDbEntity
  8
0
  6
Continuous
 62
     7
370
    25
100
AcDbCircle
 10
4.1479401907
 20
6.2703389938
 30
0.0
 40
0.3937007874015752
100
AcDbArc
 50
105.5704984083
 51
140.0636306562
  0
ARC
  5
1A5
330
1F
100
AcDbEntity
  8
0
  6
Continuous
 62
     7
370
    25
100
AcDbCircle
 10
4.8843514015
 20
6.8299174217
 30
0.0
 40
0.8611811023622052
100
AcDbArc
 50
185.5992880898
 51
192.0868378591
  0
ARC
  5
1A6
330
1F
100
AcDbEntity
  8
0
  6
Continuous
 62
     7
370
    25
100
AcDbCircle
 10
4.0127453609
 20
7.1393239477
 30
0.0
 40
0.3937007874015749
100
AcDbArc
 50
237.6224952927
 51
272.1156275406
  0
ARC
  5
1A7
330
1F
100
AcDbEntity
  8
0
  6
Continuous
 62
     7
370
    25
100
AcDbCircle
 10
4.8843514015
 20
6.8299174217
 30
0.0
 40
1.082677165354331
100
AcDbArc
 50
178.4641610447
 51
181.2219649041
  0
ARC
  5
1A8
330
1F
100
AcDbEntity
  8
0
  6
Continuous
 62
     7
370
    25
100
AcDbCircle
 10
4.0110634769
 20
6.5252902905
 30
0.0
 40
0.3937007874015751
100
AcDbArc
 50
87.5704984083
 51
122.0636306562
  0
ARC
  5
1A9
330
1F
100
AcDbEntity
  8
0
  6
Continuous
 62
     7
370
    25
100
AcDbCircle
 10
4.8843514015
 20
6.8299174217
 30
0.0
 40
0.8611811023622052
100
AcDbArc
 50
167.5992880898
 51
174.0868378591
  0
ARC
  5
1AA
330
1F
100
AcDbEntity
  8
0
  6
Continuous
 62
     7
370
    25
100
AcDbCircle
 10
4.1510166717
 20
7.3935215934
 30
0.0
 40
0.3937007874015755
100
AcDbArc
 50
219.6224952927
 51
254.1156275406
  0
ARC
  5
1AB
330
1F
100
AcDbEntity
  8
0
  6
Continuous
 62
     7
370
    25
100
AcDbCircle
 10
4.8843514015
 20
6.8299174217
 30
0.0
 40
1.082677165354331
100
AcDbArc
 50
160.4641610447
 51
163.2219649041
  0
ARC
  5
1AC
330
1F
100
AcDbEntity
  8
0
  6
Continuous
 62
     7
370
    25
100
AcDbCircle
 10
3.9596702697
 20
6.8100606132
 30
0.0
 40
0.3937007874015754
100
AcDbArc
 50
69.5704984083
 51
104.0636306562
  0
ARC
  5
1AD
330
1F
100
AcDbEntity
  8
0
  6
Continuous
 62
     7
370
    25
100
AcDbCircle
 10
4.8843514015
 20
6.8299174217
 30
0.0
 40
0.8611811023622046
100
AcDbArc
 50
149.5992880898
 51
156.0868378591
  0
ARC
  5
1AE
330
1F
100
AcDbEntity
  8
0
  6
Continuous
 62
     7
370
    25
100
AcDbCircle
 10
4.3610718952
 20
7.5925497358
 30
0.0
 40
0.3937007874015748
100
AcDbArc
 50
201.6224952927
 51
236.1156275406
  0
ARC
  5
1AF
330
1F
100
AcDbEntity
  8
0
  6
Continuous
 62
     7
370
    25
100
AcDbCircle
 10
4.8843514015
 20
6.8299174217
 30
0.0
 40
1.082677165354331
100
AcDbArc
 50
142.4641610447
 51
145.2219649041
  0
ARC
  5
1B0
330
1F
100
AcDbEntity
  8
0
  6
Continuous
 62
     7
370
    25
100
AcDbCircle
 10
3.9987912943
 20
7.0967746586
 30
0.0
 40
0.3937007874015745
100
AcDbArc
 50
51.5704984083
 51
86.0636306562
  0
ARC
  5
1B1
330
1F
100
AcDbEntity
  8
0
  6
Continuous
 62
     7
370
    25
100
AcDbCircle
 10
4.8843514015
 20
6.8299174217
 30
0.0
 40
0.861181102362205
100
AcDbArc
 50
131.5992880898
 51
138.0868378591
  0
ARC
  5
1B2
330
1F
100
AcDbEntity
  8
0
  6
Continuous
 62
     7
370
    25
100
AcDbCircle
 10
4.6223493628
 20
7.7169261138
 30
0.0
 40
0.3937007874015754
100
AcDbArc
 50
183.6224952927
 51
218.1156275406
  0
ARC
  5
1B3
330
1F
100
AcDbEntity
  8
0
  6
Continuous
 62
     7
370
    25
100
AcDbCircle
 10
4.8843514015
 20
6.8299174217
 30
0.0
 40
1.082677165354331
100
AcDbArc
 50
124.4641610447
 51
127.2219649041
  0
ARC
  5
1B4
330
1F
100
AcDbEntity
  8
0
  6
Continuous
 62
     7
370
    25
100
AcDbCircle
 10
4.1245971123
 20
7.3573668585
 30
0.0
 40
0.3937007874015748
100
AcDbArc
 50
33.5704984083
 51
68.0636306562
  0
ARC
  5
1B5
330
1F
100
AcDbEntity
  8
0
  6
Continuous
 62
     7
370
    25
100
AcDbCircle
 10
4.8843514015
 20
6.8299174217
 30
0.0
 40
0.8611811023622047
100
AcDbArc
 50
113.5992880898
 51
120.0868378591
  0
ARC
  5
1B6
330
1F
100
AcDbEntity
  8
0
  6
Continuous
 62
     7
370
    25
100
AcDbCircle
 10
4.9092734153
 20
7.7544759009
 30
0.0
 40
0.3937007874015747
100
AcDbArc
 50
165.6224952927
 51
200.1156275406
  0
ARC
  5
1B7
330
1F
100
AcDbEntity
  8
0
  6
Continuous
 62
     7
370
    25
100
AcDbCircle
 10
4.8843514015
 20
6.8299174217
 30
0.0
 40
1.082677165354331
100
AcDbArc
 50
106.4641610447
 51
109.2219649041
  0
ARC
  5
1B8
330
1F
100
AcDbEntity
  8
0
  6
Continuous
 62
     7
370
    25
100
AcDbCircle
 10
4.3247729736
 20
7.5663286324
 30
0.0
 40
0.3937007874015756
100
AcDbArc
 50
15.5704984083
 51
50.0636306562
  0
ARC
  5
1B9
330
1F
100
AcDbEntity
  8
0
  6
Continuous
 62
     7
370
    25
100
AcDbCircle
 10
4.8843514015
 20
6.8299174217
 30
0.0
 40
0.8611811023622051
100
AcDbArc
 50
95.5992880898
 51
102.0868378591
  0
ARC
  5
1BA
330
1F
100
AcDbEntity
  8
0
  6
Continuous
 62
     7
370
    25
100
AcDbCircle
 10
5.1937579275
 20
7.7015234622
 30
0.0
 40
0.3937007874015745
100
AcDbArc
 50
147.6224952927
 51
182.1156275406
  0
ARC
  5
1BB
330
1F
100
AcDbEntity
  8
0
  6
Continuous
 62
     7
370
    25
100
AcDbCircle
 10
4.8843514015
 20
6.8299174217
 30
0.0
 40
1.082677165354331
100
AcDbArc
 50
88.4641610447
 51
91.2219649041
  0
ARC
  5
1BC
330
1F
100
AcDbEntity
  8
0
  6
Continuous
 62
     7
370
    25
100
AcDbCircle
 10
4.5797242703
 20
7.7032053462
 30
0.0
 40
0.3937007874015747
100
AcDbArc
 50
357.5704984083
 51
32.0636306562
  0
ARC
  5
1BD
330
1F
100
AcDbEntity
  8
0
  6
Continuous
 62
     7
370
    25
100
AcDbCircle
 10
4.8843514015
 20
6.8299174217
 30
0.0
 40
0.8611811023622052
100
AcDbArc
 50
77.5992880898
 51
84.0868378591
  0
ARC
  5
1BE
330
1F
100
AcDbEntity
  8
0
  6
Continuous
 62
     7
370
    25
100
AcDbCircle
 10
5.4479555732
 20
7.5632521514
 30
0.0
 40
0.3937007874015748
100
AcDbArc
 50
129.6224952927
 51
164.1156275406
  0
ARC
  5
1BF
330
1F
100
AcDbEntity
  8
0
  6
Continuous
 62
     7
370
    25
100
AcDbCircle
 10
4.8843514015
 20
6.8299174217
 30
0.0
 40
1.082677165354331
100
AcDbArc
 50
70.4641610447
 51
73.2219649041
  0
ARC
  5
1C0
330
1F
100
AcDbEntity
  8
0
  6
Continuous
 62
     7
370
    25
100
AcDbCircle
 10
4.864494593
 20
7.7545985534
 30
0.0
 40
0.3937007874015752
100
AcDbArc
 50
339.5704984083
 51
14.0636306562
  0
ARC
  5
1C1
330
1F
100
AcDbEntity
  8
0
  6
Continuous
 62
     7
370
    25
100
AcDbCircle
 10
4.8843514015
 20
6.8299174217
 30
0.0
 40
0.8611811023622055
100
AcDbArc
 50
59.5992880898
 51
66.0868378591
  0
ARC
  5
1C2
330
1F
100
AcDbEntity
  8
0
  6
Continuous
 62
     7
370
    25
100
AcDbCircle
 10
5.6469837156
 20
7.3531969279
 30
0.0
 40
0.3937007874015745
100
AcDbArc
 50
111.6224952927
 51
146.1156275406
  0
ARC
  5
1C3
330
1F
100
AcDbEntity
  8
0
  6
Continuous
 62
     7
370
    25
100
AcDbCircle
 10
4.8843514015
 20
6.8299174217
 30
0.0
 40
1.082677165354332
100
AcDbArc
 50
52.4641610447
 51
55.2219649041
  0
ARC
  5
1C4
330
1F
100
AcDbEntity
  8
0
  6
Continuous
 62
     7
370
    25
100
AcDbCircle
 10
5.1512086384
 20
7.7154775288
 30
0.0
 40
0.3937007874015754
100
AcDbArc
 50
321.5704984083
 51
356.0636306562
  0
ARC
  5
1C5
330
1F
100
AcDbEntity
  8
0
  6
Continuous
 62
     7
370
    25
100
AcDbCircle
 10
4.8843514015
 20
6.8299174217
 30
0.0
 40
0.8611811023622052
100
AcDbArc
 50
41.5992880898
 51
48.0868378591
  0
ARC
  5
1C6
330
1F
100
AcDbEntity
  8
0
  6
Continuous
 62
     7
370
    25
100
AcDbCircle
 10
5.7713600936
 20
7.0919194604
 30
0.0
 40
0.3937007874015754
100
AcDbArc
 50
93.6224952927
 51
128.1156275406
  0
ARC
  5
1C7
330
1F
100
AcDbEntity
  8
0
  6
Continuous
 62
     7
370
    25
100
AcDbCircle
 10
4.8843514015
 20
6.8299174217
 30
0.0
 40
1.082677165354331
100
AcDbArc
 50
34.4641610447
 51
37.2219649041
  0
ARC
  5
1C8
330
1F
100
AcDbEntity
  8
0
  6
Continuous
 62
     7
370
    25
100
AcDbCircle
 10
5.4118008382
 20
7.5896717108
 30
0.0
 40
0.3937007874015753
100
AcDbArc
 50
303.5704984083
 51
338.0636306562
  0
ARC
  5
1C9
330
1F
100
AcDbEntity
  8
0
  6
Continuous
 62
     7
370
    25
100
AcDbCircle
 10
4.8843514015
 20
6.8299174217
 30
0.0
 40
0.861181102362205
100
AcDbArc
 50
23.5992880898
 51
30.0868378591
  0
ARC
  5
1CA
330
1F
100
AcDbEntity
  8
0
  6
Continuous
 62
     7
370
    25
100
AcDbCircle
 10
5.8089098807
 20
6.8049954078
 30
0.0
 40
0.3937007874015752
100
AcDbArc
 50
75.6224952927
 51
110.1156275406
  0
ARC
  5
1CB
330
1F
100
AcDbEntity
  8
0
  6
Continuous
 62
     7
370
    25
100
AcDbCircle
 10
4.8843514015
 20
6.8299174217
 30
0.0
 40
1.082677165354331
100
AcDbArc
 50
16.4641610447
 51
19.2219649041
  0
ARC
  5
1CC
330
1F
100
AcDbEntity
  8
0
  6
Continuous
 62
     7
370
    25
100
AcDbCircle
 10
5.6207626122
 20
7.3894958495
 30
0.0
 40
0.3937007874015759
100
AcDbArc
 50
285.5704984083
 51
320.0636306562
  0
ARC
  5
1CD
330
1F
100
AcDbEntity
  8
0
  6
Continuous
 62
     7
370
    25
100
AcDbCircle
 10
4.8843514015
 20
6.8299174217
 30
0.0
 40
0.8611811023622041
100
AcDbArc
 50
5.5992880898
 51
12.0868378591
  0
ARC
  5
1CE
330
1F
100
AcDbEntity
  8
0
  6
Continuous
 62
     7
370
    25
100
AcDbCircle
 10
5.755957442
 20
6.5205108956
 30
0.0
 40
0.3937007874015752
100
AcDbArc
 50
57.6224952927
 51
92.1156275406
  0
ARC
  5
1CF
330
1F
100
AcDbEntity
  8
0
  6
Continuous
 62
     7
370
    25
100
AcDbCircle
 10
4.8843514015
 20
6.8299174217
 30
0.0
 40
1.082677165354331
100
AcDbArc
 50
358.4641610447
 51
1.2219649041
  0
ARC
  5
1D0
330
1F
100
AcDbEntity
  8
0
  6
Continuous
 62
     7
370
    25
100
AcDbCircle
 10
5.757639326
 20
7.1345445529
 30
0.0
 40
0.3937007874015763
100
AcDbArc
 50
267.5704984083
 51
302.0636306562
  0
ARC
  5
1D1
330
1F
100
AcDbEntity
  8
0
  6
Continuous
 62
     7
370
    25
100
AcDbCircle
 10
4.8843514015
 20
6.8299174217
 30
0.0
 40
0.8611811023622046
100
AcDbArc
 50
347.5992880898
 51
354.0868378591
  0
ARC
  5
1D2
330
1F
100
AcDbEntity
  8
0
  6
Continuous
 62
     7
370
    25
100
AcDbCircle
 10
5.6176861312
 20
6.26631325
 30
0.0
 40
0.3937007874015756
100
AcDbArc
 50
39.6224952927
 51
74.1156275406
  0
ARC
  5
1D3
330
1F
100
AcDbEntity
  8
0
  6
Continuous
 62
     7
370
    25
100
AcDbCircle
 10
4.8843514015
 20
6.8299174217
 30
0.0
 40
1.082677165354331
100
AcDbArc
 50
340.4641610447
 51
343.2219649041
  0
ARC
  5
1D4
330
1F
100
AcDbEntity
  8
0
  6
Continuous
 62
     7
370
    25
100
AcDbCircle
 10
5.8090325332
 20
6.8497742302
 30
0.0
 40
0.3937007874015752
100
AcDbArc
 50
249.5704984083
 51
284.0636306562
  0
ARC
  5
1D5
330
1F
100
AcDbEntity
  8
0
  6
Continuous
 62
     7
370
    25
100
AcDbCircle
 10
4.8843514015
 20
6.8299174217
 30
0.0
 40
0.8611811023622048
100
AcDbArc
 50
329.5992880898
 51
336.0868378591
  0
ARC
  5
1D6
330
1F
100
AcDbEntity
  8
0
  6
Continuous
 62
     7
370
    25
100
AcDbCircle
 10
5.4076309077
 20
6.0672851075
 30
0.0
 40
0.393700787401575
100
AcDbArc
 50
21.6224952927
 51
56.1156275406
  0
ARC
  5
1D7
330
1F
100
AcDbEntity
  8
0
  6
Continuous
 62
     7
370
    25
100
AcDbCircle
 10
4.8843514015
 20
6.8299174217
 30
0.0
 40
1.082677165354331
100
AcDbArc
 50
322.4641610447
 51
325.2219649041
  0
ARC
  5
1D8
330
1F
100
AcDbEntity
  8
0
  6
Continuous
 62
     7
370
    25
100
AcDbCircle
 10
5.7699115086
 20
6.5630601847
 30
0.0
 40
0.393700787401575
100
AcDbArc
 50
231.5704984083
 51
266.0636306562
  0
ARC
  5
1D9
330
1F
100
AcDbEntity
  8
0
  6
Continuous
 62
     7
370
    25
100
AcDbCircle
 10
4.8843514015
 20
6.8299174217
 30
0.0
 40
0.8611811023622047
100
AcDbArc
 50
311.5992880898
 51
318.0868378591
  0
ARC
  5
1DA
330
1F
100
AcDbEntity
  8
0
  6
Continuous
 62
     7
370
    25
100
AcDbCircle
 10
5.1463534401
 20
5.9429087295
 30
0.0
 40
0.3937007874015742
100
AcDbArc
 50
3.6224952927
 51
38.1156275406
  0
ARC
  5
1DB
330
1F
100
AcDbEntity
  8
0
  6
Continuous
 62
     7
370
    25
100
AcDbCircle
 10
4.8843514015
 20
6.8299174217
 30
0.0
 40
1.08267716535433
100
AcDbArc
 50
304.4641610447
 51
307.2219649041
  0
ARC
  5
1DC
330
1F
100
AcDbEntity
  8
0
  6
Continuous
 62
     7
370
    25
100
AcDbCircle
 10
5.6441056906
 20
6.3024679849
 30
0.0
 40
0.3937007874015765
100
AcDbArc
 50
213.5704984083
 51
248.0636306562
  0
ARC
  5
1DD
330
1F
100
AcDbEntity
  8
0
  6
Continuous
 62
     7
370
    25
100
AcDbCircle
 10
4.8843514015
 20
6.8299174217
 30
0.0
 40
0.8611811023622047
100
AcDbArc
 50
293.5992880898
 51
300.0868378591
  0
ARC
  5
1DE
330
1F
100
AcDbEntity
  8
0
  6
Continuous
 62
     7
370
    25
100
AcDbCircle
 10
4.8594293876
 20
5.9053589425
 30
0.0
 40
0.3937007874015754
100
AcDbArc
 50
345.6224952927
 51
20.1156275406
  0
ARC
  5
1DF
330
1F
100
AcDbEntity
  8
0
  6
Continuous
 62
     7
370
    25
100
AcDbCircle
 10
4.8843514015
 20
6.8299174217
 30
0.0
 40
1.08267716535433
100
AcDbArc
 50
286.4641610447
 51
289.2219649041
  0
ARC
  5
1E0
330
1F
100
AcDbEntity
  8
0
  6
Continuous
 62
     7
370
    25
100
AcDbCircle
 10
5.4439298293
 20
6.0935062109
 30
0.0
 40
0.3937007874015754
100
AcDbArc
 50
195.5704984083
 51
230.0636306562
  0
ARC
  5
1E1
330
1F
100
AcDbEntity
  8
0
  6
Continuous
 62
     7
370
    25
100
AcDbCircle
 10
4.8843514015
 20
6.8299174217
 30
0.0
 40
0.8611811023622038
100
AcDbArc
 50
275.5992880898
 51
282.0868378591
  0
ARC
  5
1E2
330
1F
100
AcDbEntity
  8
0
  6
Continuous
 62
     7
370
    25
100
AcDbCircle
 10
6.1506812459
 20
5.6355766345
 30
0.0
 40
0.393700787401575
100
AcDbArc
 50
90.0
 51
180.0
  0
LINE
  5
1E3
330
1F
100
AcDbEntity
  8
0
  6
Continuous
 62
     7
370
    25
100
AcDbLine
 10
7.7254843369
 20
6.0292774806
 30
0.0
 11
6.1506812225
 21
6.0292774806
 31
0.0
  0
LINE
  5
1E4
330
1F
100
AcDbEntity
  8
0
  6
Continuous
 62
     7
370
    25
100
AcDbLine
 10
7.6073741546
 20
8.0962066966
 30
0.0
 11
7.7254843369
 21
8.0962066966
 31
0.0
  0
ARC
  5
1E5
330
1F
100
AcDbEntity
  8
0
  6
Continuous
 62
     7
370
    25
100
AcDbCircle
 10
7.6073741593
 20
8.2930569495
 30
0.0
 40
0.1968503937007888
100
AcDbArc
 50
90.0
 51
270.0
  0
ARC
  5
1E6
330
1F
100
AcDbEntity
  8
0
  6
Continuous
 62
     7
370
    25
100
AcDbCircle
 10
15.7176103798
 20
8.2930569495
 30
0.0
 40
0.1968503937007888
100
AcDbArc
 50
270.0
 51
90.0
  0
LINE
  5
1E7
330
1F
100
AcDbEntity
  8
0
  6
Continuous
 62
     7
370
    25
100
AcDbLine
 10
15.7176103845
 20
8.0962066966
 30
0.0
 11
15.5995002022
 21
8.0962066966
 31
0.0
  0
LINE
  5
1E8
330
1F
100
AcDbEntity
  8
0
  6
Continuous
 62
     7
370
    25
100
AcDbLine
 10
15.5995002022
 20
1.0095922417
 30
0.0
 11
15.7176103845
 21
1.0095922417
 31
0.0
  0
ARC
  5
1E9
330
1F
100
AcDbEntity
  8
0
  6
Continuous
 62
     7
370
    25
100
AcDbCircle
 10
15.7176103798
 20
0.8127419888
 30
0.0
 40
0.1968503937007876
100
AcDbArc
 50
270.0
 51
90.0
  0
ARC
  5
1EA
330
1F
100
AcDbEntity
  8
0
  6
Continuous
 62
     7
370
    25
100
AcDbCircle
 10
7.6073741593
 20
0.8127419888
 30
0.0
 40
0.1968503937007876
100
AcDbArc
 50
90.0
 51
270.0
  0
LINE
  5
1EB
330
1F
100
AcDbEntity
  8
0
  6
Continuous
 62
     7
370
    25
100
AcDbLine
 10
7.7254843369
 20
1.0095922417
 30
0.0
 11
7.6073741546
 21
1.0095922417
 31
0.0
  0
LINE
  5
1EC
330
1F
100
AcDbEntity
  8
0
  6
Continuous
 62
     7
370
    25
100
AcDbLine
 10
6.1506812225
 20
3.0765214577
 30
0.0
 11
7.7254843369
 21
3.0765214577
 31
0.0
  0
ARC
  5
1ED
330
1F
100
AcDbEntity
  8
0
  6
Continuous
 62
     7
370
    25
100
AcDbCircle
 10
6.1506812459
 20
3.4702223038
 30
0.0
 40
0.393700787401575
100
AcDbArc
 50
180.0
 51
270.0
  0
LINE
  5
1EE
330
1F
100
AcDbEntity
  8
0
  6
Continuous
 62
     7
370
    25
100
AcDbLine
 10
5.7569802239
 20
5.6355766286
 30
0.0
 11
5.7569802239
 21
3.4702223097
 31
0.0
  0
CIRCLE
  5
1EF
330
1F
100
AcDbEntity
  8
0
  6
Continuous
 62
     7
370
    25
100
AcDbCircle
 10
7.6073741593
 20
0.8127419888
 30
0.0
 40
0.0625000000000009
  0
CIRCLE
  5
1F0
330
1F
100
AcDbEntity
  8
0
  6
Continuous
 62
     7
370
    25
100
AcDbCircle
 10
7.6073741593
 20
8.2930569495
 30
0.0
 40
0.0625000000000009
  0
CIRCLE
  5
1F1
330
1F
100
AcDbEntity
  8
0
  6
Continuous
 62
     7
370
    25
100
AcDbCircle
 10
15.7176103798
 20
8.2930569495
 30
0.0
 40
0.0625
  0
CIRCLE
  5
1F2
330
1F
100
AcDbEntity
  8
0
  6
Continuous
 62
     7
370
    25
100
AcDbCircle
 10
15.7176103798
 20
0.8127419888
 30
0.0
 40
0.0625
  0
CIRCLE
  5
1F3
330
1F
100
AcDbEntity
  8
0
  6
Continuous
 62
     7
370
    25
100
AcDbCircle
 10
11.2774922695
 20
4.5528994691
 30
0.0
 40
0.0719999999999992
  0
CIRCLE
  5
1F4
330
1F
100
AcDbEntity
  8
0
  6
Continuous
 62
     7
370
    25
100
AcDbCircle
 10
11.6624922695
 20
4.9378994691
 30
0.0
 40
0.0719999999999992
  0
CIRCLE
  5
1F5
330
1F
100
AcDbEntity
  8
0
  6
Continuous
 62
     7
370
    25
100
AcDbCircle
 10
12.0474922695
 20
4.5528994691
 30
0.0
 40
0.072000000000001
  0
CIRCLE
  5
1F6
330
1F
100
AcDbEntity
  8
0
  6
Continuous
 62
     7
370
    25
100
AcDbCircle
 10
11.6624922695
 20
4.1678994691
 30
0.0
 40
0.072000000000001
  0
LINE
  5
1F7
330
1F
100
AcDbEntity
  8
0
  6
Continuous
 62
     7
370
    25
100
AcDbLine
 10
8.4597364147
 20
3.0449754355
 30
0.0
 11
8.4597364147
 21
3.63552664
 31
0.0
  0
LINE
  5
1F8
330
1F
100
AcDbEntity
  8
0
  6
Continuous
 62
     7
370
    25
100
AcDbLine
 10
8.7097362467
 20
3.0449754355
 30
0.0
 11
8.4597364147
 21
3.0449754355
 31
0.0
  0
LINE
  5
1F9
330
1F
100
AcDbEntity
  8
0
  6
Continuous
 62
     7
370
    25
100
AcDbLine
 10
8.7097362467
 20
3.63552664
 30
0.0
 11
8.7097362467
 21
3.0449754355
 31
0.0
  0
LINE
  5
1FA
330
1F
100
AcDbEntity
  8
0
  6
Continuous
 62
     7
370
    25
100
AcDbLine
 10
8.4597364147
 20
3.63552664
 30
0.0
 11
8.7097362467
 21
3.63552664
 31
0.0
  0
LINE
  5
1FB
330
1F
100
AcDbEntity
  8
0
  6
Continuous
 62
     7
370
    25
100
AcDbLine
 10
8.4597364147
 20
4.2576238852
 30
0.0
 11
8.4597364147
 21
4.8481750531
 31
0.0
  0
LINE
  5
1FC
330
1F
100
AcDbEntity
  8
0
  6
Continuous
 62
     7
370
    25
100
AcDbLine
 10
8.7097362467
 20
4.2576238852
 30
0.0
 11
8.4597364147
 21
4.2576238852
 31
0.0
  0
LINE
  5
1FD
330
1F
100
AcDbEntity
  8
0
  6
Continuous
 62
     7
370
    25
100
AcDbLine
 10
8.7097362467
 20
4.8481750531
 30
0.0
 11
8.7097362467
 21
4.2576238852
 31
0.0
  0
LINE
  5
1FE
330
1F
100
AcDbEntity
  8
0
  6
Continuous
 62
     7
370
    25
100
AcDbLine
 10
8.4597364147
 20
4.8481750531
 30
0.0
 11
8.7097362467
 21
4.8481750531
 31
0.0
  0
LINE
  5
1FF
330
1F
100
AcDbEntity
  8
0
  6
Continuous
 62
     7
370
    25
100
AcDbLine
 10
8.4597364147
 20
5.4702722982
 30
0.0
 11
8.4597364147
 21
6.0608235028
 31
0.0
  0
LINE
  5
200
330
1F
100
AcDbEntity
  8
0
  6
Continuous
 62
     7
370
    25
100
AcDbLine
 10
8.7097362467
 20
5.4702722982
 30
0.0
 11
8.4597364147
 21
5.4702722982
 31
0.0
  0
LINE
  5
201
330
1F
100
AcDbEntity
  8
0
  6
Continuous
 62
     7
370
    25
100
AcDbLine
 10
8.7097362467
 20
6.0608235028
 30
0.0
 11
8.7097362467
 21
5.4702722982
 31
0.0
  0
LINE
  5
202
330
1F
100
AcDbEntity
  8
0
  6
Continuous
 62
     7
370
    25
100
AcDbLine
 10
8.4597364147
 20
6.0608235028
 30
0.0
 11
8.7097362467
 21
6.0608235028
 31
0.0
  0
LINE
  5
203
330
1F
100
AcDbEntity
  8
0
  6
Continuous
 62
     7
370
    25
100
AcDbLine
 10
9.2666461732
 20
2.2379179853
 30
0.0
 11
8.755213828
 21
2.533193441
 31
0.0
  0
LINE
  5
204
330
1F
100
AcDbEntity
  8
0
  6
Continuous
 62
     7
370
    25
100
AcDbLine
 10
9.3916460892
 20
2.4544242309
 30
0.0
 11
9.2666461732
 21
2.2379179853
 31
0.0
  0
LINE
  5
205
330
1F
100
AcDbEntity
  8
0
  6
Continuous
 62
     7
370
    25
100
AcDbLine
 10
8.880213744
 20
2.7496998332
 30
0.0
 11
9.3916460892
 21
2.4544242309
 31
0.0
  0
LINE
  5
206
330
1F
100
AcDbEntity
  8
0
  6
Continuous
 62
     7
370
    25
100
AcDbLine
 10
8.755213828
 20
2.533193441
 30
0.0
 11
8.880213744
 21
2.7496998332
 31
0.0
  0
LINE
  5
207
330
1F
100
AcDbEntity
  8
0
  6
Continuous
 62
     7
370
    25
100
AcDbLine
 10
10.3168304414
 20
1.6315936963
 30
0.0
 11
9.8053980962
 21
1.9268692986
 31
0.0
  0
LINE
  5
208
330
1F
100
AcDbEntity
  8
0
  6
Continuous
 62
     7
370
    25
100
AcDbLine
 10
10.4418305041
 20
1.8480999419
 30
0.0
 11
10.3168304414
 21
1.6315936963
 31
0.0
  0
LINE
  5
209
330
1F
100
AcDbEntity
  8
0
  6
Continuous
 62
     7
370
    25
100
AcDbLine
 10
9.9303981588
 20
2.1433756908
 30
0.0
 11
10.4418305041
 21
1.8480999419
 31
0.0
  0
LINE
  5
20A
330
1F
100
AcDbEntity
  8
0
  6
Continuous
 62
     7
370
    25
100
AcDbLine
 10
9.8053980962
 20
1.9268692986
 30
0.0
 11
9.9303981588
 21
2.1433756908
 31
0.0
  0
LINE
  5
20B
330
1F
100
AcDbEntity
  8
0
  6
Continuous
 62
     7
370
    25
100
AcDbLine
 10
11.3670148196
 20
1.025269554
 30
0.0
 11
10.855582511
 21
1.3205451562
 31
0.0
  0
LINE
  5
20C
330
1F
100
AcDbEntity
  8
0
  6
Continuous
 62
     7
370
    25
100
AcDbLine
 10
11.4920148273
 20
1.2417757995
 30
0.0
 11
11.3670148196
 21
1.025269554
 31
0.0
  0
LINE
  5
20D
330
1F
100
AcDbEntity
  8
0
  6
Continuous
 62
     7
370
    25
100
AcDbLine
 10
10.9805825004
 20
1.5370514018
 30
0.0
 11
11.4920148273
 21
1.2417757995
 31
0.0
  0
LINE
  5
20E
330
1F
100
AcDbEntity
  8
0
  6
Continuous
 62
     7
370
    25
100
AcDbLine
 10
10.855582511
 20
1.3205451562
 30
0.0
 11
10.9805825004
 21
1.5370514018
 31
0.0
  0
LINE
  5
20F
330
1F
100
AcDbEntity
  8
0
  6
Continuous
 62
     7
370
    25
100
AcDbLine
 10
12.4694020281
 20
1.3205451562
 30
0.0
 11
11.9579697195
 21
1.025269554
 31
0.0
  0
LINE
  5
210
330
1F
100
AcDbEntity
  8
0
  6
Continuous
 62
     7
370
    25
100
AcDbLine
 10
12.3444020387
 20
1.5370514018
 30
0.0
 11
12.4694020281
 21
1.3205451562
 31
0.0
  0
LINE
  5
211
330
1F
100
AcDbEntity
  8
0
  6
Continuous
 62
     7
370
    25
100
AcDbLine
 10
11.8329697118
 20
1.2417757995
 30
0.0
 11
12.3444020387
 21
1.5370514018
 31
0.0
  0
LINE
  5
212
330
1F
100
AcDbEntity
  8
0
  6
Continuous
 62
     7
370
    25
100
AcDbLine
 10
11.9579697195
 20
1.025269554
 30
0.0
 11
11.8329697118
 21
1.2417757995
 31
0.0
  0
LINE
  5
213
330
1F
100
AcDbEntity
  8
0
  6
Continuous
 62
     7
370
    25
100
AcDbLine
 10
13.5195864429
 20
1.9268692986
 30
0.0
 11
13.0081540977
 21
1.6315936963
 31
0.0
  0
LINE
  5
214
330
1F
100
AcDbEntity
  8
0
  6
Continuous
 62
     7
370
    25
100
AcDbLine
 10
13.3945863802
 20
2.1433756908
 30
0.0
 11
13.5195864429
 21
1.9268692986
 31
0.0
  0
LINE
  5
215
330
1F
100
AcDbEntity
  8
0
  6
Continuous
 62
     7
370
    25
100
AcDbLine
 10
12.883154035
 20
1.8480999419
 30
0.0
 11
13.3945863802
 21
2.1433756908
 31
0.0
  0
LINE
  5
216
330
1F
100
AcDbEntity
  8
0
  6
Continuous
 62
     7
370
    25
100
AcDbLine
 10
13.0081540977
 20
1.6315936963
 30
0.0
 11
12.883154035
 21
1.8480999419
 31
0.0
  0
LINE
  5
217
330
1F
100
AcDbEntity
  8
0
  6
Continuous
 62
     7
370
    25
100
AcDbLine
 10
14.5697707111
 20
2.533193441
 30
0.0
 11
14.0583383659
 21
2.2379179853
 31
0.0
  0
LINE
  5
218
330
1F
100
AcDbEntity
  8
0
  6
Continuous
 62
     7
370
    25
100
AcDbLine
 10
14.4447707951
 20
2.7496998332
 30
0.0
 11
14.5697707111
 21
2.533193441
 31
0.0
  0
LINE
  5
219
330
1F
100
AcDbEntity
  8
0
  6
Continuous
 62
     7
370
    25
100
AcDbLine
 10
13.9333384499
 20
2.4544242309
 30
0.0
 11
14.4447707951
 21
2.7496998332
 31
0.0
  0
LINE
  5
21A
330
1F
100
AcDbEntity
  8
0
  6
Continuous
 62
     7
370
    25
100
AcDbLine
 10
14.0583383659
 20
2.2379179853
 30
0.0
 11
13.9333384499
 21
2.4544242309
 31
0.0
  0
LINE
  5
21B
330
1F
100
AcDbEntity
  8
0
  6
Continuous
 62
     7
370
    25
100
AcDbLine
 10
14.8652481244
 20
3.63552664
 30
0.0
 11
14.8652481244
 21
3.0449754355
 31
0.0
  0
LINE
  5
21C
330
1F
100
AcDbEntity
  8
0
  6
Continuous
 62
     7
370
    25
100
AcDbLine
 10
14.6152482924
 20
3.63552664
 30
0.0
 11
14.8652481244
 21
3.63552664
 31
0.0
  0
LINE
  5
21D
330
1F
100
AcDbEntity
  8
0
  6
Continuous
 62
     7
370
    25
100
AcDbLine
 10
14.6152482924
 20
3.0449754355
 30
0.0
 11
14.6152482924
 21
3.63552664
 31
0.0
  0
LINE
  5
21E
330
1F
100
AcDbEntity
  8
0
  6
Continuous
 62
     7
370
    25
100
AcDbLine
 10
14.8652481244
 20
3.0449754355
 30
0.0
 11
14.6152482924
 21
3.0449754355
 31
0.0
  0
LINE
  5
21F
330
1F
100
AcDbEntity
  8
0
  6
Continuous
 62
     7
370
    25
100
AcDbLine
 10
14.8652481244
 20
4.8481750531
 30
0.0
 11
14.8652481244
 21
4.2576238852
 31
0.0
  0
LINE
  5
220
330
1F
100
AcDbEntity
  8
0
  6
Continuous
 62
     7
370
    25
100
AcDbLine
 10
14.6152482924
 20
4.8481750531
 30
0.0
 11
14.8652481244
 21
4.8481750531
 31
0.0
  0
LINE
  5
221
330
1F
100
AcDbEntity
  8
0
  6
Continuous
 62
     7
370
    25
100
AcDbLine
 10
14.6152482924
 20
4.2576238852
 30
0.0
 11
14.6152482924
 21
4.8481750531
 31
0.0
  0
LINE
  5
222
330
1F
100
AcDbEntity
  8
0
  6
Continuous
 62
     7
370
    25
100
AcDbLine
 10
14.8652481244
 20
4.2576238852
 30
0.0
 11
14.6152482924
 21
4.2576238852
 31
0.0
  0
LINE
  5
223
330
1F
100
AcDbEntity
  8
0
  6
Continuous
 62
     7
370
    25
100
AcDbLine
 10
14.8652481244
 20
6.0608235028
 30
0.0
 11
14.8652481244
 21
5.4702722982
 31
0.0
  0
LINE
  5
224
330
1F
100
AcDbEntity
  8
0
  6
Continuous
 62
     7
370
    25
100
AcDbLine
 10
14.6152482924
 20
6.0608235028
 30
0.0
 11
14.8652481244
 21
6.0608235028
 31
0.0
  0
LINE
  5
225
330
1F
100
AcDbEntity
  8
0
  6
Continuous
 62
     7
370
    25
100
AcDbLine
 10
14.6152482924
 20
5.4702722982
 30
0.0
 11
14.6152482924
 21
6.0608235028
 31
0.0
  0
LINE
  5
226
330
1F
100
AcDbEntity
  8
0
  6
Continuous
 62
     7
370
    25
100
AcDbLine
 10
14.8652481244
 20
5.4702722982
 30
0.0
 11
14.6152482924
 21
5.4702722982
 31
0.0
  0
LINE
  5
227
330
1F
100
AcDbEntity
  8
0
  6
Continuous
 62
     7
370
    25
100
AcDbLine
 10
14.0583383659
 20
6.8678809529
 30
0.0
 11
14.5697707111
 21
6.5726054973
 31
0.0
  0
LINE
  5
228
330
1F
100
AcDbEntity
  8
0
  6
Continuous
 62
     7
370
    25
100
AcDbLine
 10
13.9333384499
 20
6.6513747074
 30
0.0
 11
14.0583383659
 21
6.8678809529
 31
0.0
  0
LINE
  5
229
330
1F
100
AcDbEntity
  8
0
  6
Continuous
 62
     7
370
    25
100
AcDbLine
 10
14.4447707951
 20
6.3560991051
 30
0.0
 11
13.9333384499
 21
6.6513747074
 31
0.0
  0
LINE
  5
22A
330
1F
100
AcDbEntity
  8
0
  6
Continuous
 62
     7
370
    25
100
AcDbLine
 10
14.5697707111
 20
6.5726054973
 30
0.0
 11
14.4447707951
 21
6.3560991051
 31
0.0
  0
LINE
  5
22B
330
1F
100
AcDbEntity
  8
0
  6
Continuous
 62
     7
370
    25
100
AcDbLine
 10
13.0081540977
 20
7.474205242
 30
0.0
 11
13.5195864429
 21
7.1789296397
 31
0.0
  0
LINE
  5
22C
330
1F
100
AcDbEntity
  8
0
  6
Continuous
 62
     7
370
    25
100
AcDbLine
 10
12.883154035
 20
7.2576989964
 30
0.0
 11
13.0081540977
 21
7.474205242
 31
0.0
  0
LINE
  5
22D
330
1F
100
AcDbEntity
  8
0
  6
Continuous
 62
     7
370
    25
100
AcDbLine
 10
13.3945863802
 20
6.9624232474
 30
0.0
 11
12.883154035
 21
7.2576989964
 31
0.0
  0
LINE
  5
22E
330
1F
100
AcDbEntity
  8
0
  6
Continuous
 62
     7
370
    25
100
AcDbLine
 10
13.5195864429
 20
7.1789296397
 30
0.0
 11
13.3945863802
 21
6.9624232474
 31
0.0
  0
LINE
  5
22F
330
1F
100
AcDbEntity
  8
0
  6
Continuous
 62
     7
370
    25
100
AcDbLine
 10
11.9579697195
 20
8.0805293843
 30
0.0
 11
12.4694020281
 21
7.785253782
 31
0.0
  0
LINE
  5
230
330
1F
100
AcDbEntity
  8
0
  6
Continuous
 62
     7
370
    25
100
AcDbLine
 10
11.8329697118
 20
7.8640231388
 30
0.0
 11
11.9579697195
 21
8.0805293843
 31
0.0
  0
LINE
  5
231
330
1F
100
AcDbEntity
  8
0
  6
Continuous
 62
     7
370
    25
100
AcDbLine
 10
12.3444020387
 20
7.5687475365
 30
0.0
 11
11.8329697118
 21
7.8640231388
 31
0.0
  0
LINE
  5
232
330
1F
100
AcDbEntity
  8
0
  6
Continuous
 62
     7
370
    25
100
AcDbLine
 10
12.4694020281
 20
7.785253782
 30
0.0
 11
12.3444020387
 21
7.5687475365
 31
0.0
  0
LINE
  5
233
330
1F
100
AcDbEntity
  8
0
  6
Continuous
 62
     7
370
    25
100
AcDbLine
 10
10.855582511
 20
7.785253782
 30
0.0
 11
11.3670148196
 21
8.0805293843
 31
0.0
  0
LINE
  5
234
330
1F
100
AcDbEntity
  8
0
  6
Continuous
 62
     7
370
    25
100
AcDbLine
 10
10.9805825004
 20
7.5687475365
 30
0.0
 11
10.855582511
 21
7.785253782
 31
0.0
  0
LINE
  5
235
330
1F
100
AcDbEntity
  8
0
  6
Continuous
 62
     7
370
    25
100
AcDbLine
 10
11.4920148273
 20
7.8640231388
 30
0.0
 11
10.9805825004
 21
7.5687475365
 31
0.0
  0
LINE
  5
236
330
1F
100
AcDbEntity
  8
0
  6
Continuous
 62
     7
370
    25
100
AcDbLine
 10
11.3670148196
 20
8.0805293843
 30
0.0
 11
11.4920148273
 21
7.8640231388
 31
0.0
  0
LINE
  5
237
330
1F
100
AcDbEntity
  8
0
  6
Continuous
 62
     7
370
    25
100
AcDbLine
 10
9.8053980962
 20
7.1789296397
 30
0.0
 11
10.3168304414
 21
7.474205242
 31
0.0
  0
LINE
  5
238
330
1F
100
AcDbEntity
  8
0
  6
Continuous
 62
     7
370
    25
100
AcDbLine
 10
9.9303981588
 20
6.9624232474
 30
0.0
 11
9.8053980962
 21
7.1789296397
 31
0.0
  0
LINE
  5
239
330
1F
100
AcDbEntity
  8
0
  6
Continuous
 62
     7
370
    25
100
AcDbLine
 10
10.4418305041
 20
7.2576989964
 30
0.0
 11
9.9303981588
 21
6.9624232474
 31
0.0
  0
LINE
  5
23A
330
1F
100
AcDbEntity
  8
0
  6
Continuous
 62
     7
370
    25
100
AcDbLine
 10
10.3168304414
 20
7.474205242
 30
0.0
 11
10.4418305041
 21
7.2576989964
 31
0.0
  0
LINE
  5
23B
330
1F
100
AcDbEntity
  8
0
  6
Continuous
 62
     7
370
    25
100
AcDbLine
 10
8.755213828
 20
6.5726054973
 30
0.0
 11
9.2666461732
 21
6.8678809529
 31
0.0
  0
LINE
  5
23C
330
1F
100
AcDbEntity
  8
0
  6
Continuous
 62
     7
370
    25
100
AcDbLine
 10
8.880213744
 20
6.3560991051
 30
0.0
 11
8.755213828
 21
6.5726054973
 31
0.0
  0
LINE
  5
23D
330
1F
100
AcDbEntity
  8
0
  6
Continuous
 62
     7
370
    25
100
AcDbLine
 10
9.3916460892
 20
6.6513747074
 30
0.0
 11
8.880213744
 21
6.3560991051
 31
0.0
  0
LINE
  5
23E
330
1F
100
AcDbEntity
  8
0
  6
Continuous
 62
     7
370
    25
100
AcDbLine
 10
9.2666461732
 20
6.8678809529
 30
0.0
 11
9.3916460892
 21
6.6513747074
 31
0.0
  0
LINE
  5
23F
330
1F
100
AcDbEntity
  8
0
  6
Continuous
 62
     7
370
    25
100
AcDbLine
 10
6.1417340725
 20
3.6342642946
 30
0.0
 11
6.5354350711
 21
3.6342642946
 31
0.0
  0
ARC
  5
240
330
1F
100
AcDbEntity
  8
0
  6
Continuous
 62
     7
370
    25
100
AcDbCircle
 10
6.535435071
 20
3.7064427762
 30
0.0
 40
0.0721784776902874
100
AcDbArc
 50
270.0
 51
90.0
  0
LINE
  5
241
330
1F
100
AcDbEntity
  8
0
  6
Continuous
 62
     7
370
    25
100
AcDbLine
 10
6.5354350711
 20
3.7786212737
 30
0.0
 11
6.1417340725
 21
3.7786212737
 31
0.0
  0
ARC
  5
242
330
1F
100
AcDbEntity
  8
0
  6
Continuous
 62
     7
370
    25
100
AcDbCircle
 10
6.1417342836
 20
3.7064427762
 30
0.0
 40
0.0721784776902874
100
AcDbArc
 50
90.0
 51
270.0
  0
LINE
  5
243
330
1F
100
AcDbEntity
  8
0
  6
Continuous
 62
     7
370
    25
100
AcDbLine
 10
7.5196869809
 20
3.6342642946
 30
0.0
 11
7.9133876862
 21
3.6342642946
 31
0.0
  0
ARC
  5
244
330
1F
100
AcDbEntity
  8
0
  6
Continuous
 62
     7
370
    25
100
AcDbCircle
 10
7.9133878269
 20
3.7064427762
 30
0.0
 40
0.0721784776902874
100
AcDbArc
 50
270.0
 51
90.0
  0
LINE
  5
245
330
1F
100
AcDbEntity
  8
0
  6
Continuous
 62
     7
370
    25
100
AcDbLine
 10
7.9133876862
 20
3.7786212737
 30
0.0
 11
7.5196869809
 21
3.7786212737
 31
0.0
  0
ARC
  5
246
330
1F
100
AcDbEntity
  8
0
  6
Continuous
 62
     7
370
    25
100
AcDbCircle
 10
7.5196870395
 20
3.7064427762
 30
0.0
 40
0.0721784776902874
100
AcDbArc
 50
90.0
 51
270.0
  0
LINE
  5
247
330
1F
100
AcDbEntity
  8
0
  6
Continuous
 62
     7
370
    25
100
AcDbLine
 10
9.575878121
 20
5.3934506524
 30
0.0
 11
9.575878121
 21
5.143450637
 31
0.0
  0
LINE
  5
248
330
1F
100
AcDbEntity
  8
0
  6
Continuous
 62
     7
370
    25
100
AcDbLine
 10
8.9853267697
 20
5.3934506524
 30
0.0
 11
9.575878121
 21
5.3934506524
 31
0.0
  0
LINE
  5
249
330
1F
100
AcDbEntity
  8
0
  6
Continuous
 62
     7
370
    25
100
AcDbLine
 10
8.9853267697
 20
5.143450637
 30
0.0
 11
8.9853267697
 21
5.3934506524
 31
0.0
  0
LINE
  5
24A
330
1F
100
AcDbEntity
  8
0
  6
Continuous
 62
     7
370
    25
100
AcDbLine
 10
9.575878121
 20
5.143450637
 30
0.0
 11
8.9853267697
 21
5.143450637
 31
0.0
  0
LINE
  5
24B
330
1F
100
AcDbEntity
  8
0
  6
Continuous
 62
     7
370
    25
100
AcDbLine
 10
9.575878121
 20
3.9623483012
 30
0.0
 11
9.575878121
 21
3.7123482859
 31
0.0
  0
LINE
  5
24C
330
1F
100
AcDbEntity
  8
0
  6
Continuous
 62
     7
370
    25
100
AcDbLine
 10
8.9853267697
 20
3.9623483012
 30
0.0
 11
9.575878121
 21
3.9623483012
 31
0.0
  0
LINE
  5
24D
330
1F
100
AcDbEntity
  8
0
  6
Continuous
 62
     7
370
    25
100
AcDbLine
 10
8.9853267697
 20
3.7123482859
 30
0.0
 11
8.9853267697
 21
3.9623483012
 31
0.0
  0
LINE
  5
24E
330
1F
100
AcDbEntity
  8
0
  6
Continuous
 62
     7
370
    25
100
AcDbLine
 10
9.575878121
 20
3.7123482859
 30
0.0
 11
8.9853267697
 21
3.7123482859
 31
0.0
  0
LINE
  5
24F
330
1F
100
AcDbEntity
  8
0
  6
Continuous
 62
     7
370
    25
100
AcDbLine
 10
11.1306175038
 20
2.4505629822
 30
0.0
 11
11.3471238594
 21
2.3255630662
 31
0.0
  0
LINE
  5
250
330
1F
100
AcDbEntity
  8
0
  6
Continuous
 62
     7
370
    25
100
AcDbLine
 10
10.8353419382
 20
1.9391307836
 30
0.0
 11
11.1306175038
 21
2.4505629822
 31
0.0
  0
LINE
  5
251
330
1F
100
AcDbEntity
  8
0
  6
Continuous
 62
     7
370
    25
100
AcDbLine
 10
11.0518482571
 20
1.8141305743
 30
0.0
 11
10.8353419382
 21
1.9391307836
 31
0.0
  0
LINE
  5
252
330
1F
100
AcDbEntity
  8
0
  6
Continuous
 62
     7
370
    25
100
AcDbLine
 10
11.3471238594
 20
2.3255630662
 30
0.0
 11
11.0518482571
 21
1.8141305743
 31
0.0
  0
LINE
  5
253
330
1F
100
AcDbEntity
  8
0
  6
Continuous
 62
     7
370
    25
100
AcDbLine
 10
11.3471238594
 20
6.7802358721
 30
0.0
 11
11.1306175038
 21
6.6552359561
 31
0.0
  0
LINE
  5
254
330
1F
100
AcDbEntity
  8
0
  6
Continuous
 62
     7
370
    25
100
AcDbLine
 10
11.0518482571
 20
7.291668364
 30
0.0
 11
11.3471238594
 21
6.7802358721
 31
0.0
  0
LINE
  5
255
330
1F
100
AcDbEntity
  8
0
  6
Continuous
 62
     7
370
    25
100
AcDbLine
 10
10.8353419382
 20
7.1666681547
 30
0.0
 11
11.0518482571
 21
7.291668364
 31
0.0
  0
LINE
  5
256
330
1F
100
AcDbEntity
  8
0
  6
Continuous
 62
     7
370
    25
100
AcDbLine
 10
11.1306175038
 20
6.6552359561
 30
0.0
 11
10.8353419382
 21
7.1666681547
 31
0.0
  0
LINE
  5
257
330
1F
100
AcDbEntity
  8
0
  6
Continuous
 62
     7
370
    25
100
AcDbLine
 10
13.7491064181
 20
5.143450637
 30
0.0
 11
13.7491064181
 21
5.3934506524
 31
0.0
  0
LINE
  5
258
330
1F
100
AcDbEntity
  8
0
  6
Continuous
 62
     7
370
    25
100
AcDbLine
 10
14.3396577694
 20
5.143450637
 30
0.0
 11
13.7491064181
 21
5.143450637
 31
0.0
  0
LINE
  5
259
330
1F
100
AcDbEntity
  8
0
  6
Continuous
 62
     7
370
    25
100
AcDbLine
 10
14.3396577694
 20
5.3934506524
 30
0.0
 11
14.3396577694
 21
5.143450637
 31
0.0
  0
LINE
  5
25A
330
1F
100
AcDbEntity
  8
0
  6
Continuous
 62
     7
370
    25
100
AcDbLine
 10
13.7491064181
 20
5.3934506524
 30
0.0
 11
14.3396577694
 21
5.3934506524
 31
0.0
  0
LINE
  5
25B
330
1F
100
AcDbEntity
  8
0
  6
Continuous
 62
     7
370
    25
100
AcDbLine
 10
11.9778606797
 20
2.3255630662
 30
0.0
 11
12.1943670353
 21
2.4505629822
 31
0.0
  0
LINE
  5
25C
330
1F
100
AcDbEntity
  8
0
  6
Continuous
 62
     7
370
    25
100
AcDbLine
 10
12.273136282
 20
1.8141305743
 30
0.0
 11
11.9778606797
 21
2.3255630662
 31
0.0
  0
LINE
  5
25D
330
1F
100
AcDbEntity
  8
0
  6
Continuous
 62
     7
370
    25
100
AcDbLine
 10
12.4896426009
 20
1.9391307836
 30
0.0
 11
12.273136282
 21
1.8141305743
 31
0.0
  0
LINE
  5
25E
330
1F
100
AcDbEntity
  8
0
  6
Continuous
 62
     7
370
    25
100
AcDbLine
 10
12.1943670353
 20
2.4505629822
 30
0.0
 11
12.4896426009
 21
1.9391307836
 31
0.0
  0
LINE
  5
25F
330
1F
100
AcDbEntity
  8
0
  6
Continuous
 62
     7
370
    25
100
AcDbLine
 10
13.2172316157
 20
3.0411141867
 30
0.0
 11
13.433738008
 21
3.1661142494
 31
0.0
  0
LINE
  5
260
330
1F
100
AcDbEntity
  8
0
  6
Continuous
 62
     7
370
    25
100
AcDbLine
 10
13.512507218
 20
2.5296818415
 30
0.0
 11
13.2172316157
 21
3.0411141867
 31
0.0
  0
LINE
  5
261
330
1F
100
AcDbEntity
  8
0
  6
Continuous
 62
     7
370
    25
100
AcDbLine
 10
13.7290136103
 20
2.6546819042
 30
0.0
 11
13.512507218
 21
2.5296818415
 31
0.0
  0
LINE
  5
262
330
1F
100
AcDbEntity
  8
0
  6
Continuous
 62
     7
370
    25
100
AcDbLine
 10
13.433738008
 20
3.1661142494
 30
0.0
 11
13.7290136103
 21
2.6546819042
 31
0.0
  0
LINE
  5
263
330
1F
100
AcDbEntity
  8
0
  6
Continuous
 62
     7
370
    25
100
AcDbLine
 10
9.8912465311
 20
3.1661142494
 30
0.0
 11
10.1077529234
 21
3.0411141867
 31
0.0
  0
LINE
  5
264
330
1F
100
AcDbEntity
  8
0
  6
Continuous
 62
     7
370
    25
100
AcDbLine
 10
9.5959709288
 20
2.6546819042
 30
0.0
 11
9.8912465311
 21
3.1661142494
 31
0.0
  0
LINE
  5
265
330
1F
100
AcDbEntity
  8
0
  6
Continuous
 62
     7
370
    25
100
AcDbLine
 10
9.8124773211
 20
2.5296818415
 30
0.0
 11
9.5959709288
 21
2.6546819042
 31
0.0
  0
LINE
  5
266
330
1F
100
AcDbEntity
  8
0
  6
Continuous
 62
     7
370
    25
100
AcDbLine
 10
10.1077529234
 20
3.0411141867
 30
0.0
 11
9.8124773211
 21
2.5296818415
 31
0.0
  0
LINE
  5
267
330
1F
100
AcDbEntity
  8
0
  6
Continuous
 62
     7
370
    25
100
AcDbLine
 10
10.1077529234
 20
6.0646847515
 30
0.0
 11
9.8912465311
 21
5.9396846889
 31
0.0
  0
LINE
  5
268
330
1F
100
AcDbEntity
  8
0
  6
Continuous
 62
     7
370
    25
100
AcDbLine
 10
9.8124773211
 20
6.5761170968
 30
0.0
 11
10.1077529234
 21
6.0646847515
 31
0.0
  0
LINE
  5
269
330
1F
100
AcDbEntity
  8
0
  6
Continuous
 62
     7
370
    25
100
AcDbLine
 10
9.5959709288
 20
6.4511170341
 30
0.0
 11
9.8124773211
 21
6.5761170968
 31
0.0
  0
LINE
  5
26A
330
1F
100
AcDbEntity
  8
0
  6
Continuous
 62
     7
370
    25
100
AcDbLine
 10
9.8912465311
 20
5.9396846889
 30
0.0
 11
9.5959709288
 21
6.4511170341
 31
0.0
  0
LINE
  5
26B
330
1F
100
AcDbEntity
  8
0
  6
Continuous
 62
     7
370
    25
100
AcDbLine
 10
13.433738008
 20
5.9396846889
 30
0.0
 11
13.2172316157
 21
6.0646847515
 31
0.0
  0
LINE
  5
26C
330
1F
100
AcDbEntity
  8
0
  6
Continuous
 62
     7
370
    25
100
AcDbLine
 10
13.7290136103
 20
6.4511170341
 30
0.0
 11
13.433738008
 21
5.9396846889
 31
0.0
  0
LINE
  5
26D
330
1F
100
AcDbEntity
  8
0
  6
Continuous
 62
     7
370
    25
100
AcDbLine
 10
13.512507218
 20
6.5761170968
 30
0.0
 11
13.7290136103
 21
6.4511170341
 31
0.0
  0
LINE
  5
26E
330
1F
100
AcDbEntity
  8
0
  6
Continuous
 62
     7
370
    25
100
AcDbLine
 10
13.2172316157
 20
6.0646847515
 30
0.0
 11
13.512507218
 21
6.5761170968
 31
0.0
  0
LINE
  5
26F
330
1F
100
AcDbEntity
  8
0
  6
Continuous
 62
     7
370
    25
100
AcDbLine
 10
12.1943670353
 20
6.6552359561
 30
0.0
 11
11.9778606797
 21
6.7802358721
 31
0.0
  0
LINE
  5
270
330
1F
100
AcDbEntity
  8
0
  6
Continuous
 62
     7
370
    25
100
AcDbLine
 10
12.4896426009
 20
7.1666681547
 30
0.0
 11
12.1943670353
 21
6.6552359561
 31
0.0
  0
LINE
  5
271
330
1F
100
AcDbEntity
  8
0
  6
Continuous
 62
     7
370
    25
100
AcDbLine
 10
12.273136282
 20
7.291668364
 30
0.0
 11
12.4896426009
 21
7.1666681547
 31
0.0
  0
LINE
  5
272
330
1F
100
AcDbEntity
  8
0
  6
Continuous
 62
     7
370
    25
100
AcDbLine
 10
11.9778606797
 20
6.7802358721
 30
0.0
 11
12.273136282
 21
7.291668364
 31
0.0
  0
LINE
  5
273
330
1F
100
AcDbEntity
  8
0
  6
Continuous
 62
     7
370
    25
100
AcDbLine
 10
13.7491064181
 20
3.7123482859
 30
0.0
 11
13.7491064181
 21
3.9623483012
 31
0.0
  0
LINE
  5
274
330
1F
100
AcDbEntity
  8
0
  6
Continuous
 62
     7
370
    25
100
AcDbLine
 10
14.3396577694
 20
3.7123482859
 30
0.0
 11
13.7491064181
 21
3.7123482859
 31
0.0
  0
LINE
  5
275
330
1F
100
AcDbEntity
  8
0
  6
Continuous
 62
     7
370
    25
100
AcDbLine
 10
14.3396577694
 20
3.9623483012
 30
0.0
 11
14.3396577694
 21
3.7123482859
 31
0.0
  0
LINE
  5
276
330
1F
100
AcDbEntity
  8
0
  6
Continuous
 62
     7
370
    25
100
AcDbLine
 10
13.7491064181
 20
3.9623483012
 30
0.0
 11
14.3396577694
 21
3.9623483012
 31
0.0
  0
LINE
  5
277
330
1F
100
AcDbEntity
  8
0
  6
Continuous
 62
     7
370
    25
100
AcDbLine
 10
7.7254843369
 20
8.0962066966
 30
0.0
 11
7.7254843369
 21
6.0292774806
 31
0.0
  0
LINE
  5
278
330
1F
100
AcDbEntity
  8
0
  6
Continuous
 62
     7
370
    25
100
AcDbLine
 10
15.7176103845
 20
8.4899074018
 30
0.0
 11
7.6073741546
 21
8.4899074018
 31
0.0
  0
LINE
  5
279
330
1F
100
AcDbEntity
  8
0
  6
Continuous
 62
     7
370
    25
100
AcDbLine
 10
7.6073741546
 20
0.6158915365
 30
0.0
 11
15.7176103845
 21
0.6158915365
 31
0.0
  0
LINE
  5
27A
330
1F
100
AcDbEntity
  8
0
  6
Continuous
 62
     7
370
    25
100
AcDbLine
 10
15.5995002022
 20
1.0095922417
 30
0.0
 11
15.5995002022
 21
8.0962066966
 31
0.0
  0
LINE
  5
27B
330
1F
100
AcDbEntity
  8
0
  6
Continuous
 62
     7
370
    25
100
AcDbLine
 10
7.7254843369
 20
3.0765214577
 30
0.0
 11
7.7254843369
 21
1.0095922417
 31
0.0
  0
ARC
  5
27C
330
1F
100
AcDbEntity
  8
0
  6
Continuous
 62
     7
370
    25
100
AcDbCircle
 10
6.1417342836
 20
5.3993561621
 30
0.0
 40
0.0721784776902874
100
AcDbArc
 50
90.0
 51
270.0
  0
LINE
  5
27D
330
1F
100
AcDbEntity
  8
0
  6
Continuous
 62
     7
370
    25
100
AcDbLine
 10
6.5354350711
 20
5.4715346437
 30
0.0
 11
6.1417340725
 21
5.4715346437
 31
0.0
  0
ARC
  5
27E
330
1F
100
AcDbEntity
  8
0
  6
Continuous
 62
     7
370
    25
100
AcDbCircle
 10
6.535435071
 20
5.3993561621
 30
0.0
 40
0.0721784776902874
100
AcDbArc
 50
270.0
 51
90.0
  0
LINE
  5
27F
330
1F
100
AcDbEntity
  8
0
  6
Continuous
 62
     7
370
    25
100
AcDbLine
 10
6.1417340725
 20
5.3271776646
 30
0.0
 11
6.5354350711
 21
5.3271776646
 31
0.0
  0
ARC
  5
280
330
1F
100
AcDbEntity
  8
0
  6
Continuous
 62
     7
370
    25
100
AcDbCircle
 10
7.5196870395
 20
5.3993561621
 30
0.0
 40
0.0721784776902874
100
AcDbArc
 50
90.0
 51
270.0
  0
LINE
  5
281
330
1F
100
AcDbEntity
  8
0
  6
Continuous
 62
     7
370
    25
100
AcDbLine
 10
7.9133876862
 20
5.4715346437
 30
0.0
 11
7.5196869809
 21
5.4715346437
 31
0.0
  0
ARC
  5
282
330
1F
100
AcDbEntity
  8
0
  6
Continuous
 62
     7
370
    25
100
AcDbCircle
 10
7.9133878269
 20
5.3993561621
 30
0.0
 40
0.0721784776902874
100
AcDbArc
 50
270.0
 51
90.0
  0
LINE
  5
283
330
1F
100
AcDbEntity
  8
0
  6
Continuous
 62
     7
370
    25
100
AcDbLine
 10
7.5196869809
 20
5.3271776646
 30
0.0
 11
7.9133876862
 21
5.3271776646
 31
0.0
  0
LINE
  5
284
330
1F
100
AcDbEntity
  8
0
  6
Continuous
 62
     7
370
    25
100
AcDbLine
 10
21.3562408251
 20
10.8714951097
 30
0.0
 11
21.6062408038
 21
10.8714951097
 31
0.0
  0
LINE
  5
285
330
1F
100
AcDbEntity
  8
0
  6
Continuous
 62
     7
370
    25
100
AcDbLine
 10
21.6062408038
 20
9.6903932873
 30
0.0
 11
21.3562408251
 21
9.6903932873
 31
0.0
  0
LINE
  5
286
330
1F
100
AcDbEntity
  8
0
  6
Continuous
 62
     7
370
    25
100
AcDbLine
 10
21.3562408251
 20
9.6903932873
 30
0.0
 11
21.3562408251
 21
8.9029918767
 31
0.0
  0
LINE
  5
287
330
1F
100
AcDbEntity
  8
0
  6
Continuous
 62
     7
370
    25
100
AcDbLine
 10
21.3562408251
 20
8.9029918767
 30
0.0
 11
21.6062408038
 21
8.9029918767
 31
0.0
  0
LINE
  5
288
330
1F
100
AcDbEntity
  8
0
  6
Continuous
 62
     7
370
    25
100
AcDbLine
 10
22.5545675686
 20
0.1884248098
 30
0.0
 11
22.5545675686
 21
0.4384248068
 31
0.0
  0
LINE
  5
289
330
1F
100
AcDbEntity
  8
0
  6
Continuous
 62
     7
370
    25
100
AcDbLine
 10
22.5545675686
 20
0.1884248098
 30
0.0
 11
21.5703156588
 21
0.1884248098
 31
0.0
  0
LINE
  5
28A
330
1F
100
AcDbEntity
  8
0
  6
Continuous
 62
     7
370
    25
100
AcDbLine
 10
21.5703156588
 20
0.1884248098
 30
0.0
 11
21.5703156588
 21
0.4384248068
 31
0.0
  0
LINE
  5
28B
330
1F
100
AcDbEntity
  8
0
  6
Continuous
 62
     7
370
    25
100
AcDbLine
 10
20.9438392451
 20
0.4384248068
 30
0.0
 11
20.9438392451
 21
3.5880310356
 31
0.0
  0
LINE
  5
28C
330
1F
100
AcDbEntity
  8
0
  6
Continuous
 62
     7
370
    25
100
AcDbLine
 10
20.9438392451
 20
3.5880310356
 30
0.0
 11
20.6938392481
 21
3.5880310356
 31
0.0
  0
LINE
  5
28D
330
1F
100
AcDbEntity
  8
0
  6
Continuous
 62
     7
370
    25
100
AcDbLine
 10
20.6938392481
 20
3.5880310356
 30
0.0
 11
20.6938392481
 21
0.4384248068
 31
0.0
  0
LINE
  5
28E
330
1F
100
AcDbEntity
  8
0
  6
Continuous
 62
     7
370
    25
100
AcDbLine
 10
20.0673628344
 20
0.1884248098
 30
0.0
 11
20.0673628344
 21
0.4384248068
 31
0.0
  0
LINE
  5
28F
330
1F
100
AcDbEntity
  8
0
  6
Continuous
 62
     7
370
    25
100
AcDbLine
 10
20.0673628344
 20
0.1884248098
 30
0.0
 11
19.0831109245
 21
0.1884248098
 31
0.0
  0
LINE
  5
290
330
1F
100
AcDbEntity
  8
0
  6
Continuous
 62
     7
370
    25
100
AcDbLine
 10
19.0831109245
 20
0.1884248098
 30
0.0
 11
19.0831109245
 21
0.4384248068
 31
0.0
  0
LINE
  5
291
330
1F
100
AcDbEntity
  8
0
  6
Continuous
 62
     7
370
    25
100
AcDbLine
 10
20.0314376894
 20
8.9029918767
 30
0.0
 11
20.281437668
 21
8.9029918767
 31
0.0
  0
LINE
  5
292
330
1F
100
AcDbEntity
  8
0
  6
Continuous
 62
     7
370
    25
100
AcDbLine
 10
20.281437668
 20
8.9029918767
 30
0.0
 11
20.281437668
 21
9.6903932873
 31
0.0
  0
LINE
  5
293
330
1F
100
AcDbEntity
  8
0
  6
Continuous
 62
     7
370
    25
100
AcDbLine
 10
20.281437668
 20
9.6903932873
 30
0.0
 11
20.0314376894
 21
9.6903932873
 31
0.0
  0
LINE
  5
294
330
1F
100
AcDbEntity
  8
0
  6
Continuous
 62
     7
370
    25
100
AcDbLine
 10
20.0314376894
 20
10.8714951097
 30
0.0
 11
20.281437668
 21
10.8714951097
 31
0.0
  0
LINE
  5
295
330
1F
100
AcDbEntity
  8
0
  6
Continuous
 62
     7
370
    25
100
AcDbLine
 10
20.281437668
 20
10.8714951097
 30
0.0
 11
20.281437668
 21
11.6588971069
 31
0.0
  0
LINE
  5
296
330
1F
100
AcDbEntity
  8
0
  6
Continuous
 62
     7
370
    25
100
AcDbLine
 10
20.281437668
 20
11.6588971069
 30
0.0
 11
20.0314376894
 21
11.6588971069
 31
0.0
  0
LINE
  5
297
330
1F
100
AcDbEntity
  8
0
  6
Continuous
 62
     7
370
    25
100
AcDbLine
 10
21.6062408038
 20
11.6588971069
 30
0.0
 11
21.3562408251
 21
11.6588971069
 31
0.0
  0
LINE
  5
298
330
1F
100
AcDbEntity
  8
0
  6
Continuous
 62
     7
370
    25
100
AcDbLine
 10
21.3562408251
 20
11.6588971069
 30
0.0
 11
21.3562408251
 21
10.8714951097
 31
0.0
  0
LINE
  5
299
330
1F
100
AcDbEntity
  8
0
  6
Continuous
 62
     7
370
    25
100
AcDbLine
 10
21.6062408038
 20
12.2494488982
 30
0.0
 11
20.0314376894
 21
12.2494488982
 31
0.0
  0
LINE
  5
29A
330
1F
100
AcDbEntity
  8
0
  6
Continuous
 62
     7
370
    25
100
AcDbLine
 10
21.6062408038
 20
3.5880310356
 30
0.0
 11
21.6062408038
 21
8.9029918767
 31
0.0
  0
LINE
  5
29B
330
1F
100
AcDbEntity
  8
0
  6
Continuous
 62
     7
370
    25
100
AcDbLine
 10
21.8562408558
 20
3.5880310356
 30
0.0
 11
21.6062408038
 21
3.5880310356
 31
0.0
  0
LINE
  5
29C
330
1F
100
AcDbEntity
  8
0
  6
Continuous
 62
     7
370
    25
100
AcDbLine
 10
23.1810439182
 20
0.4384248068
 30
0.0
 11
21.8562408558
 21
3.5880310356
 31
0.0
  0
LINE
  5
29D
330
1F
100
AcDbEntity
  8
0
  6
Continuous
 62
     7
370
    25
100
AcDbLine
 10
19.7814376374
 20
3.5880310356
 30
0.0
 11
18.456634575
 21
0.4384248068
 31
0.0
  0
LINE
  5
29E
330
1F
100
AcDbEntity
  8
0
  6
Continuous
 62
     7
370
    25
100
AcDbLine
 10
20.0314376894
 20
3.5880310356
 30
0.0
 11
19.7814376374
 21
3.5880310356
 31
0.0
  0
LINE
  5
29F
330
1F
100
AcDbEntity
  8
0
  6
Continuous
 62
     7
370
    25
100
AcDbLine
 10
20.0314376894
 20
8.9029918767
 30
0.0
 11
20.0314376894
 21
3.5880310356
 31
0.0
  0
LINE
  5
2A0
330
1F
100
AcDbEntity
  8
0
  6
Continuous
 62
     7
370
    25
100
AcDbLine
 10
21.6062408038
 20
9.6903932873
 30
0.0
 11
21.6062408038
 21
10.8714951097
 31
0.0
  0
LINE
  5
2A1
330
1F
100
AcDbEntity
  8
0
  6
Continuous
 62
     7
370
    25
100
AcDbLine
 10
21.6062408038
 20
11.6588971069
 30
0.0
 11
21.6062408038
 21
12.2494488982
 31
0.0
  0
LINE
  5
2A2
330
1F
100
AcDbEntity
  8
0
  6
Continuous
 62
     7
370
    25
100
AcDbLine
 10
20.0314376894
 20
10.8714951097
 30
0.0
 11
20.0314376894
 21
9.6903932873
 31
0.0
  0
LINE
  5
2A3
330
1F
100
AcDbEntity
  8
0
  6
Continuous
 62
     7
370
    25
100
AcDbLine
 10
20.0314376894
 20
12.2494488982
 30
0.0
 11
20.0314376894
 21
11.6588971069
 31
0.0
  0
LINE
  5
2A4
330
1F
100
AcDbEntity
  8
0
  6
Continuous
 62
     7
370
    25
100
AcDbLine
 10
18.456634575
 20
0.4384248068
 30
0.0
 11
19.0831109245
 21
0.4384248068
 31
0.0
  0
LINE
  5
2A5
330
1F
100
AcDbEntity
  8
0
  6
Continuous
 62
     7
370
    25
100
AcDbLine
 10
20.0673628344
 20
0.4384248068
 30
0.0
 11
20.6938392481
 21
0.4384248068
 31
0.0
  0
LINE
  5
2A6
330
1F
100
AcDbEntity
  8
0
  6
Continuous
 62
     7
370
    25
100
AcDbLine
 10
22.5545675686
 20
0.4384248068
 30
0.0
 11
23.1810439182
 21
0.4384248068
 31
0.0
  0
LINE
  5
2A7
330
1F
100
AcDbEntity
  8
0
  6
Continuous
 62
     7
370
    25
100
AcDbLine
 10
20.9438392451
 20
0.4384248068
 30
0.0
 11
21.5703156588
 21
0.4384248068
 31
0.0
  0
LINE
  5
2A8
330
1F
100
AcDbEntity
  8
0
  6
Continuous
 62
     7
370
    25
100
AcDbLine
 10
9.1517746762
 20
10.5406114073
 30
0.0
 11
9.1517746762
 21
10.7906113859
 31
0.0
  0
LINE
  5
2A9
330
1F
100
AcDbEntity
  8
0
  6
Continuous
 62
     7
370
    25
100
AcDbLine
 10
10.3328764987
 20
10.7906113859
 30
0.0
 11
10.3328764987
 21
10.5406114073
 31
0.0
  0
LINE
  5
2AA
330
1F
100
AcDbEntity
  8
0
  6
Continuous
 62
     7
370
    25
100
AcDbLine
 10
10.3328764987
 20
10.5406114073
 30
0.0
 11
11.1202779092
 21
10.5406114073
 31
0.0
  0
LINE
  5
2AB
330
1F
100
AcDbEntity
  8
0
  6
Continuous
 62
     7
370
    25
100
AcDbLine
 10
11.1202779092
 20
10.5406114073
 30
0.0
 11
11.1202779092
 21
10.7906113859
 31
0.0
  0
LINE
  5
2AC
330
1F
100
AcDbEntity
  8
0
  6
Continuous
 62
     7
370
    25
100
AcDbLine
 10
19.8348449761
 20
11.7389381508
 30
0.0
 11
19.5848449791
 21
11.7389381508
 31
0.0
  0
LINE
  5
2AD
330
1F
100
AcDbEntity
  8
0
  6
Continuous
 62
     7
370
    25
100
AcDbLine
 10
19.8348449761
 20
11.7389381508
 30
0.0
 11
19.8348449761
 21
10.7546862409
 31
0.0
  0
LINE
  5
2AE
330
1F
100
AcDbEntity
  8
0
  6
Continuous
 62
     7
370
    25
100
AcDbLine
 10
19.8348449761
 20
10.7546862409
 30
0.0
 11
19.5848449791
 21
10.7546862409
 31
0.0
  0
LINE
  5
2AF
330
1F
100
AcDbEntity
  8
0
  6
Continuous
 62
     7
370
    25
100
AcDbLine
 10
19.5848449791
 20
10.1282098272
 30
0.0
 11
16.4352387503
 21
10.1282098272
 31
0.0
  0
LINE
  5
2B0
330
1F
100
AcDbEntity
  8
0
  6
Continuous
 62
     7
370
    25
100
AcDbLine
 10
16.4352387503
 20
10.1282098272
 30
0.0
 11
16.4352387503
 21
9.8782098302
 31
0.0
  0
LINE
  5
2B1
330
1F
100
AcDbEntity
  8
0
  6
Continuous
 62
     7
370
    25
100
AcDbLine
 10
16.4352387503
 20
9.8782098302
 30
0.0
 11
19.5848449791
 21
9.8782098302
 31
0.0
  0
LINE
  5
2B2
330
1F
100
AcDbEntity
  8
0
  6
Continuous
 62
     7
370
    25
100
AcDbLine
 10
19.8348449761
 20
9.2517334165
 30
0.0
 11
19.5848449791
 21
9.2517334165
 31
0.0
  0
LINE
  5
2B3
330
1F
100
AcDbEntity
  8
0
  6
Continuous
 62
     7
370
    25
100
AcDbLine
 10
19.8348449761
 20
9.2517334165
 30
0.0
 11
19.8348449761
 21
8.2674815067
 31
0.0
  0
LINE
  5
2B4
330
1F
100
AcDbEntity
  8
0
  6
Continuous
 62
     7
370
    25
100
AcDbLine
 10
19.8348449761
 20
8.2674815067
 30
0.0
 11
19.5848449791
 21
8.2674815067
 31
0.0
  0
LINE
  5
2B5
330
1F
100
AcDbEntity
  8
0
  6
Continuous
 62
     7
370
    25
100
AcDbLine
 10
11.1202779092
 20
9.2158082715
 30
0.0
 11
11.1202779092
 21
9.4658082502
 31
0.0
  0
LINE
  5
2B6
330
1F
100
AcDbEntity
  8
0
  6
Continuous
 62
     7
370
    25
100
AcDbLine
 10
11.1202779092
 20
9.4658082502
 30
0.0
 11
10.3328764987
 21
9.4658082502
 31
0.0
  0
LINE
  5
2B7
330
1F
100
AcDbEntity
  8
0
  6
Continuous
 62
     7
370
    25
100
AcDbLine
 10
10.3328764987
 20
9.4658082502
 30
0.0
 11
10.3328764987
 21
9.2158082715
 31
0.0
  0
LINE
  5
2B8
330
1F
100
AcDbEntity
  8
0
  6
Continuous
 62
     7
370
    25
100
AcDbLine
 10
9.1517746762
 20
9.2158082715
 30
0.0
 11
9.1517746762
 21
9.4658082502
 31
0.0
  0
LINE
  5
2B9
330
1F
100
AcDbEntity
  8
0
  6
Continuous
 62
     7
370
    25
100
AcDbLine
 10
9.1517746762
 20
9.4658082502
 30
0.0
 11
8.364372679
 21
9.4658082502
 31
0.0
  0
LINE
  5
2BA
330
1F
100
AcDbEntity
  8
0
  6
Continuous
 62
     7
370
    25
100
AcDbLine
 10
8.364372679
 20
9.4658082502
 30
0.0
 11
8.364372679
 21
9.2158082715
 31
0.0
  0
LINE
  5
2BB
330
1F
100
AcDbEntity
  8
0
  6
Continuous
 62
     7
370
    25
100
AcDbLine
 10
8.364372679
 20
10.7906113859
 30
0.0
 11
8.364372679
 21
10.5406114073
 31
0.0
  0
LINE
  5
2BC
330
1F
100
AcDbEntity
  8
0
  6
Continuous
 62
     7
370
    25
100
AcDbLine
 10
8.364372679
 20
10.5406114073
 30
0.0
 11
9.1517746762
 21
10.5406114073
 31
0.0
  0
LINE
  5
2BD
330
1F
100
AcDbEntity
  8
0
  6
Continuous
 62
     7
370
    25
100
AcDbLine
 10
7.7738208878
 20
10.7906113859
 30
0.0
 11
7.7738208878
 21
9.2158082715
 31
0.0
  0
LINE
  5
2BE
330
1F
100
AcDbEntity
  8
0
  6
Continuous
 62
     7
370
    25
100
AcDbLine
 10
16.4352387503
 20
10.7906113859
 30
0.0
 11
11.1202779092
 21
10.7906113859
 31
0.0
  0
LINE
  5
2BF
330
1F
100
AcDbEntity
  8
0
  6
Continuous
 62
     7
370
    25
100
AcDbLine
 10
16.4352387503
 20
11.0406114379
 30
0.0
 11
16.4352387503
 21
10.7906113859
 31
0.0
  0
LINE
  5
2C0
330
1F
100
AcDbEntity
  8
0
  6
Continuous
 62
     7
370
    25
100
AcDbLine
 10
19.5848449791
 20
12.3654145003
 30
0.0
 11
16.4352387503
 21
11.0406114379
 31
0.0
  0
LINE
  5
2C1
330
1F
100
AcDbEntity
  8
0
  6
Continuous
 62
     7
370
    25
100
AcDbLine
 10
16.4352387503
 20
8.9658082195
 30
0.0
 11
19.5848449791
 21
7.6410051571
 31
0.0
  0
LINE
  5
2C2
330
1F
100
AcDbEntity
  8
0
  6
Continuous
 62
     7
370
    25
100
AcDbLine
 10
16.4352387503
 20
9.2158082715
 30
0.0
 11
16.4352387503
 21
8.9658082195
 31
0.0
  0
LINE
  5
2C3
330
1F
100
AcDbEntity
  8
0
  6
Continuous
 62
     7
370
    25
100
AcDbLine
 10
11.1202779092
 20
9.2158082715
 30
0.0
 11
16.4352387503
 21
9.2158082715
 31
0.0
  0
LINE
  5
2C4
330
1F
100
AcDbEntity
  8
0
  6
Continuous
 62
     7
370
    25
100
AcDbLine
 10
10.3328764987
 20
10.7906113859
 30
0.0
 11
9.1517746762
 21
10.7906113859
 31
0.0
  0
LINE
  5
2C5
330
1F
100
AcDbEntity
  8
0
  6
Continuous
 62
     7
370
    25
100
AcDbLine
 10
8.364372679
 20
10.7906113859
 30
0.0
 11
7.7738208878
 21
10.7906113859
 31
0.0
  0
LINE
  5
2C6
330
1F
100
AcDbEntity
  8
0
  6
Continuous
 62
     7
370
    25
100
AcDbLine
 10
9.1517746762
 20
9.2158082715
 30
0.0
 11
10.3328764987
 21
9.2158082715
 31
0.0
  0
LINE
  5
2C7
330
1F
100
AcDbEntity
  8
0
  6
Continuous
 62
     7
370
    25
100
AcDbLine
 10
7.7738208878
 20
9.2158082715
 30
0.0
 11
8.364372679
 21
9.2158082715
 31
0.0
  0
LINE
  5
2C8
330
1F
100
AcDbEntity
  8
0
  6
Continuous
 62
     7
370
    25
100
AcDbLine
 10
19.5848449791
 20
7.6410051571
 30
0.0
 11
19.5848449791
 21
8.2674815067
 31
0.0
  0
LINE
  5
2C9
330
1F
100
AcDbEntity
  8
0
  6
Continuous
 62
     7
370
    25
100
AcDbLine
 10
19.5848449791
 20
9.2517334165
 30
0.0
 11
19.5848449791
 21
9.8782098302
 31
0.0
  0
LINE
  5
2CA
330
1F
100
AcDbEntity
  8
0
  6
Continuous
 62
     7
370
    25
100
AcDbLine
 10
19.5848449791
 20
11.7389381508
 30
0.0
 11
19.5848449791
 21
12.3654145003
 31
0.0
  0
LINE
  5
2CB
330
1F
100
AcDbEntity
  8
0
  6
Continuous
 62
     7
370
    25
100
AcDbLine
 10
19.5848449791
 20
10.1282098272
 30
0.0
 11
19.5848449791
 21
10.7546862409
 31
0.0
  0
LINE
  5
2CC
330
1F
100
AcDbEntity
  8
0
  6
Continuous
 62
     7
370
    25
100
AcDbLine
 10
8.2247296318
 20
12.8063681679
 30
0.0
 11
6.8385631182
 21
12.8063681679
 31
0.0
  0
ELLIPSE
  5
2CD
330
1F
100
AcDbEntity
  8
0
  6
Continuous
 62
     7
370
    25
100
AcDbEllipse
 10
6.4530760181
 20
12.7063681673
 30
0.0
 11
5.329070518200751E-15
 21
-0.4921259842519702
 31
0.0
210
0.0
220
0.0
230
1.0
 40
0.8
 41
1.775421329112371
 42
3.141592653589791
  0
LINE
  5
2CE
330
1F
100
AcDbEntity
  8
0
  6
Continuous
 62
     7
370
    25
100
AcDbLine
 10
6.2030760211
 20
13.6414075256
 30
0.0
 11
6.4530760181
 21
13.6414075256
 31
0.0
  0
LINE
  5
2CF
330
1F
100
AcDbEntity
  8
0
  6
Continuous
 62
     7
370
    25
100
AcDbLine
 10
6.2030760211
 20
13.6414075256
 30
0.0
 11
6.2030760211
 21
14.6256594354
 31
0.0
  0
LINE
  5
2D0
330
1F
100
AcDbEntity
  8
0
  6
Continuous
 62
     7
370
    25
100
AcDbLine
 10
6.2030760211
 20
14.6256594354
 30
0.0
 11
6.4530760181
 21
14.6256594354
 31
0.0
  0
LINE
  5
2D1
330
1F
100
AcDbEntity
  8
0
  6
Continuous
 62
     7
370
    25
100
AcDbLine
 10
6.2030760211
 20
10.7870768991
 30
0.0
 11
6.4530760181
 21
10.7870768991
 31
0.0
  0
LINE
  5
2D2
330
1F
100
AcDbEntity
  8
0
  6
Continuous
 62
     7
370
    25
100
AcDbLine
 10
6.2030760211
 20
10.7870768991
 30
0.0
 11
6.2030760211
 21
11.7713288089
 31
0.0
  0
LINE
  5
2D3
330
1F
100
AcDbEntity
  8
0
  6
Continuous
 62
     7
370
    25
100
AcDbLine
 10
6.2030760211
 20
11.7713288089
 30
0.0
 11
6.4530760181
 21
11.7713288089
 31
0.0
  0
LINE
  5
2D4
330
1F
100
AcDbEntity
  8
0
  6
Continuous
 62
     7
370
    25
100
AcDbLine
 10
6.8338650725
 20
12.5813681688
 30
0.0
 11
8.2247296318
 21
12.5813681688
 31
0.0
  0
LINE
  5
2D5
330
1F
100
AcDbEntity
  8
0
  6
Continuous
 62
     7
370
    25
100
AcDbLine
 10
8.2247296318
 20
12.5813681688
 30
0.0
 11
8.2247296318
 21
12.8063681679
 31
0.0
  0
CIRCLE
  5
2D6
330
1F
100
AcDbEntity
  8
0
  6
Continuous
 62
     7
370
    25
100
AcDbCircle
 10
15.3113437346
 20
12.7063681673
 30
0.0
 40
0.1875
  0
CIRCLE
  5
2D7
330
1F
100
AcDbEntity
  8
0
  6
Continuous
 62
     7
370
    25
100
AcDbCircle
 10
17.2798476716
 20
12.7063681673
 30
0.0
 40
0.1875
  0
CIRCLE
  5
2D8
330
1F
100
AcDbEntity
  8
0
  6
Continuous
 62
     7
370
    25
100
AcDbCircle
 10
8.2640996401
 20
12.371722498
 30
0.0
 40
0.0720472440944953
  0
CIRCLE
  5
2D9
330
1F
100
AcDbEntity
  8
0
  6
Continuous
 62
     7
370
    25
100
AcDbCircle
 10
8.2640996401
 20
13.0410138366
 30
0.0
 40
0.0720472440944935
  0
CIRCLE
  5
2DA
330
1F
100
AcDbEntity
  8
0
  6
Continuous
 62
     7
370
    25
100
AcDbCircle
 10
7.0042571204
 20
13.0410138366
 30
0.0
 40
0.072047244094497
  0
CIRCLE
  5
2DB
330
1F
100
AcDbEntity
  8
0
  6
Continuous
 62
     7
370
    25
100
AcDbCircle
 10
7.0042571204
 20
12.371722498
 30
0.0
 40
0.0720472440944935
  0
ARC
  5
2DC
330
1F
100
AcDbEntity
  8
0
  6
Continuous
 62
     7
370
    25
100
AcDbCircle
 10
13.736540585
 20
12.3126673799
 30
0.0
 40
0.0722440944881892
100
AcDbArc
 50
270.0
 51
90.0
  0
LINE
  5
2DD
330
1F
100
AcDbEntity
  8
0
  6
Continuous
 62
     7
370
    25
100
AcDbLine
 10
13.7365406788
 20
12.3849114741
 30
0.0
 11
9.7995327462
 21
12.3849114741
 31
0.0
  0
ARC
  5
2DE
330
1F
100
AcDbEntity
  8
0
  6
Continuous
 62
     7
370
    25
100
AcDbCircle
 10
9.799532711
 20
12.3126673799
 30
0.0
 40
0.0722440944881892
100
AcDbArc
 50
90.0
 51
270.0
  0
LINE
  5
2DF
330
1F
100
AcDbEntity
  8
0
  6
Continuous
 62
     7
370
    25
100
AcDbLine
 10
9.7995327462
 20
12.2404233032
 30
0.0
 11
13.7365406788
 21
12.2404233032
 31
0.0
  0
ARC
  5
2E0
330
1F
100
AcDbEntity
  8
0
  6
Continuous
 62
     7
370
    25
100
AcDbCircle
 10
9.799532711
 20
13.1000689547
 30
0.0
 40
0.072244094488191
100
AcDbArc
 50
90.0
 51
270.0
  0
LINE
  5
2E1
330
1F
100
AcDbEntity
  8
0
  6
Continuous
 62
     7
370
    25
100
AcDbLine
 10
9.7995327462
 20
13.0278248604
 30
0.0
 11
13.7365406788
 21
13.0278248604
 31
0.0
  0
ARC
  5
2E2
330
1F
100
AcDbEntity
  8
0
  6
Continuous
 62
     7
370
    25
100
AcDbCircle
 10
13.736540585
 20
13.1000689547
 30
0.0
 40
0.072244094488191
100
AcDbArc
 50
270.0
 51
90.0
  0
LINE
  5
2E3
330
1F
100
AcDbEntity
  8
0
  6
Continuous
 62
     7
370
    25
100
AcDbLine
 10
13.7365406788
 20
13.1723130313
 30
0.0
 11
9.7995327462
 21
13.1723130313
 31
0.0
  0
LINE
  5
2E4
330
1F
100
AcDbEntity
  8
0
  6
Continuous
 62
     7
370
    25
100
AcDbLine
 10
18.2641001094
 20
11.9189666101
 30
0.0
 11
18.2641001094
 21
13.4937697245
 31
0.0
  0
LINE
  5
2E5
330
1F
100
AcDbEntity
  8
0
  6
Continuous
 62
     7
370
    25
100
AcDbLine
 10
9.6026822469
 20
11.9189666101
 30
0.0
 11
18.2641001094
 21
11.9189666101
 31
0.0
  0
LINE
  5
2E6
330
1F
100
AcDbEntity
  8
0
  6
Continuous
 62
     7
370
    25
100
AcDbLine
 10
9.6026822469
 20
11.6689665581
 30
0.0
 11
9.6026822469
 21
11.9189666101
 31
0.0
  0
LINE
  5
2E7
330
1F
100
AcDbEntity
  8
0
  6
Continuous
 62
     7
370
    25
100
AcDbLine
 10
6.4530760181
 20
10.3441634956
 30
0.0
 11
9.6026822469
 21
11.6689665581
 31
0.0
  0
LINE
  5
2E8
330
1F
100
AcDbEntity
  8
0
  6
Continuous
 62
     7
370
    25
100
AcDbLine
 10
9.6026822469
 20
13.7437697764
 30
0.0
 11
6.4530760181
 21
15.0685728389
 31
0.0
  0
LINE
  5
2E9
330
1F
100
AcDbEntity
  8
0
  6
Continuous
 62
     7
370
    25
100
AcDbLine
 10
9.6026822469
 20
13.4937697245
 30
0.0
 11
9.6026822469
 21
13.7437697764
 31
0.0
  0
LINE
  5
2EA
330
1F
100
AcDbEntity
  8
0
  6
Continuous
 62
     7
370
    25
100
AcDbLine
 10
18.2641001094
 20
13.4937697245
 30
0.0
 11
9.6026822469
 21
13.4937697245
 31
0.0
  0
ELLIPSE
  5
2EB
330
1F
100
AcDbEntity
  8
0
  6
Continuous
 62
     7
370
    25
100
AcDbEllipse
 10
6.4530760181
 20
12.7063681673
 30
0.0
 11
5.329070518200751E-15
 21
-0.4921259842519702
 31
0.0
210
0.0
220
0.0
230
1.0
 40
0.8
 41
0.0
 42
1.313982671987082
  0
LINE
  5
2EC
330
1F
100
AcDbEntity
  8
0
  6
Continuous
 62
     7
370
    25
100
AcDbLine
 10
6.4530760181
 20
12.2142421757
 30
0.0
 11
6.4530760181
 21
11.7713288089
 31
0.0
  0
LINE
  5
2ED
330
1F
100
AcDbEntity
  8
0
  6
Continuous
 62
     7
370
    25
100
AcDbLine
 10
6.4530760181
 20
10.7870768991
 30
0.0
 11
6.4530760181
 21
10.3441634956
 31
0.0
  0
LINE
  5
2EE
330
1F
100
AcDbEntity
  8
0
  6
Continuous
 62
     7
370
    25
100
AcDbLine
 10
6.4530760181
 20
15.0685728389
 30
0.0
 11
6.4530760181
 21
14.6256594354
 31
0.0
  0
LINE
  5
2EF
330
1F
100
AcDbEntity
  8
0
  6
Continuous
 62
     7
370
    25
100
AcDbLine
 10
6.4530760181
 20
13.6414075256
 30
0.0
 11
6.4530760181
 21
13.1984941588
 31
0.0
  0
CIRCLE
  5
2F0
330
1F
100
AcDbEntity
  8
0
  6
Continuous
 62
     7
370
    25
100
AcDbCircle
 10
19.0390566155
 20
13.0385436913
 30
0.0
 40
0.1250000000000036
  0
CIRCLE
  5
2F1
330
1F
100
AcDbEntity
  8
0
  6
Continuous
 62
     7
370
    25
100
AcDbCircle
 10
19.3112927262
 20
13.310779802
 30
0.0
 40
0.0720472440944881
  0
CIRCLE
  5
2F2
330
1F
100
AcDbEntity
  8
0
  6
Continuous
 62
     7
370
    25
100
AcDbCircle
 10
19.3112927262
 20
12.7663075805
 30
0.0
 40
0.0720472440944881
  0
CIRCLE
  5
2F3
330
1F
100
AcDbEntity
  8
0
  6
Continuous
 62
     7
370
    25
100
AcDbCircle
 10
18.7668205047
 20
12.7663075805
 30
0.0
 40
0.0720472440944881
  0
CIRCLE
  5
2F4
330
1F
100
AcDbEntity
  8
0
  6
Continuous
 62
     7
370
    25
100
AcDbCircle
 10
18.7668205047
 20
13.310779802
 30
0.0
 40
0.0720472440944881
  0
ARC
  5
2F5
330
1F
100
AcDbEntity
  8
0
  6
Continuous
 62
     7
370
    25
100
AcDbCircle
 10
19.6151218003
 20
12.9509716253
 30
0.0
 40
0.2480314960629938
100
AcDbArc
 50
66.5945750502
 51
105.0107153607
  0
ARC
  5
2F6
330
1F
100
AcDbEntity
  8
0
  6
Continuous
 62
     7
370
    25
100
AcDbCircle
 10
19.0390566155
 20
13.0385436913
 30
0.0
 40
0.6889763779527609
100
AcDbArc
 50
8.7355955917
 51
11.7284516573
  0
ARC
  5
2F7
330
1F
100
AcDbEntity
  8
0
  6
Continuous
 62
     7
370
    25
100
AcDbCircle
 10
19.5481504322
 20
13.3219928924
 30
0.0
 40
0.2480314960629949
100
AcDbArc
 50
275.4533318883
 51
313.8694721988
  0
ARC
  5
2F8
330
1F
100
AcDbEntity
  8
0
  6
Continuous
 62
     7
370
    25
100
AcDbCircle
 10
19.0390566155
 20
13.0385436913
 30
0.0
 40
0.53391732283465
100
AcDbArc
 50
356.539762851
 51
3.924284398
  0
ARC
  5
2F9
330
1F
100
AcDbEntity
  8
0
  6
Continuous
 62
     7
370
    25
100
AcDbCircle
 10
19.5504294082
 20
12.75922697
 30
0.0
 40
0.2480314960629934
100
AcDbArc
 50
46.5945750502
 51
85.0107153607
  0
ARC
  5
2FA
330
1F
100
AcDbEntity
  8
0
  6
Continuous
 62
     7
370
    25
100
AcDbCircle
 10
19.0390566155
 20
13.0385436913
 30
0.0
 40
0.6889763779527578
100
AcDbArc
 50
348.7355955917
 51
351.7284516573
  0
ARC
  5
2FB
330
1F
100
AcDbEntity
  8
0
  6
Continuous
 62
     7
370
    25
100
AcDbCircle
 10
19.6143936548
 20
13.1307784738
 30
0.0
 40
0.2480314960629938
100
AcDbArc
 50
255.4533318883
 51
293.8694721988
  0
ARC
  5
2FC
330
1F
100
AcDbEntity
  8
0
  6
Continuous
 62
     7
370
    25
100
AcDbCircle
 10
19.0390566155
 20
13.0385436913
 30
0.0
 40
0.5339173228346471
100
AcDbArc
 50
336.539762851
 51
343.924284398
  0
ARC
  5
2FD
330
1F
100
AcDbEntity
  8
0
  6
Continuous
 62
     7
370
    25
100
AcDbCircle
 10
19.4240579102
 20
12.6011720336
 30
0.0
 40
0.2480314960629927
100
AcDbArc
 50
26.5945750502
 51
65.0107153607
  0
ARC
  5
2FE
330
1F
100
AcDbEntity
  8
0
  6
Continuous
 62
     7
370
    25
100
AcDbCircle
 10
19.0390566155
 20
13.0385436913
 30
0.0
 40
0.6889763779527579
100
AcDbArc
 50
328.7355955917
 51
331.7284516573
  0
ARC
  5
2FF
330
1F
100
AcDbEntity
  8
0
  6
Continuous
 62
     7
370
    25
100
AcDbCircle
 10
19.6112427393
 20
12.9284391791
 30
0.0
 40
0.248031496062992
100
AcDbArc
 50
235.4533318883
 51
273.8694721988
  0
ARC
  5
300
330
1F
100
AcDbEntity
  8
0
  6
Continuous
 62
     7
370
    25
100
AcDbCircle
 10
19.0390566155
 20
13.0385436913
 30
0.0
 40
0.5339173228346474
100
AcDbArc
 50
316.539762851
 51
323.924284398
  0
ARC
  5
301
330
1F
100
AcDbEntity
  8
0
  6
Continuous
 62
     7
370
    25
100
AcDbCircle
 10
19.2512495741
 20
12.495870574
 30
0.0
 40
0.2480314960629929
100
AcDbArc
 50
6.5945750502
 51
45.0107153607
  0
ARC
  5
302
330
1F
100
AcDbEntity
  8
0
  6
Continuous
 62
     7
370
    25
100
AcDbCircle
 10
19.0390566155
 20
13.0385436913
 30
0.0
 40
0.6889763779527609
100
AcDbArc
 50
308.7355955917
 51
311.7284516573
  0
ARC
  5
303
330
1F
100
AcDbEntity
  8
0
  6
Continuous
 62
     7
370
    25
100
AcDbCircle
 10
19.5390777327
 20
12.7393801136
 30
0.0
 40
0.2480314960629932
100
AcDbArc
 50
215.4533318883
 51
253.8694721988
  0
ARC
  5
304
330
1F
100
AcDbEntity
  8
0
  6
Continuous
 62
     7
370
    25
100
AcDbCircle
 10
19.0390566155
 20
13.0385436913
 30
0.0
 40
0.5339173228346479
100
AcDbArc
 50
296.539762851
 51
303.924284398
  0
ARC
  5
305
330
1F
100
AcDbEntity
  8
0
  6
Continuous
 62
     7
370
    25
100
AcDbCircle
 10
19.0528476355
 20
12.4560235014
 30
0.0
 40
0.2480314960629922
100
AcDbArc
 50
346.5945750502
 51
25.0107153607
  0
ARC
  5
306
330
1F
100
AcDbEntity
  8
0
  6
Continuous
 62
     7
370
    25
100
AcDbCircle
 10
19.0390566155
 20
13.0385436913
 30
0.0
 40
0.6889763779527585
100
AcDbArc
 50
288.7355955917
 51
291.7284516573
  0
ARC
  5
307
330
1F
100
AcDbEntity
  8
0
  6
Continuous
 62
     7
370
    25
100
AcDbCircle
 10
19.4066027999
 20
12.5864045908
 30
0.0
 40
0.2480314960629938
100
AcDbArc
 50
195.4533318883
 51
233.8694721988
  0
ARC
  5
308
330
1F
100
AcDbEntity
  8
0
  6
Continuous
 62
     7
370
    25
100
AcDbCircle
 10
19.0390566155
 20
13.0385436913
 30
0.0
 40
0.5339173228346488
100
AcDbArc
 50
276.539762851
 51
283.924284398
  0
ARC
  5
309
330
1F
100
AcDbEntity
  8
0
  6
Continuous
 62
     7
370
    25
100
AcDbCircle
 10
18.8527822964
 20
12.4864369607
 30
0.0
 40
0.2480314960629913
100
AcDbArc
 50
326.5945750502
 51
5.0107153607
  0
ARC
  5
30A
330
1F
100
AcDbEntity
  8
0
  6
Continuous
 62
     7
370
    25
100
AcDbCircle
 10
19.0390566155
 20
13.0385436913
 30
0.0
 40
0.6889763779527573
100
AcDbArc
 50
268.7355955917
 51
271.7284516573
  0
ARC
  5
30B
330
1F
100
AcDbEntity
  8
0
  6
Continuous
 62
     7
370
    25
100
AcDbCircle
 10
19.2297963728
 20
12.4879637163
 30
0.0
 40
0.2480314960629908
100
AcDbArc
 50
175.4533318883
 51
213.8694721988
  0
ARC
  5
30C
330
1F
100
AcDbEntity
  8
0
  6
Continuous
 62
     7
370
    25
100
AcDbCircle
 10
19.0390566155
 20
13.0385436913
 30
0.0
 40
0.5339173228346488
100
AcDbArc
 50
256.539762851
 51
263.924284398
  0
ARC
  5
30D
330
1F
100
AcDbEntity
  8
0
  6
Continuous
 62
     7
370
    25
100
AcDbCircle
 10
18.6751843893
 20
12.58344264
 30
0.0
 40
0.2480314960629922
100
AcDbArc
 50
306.5945750502
 51
345.0107153607
  0
ARC
  5
30E
330
1F
100
AcDbEntity
  8
0
  6
Continuous
 62
     7
370
    25
100
AcDbCircle
 10
19.0390566155
 20
13.0385436913
 30
0.0
 40
0.6889763779527572
100
AcDbArc
 50
248.7355955917
 51
251.7284516573
  0
ARC
  5
30F
330
1F
100
AcDbEntity
  8
0
  6
Continuous
 62
     7
370
    25
100
AcDbCircle
 10
19.0299839159
 20
12.4559309125
 30
0.0
 40
0.2480314960629935
100
AcDbArc
 50
155.4533318883
 51
193.8694721988
  0
ARC
  5
310
330
1F
100
AcDbEntity
  8
0
  6
Continuous
 62
     7
370
    25
100
AcDbCircle
 10
19.0390566155
 20
13.0385436913
 30
0.0
 40
0.5339173228346455
100
AcDbArc
 50
236.539762851
 51
243.924284398
  0
ARC
  5
311
330
1F
100
AcDbEntity
  8
0
  6
Continuous
 62
     7
370
    25
100
AcDbCircle
 10
18.5414748428
 20
12.7353402226
 30
0.0
 40
0.2480314960629894
100
AcDbArc
 50
286.5945750502
 51
325.0107153607
  0
ARC
  5
312
330
1F
100
AcDbEntity
  8
0
  6
Continuous
 62
     7
370
    25
100
AcDbCircle
 10
19.0390566155
 20
13.0385436913
 30
0.0
 40
0.6889763779527579
100
AcDbArc
 50
228.7355955917
 51
231.7284516573
  0
ARC
  5
313
330
1F
100
AcDbEntity
  8
0
  6
Continuous
 62
     7
370
    25
100
AcDbCircle
 10
18.8312657606
 20
12.4941698083
 30
0.0
 40
0.2480314960629948
100
AcDbArc
 50
135.4533318883
 51
173.8694721988
  0
ARC
  5
314
330
1F
100
AcDbEntity
  8
0
  6
Continuous
 62
     7
370
    25
100
AcDbCircle
 10
19.0390566155
 20
13.0385436913
 30
0.0
 40
0.5339173228346471
100
AcDbArc
 50
216.539762851
 51
223.924284398
  0
ARC
  5
315
330
1F
100
AcDbEntity
  8
0
  6
Continuous
 62
     7
370
    25
100
AcDbCircle
 10
18.4677810017
 20
12.9238086184
 30
0.0
 40
0.248031496062991
100
AcDbArc
 50
266.5945750502
 51
305.0107153607
  0
ARC
  5
316
330
1F
100
AcDbEntity
  8
0
  6
Continuous
 62
     7
370
    25
100
AcDbCircle
 10
19.0390566155
 20
13.0385436913
 30
0.0
 40
0.68897637795276
100
AcDbArc
 50
208.7355955917
 51
211.7284516573
  0
ARC
  5
317
330
1F
100
AcDbEntity
  8
0
  6
Continuous
 62
     7
370
    25
100
AcDbCircle
 10
18.657610249
 20
12.5980682284
 30
0.0
 40
0.2480314960629932
100
AcDbArc
 50
115.4533318883
 51
153.8694721988
  0
ARC
  5
318
330
1F
100
AcDbEntity
  8
0
  6
Continuous
 62
     7
370
    25
100
AcDbCircle
 10
19.0390566155
 20
13.0385436913
 30
0.0
 40
0.533917322834647
100
AcDbArc
 50
196.539762851
 51
203.924284398
  0
ARC
  5
319
330
1F
100
AcDbEntity
  8
0
  6
Continuous
 62
     7
370
    25
100
AcDbCircle
 10
18.4629914307
 20
13.1261157572
 30
0.0
 40
0.2480314960629908
100
AcDbArc
 50
246.5945750502
 51
285.0107153607
  0
ARC
  5
31A
330
1F
100
AcDbEntity
  8
0
  6
Continuous
 62
     7
370
    25
100
AcDbCircle
 10
19.0390566155
 20
13.0385436913
 30
0.0
 40
0.6889763779527571
100
AcDbArc
 50
188.7355955917
 51
191.7284516573
  0
ARC
  5
31B
330
1F
100
AcDbEntity
  8
0
  6
Continuous
 62
     7
370
    25
100
AcDbCircle
 10
18.5299627987
 20
12.7550944902
 30
0.0
 40
0.2480314960629943
100
AcDbArc
 50
95.4533318883
 51
133.8694721988
  0
ARC
  5
31C
330
1F
100
AcDbEntity
  8
0
  6
Continuous
 62
     7
370
    25
100
AcDbCircle
 10
19.0390566155
 20
13.0385436913
 30
0.0
 40
0.5339173228346464
100
AcDbArc
 50
176.539762851
 51
183.924284398
  0
ARC
  5
31D
330
1F
100
AcDbEntity
  8
0
  6
Continuous
 62
     7
370
    25
100
AcDbCircle
 10
18.5276838228
 20
13.3178604125
 30
0.0
 40
0.2480314960629934
100
AcDbArc
 50
226.5945750502
 51
265.0107153607
  0
ARC
  5
31E
330
1F
100
AcDbEntity
  8
0
  6
Continuous
 62
     7
370
    25
100
AcDbCircle
 10
19.0390566155
 20
13.0385436913
 30
0.0
 40
0.6889763779527562
100
AcDbArc
 50
168.7355955917
 51
171.7284516573
  0
ARC
  5
31F
330
1F
100
AcDbEntity
  8
0
  6
Continuous
 62
     7
370
    25
100
AcDbCircle
 10
18.4637195762
 20
12.9463089088
 30
0.0
 40
0.2480314960629912
100
AcDbArc
 50
75.4533318883
 51
113.8694721988
  0
ARC
  5
320
330
1F
100
AcDbEntity
  8
0
  6
Continuous
 62
     7
370
    25
100
AcDbCircle
 10
19.0390566155
 20
13.0385436913
 30
0.0
 40
0.5339173228346455
100
AcDbArc
 50
156.539762851
 51
163.924284398
  0
ARC
  5
321
330
1F
100
AcDbEntity
  8
0
  6
Continuous
 62
     7
370
    25
100
AcDbCircle
 10
18.6540553207
 20
13.475915349
 30
0.0
 40
0.2480314960629943
100
AcDbArc
 50
206.5945750502
 51
245.0107153607
  0
ARC
  5
322
330
1F
100
AcDbEntity
  8
0
  6
Continuous
 62
     7
370
    25
100
AcDbCircle
 10
19.0390566155
 20
13.0385436913
 30
0.0
 40
0.6889763779527567
100
AcDbArc
 50
148.7355955917
 51
151.7284516573
  0
ARC
  5
323
330
1F
100
AcDbEntity
  8
0
  6
Continuous
 62
     7
370
    25
100
AcDbCircle
 10
18.4668704917
 20
13.1486482034
 30
0.0
 40
0.2480314960629936
100
AcDbArc
 50
55.4533318883
 51
93.8694721988
  0
ARC
  5
324
330
1F
100
AcDbEntity
  8
0
  6
Continuous
 62
     7
370
    25
100
AcDbCircle
 10
19.0390566155
 20
13.0385436913
 30
0.0
 40
0.5339173228346452
100
AcDbArc
 50
136.539762851
 51
143.924284398
  0
ARC
  5
325
330
1F
100
AcDbEntity
  8
0
  6
Continuous
 62
     7
370
    25
100
AcDbCircle
 10
18.8268636569
 20
13.5812168085
 30
0.0
 40
0.2480314960629912
100
AcDbArc
 50
186.5945750502
 51
225.0107153607
  0
ARC
  5
326
330
1F
100
AcDbEntity
  8
0
  6
Continuous
 62
     7
370
    25
100
AcDbCircle
 10
19.0390566155
 20
13.0385436913
 30
0.0
 40
0.6889763779527563
100
AcDbArc
 50
128.7355955917
 51
131.7284516573
  0
ARC
  5
327
330
1F
100
AcDbEntity
  8
0
  6
Continuous
 62
     7
370
    25
100
AcDbCircle
 10
18.5390354982
 20
13.337707269
 30
0.0
 40
0.2480314960629942
100
AcDbArc
 50
35.4533318883
 51
73.8694721988
  0
ARC
  5
328
330
1F
100
AcDbEntity
  8
0
  6
Continuous
 62
     7
370
    25
100
AcDbCircle
 10
19.0390566155
 20
13.0385436913
 30
0.0
 40
0.5339173228346464
100
AcDbArc
 50
116.539762851
 51
123.924284398
  0
ARC
  5
329
330
1F
100
AcDbEntity
  8
0
  6
Continuous
 62
     7
370
    25
100
AcDbCircle
 10
19.0252655954
 20
13.6210638812
 30
0.0
 40
0.2480314960629948
100
AcDbArc
 50
166.5945750502
 51
205.0107153607
  0
ARC
  5
32A
330
1F
100
AcDbEntity
  8
0
  6
Continuous
 62
     7
370
    25
100
AcDbCircle
 10
19.0390566155
 20
13.0385436913
 30
0.0
 40
0.6889763779527563
100
AcDbArc
 50
108.7355955917
 51
111.7284516573
  0
ARC
  5
32B
330
1F
100
AcDbEntity
  8
0
  6
Continuous
 62
     7
370
    25
100
AcDbCircle
 10
18.6715104311
 20
13.4906827918
 30
0.0
 40
0.2480314960629929
100
AcDbArc
 50
15.4533318883
 51
53.8694721988
  0
ARC
  5
32C
330
1F
100
AcDbEntity
  8
0
  6
Continuous
 62
     7
370
    25
100
AcDbCircle
 10
19.0390566155
 20
13.0385436913
 30
0.0
 40
0.5339173228346457
100
AcDbArc
 50
96.539762851
 51
103.924284398
  0
ARC
  5
32D
330
1F
100
AcDbEntity
  8
0
  6
Continuous
 62
     7
370
    25
100
AcDbCircle
 10
19.2253309345
 20
13.5906504219
 30
0.0
 40
0.2480314960629947
100
AcDbArc
 50
146.5945750502
 51
185.0107153607
  0
ARC
  5
32E
330
1F
100
AcDbEntity
  8
0
  6
Continuous
 62
     7
370
    25
100
AcDbCircle
 10
19.0390566155
 20
13.0385436913
 30
0.0
 40
0.6889763779527555
100
AcDbArc
 50
88.7355955917
 51
91.7284516573
  0
ARC
  5
32F
330
1F
100
AcDbEntity
  8
0
  6
Continuous
 62
     7
370
    25
100
AcDbCircle
 10
18.8483168582
 20
13.5891236663
 30
0.0
 40
0.2480314960629948
100
AcDbArc
 50
355.4533318883
 51
33.8694721988
  0
ARC
  5
330
330
1F
100
AcDbEntity
  8
0
  6
Continuous
 62
     7
370
    25
100
AcDbCircle
 10
19.0390566155
 20
13.0385436913
 30
0.0
 40
0.5339173228346465
100
AcDbArc
 50
76.539762851
 51
83.924284398
  0
ARC
  5
331
330
1F
100
AcDbEntity
  8
0
  6
Continuous
 62
     7
370
    25
100
AcDbCircle
 10
19.4029288417
 20
13.4936447426
 30
0.0
 40
0.2480314960629909
100
AcDbArc
 50
126.5945750502
 51
165.0107153607
  0
ARC
  5
332
330
1F
100
AcDbEntity
  8
0
  6
Continuous
 62
     7
370
    25
100
AcDbCircle
 10
19.0390566155
 20
13.0385436913
 30
0.0
 40
0.6889763779527578
100
AcDbArc
 50
68.7355955917
 51
71.7284516573
  0
ARC
  5
333
330
1F
100
AcDbEntity
  8
0
  6
Continuous
 62
     7
370
    25
100
AcDbCircle
 10
19.048129315
 20
13.6211564701
 30
0.0
 40
0.2480314960629941
100
AcDbArc
 50
335.4533318883
 51
13.8694721988
  0
ARC
  5
334
330
1F
100
AcDbEntity
  8
0
  6
Continuous
 62
     7
370
    25
100
AcDbCircle
 10
19.0390566155
 20
13.0385436913
 30
0.0
 40
0.5339173228346465
100
AcDbArc
 50
56.539762851
 51
63.924284398
  0
ARC
  5
335
330
1F
100
AcDbEntity
  8
0
  6
Continuous
 62
     7
370
    25
100
AcDbCircle
 10
19.5366383881
 20
13.3417471599
 30
0.0
 40
0.2480314960629943
100
AcDbArc
 50
106.5945750502
 51
145.0107153607
  0
ARC
  5
336
330
1F
100
AcDbEntity
  8
0
  6
Continuous
 62
     7
370
    25
100
AcDbCircle
 10
19.0390566155
 20
13.0385436913
 30
0.0
 40
0.6889763779527556
100
AcDbArc
 50
48.7355955917
 51
51.7284516573
  0
ARC
  5
337
330
1F
100
AcDbEntity
  8
0
  6
Continuous
 62
     7
370
    25
100
AcDbCircle
 10
19.2468474704
 20
13.5829175743
 30
0.0
 40
0.248031496062991
100
AcDbArc
 50
315.4533318883
 51
353.8694721988
  0
ARC
  5
338
330
1F
100
AcDbEntity
  8
0
  6
Continuous
 62
     7
370
    25
100
AcDbCircle
 10
19.0390566155
 20
13.0385436913
 30
0.0
 40
0.533917322834646
100
AcDbArc
 50
36.539762851
 51
43.924284398
  0
ARC
  5
339
330
1F
100
AcDbEntity
  8
0
  6
Continuous
 62
     7
370
    25
100
AcDbCircle
 10
19.6103322293
 20
13.1532787642
 30
0.0
 40
0.2480314960629942
100
AcDbArc
 50
86.5945750502
 51
125.0107153607
  0
ARC
  5
33A
330
1F
100
AcDbEntity
  8
0
  6
Continuous
 62
     7
370
    25
100
AcDbCircle
 10
19.0390566155
 20
13.0385436913
 30
0.0
 40
0.6889763779527562
100
AcDbArc
 50
28.7355955917
 51
31.7284516573
  0
ARC
  5
33B
330
1F
100
AcDbEntity
  8
0
  6
Continuous
 62
     7
370
    25
100
AcDbCircle
 10
19.420502982
 20
13.4790191541
 30
0.0
 40
0.2480314960629917
100
AcDbArc
 50
295.4533318883
 51
333.8694721988
  0
ARC
  5
33C
330
1F
100
AcDbEntity
  8
0
  6
Continuous
 62
     7
370
    25
100
AcDbCircle
 10
19.0390566155
 20
13.0385436913
 30
0.0
 40
0.5339173228346469
100
AcDbArc
 50
16.539762851
 51
23.924284398
  0
CIRCLE
  5
33D
330
1F
100
AcDbEntity
  8
0
  6
Continuous
 62
     7
370
    25
100
AcDbCircle
 10
9.7908502774
 20
14.202474736
 30
0.0
 40
0.2499999999999982
  0
ARC
  5
33E
330
1F
100
AcDbEntity
  8
0
  6
Continuous
 62
     7
370
    25
100
AcDbCircle
 10
9.7908502774
 20
14.202474736
 30
0.0
 40
0.3937007874015759
100
AcDbArc
 50
180.0
 51
270.0
  0
ARC
  5
33F
330
1F
100
AcDbEntity
  8
0
  6
Continuous
 62
     7
370
    25
100
AcDbCircle
 10
9.7908502774
 20
14.202474736
 30
0.0
 40
0.3937007874015759
100
AcDbArc
 50
90.0
 51
180.0
  0
LINE
  5
340
330
1F
100
AcDbEntity
  8
0
  6
Continuous
 62
     7
370
    25
100
AcDbLine
 10
20.0713783842
 20
14.5961755234
 30
0.0
 11
9.7908502774
 21
14.5961755234
 31
0.0
  0
ARC
  5
341
330
1F
100
AcDbEntity
  8
0
  6
Continuous
 62
     7
370
    25
100
AcDbCircle
 10
20.0713783842
 20
14.9898763108
 30
0.0
 40
0.3937007874015759
100
AcDbArc
 50
270.0
 51
313.3417582272
  0
ARC
  5
342
330
1F
100
AcDbEntity
  8
0
  6
Continuous
 62
     7
370
    25
100
AcDbCircle
 10
20.8144723247
 20
14.202474736
 30
0.0
 40
0.6889763779527565
100
AcDbArc
 50
226.6582417728
 51
133.3417582272
  0
ARC
  5
343
330
1F
100
AcDbEntity
  8
0
  6
Continuous
 62
     7
370
    25
100
AcDbCircle
 10
20.0713783842
 20
13.4150731612
 30
0.0
 40
0.3937007874015741
100
AcDbArc
 50
46.6582417728
 51
90.0
  0
LINE
  5
344
330
1F
100
AcDbEntity
  8
0
  6
Continuous
 62
     7
370
    25
100
AcDbLine
 10
9.7908502774
 20
13.8087739486
 30
0.0
 11
20.0713783842
 21
13.8087739486
 31
0.0
  0
CIRCLE
  5
345
330
1F
100
AcDbEntity
  8
0
  6
Continuous
 62
     7
370
    25
100
AcDbCircle
 10
21.1994723247
 20
14.202474736
 30
0.0
 40
0.0720472440944899
  0
CIRCLE
  5
346
330
1F
100
AcDbEntity
  8
0
  6
Continuous
 62
     7
370
    25
100
AcDbCircle
 10
20.8144723247
 20
14.587474736
 30
0.0
 40
0.0720472440944881
  0
CIRCLE
  5
347
330
1F
100
AcDbEntity
  8
0
  6
Continuous
 62
     7
370
    25
100
AcDbCircle
 10
20.4294723247
 20
14.202474736
 30
0.0
 40
0.0720472440944881
  0
CIRCLE
  5
348
330
1F
100
AcDbEntity
  8
0
  6
Continuous
 62
     7
370
    25
100
AcDbCircle
 10
20.8144723247
 20
13.817474736
 30
0.0
 40
0.0720472440944881
  0
CIRCLE
  5
349
330
1F
100
AcDbEntity
  8
0
  6
Continuous
 62
     7
370
    25
100
AcDbCircle
 10
20.8144723247
 20
14.202474736
 30
0.0
 40
0.2499999999999982
  0
CIRCLE
  5
34A
330
1F
100
AcDbEntity
  8
0
  6
Continuous
 62
     7
370
    25
100
AcDbCircle
 10
19.3806081996
 20
15.1452885354
 30
0.0
 40
0.2500000000000018
  0
ARC
  5
34B
330
1F
100
AcDbEntity
  8
0
  6
Continuous
 62
     7
370
    25
100
AcDbCircle
 10
19.3806081996
 20
15.1452885354
 30
0.0
 40
0.3937007874015741
100
AcDbArc
 50
0.0
 51
90.0
  0
ARC
  5
34C
330
1F
100
AcDbEntity
  8
0
  6
Continuous
 62
     7
370
    25
100
AcDbCircle
 10
19.3806081996
 20
15.1452885354
 30
0.0
 40
0.3937007874015759
100
AcDbArc
 50
270.0
 51
0.0
  0
LINE
  5
34D
330
1F
100
AcDbEntity
  8
0
  6
Continuous
 62
     7
370
    25
100
AcDbLine
 10
9.1000800928
 20
14.751587748
 30
0.0
 11
19.3806081996
 21
14.751587748
 31
0.0
  0
ARC
  5
34E
330
1F
100
AcDbEntity
  8
0
  6
Continuous
 62
     7
370
    25
100
AcDbCircle
 10
9.1000800928
 20
14.3578869606
 30
0.0
 40
0.3937007874015745
100
AcDbArc
 50
90.0
 51
133.3417582272
  0
ARC
  5
34F
330
1F
100
AcDbEntity
  8
0
  6
Continuous
 62
     7
370
    25
100
AcDbCircle
 10
8.3569861524
 20
15.1452885354
 30
0.0
 40
0.6889763779527578
100
AcDbArc
 50
46.6582417728
 51
313.3417582272
  0
ARC
  5
350
330
1F
100
AcDbEntity
  8
0
  6
Continuous
 62
     7
370
    25
100
AcDbCircle
 10
9.1000800928
 20
15.9326901102
 30
0.0
 40
0.3937007874015771
100
AcDbArc
 50
226.6582417728
 51
270.0
  0
LINE
  5
351
330
1F
100
AcDbEntity
  8
0
  6
Continuous
 62
     7
370
    25
100
AcDbLine
 10
19.3806081996
 20
15.5389893228
 30
0.0
 11
9.1000800928
 21
15.5389893228
 31
0.0
  0
CIRCLE
  5
352
330
1F
100
AcDbEntity
  8
0
  6
Continuous
 62
     7
370
    25
100
AcDbCircle
 10
7.9719861524
 20
15.1452885354
 30
0.0
 40
0.0720472440944881
  0
CIRCLE
  5
353
330
1F
100
AcDbEntity
  8
0
  6
Continuous
 62
     7
370
    25
100
AcDbCircle
 10
8.3569861524
 20
14.7602885354
 30
0.0
 40
0.0720472440944899
  0
CIRCLE
  5
354
330
1F
100
AcDbEntity
  8
0
  6
Continuous
 62
     7
370
    25
100
AcDbCircle
 10
8.7419861524
 20
15.1452885354
 30
0.0
 40
0.0720472440944881
  0
CIRCLE
  5
355
330
1F
100
AcDbEntity
  8
0
  6
Continuous
 62
     7
370
    25
100
AcDbCircle
 10
8.3569861524
 20
15.5302885354
 30
0.0
 40
0.0720472440944881
  0
CIRCLE
  5
356
330
1F
100
AcDbEntity
  8
0
  6
Continuous
 62
     7
370
    25
100
AcDbCircle
 10
8.3569861524
 20
15.1452885354
 30
0.0
 40
0.2500000000000018
  0
CIRCLE
  5
357
330
1F
100
AcDbEntity
  8
0
  6
Continuous
 62
     7
370
    25
100
AcDbCircle
 10
22.0780203173
 20
4.1217657364
 30
0.0
 40
0.25
  0
ARC
  5
358
330
1F
100
AcDbEntity
  8
0
  6
Continuous
 62
     7
370
    25
100
AcDbCircle
 10
22.0780203173
 20
4.1217657364
 30
0.0
 40
0.393700787401575
100
AcDbArc
 50
270.0
 51
0.0
  0
ARC
  5
359
330
1F
100
AcDbEntity
  8
0
  6
Continuous
 62
     7
370
    25
100
AcDbCircle
 10
22.0780203173
 20
4.1217657364
 30
0.0
 40
0.393700787401575
100
AcDbArc
 50
180.0
 51
270.0
  0
LINE
  5
35A
330
1F
100
AcDbEntity
  8
0
  6
Continuous
 62
     7
370
    25
100
AcDbLine
 10
21.6843195299
 20
14.4022938432
 30
0.0
 11
21.6843195299
 21
4.1217657364
 31
0.0
  0
ARC
  5
35B
330
1F
100
AcDbEntity
  8
0
  6
Continuous
 62
     7
370
    25
100
AcDbCircle
 10
21.2906187425
 20
14.4022938432
 30
0.0
 40
0.3937007874015784
100
AcDbArc
 50
0.0
 51
43.3417582272
  0
ARC
  5
35C
330
1F
100
AcDbEntity
  8
0
  6
Continuous
 62
     7
370
    25
100
AcDbCircle
 10
22.0780203173
 20
15.1453877837
 30
0.0
 40
0.6889763779527551
100
AcDbArc
 50
316.6582417728
 51
223.3417582272
  0
ARC
  5
35D
330
1F
100
AcDbEntity
  8
0
  6
Continuous
 62
     7
370
    25
100
AcDbCircle
 10
22.8654218921
 20
14.4022938432
 30
0.0
 40
0.3937007874015784
100
AcDbArc
 50
136.6582417728
 51
180.0
  0
LINE
  5
35E
330
1F
100
AcDbEntity
  8
0
  6
Continuous
 62
     7
370
    25
100
AcDbLine
 10
22.4717211047
 20
4.1217657364
 30
0.0
 11
22.4717211047
 21
14.4022938432
 31
0.0
  0
CIRCLE
  5
35F
330
1F
100
AcDbEntity
  8
0
  6
Continuous
 62
     7
370
    25
100
AcDbCircle
 10
22.0780203173
 20
15.5303877837
 30
0.0
 40
0.0720472440944881
  0
CIRCLE
  5
360
330
1F
100
AcDbEntity
  8
0
  6
Continuous
 62
     7
370
    25
100
AcDbCircle
 10
21.6930203173
 20
15.1453877837
 30
0.0
 40
0.0720472440944881
  0
CIRCLE
  5
361
330
1F
100
AcDbEntity
  8
0
  6
Continuous
 62
     7
370
    25
100
AcDbCircle
 10
22.0780203173
 20
14.7603877837
 30
0.0
 40
0.0720472440944881
  0
CIRCLE
  5
362
330
1F
100
AcDbEntity
  8
0
  6
Continuous
 62
     7
370
    25
100
AcDbCircle
 10
22.4630203173
 20
15.1453877837
 30
0.0
 40
0.0720472440944881
  0
CIRCLE
  5
363
330
1F
100
AcDbEntity
  8
0
  6
Continuous
 62
     7
370
    25
100
AcDbCircle
 10
22.0780203173
 20
15.1453877837
 30
0.0
 40
0.25
  0
CIRCLE
  5
364
330
1F
100
AcDbEntity
  8
0
  6
Continuous
 62
     7
370
    25
100
AcDbCircle
 10
23.2210276894
 20
1.5790192438
 30
0.0
 40
0.2500000000000036
  0
ARC
  5
365
330
1F
100
AcDbEntity
  8
0
  6
Continuous
 62
     7
370
    25
100
AcDbCircle
 10
23.2210276894
 20
1.5790192438
 30
0.0
 40
0.3937007874015752
100
AcDbArc
 50
270.0
 51
0.0
  0
ARC
  5
366
330
1F
100
AcDbEntity
  8
0
  6
Continuous
 62
     7
370
    25
100
AcDbCircle
 10
23.2210276894
 20
1.5790192438
 30
0.0
 40
0.3937007874015777
100
AcDbArc
 50
180.0
 51
270.0
  0
LINE
  5
367
330
1F
100
AcDbEntity
  8
0
  6
Continuous
 62
     7
370
    25
100
AcDbLine
 10
22.827326902
 20
11.8595473506
 30
0.0
 11
22.827326902
 21
1.5790192438
 31
0.0
  0
ARC
  5
368
330
1F
100
AcDbEntity
  8
0
  6
Continuous
 62
     7
370
    25
100
AcDbCircle
 10
22.4336261146
 20
11.8595473506
 30
0.0
 40
0.3937007874015777
100
AcDbArc
 50
0.0
 51
43.3417582272
  0
ARC
  5
369
330
1F
100
AcDbEntity
  8
0
  6
Continuous
 62
     7
370
    25
100
AcDbCircle
 10
23.2210276894
 20
12.6026412911
 30
0.0
 40
0.6889763779527575
100
AcDbArc
 50
316.6582417728
 51
223.3417582272
  0
ARC
  5
36A
330
1F
100
AcDbEntity
  8
0
  6
Continuous
 62
     7
370
    25
100
AcDbCircle
 10
24.0084292642
 20
11.8595473506
 30
0.0
 40
0.3937007874015777
100
AcDbArc
 50
136.6582417728
 51
180.0
  0
LINE
  5
36B
330
1F
100
AcDbEntity
  8
0
  6
Continuous
 62
     7
370
    25
100
AcDbLine
 10
23.6147284768
 20
1.5790192438
 30
0.0
 11
23.6147284768
 21
11.8595473506
 31
0.0
  0
CIRCLE
  5
36C
330
1F
100
AcDbEntity
  8
0
  6
Continuous
 62
     7
370
    25
100
AcDbCircle
 10
23.2210276894
 20
12.9876412911
 30
0.0
 40
0.0720472440944881
  0
CIRCLE
  5
36D
330
1F
100
AcDbEntity
  8
0
  6
Continuous
 62
     7
370
    25
100
AcDbCircle
 10
22.8360276894
 20
12.6026412911
 30
0.0
 40
0.0720472440944881
  0
CIRCLE
  5
36E
330
1F
100
AcDbEntity
  8
0
  6
Continuous
 62
     7
370
    25
100
AcDbCircle
 10
23.2210276894
 20
12.2176412911
 30
0.0
 40
0.0720472440944881
  0
CIRCLE
  5
36F
330
1F
100
AcDbEntity
  8
0
  6
Continuous
 62
     7
370
    25
100
AcDbCircle
 10
23.6060276894
 20
12.6026412911
 30
0.0
 40
0.0720472440944881
  0
CIRCLE
  5
370
330
1F
100
AcDbEntity
  8
0
  6
Continuous
 62
     7
370
    25
100
AcDbCircle
 10
23.2210276894
 20
12.6026412911
 30
0.0
 40
0.25
  0
CIRCLE
  5
371
330
1F
100
AcDbEntity
  8
0
  6
Continuous
 62
     7
370
    25
100
AcDbCircle
 10
5.2166963443
 20
5.2860723397
 30
0.0
 40
0.25
  0
CIRCLE
  5
372
330
1F
100
AcDbEntity
  8
0
  6
Continuous
 62
     7
370
    25
100
AcDbCircle
 10
5.2166963443
 20
3.3175684027
 30
0.0
 40
0.25
  0
ARC
  5
373
330
1F
100
AcDbEntity
  8
0
  6
Continuous
 62
     7
370
    25
100
AcDbCircle
 10
5.2166963443
 20
5.2860723397
 30
0.0
 40
0.393700787401575
100
AcDbArc
 50
90.0
 51
180.0
  0
ARC
  5
374
330
1F
100
AcDbEntity
  8
0
  6
Continuous
 62
     7
370
    25
100
AcDbCircle
 10
5.2166963443
 20
5.2860723397
 30
0.0
 40
0.393700787401575
100
AcDbArc
 50
0.0
 51
90.0
  0
LINE
  5
375
330
1F
100
AcDbEntity
  8
0
  6
Continuous
 62
     7
370
    25
100
AcDbLine
 10
5.6103971229
 20
3.3175683881
 30
0.0
 11
5.6103971229
 21
5.2860723544
 31
0.0
  0
ARC
  5
376
330
1F
100
AcDbEntity
  8
0
  6
Continuous
 62
     7
370
    25
100
AcDbCircle
 10
5.2166963443
 20
3.3175684027
 30
0.0
 40
0.393700787401575
100
AcDbArc
 50
270.0
 51
0.0
  0
ARC
  5
377
330
1F
100
AcDbEntity
  8
0
  6
Continuous
 62
     7
370
    25
100
AcDbCircle
 10
5.2166963443
 20
3.3175684027
 30
0.0
 40
0.393700787401575
100
AcDbArc
 50
180.0
 51
270.0
  0
LINE
  5
378
330
1F
100
AcDbEntity
  8
0
  6
Continuous
 62
     7
370
    25
100
AcDbLine
 10
5.0729955535
 20
3.9081195926
 30
0.0
 11
4.8229955657
 21
3.9081195926
 31
0.0
  0
LINE
  5
379
330
1F
100
AcDbEntity
  8
0
  6
Continuous
 62
     7
370
    25
100
AcDbLine
 10
5.0729955535
 20
4.6955211498
 30
0.0
 11
5.0729955535
 21
3.9081195926
 31
0.0
  0
LINE
  5
37A
330
1F
100
AcDbEntity
  8
0
  6
Continuous
 62
     7
370
    25
100
AcDbLine
 10
4.8229955657
 20
3.9081195926
 30
0.0
 11
4.8229955657
 21
3.3175683881
 31
0.0
  0
LINE
  5
37B
330
1F
100
AcDbEntity
  8
0
  6
Continuous
 62
     7
370
    25
100
AcDbLine
 10
4.8229955657
 20
4.6955211498
 30
0.0
 11
5.0729955535
 21
4.6955211498
 31
0.0
  0
LINE
  5
37C
330
1F
100
AcDbEntity
  8
0
  6
Continuous
 62
     7
370
    25
100
AcDbLine
 10
4.8229955657
 20
5.2860723544
 30
0.0
 11
4.8229955657
 21
4.6955211498
 31
0.0
  0
CIRCLE
  5
37D
330
1F
100
AcDbEntity
  8
0
  6
Continuous
 62
     7
370
    25
100
AcDbCircle
 10
4.3071195296
 20
5.3058483804
 30
0.0
 40
0.25
  0
CIRCLE
  5
37E
330
1F
100
AcDbEntity
  8
0
  6
Continuous
 62
     7
370
    25
100
AcDbCircle
 10
4.3071195296
 20
3.3373444434
 30
0.0
 40
0.25
  0
ARC
  5
37F
330
1F
100
AcDbEntity
  8
0
  6
Continuous
 62
     7
370
    25
100
AcDbCircle
 10
4.3071195296
 20
5.3058483804
 30
0.0
 40
0.3937007874015745
100
AcDbArc
 50
90.0
 51
180.0
  0
ARC
  5
380
330
1F
100
AcDbEntity
  8
0
  6
Continuous
 62
     7
370
    25
100
AcDbCircle
 10
4.3071195296
 20
5.3058483804
 30
0.0
 40
0.3937007874015741
100
AcDbArc
 50
0.0
 51
90.0
  0
LINE
  5
381
330
1F
100
AcDbEntity
  8
0
  6
Continuous
 62
     7
370
    25
100
AcDbLine
 10
4.7008203082
 20
3.3373444287
 30
0.0
 11
4.7008203082
 21
5.3058483951
 31
0.0
  0
ARC
  5
382
330
1F
100
AcDbEntity
  8
0
  6
Continuous
 62
     7
370
    25
100
AcDbCircle
 10
4.3071195296
 20
3.3373444434
 30
0.0
 40
0.3937007874015745
100
AcDbArc
 50
270.0
 51
0.0
  0
ARC
  5
383
330
1F
100
AcDbEntity
  8
0
  6
Continuous
 62
     7
370
    25
100
AcDbCircle
 10
4.3071195296
 20
3.3373444434
 30
0.0
 40
0.3937007874015745
100
AcDbArc
 50
180.0
 51
270.0
  0
LINE
  5
384
330
1F
100
AcDbEntity
  8
0
  6
Continuous
 62
     7
370
    25
100
AcDbLine
 10
4.1634187388
 20
3.9278956333
 30
0.0
 11
3.913418751
 21
3.9278956333
 31
0.0
  0
LINE
  5
385
330
1F
100
AcDbEntity
  8
0
  6
Continuous
 62
     7
370
    25
100
AcDbLine
 10
4.1634187388
 20
4.7152971905
 30
0.0
 11
4.1634187388
 21
3.9278956333
 31
0.0
  0
LINE
  5
386
330
1F
100
AcDbEntity
  8
0
  6
Continuous
 62
     7
370
    25
100
AcDbLine
 10
3.913418751
 20
3.9278956333
 30
0.0
 11
3.913418751
 21
3.3373444287
 31
0.0
  0
LINE
  5
387
330
1F
100
AcDbEntity
  8
0
  6
Continuous
 62
     7
370
    25
100
AcDbLine
 10
3.913418751
 20
4.7152971905
 30
0.0
 11
4.1634187388
 21
4.7152971905
 31
0.0
  0
LINE
  5
388
330
1F
100
AcDbEntity
  8
0
  6
Continuous
 62
     7
370
    25
100
AcDbLine
 10
3.913418751
 20
5.3058483951
 30
0.0
 11
3.913418751
 21
4.7152971905
 31
0.0
  0
CIRCLE
  5
389
330
1F
100
AcDbEntity
  8
0
  6
Continuous
 62
     7
370
    25
100
AcDbCircle
 10
6.5443984305
 20
7.2513857688
 30
0.0
 40
0.0699999999999958
  0
CIRCLE
  5
38A
330
1F
100
AcDbEntity
  8
0
  6
Continuous
 62
     7
370
    25
100
AcDbCircle
 10
7.088870652
 20
7.2513857688
 30
0.0
 40
0.069999999999995
  0
CIRCLE
  5
38B
330
1F
100
AcDbEntity
  8
0
  6
Continuous
 62
     7
370
    25
100
AcDbCircle
 10
7.088870652
 20
6.7069135472
 30
0.0
 40
0.069999999999995
  0
CIRCLE
  5
38C
330
1F
100
AcDbEntity
  8
0
  6
Continuous
 62
     7
370
    25
100
AcDbCircle
 10
6.5443984305
 20
6.7069135472
 30
0.0
 40
0.0699999999999958
  0
LINE
  5
38D
330
1F
100
AcDbEntity
  8
0
  6
Continuous
 62
     7
370
    25
100
AcDbLine
 10
6.2654534219
 20
7.7241496673
 30
0.0
 11
7.3678156606
 21
7.7241496673
 31
0.0
  0
LINE
  5
38E
330
1F
100
AcDbEntity
  8
0
  6
Continuous
 62
     7
370
    25
100
AcDbLine
 10
7.3678156606
 20
7.7241496673
 30
0.0
 11
7.3678156606
 21
7.3678504366
 31
0.0
  0
LINE
  5
38F
330
1F
100
AcDbEntity
  8
0
  6
Continuous
 62
     7
370
    25
100
AcDbLine
 10
7.3678156606
 20
7.3678504366
 30
0.0
 11
7.6178156393
 21
7.3678504366
 31
0.0
  0
LINE
  5
390
330
1F
100
AcDbEntity
  8
0
  6
Continuous
 62
     7
370
    25
100
AcDbLine
 10
7.6178156393
 20
7.3678504366
 30
0.0
 11
7.6178156393
 21
6.5804488794
 31
0.0
  0
LINE
  5
391
330
1F
100
AcDbEntity
  8
0
  6
Continuous
 62
     7
370
    25
100
AcDbLine
 10
7.3678156606
 20
6.5804488794
 30
0.0
 11
7.6178156393
 21
6.5804488794
 31
0.0
  0
LINE
  5
392
330
1F
100
AcDbEntity
  8
0
  6
Continuous
 62
     7
370
    25
100
AcDbLine
 10
7.3678156606
 20
6.5804488794
 30
0.0
 11
7.3678156606
 21
6.2241496487
 31
0.0
  0
LINE
  5
393
330
1F
100
AcDbEntity
  8
0
  6
Continuous
 62
     7
370
    25
100
AcDbLine
 10
6.2654534219
 20
6.2241496487
 30
0.0
 11
7.3678156606
 21
6.2241496487
 31
0.0
  0
LINE
  5
394
330
1F
100
AcDbEntity
  8
0
  6
Continuous
 62
     7
370
    25
100
AcDbLine
 10
6.2654534219
 20
6.5804488794
 30
0.0
 11
6.2654534219
 21
6.2241496487
 31
0.0
  0
LINE
  5
395
330
1F
100
AcDbEntity
  8
0
  6
Continuous
 62
     7
370
    25
100
AcDbLine
 10
6.0154534432
 20
6.5804488794
 30
0.0
 11
6.2654534219
 21
6.5804488794
 31
0.0
  0
LINE
  5
396
330
1F
100
AcDbEntity
  8
0
  6
Continuous
 62
     7
370
    25
100
AcDbLine
 10
6.0154534432
 20
7.3678504366
 30
0.0
 11
6.0154534432
 21
6.5804488794
 31
0.0
  0
LINE
  5
397
330
1F
100
AcDbEntity
  8
0
  6
Continuous
 62
     7
370
    25
100
AcDbLine
 10
6.0154534432
 20
7.3678504366
 30
0.0
 11
6.2654534219
 21
7.3678504366
 31
0.0
  0
LINE
  5
398
330
1F
100
AcDbEntity
  8
0
  6
Continuous
 62
     7
370
    25
100
AcDbLine
 10
6.2654534219
 20
7.7241496673
 30
0.0
 11
6.2654534219
 21
7.3678504366
 31
0.0
  0
ARC
  5
399
330
1F
100
AcDbEntity
  8
0
  6
Continuous
 62
     7
370
    25
100
AcDbCircle
 10
10.1476239423
 20
10.9369775497
 30
0.0
 40
0.0787401574803148
100
AcDbArc
 50
180.0
 51
270.0
  0
ARC
  5
39A
330
1F
100
AcDbEntity
  8
0
  6
Continuous
 62
     7
370
    25
100
AcDbCircle
 10
10.1476239423
 20
11.7637492033
 30
0.0
 40
0.0787401574803166
100
AcDbArc
 50
90.0
 51
180.0
  0
ARC
  5
39B
330
1F
100
AcDbEntity
  8
0
  6
Continuous
 62
     7
370
    25
100
AcDbCircle
 10
11.564946777
 20
11.7637492033
 30
0.0
 40
0.0787401574803166
100
AcDbArc
 50
0.0
 51
90.0
  0
ARC
  5
39C
330
1F
100
AcDbEntity
  8
0
  6
Continuous
 62
     7
370
    25
100
AcDbCircle
 10
11.564946777
 20
10.9369775497
 30
0.0
 40
0.0787401574803148
100
AcDbArc
 50
270.0
 51
0.0
  0
CIRCLE
  5
39D
330
1F
100
AcDbEntity
  8
0
  6
Continuous
 62
     7
370
    25
100
AcDbCircle
 10
10.2263640998
 20
11.0157177072
 30
0.0
 40
0.0720472440944881
  0
CIRCLE
  5
39E
330
1F
100
AcDbEntity
  8
0
  6
Continuous
 62
     7
370
    25
100
AcDbCircle
 10
10.2263640998
 20
11.6850090458
 30
0.0
 40
0.0720472440944881
  0
CIRCLE
  5
39F
330
1F
100
AcDbEntity
  8
0
  6
Continuous
 62
     7
370
    25
100
AcDbCircle
 10
11.4862066195
 20
11.6850090458
 30
0.0
 40
0.0720472440944881
  0
CIRCLE
  5
3A0
330
1F
100
AcDbEntity
  8
0
  6
Continuous
 62
     7
370
    25
100
AcDbCircle
 10
11.4862066195
 20
11.0157177072
 30
0.0
 40
0.0720472440944881
  0
LINE
  5
3A1
330
1F
100
AcDbEntity
  8
0
  6
Continuous
 62
     7
370
    25
100
AcDbLine
 10
10.0688838024
 20
11.7637491977
 30
0.0
 11
10.0688838024
 21
10.9369775553
 31
0.0
  0
LINE
  5
3A2
330
1F
100
AcDbEntity
  8
0
  6
Continuous
 62
     7
370
    25
100
AcDbLine
 10
11.5649467465
 20
11.8424893681
 30
0.0
 11
10.1476239728
 21
11.8424893681
 31
0.0
  0
LINE
  5
3A3
330
1F
100
AcDbEntity
  8
0
  6
Continuous
 62
     7
370
    25
100
AcDbLine
 10
11.6436869168
 20
10.9369775553
 30
0.0
 11
11.6436869168
 21
11.7637491977
 31
0.0
  0
LINE
  5
3A4
330
1F
100
AcDbEntity
  8
0
  6
Continuous
 62
     7
370
    25
100
AcDbLine
 10
10.1476239728
 20
10.8582373849
 30
0.0
 11
11.5649467465
 21
10.8582373849
 31
0.0
  0
CIRCLE
  5
3A5
330
1F
100
AcDbEntity
  8
0
  6
Continuous
 62
     7
370
    25
100
AcDbCircle
 10
16.7807008259
 20
3.4444694408
 30
0.0
 40
0.25
  0
CIRCLE
  5
3A6
330
1F
100
AcDbEntity
  8
0
  6
Continuous
 62
     7
370
    25
100
AcDbCircle
 10
16.7807008259
 20
1.4759655038
 30
0.0
 40
0.25
  0
LINE
  5
3A7
330
1F
100
AcDbEntity
  8
0
  6
Continuous
 62
     7
370
    25
100
AcDbLine
 10
17.5681023831
 20
5.0192725904
 30
0.0
 11
15.9932992687
 21
5.0192725904
 31
0.0
  0
LINE
  5
3A8
330
1F
100
AcDbEntity
  8
0
  6
Continuous
 62
     7
370
    25
100
AcDbLine
 10
17.5681023831
 20
3.8381702546
 30
0.0
 11
17.5681023831
 21
5.0192725904
 31
0.0
  0
LINE
  5
3A9
330
1F
100
AcDbEntity
  8
0
  6
Continuous
 62
     7
370
    25
100
AcDbLine
 10
17.817708713
 20
3.8381702546
 30
0.0
 11
17.5681023831
 21
3.8381702546
 31
0.0
  0
LINE
  5
3AA
330
1F
100
AcDbEntity
  8
0
  6
Continuous
 62
     7
370
    25
100
AcDbLine
 10
17.817708713
 20
3.050768624
 30
0.0
 11
17.817708713
 21
3.8381702546
 31
0.0
  0
LINE
  5
3AB
330
1F
100
AcDbEntity
  8
0
  6
Continuous
 62
     7
370
    25
100
AcDbLine
 10
17.5681023831
 20
3.050768624
 30
0.0
 11
17.817708713
 21
3.050768624
 31
0.0
  0
LINE
  5
3AC
330
1F
100
AcDbEntity
  8
0
  6
Continuous
 62
     7
370
    25
100
AcDbLine
 10
17.5681023831
 20
1.8696663616
 30
0.0
 11
17.5681023831
 21
3.050768624
 31
0.0
  0
LINE
  5
3AD
330
1F
100
AcDbEntity
  8
0
  6
Continuous
 62
     7
370
    25
100
AcDbLine
 10
17.817708713
 20
1.8696663616
 30
0.0
 11
17.5681023831
 21
1.8696663616
 31
0.0
  0
LINE
  5
3AE
330
1F
100
AcDbEntity
  8
0
  6
Continuous
 62
     7
370
    25
100
AcDbLine
 10
17.817708713
 20
1.0822646577
 30
0.0
 11
17.817708713
 21
1.8696663616
 31
0.0
  0
LINE
  5
3AF
330
1F
100
AcDbEntity
  8
0
  6
Continuous
 62
     7
370
    25
100
AcDbLine
 10
17.5681023831
 20
1.0822646577
 30
0.0
 11
17.817708713
 21
1.0822646577
 31
0.0
  0
LINE
  5
3B0
330
1F
100
AcDbEntity
  8
0
  6
Continuous
 62
     7
370
    25
100
AcDbLine
 10
17.5681023831
 20
0.4917134531
 30
0.0
 11
17.5681023831
 21
1.0822646577
 31
0.0
  0
LINE
  5
3B1
330
1F
100
AcDbEntity
  8
0
  6
Continuous
 62
     7
370
    25
100
AcDbLine
 10
15.9932992687
 20
0.4917134531
 30
0.0
 11
17.5681023831
 21
0.4917134531
 31
0.0
  0
LINE
  5
3B2
330
1F
100
AcDbEntity
  8
0
  6
Continuous
 62
     7
370
    25
100
AcDbLine
 10
15.9932992687
 20
1.0822646577
 30
0.0
 11
15.9932992687
 21
0.4917134531
 31
0.0
  0
LINE
  5
3B3
330
1F
100
AcDbEntity
  8
0
  6
Continuous
 62
     7
370
    25
100
AcDbLine
 10
15.7436929389
 20
1.0822646577
 30
0.0
 11
15.9932992687
 21
1.0822646577
 31
0.0
  0
LINE
  5
3B4
330
1F
100
AcDbEntity
  8
0
  6
Continuous
 62
     7
370
    25
100
AcDbLine
 10
15.7436929389
 20
1.8696663616
 30
0.0
 11
15.7436929389
 21
1.0822646577
 31
0.0
  0
LINE
  5
3B5
330
1F
100
AcDbEntity
  8
0
  6
Continuous
 62
     7
370
    25
100
AcDbLine
 10
15.9932992687
 20
1.8696663616
 30
0.0
 11
15.7436929389
 21
1.8696663616
 31
0.0
  0
LINE
  5
3B6
330
1F
100
AcDbEntity
  8
0
  6
Continuous
 62
     7
370
    25
100
AcDbLine
 10
15.9932992687
 20
3.050768624
 30
0.0
 11
15.9932992687
 21
1.8696663616
 31
0.0
  0
LINE
  5
3B7
330
1F
100
AcDbEntity
  8
0
  6
Continuous
 62
     7
370
    25
100
AcDbLine
 10
15.7436929389
 20
3.050768624
 30
0.0
 11
15.9932992687
 21
3.050768624
 31
0.0
  0
LINE
  5
3B8
330
1F
100
AcDbEntity
  8
0
  6
Continuous
 62
     7
370
    25
100
AcDbLine
 10
15.7436929389
 20
3.8381702546
 30
0.0
 11
15.7436929389
 21
3.050768624
 31
0.0
  0
LINE
  5
3B9
330
1F
100
AcDbEntity
  8
0
  6
Continuous
 62
     7
370
    25
100
AcDbLine
 10
15.9932992687
 20
3.8381702546
 30
0.0
 11
15.7436929389
 21
3.8381702546
 31
0.0
  0
LINE
  5
3BA
330
1F
100
AcDbEntity
  8
0
  6
Continuous
 62
     7
370
    25
100
AcDbLine
 10
15.9932992687
 20
5.0192725904
 30
0.0
 11
15.9932992687
 21
3.8381702546
 31
0.0
  0
ARC
  5
3BB
330
1F
100
AcDbEntity
  8
0
  6
Continuous
 62
     7
370
    25
100
AcDbCircle
 10
12.5556638381
 20
10.9363155127
 30
0.0
 40
0.0787401574803148
100
AcDbArc
 50
180.0
 51
270.0
  0
ARC
  5
3BC
330
1F
100
AcDbEntity
  8
0
  6
Continuous
 62
     7
370
    25
100
AcDbCircle
 10
12.5556638381
 20
11.7630871662
 30
0.0
 40
0.0787401574803148
100
AcDbArc
 50
90.0
 51
180.0
  0
ARC
  5
3BD
330
1F
100
AcDbEntity
  8
0
  6
Continuous
 62
     7
370
    25
100
AcDbCircle
 10
13.9729866727
 20
11.7630871662
 30
0.0
 40
0.0787401574803148
100
AcDbArc
 50
0.0
 51
90.0
  0
ARC
  5
3BE
330
1F
100
AcDbEntity
  8
0
  6
Continuous
 62
     7
370
    25
100
AcDbCircle
 10
13.9729866727
 20
10.9363155127
 30
0.0
 40
0.0787401574803148
100
AcDbArc
 50
270.0
 51
0.0
  0
CIRCLE
  5
3BF
330
1F
100
AcDbEntity
  8
0
  6
Continuous
 62
     7
370
    25
100
AcDbCircle
 10
12.6344039956
 20
11.0150556702
 30
0.0
 40
0.0720472440944864
  0
CIRCLE
  5
3C0
330
1F
100
AcDbEntity
  8
0
  6
Continuous
 62
     7
370
    25
100
AcDbCircle
 10
12.6344039956
 20
11.6843470088
 30
0.0
 40
0.0720472440944881
  0
CIRCLE
  5
3C1
330
1F
100
AcDbEntity
  8
0
  6
Continuous
 62
     7
370
    25
100
AcDbCircle
 10
13.8942465153
 20
11.6843470088
 30
0.0
 40
0.0720472440944881
  0
CIRCLE
  5
3C2
330
1F
100
AcDbEntity
  8
0
  6
Continuous
 62
     7
370
    25
100
AcDbCircle
 10
13.8942465153
 20
11.0150556702
 30
0.0
 40
0.0720472440944881
  0
LINE
  5
3C3
330
1F
100
AcDbEntity
  8
0
  6
Continuous
 62
     7
370
    25
100
AcDbLine
 10
12.4769236982
 20
11.7630871607
 30
0.0
 11
12.4769236982
 21
10.9363155183
 31
0.0
  0
LINE
  5
3C4
330
1F
100
AcDbEntity
  8
0
  6
Continuous
 62
     7
370
    25
100
AcDbLine
 10
13.9729866422
 20
11.841827331
 30
0.0
 11
12.5556638686
 21
11.841827331
 31
0.0
  0
LINE
  5
3C5
330
1F
100
AcDbEntity
  8
0
  6
Continuous
 62
     7
370
    25
100
AcDbLine
 10
14.0517268126
 20
10.9363155183
 30
0.0
 11
14.0517268126
 21
11.7630871607
 31
0.0
  0
LINE
  5
3C6
330
1F
100
AcDbEntity
  8
0
  6
Continuous
 62
     7
370
    25
100
AcDbLine
 10
12.5556638686
 20
10.8575753479
 30
0.0
 11
13.9729866422
 21
10.8575753479
 31
0.0
  0
CIRCLE
  5
3C7
330
1F
100
AcDbEntity
  8
0
  6
Continuous
 62
     7
370
    25
100
AcDbCircle
 10
18.7065238138
 20
4.6416767166
 30
0.0
 40
0.25
  0
CIRCLE
  5
3C8
330
1F
100
AcDbEntity
  8
0
  6
Continuous
 62
     7
370
    25
100
AcDbCircle
 10
18.7065238138
 20
6.6101806536
 30
0.0
 40
0.25
  0
LINE
  5
3C9
330
1F
100
AcDbEntity
  8
0
  6
Continuous
 62
     7
370
    25
100
AcDbLine
 10
17.9191222566
 20
3.066873567
 30
0.0
 11
19.493925371
 21
3.066873567
 31
0.0
  0
LINE
  5
3CA
330
1F
100
AcDbEntity
  8
0
  6
Continuous
 62
     7
370
    25
100
AcDbLine
 10
17.9191222566
 20
4.2479759028
 30
0.0
 11
17.9191222566
 21
3.066873567
 31
0.0
  0
LINE
  5
3CB
330
1F
100
AcDbEntity
  8
0
  6
Continuous
 62
     7
370
    25
100
AcDbLine
 10
17.6695159267
 20
4.2479759028
 30
0.0
 11
17.9191222566
 21
4.2479759028
 31
0.0
  0
LINE
  5
3CC
330
1F
100
AcDbEntity
  8
0
  6
Continuous
 62
     7
370
    25
100
AcDbLine
 10
17.6695159267
 20
5.0353775334
 30
0.0
 11
17.6695159267
 21
4.2479759028
 31
0.0
  0
LINE
  5
3CD
330
1F
100
AcDbEntity
  8
0
  6
Continuous
 62
     7
370
    25
100
AcDbLine
 10
17.9191222566
 20
5.0353775334
 30
0.0
 11
17.6695159267
 21
5.0353775334
 31
0.0
  0
LINE
  5
3CE
330
1F
100
AcDbEntity
  8
0
  6
Continuous
 62
     7
370
    25
100
AcDbLine
 10
17.9191222566
 20
6.2164797958
 30
0.0
 11
17.9191222566
 21
5.0353775334
 31
0.0
  0
LINE
  5
3CF
330
1F
100
AcDbEntity
  8
0
  6
Continuous
 62
     7
370
    25
100
AcDbLine
 10
17.6695159267
 20
6.2164797958
 30
0.0
 11
17.9191222566
 21
6.2164797958
 31
0.0
  0
LINE
  5
3D0
330
1F
100
AcDbEntity
  8
0
  6
Continuous
 62
     7
370
    25
100
AcDbLine
 10
17.6695159267
 20
7.0038814997
 30
0.0
 11
17.6695159267
 21
6.2164797958
 31
0.0
  0
LINE
  5
3D1
330
1F
100
AcDbEntity
  8
0
  6
Continuous
 62
     7
370
    25
100
AcDbLine
 10
17.9191222566
 20
7.0038814997
 30
0.0
 11
17.6695159267
 21
7.0038814997
 31
0.0
  0
LINE
  5
3D2
330
1F
100
AcDbEntity
  8
0
  6
Continuous
 62
     7
370
    25
100
AcDbLine
 10
17.9191222566
 20
7.5944327043
 30
0.0
 11
17.9191222566
 21
7.0038814997
 31
0.0
  0
LINE
  5
3D3
330
1F
100
AcDbEntity
  8
0
  6
Continuous
 62
     7
370
    25
100
AcDbLine
 10
19.493925371
 20
7.5944327043
 30
0.0
 11
17.9191222566
 21
7.5944327043
 31
0.0
  0
LINE
  5
3D4
330
1F
100
AcDbEntity
  8
0
  6
Continuous
 62
     7
370
    25
100
AcDbLine
 10
19.493925371
 20
7.0038814997
 30
0.0
 11
19.493925371
 21
7.5944327043
 31
0.0
  0
LINE
  5
3D5
330
1F
100
AcDbEntity
  8
0
  6
Continuous
 62
     7
370
    25
100
AcDbLine
 10
19.7435317009
 20
7.0038814997
 30
0.0
 11
19.493925371
 21
7.0038814997
 31
0.0
  0
LINE
  5
3D6
330
1F
100
AcDbEntity
  8
0
  6
Continuous
 62
     7
370
    25
100
AcDbLine
 10
19.7435317009
 20
6.2164797958
 30
0.0
 11
19.7435317009
 21
7.0038814997
 31
0.0
  0
LINE
  5
3D7
330
1F
100
AcDbEntity
  8
0
  6
Continuous
 62
     7
370
    25
100
AcDbLine
 10
19.493925371
 20
6.2164797958
 30
0.0
 11
19.7435317009
 21
6.2164797958
 31
0.0
  0
LINE
  5
3D8
330
1F
100
AcDbEntity
  8
0
  6
Continuous
 62
     7
370
    25
100
AcDbLine
 10
19.493925371
 20
5.0353775334
 30
0.0
 11
19.493925371
 21
6.2164797958
 31
0.0
  0
LINE
  5
3D9
330
1F
100
AcDbEntity
  8
0
  6
Continuous
 62
     7
370
    25
100
AcDbLine
 10
19.7435317009
 20
5.0353775334
 30
0.0
 11
19.493925371
 21
5.0353775334
 31
0.0
  0
LINE
  5
3DA
330
1F
100
AcDbEntity
  8
0
  6
Continuous
 62
     7
370
    25
100
AcDbLine
 10
19.7435317009
 20
4.2479759028
 30
0.0
 11
19.7435317009
 21
5.0353775334
 31
0.0
  0
LINE
  5
3DB
330
1F
100
AcDbEntity
  8
0
  6
Continuous
 62
     7
370
    25
100
AcDbLine
 10
19.493925371
 20
4.2479759028
 30
0.0
 11
19.7435317009
 21
4.2479759028
 31
0.0
  0
LINE
  5
3DC
330
1F
100
AcDbEntity
  8
0
  6
Continuous
 62
     7
370
    25
100
AcDbLine
 10
19.493925371
 20
3.066873567
 30
0.0
 11
19.493925371
 21
4.2479759028
 31
0.0
  0
MTEXT
  5
3DE
330
1F
100
AcDbEntity
  8
0
  6
Continuous
 62
     7
100
AcDbMText
 10
0.0
 20
0.7720139504
 30
0.0
 40
0.2768
 41
0.0
 71
     1
 72
     1
  1
Produit d'ducation SOLIDWORKS  A titre ducatif uniquement.
  7
SLDTEXTSTYLE0
 73
     1
 44
1.0
  0
ENDSEC
  0
SECTION
  2
OBJECTS
  0
DICTIONARY
  5
C
330
0
100
AcDbDictionary
281
     1
  3
ACAD_GROUP
350
D
  3
ACAD_LAYOUT
350
1A
  3
ACAD_MLINESTYLE
350
17
  3
ACAD_PLOTSETTINGS
350
19
  3
ACAD_PLOTSTYLENAME
350
E
  3
ACAD_SCALELIST
350
47
  0
DICTIONARY
  5
D
102
{ACAD_REACTORS
330
C
102
}
330
C
100
AcDbDictionary
281
     1
  0
DICTIONARY
  5
1A
102
{ACAD_REACTORS
330
C
102
}
330
C
100
AcDbDictionary
281
     1
  3
Layout1
350
1E
  3
Layout2
350
26
  3
Model
350
22
  0
DICTIONARY
  5
17
102
{ACAD_REACTORS
330
C
102
}
330
C
100
AcDbDictionary
281
     1
  3
Standard
350
18
  0
DICTIONARY
  5
19
102
{ACAD_REACTORS
330
C
102
}
330
C
100
AcDbDictionary
281
     1
  0
ACDBDICTIONARYWDFLT
  5
E
102
{ACAD_REACTORS
330
C
102
}
330
C
100
AcDbDictionary
281
     1
  3
Normal
350
F
100
AcDbDictionaryWithDefault
340
F
  0
DICTIONARY
  5
47
102
{ACAD_REACTORS
330
C
102
}
330
C
100
AcDbDictionary
281
     1
  3
A0
350
48
  3
A1
350
49
  3
A2
350
4A
  3
A3
350
4B
  3
A4
350
4C
  3
A5
350
4D
  3
A6
350
4E
  3
A7
350
4F
  3
A8
350
50
  3
A9
350
51
  3
B0
350
52
  3
B1
350
53
  3
B2
350
54
  3
B3
350
55
  3
B4
350
56
  3
B5
350
57
  3
B6
350
58
  3
B7
350
59
  3
B8
350
5A
  3
B9
350
5B
  3
C0
350
5C
  3
C1
350
5D
  3
C2
350
5E
  3
C3
350
5F
  3
C4
350
60
  3
C5
350
61
  3
C6
350
62
  3
C7
350
63
  3
C8
350
64
  3
C9
350
65
  3
D0
350
66
  3
D1
350
67
  3
D2
350
68
  0
LAYOUT
  5
1E
102
{ACAD_REACTORS
330
1A
102
}
330
1A
100
AcDbPlotSettings
  1

  2
none_device
  4

  6

 40
0.0
 41
0.0
 42
0.0
 43
0.0
 44
0.0
 45
0.0
 46
0.0
 47
0.0
 48
0.0
 49
0.0
140
0.0
141
0.0
142
1.0
143
1.0
 70
   688
 72
     0
 73
     0
 74
     5
  7

 75
    16
147
1.0
148
0.0
149
0.0
100
AcDbLayout
  1
Layout1
 70
     1
 71
     1
 10
0.0
 20
0.0
 11
12.0
 21
9.0
 12
0.0
 22
0.0
 32
0.0
 14
1.0000000000E+20
 24
1.0000000000E+20
 34
1.0000000000E+20
 15
-1.0000000000E+20
 25
-1.0000000000E+20
 35
-1.0000000000E+20
146
0.0
 13
0.0
 23
0.0
 33
0.0
 16
1.0
 26
0.0
 36
0.0
 17
0.0
 27
1.0
 37
0.0
 76
     0
330
1B
  0
LAYOUT
  5
26
102
{ACAD_REACTORS
330
1A
102
}
330
1A
100
AcDbPlotSettings
  1

  2
none_device
  4

  6

 40
0.0
 41
0.0
 42
0.0
 43
0.0
 44
0.0
 45
0.0
 46
0.0
 47
0.0
 48
0.0
 49
0.0
140
0.0
141
0.0
142
1.0
143
1.0
 70
   688
 72
     0
 73
     0
 74
     5
  7

 75
    16
147
1.0
148
0.0
149
0.0
100
AcDbLayout
  1
Layout2
 70
     1
 71
     2
 10
0.0
 20
0.0
 11
0.0
 21
0.0
 12
0.0
 22
0.0
 32
0.0
 14
0.0
 24
0.0
 34
0.0
 15
0.0
 25
0.0
 35
0.0
146
0.0
 13
0.0
 23
0.0
 33
0.0
 16
1.0
 26
0.0
 36
0.0
 17
0.0
 27
1.0
 37
0.0
 76
     0
330
23
  0
LAYOUT
  5
22
102
{ACAD_REACTORS
330
1A
102
}
330
1A
100
AcDbPlotSettings
  1

  2
none_device
  4
Letter_(8.50_x_11.00_Inches)
  6

 40
6.35
 41
6.35
 42
6.35000508
 43
6.35000508
 44
215.9
 45
279.4
 46
0.0
 47
0.0
 48
0.0
 49
0.0
140
0.0
141
0.0
142
1.0
143
1.0
 70
  1712
 72
     0
 73
     0
 74
     0
  7

 75
     0
147
1.0
148
0.0
149
0.0
100
AcDbLayout
  1
Model
 70
     1
 71
     0
 10
0.0
 20
0.0
 11
24.0
 21
16.0
 12
0.0
 22
0.0
 32
0.0
 14
0.0
 24
0.0
 34
0.0
 15
24.0
 25
16.0
 35
0.0
146
0.0
 13
0.0
 23
0.0
 33
0.0
 16
1.0
 26
0.0
 36
0.0
 17
0.0
 27
1.0
 37
0.0
 76
     0
330
1F
331
29
  0
MLINESTYLE
  5
18
102
{ACAD_REACTORS
330
17
102
}
330
17
100
AcDbMlineStyle
  2
Standard
 70
     0
  3

 62
   256
 51
90.0
 52
90.0
 71
     2
 49
0.5
 62
   256
  6
BYLAYER
 49
-0.5
 62
   256
  6
BYLAYER
  0
ACDBPLACEHOLDER
  5
F
102
{ACAD_REACTORS
330
E
102
}
330
E
  0
SCALE
  5
48
102
{ACAD_REACTORS
330
47
102
}
330
47
100
AcDbScale
 70
     0
300
1:1
140
1.0
141
1.0
290
     1
  0
SCALE
  5
49
102
{ACAD_REACTORS
330
47
102
}
330
47
100
AcDbScale
 70
     0
300
1:2
140
1.0
141
2.0
290
     0
  0
SCALE
  5
4A
102
{ACAD_REACTORS
330
47
102
}
330
47
100
AcDbScale
 70
     0
300
1:4
140
1.0
141
4.0
290
     0
  0
SCALE
  5
4B
102
{ACAD_REACTORS
330
47
102
}
330
47
100
AcDbScale
 70
     0
300
1:5
140
1.0
141
5.0
290
     0
  0
SCALE
  5
4C
102
{ACAD_REACTORS
330
47
102
}
330
47
100
AcDbScale
 70
     0
300
1:8
140
1.0
141
8.0
290
     0
  0
SCALE
  5
4D
102
{ACAD_REACTORS
330
47
102
}
330
47
100
AcDbScale
 70
     0
300
1:10
140
1.0
141
10.0
290
     0
  0
SCALE
  5
4E
102
{ACAD_REACTORS
330
47
102
}
330
47
100
AcDbScale
 70
     0
300
1:16
140
1.0
141
16.0
290
     0
  0
SCALE
  5
4F
102
{ACAD_REACTORS
330
47
102
}
330
47
100
AcDbScale
 70
     0
300
1:20
140
1.0
141
20.0
290
     0
  0
SCALE
  5
50
102
{ACAD_REACTORS
330
47
102
}
330
47
100
AcDbScale
 70
     0
300
1:30
140
1.0
141
30.0
290
     0
  0
SCALE
  5
51
102
{ACAD_REACTORS
330
47
102
}
330
47
100
AcDbScale
 70
     0
300
1:40
140
1.0
141
40.0
290
     0
  0
SCALE
  5
52
102
{ACAD_REACTORS
330
47
102
}
330
47
100
AcDbScale
 70
     0
300
1:50
140
1.0
141
50.0
290
     0
  0
SCALE
  5
53
102
{ACAD_REACTORS
330
47
102
}
330
47
100
AcDbScale
 70
     0
300
1:100
140
1.0
141
100.0
290
     0
  0
SCALE
  5
54
102
{ACAD_REACTORS
330
47
102
}
330
47
100
AcDbScale
 70
     0
300
2:1
140
2.0
141
1.0
290
     0
  0
SCALE
  5
55
102
{ACAD_REACTORS
330
47
102
}
330
47
100
AcDbScale
 70
     0
300
4:1
140
4.0
141
1.0
290
     0
  0
SCALE
  5
56
102
{ACAD_REACTORS
330
47
102
}
330
47
100
AcDbScale
 70
     0
300
8:1
140
8.0
141
1.0
290
     0
  0
SCALE
  5
57
102
{ACAD_REACTORS
330
47
102
}
330
47
100
AcDbScale
 70
     0
300
10:1
140
10.0
141
1.0
290
     0
  0
SCALE
  5
58
102
{ACAD_REACTORS
330
47
102
}
330
47
100
AcDbScale
 70
     0
300
100:1
140
100.0
141
1.0
290
     0
  0
SCALE
  5
59
102
{ACAD_REACTORS
330
47
102
}
330
47
100
AcDbScale
 70
     0
300
1/128" = 1'-0"
140
0.0078125
141
12.0
290
     0
  0
SCALE
  5
5A
102
{ACAD_REACTORS
330
47
102
}
330
47
100
AcDbScale
 70
     0
300
1/64" = 1'-0"
140
0.015625
141
12.0
290
     0
  0
SCALE
  5
5B
102
{ACAD_REACTORS
330
47
102
}
330
47
100
AcDbScale
 70
     0
300
1/32" = 1'-0"
140
0.03125
141
12.0
290
     0
  0
SCALE
  5
5C
102
{ACAD_REACTORS
330
47
102
}
330
47
100
AcDbScale
 70
     0
300
1/16" = 1'-0"
140
0.0625
141
12.0
290
     0
  0
SCALE
  5
5D
102
{ACAD_REACTORS
330
47
102
}
330
47
100
AcDbScale
 70
     0
300
3/32" = 1'-0"
140
0.09375
141
12.0
290
     0
  0
SCALE
  5
5E
102
{ACAD_REACTORS
330
47
102
}
330
47
100
AcDbScale
 70
     0
300
1/8" = 1'-0"
140
0.125
141
12.0
290
     0
  0
SCALE
  5
5F
102
{ACAD_REACTORS
330
47
102
}
330
47
100
AcDbScale
 70
     0
300
3/16" = 1'-0"
140
0.1875
141
12.0
290
     0
  0
SCALE
  5
60
102
{ACAD_REACTORS
330
47
102
}
330
47
100
AcDbScale
 70
     0
300
1/4" = 1'-0"
140
0.25
141
12.0
290
     0
  0
SCALE
  5
61
102
{ACAD_REACTORS
330
47
102
}
330
47
100
AcDbScale
 70
     0
300
3/8" = 1'-0"
140
0.375
141
12.0
290
     0
  0
SCALE
  5
62
102
{ACAD_REACTORS
330
47
102
}
330
47
100
AcDbScale
 70
     0
300
1/2" = 1'-0"
140
0.5
141
12.0
290
     0
  0
SCALE
  5
63
102
{ACAD_REACTORS
330
47
102
}
330
47
100
AcDbScale
 70
     0
300
3/4" = 1'-0"
140
0.75
141
12.0
290
     0
  0
SCALE
  5
64
102
{ACAD_REACTORS
330
47
102
}
330
47
100
AcDbScale
 70
     0
300
1" = 1'-0"
140
1.0
141
12.0
290
     0
  0
SCALE
  5
65
102
{ACAD_REACTORS
330
47
102
}
330
47
100
AcDbScale
 70
     0
300
1-1/2" = 1'-0"
140
1.5
141
12.0
290
     0
  0
SCALE
  5
66
102
{ACAD_REACTORS
330
47
102
}
330
47
100
AcDbScale
 70
     0
300
3" = 1'-0"
140
3.0
141
12.0
290
     0
  0
SCALE
  5
67
102
{ACAD_REACTORS
330
47
102
}
330
47
100
AcDbScale
 70
     0
300
6" = 1'-0"
140
6.0
141
12.0
290
     0
  0
SCALE
  5
68
102
{ACAD_REACTORS
330
47
102
}
330
47
100
AcDbScale
 70
     0
300
1'-0" = 1'-0"
140
12.0
141
12.0
290
     0
  0
ENDSEC
  0
EOF
